/* XPM */
static char *_3185_64f062517593780df14b5532b8f1915b266581fda9b0ebe92b641b973380bed6[] = {
/* columns rows colors chars-per-pixel */
"40 40 200 2 ",
"   c #3B1E0C",
".  c #371C0B",
"X  c #391F10",
"o  c #3D200F",
"O  c #3B2111",
"+  c #32231A",
"@  c #3C2618",
"#  c #1F2123",
"$  c #212122",
"%  c #2B2D2E",
"&  c #2D2F31",
"*  c #393A3A",
"=  c #37322E",
"-  c #411E0B",
";  c #4D230E",
":  c #45230F",
">  c #57280F",
",  c #452512",
"<  c #4A2612",
"1  c #4C2A16",
"2  c #4E2D1A",
"3  c #552E15",
"4  c #5A2D14",
"5  c #532D18",
"6  c #5A2E18",
"7  c #5A3117",
"8  c #54311B",
"9  c #5D331B",
"0  c #6E2E13",
"q  c #622E12",
"w  c #643416",
"e  c #6B3516",
"r  c #62361B",
"t  c #6A341A",
"y  c #64381C",
"u  c #6C3B1D",
"i  c #743B1B",
"p  c #7B3D1A",
"a  c #743615",
"s  c #702F11",
"d  c #453226",
"f  c #49372C",
"g  c #5D3720",
"h  c #5C3923",
"j  c #563A29",
"k  c #49382D",
"l  c #663A20",
"z  c #6C3E22",
"x  c #643F28",
"c  c #733D21",
"v  c #7A3E22",
"b  c #7D411D",
"n  c #48413C",
"m  c #57453A",
"M  c #5D412F",
"N  c #6E4124",
"B  c #66422C",
"V  c #69442E",
"C  c #764223",
"Z  c #7A4223",
"A  c #7B4628",
"S  c #7E492A",
"D  c #694B39",
"F  c #744D37",
"G  c #78513A",
"H  c #3E4042",
"J  c #434343",
"K  c #46494A",
"L  c #4B4C4D",
"P  c #464748",
"I  c #554C46",
"U  c #574F4A",
"Y  c #5D524B",
"T  c #535353",
"R  c #595A5A",
"E  c #6E5344",
"W  c #64554B",
"Q  c #7B5D4C",
"!  c #7B5640",
"~  c #6C5E56",
"^  c #675C57",
"/  c #68605C",
"(  c #73645B",
")  c #79655A",
"_  c #7E6A5E",
"`  c #5D5F60",
"'  c #5E6062",
"]  c #616364",
"[  c #6A6B6C",
"{  c #696867",
"}  c #7B6D65",
"|  c #776A62",
" . c #6C6F71",
".. c #747575",
"X. c #76797B",
"o. c #7A7C7C",
"O. c #787776",
"+. c #76716E",
"@. c #803D1B",
"#. c #83421E",
"$. c #89451E",
"%. c #824625",
"&. c #864927",
"*. c #8C4A22",
"=. c #834B2A",
"-. c #8C4E2B",
";. c #8A4720",
":. c #924D24",
">. c #8E522D",
",. c #92532E",
"<. c #9D592F",
"1. c #975529",
"2. c #89593E",
"3. c #935530",
"4. c #975832",
"5. c #9D5B32",
"6. c #905C3E",
"7. c #A55B2B",
"8. c #A85D2C",
"9. c #A35727",
"0. c #A05D31",
"q. c #AD622E",
"w. c #A56033",
"e. c #AA6436",
"r. c #AA6539",
"t. c #AF6A3C",
"y. c #B06B3D",
"u. c #845B45",
"i. c #8B5942",
"p. c #925F42",
"a. c #8C6249",
"s. c #95664B",
"d. c #98684B",
"f. c #886654",
"g. c #966B54",
"h. c #956C54",
"j. c #98705B",
"k. c #A66E4A",
"l. c #AD7A59",
"z. c #A77657",
"x. c #AA724C",
"c. c #8D796D",
"v. c #85746C",
"b. c #957360",
"n. c #987A6B",
"m. c #8C7D74",
"M. c #847A75",
"N. c #A37E65",
"B. c #88807B",
"V. c #938278",
"C. c #948379",
"Z. c #A58674",
"A. c #B38E76",
"S. c #7B7F81",
"D. c #7E8284",
"F. c #828384",
"G. c #8B8D8E",
"H. c #85898B",
"J. c #908F8E",
"K. c #9B8B83",
"L. c #8D8F90",
"P. c #969A9C",
"I. c #9A9B9C",
"U. c #939291",
"Y. c #8F9091",
"T. c #A48F83",
"R. c #A18F88",
"E. c #A39085",
"W. c #A5948B",
"Q. c #AA978C",
"!. c #AC9688",
"~. c #B09C8F",
"^. c #A09F9E",
"/. c #B19E91",
"(. c #A1A09F",
"). c #B6A49B",
"_. c #BCA99E",
"`. c #BBA799",
"'. c #9A9FA1",
"]. c #9EA1A3",
"[. c #A1A3A4",
"{. c #ACABAA",
"}. c #A4A7A9",
"|. c #ADB1B3",
" X c #B6BABC",
".X c #B9BBBC",
"XX c #B1B5B7",
"oX c #C4B0A3",
"OX c #C2C1BF",
"+X c #BABFC1",
"@X c #BEC2C5",
"#X c #C4C4C4",
"$X c #C6CBCD",
"%X c #C7C7C8",
"&X c #CBCFD1",
"*X c #CED2D5",
"=X c #D1D5D6",
"-X c #D3D7D9",
";X c #D6D9DA",
":X c None",
/* pixels */
":X:X:X:X].].].}. X#X-X*X*X#XXX.X.X X.X}.].].].].].G.G.L.F.X.o.o.[ ` ' ' :X:X:X:X",
":X:X:X:Xm.m.m.m.K.W.).).`./.E.E.T.E.W.V.V.m.m.v.v.| } } ( / / ^ Y U I I :X:X:X:X",
":X:X:X:Xe e e e > q a #.1.:.*.p a i i e e t w ; < 3 3 > > 7 ;   , < o . :X:X:X:X",
":X:X:X:XC i C C t c >.,.5.5.4.Z i A %.A C z u 6 6 9 r 9 9 9 3 ; 1 2 O O :X:X:X:X",
":X:XC C C C Z b t v 0.0.8.0.0.v t Z &.A Z v i 6 7 7 y y y y 7 < 2 2 : o O O :X:X",
":X:XZ C C C %.A t v <.0.w.0.<.v t %.&.&.&.Z u 6 7 u N w 9 y 7 , 7 9 2 < O O :X:X",
":X:XC b b Z &.%.t p 5.0.w.0.0.v 0 %.&.-.-.Z u 6 w b u 7 9 y 3 , 7 y 7 5 O o :X:X",
":X:XC C C C %.%.t v <.0.0.0.0.v t Z &.-.-.Z u 6 7 C N 9 y y 7 , 7 y 5 2 O O :X:X",
":X:XA C Z Z &.%.t v 7.5.0.0.0.v t A =.-.>.A u 7 9 C u 9 y y 8 < 7 y 7 1 O O :X:X",
":X:Xb b p p $.#.e p 7.7.8.7.8.@.0 #.*.:.:.b e 4 4 i i w w w 3 ; 7 w 7 3   . :X:X",
":X:Xh.a.g.g.j.z.s.g.z.l.l.l.z.s.u.s.d.d.d.u.u.F G u.! D D G V M D D M j d d :X:X",
"I.I.|.+X=X=X=X=X-X&XXX X X X X X.X.X X}.].].].].].[.P.G.L.Y.D.X.X.X.[ ' ] ] T T ",
"U.J.].|.#X%X%X%X%XOX}.{.{.{.{.{.{.{.{.U.G.J.J.J.U.U.F.o.o.S...{ [ [ R L T L H H ",
"X.X.Y.].%X&X$X&X$X+X'.'.'.I.'.'.'.'.'.S.X.o.o.X.X.o. .' ' ' T K L L * % & % # # ",
"Q Q f.j.Z.Z.n.N.A.A.N.N.N.j.f.b.j.b.b.f.f.Q Q Q Q E E E D D m M j k j f d d + + ",
"#.b b b $.$.s a 7.7.q.8.8.:.0 #.*.:.:.:.$.b i b i 4 w Z b y e u 4 ; w e 7 1 O X ",
"=.=.=.=.,.-.v %.e.r.t.t.e.,.v -.3.3.4.3.>.S A S A l z S c z z z 9 5 l z g 2 O O ",
"=.=.=.-.,.i.v %.e.r.t.t.r.,.v -.3.4.5.3.3.S S S v r c S A x z z g 5 l z g g X O ",
"=.=.=.=.-.,.v %.e.r.y.q.e.3.c -.3.4.5.3.3.=.S S A 9 c =.A z z V r 5 l N g g X O ",
"=.=.=.=.,.,.%.%.r.r.k.r.r.3.c -.3.4.5.3.>.=.A S A l z =.A z z C g 5 l N g 2 X X ",
"=.=.=.-.3.-.v %.r.r.t.r.r.<.v -.3.4.5.6.3.S S S A l z S V z z z 9 5 l N h 8 O O ",
"=.=.=.=.3.3.v %.e.r.y.r.e.,.c -.3.4.4.3.>.=.S S A l z S A z z N 9 5 l N 9 2 O O ",
"=.=.=.=.3.-.%.%.r.r.y.t.k.<.v -.3.4.4.3.3.S S S A t z =.A z N N g 8 y N h 8 O O ",
"=.=.=.=.,.,.v %.0.r.t.r.8.,.v -.3.3.5.3.>.=.S S v g z S C z z z 9 2 y N h 8 O o ",
"%.@.@.@.%.$.0 @.9.7.q.8.8.:.0 #.*.:.:.:.*.v i p c 4 t v i w t t 3 ; 7 e 7 1 . o ",
"V.V.R.Q._._.).).oX_.~.~.~.!.R.Q.Q.Q.Q.C.C.V.V.V.m.m.v.v.v.} | ( ( / W W Y U n n ",
"].].|.+X*X-X-X-X;X&X X X X X+X X.X X X[.].].].].[.[.P.G.G.J.D.X.X.o.{ ` ' ` T T ",
"D.D.U.[.#X#X#X#X#X.X'.^.(.(.^.(.^.[.[.H.M.F.F.M.F.F.O.{ [ [ ] T Y R P * H * & = ",
"O...G.[.@X%X%X#X%X+XP.P.I.I.I.I.I.I.I.o.X.X.X.X.O.O. .R ` / T K P L * % & % $ $ ",
":X:X2.2.i.p.s.s.i.p.k.k.x.k.k.6.G 6.p.6.p.=.F x V G F B V V h d h B 8 d @ @ :X:X",
":X:Xv v v @.;.$.0 @.0.8.8.8.0.@.0 ;.*.:.1.Z i 4 w b i y y y 4 ; 7 u 9 3 O O :X:X",
":X:XA v v v &.%.t v 0.5.e.0.5.v t A -.-.-.C i 6 9 C u r r y 7 , 8 y 3 2 O O :X:X",
":X:XC Z b C &.S e p <.5.0.0.0.v t Z &.:.-.Z i 6 6 c u r r r 7 , 7 y 7 1 O O :X:X",
":X:XZ C C C &.%.e c 5.7.0.0.7.Z t %.&.-.-.C u 6 9 c u r 9 y 7 , 7 r 7 1 O O :X:X",
":X:XC b b C &.Z t v 5.0.0.0.5.v t Z &.&.-.C u 6 8 b u 9 y y 7 , 7 9 1 1 O @ :X:X",
":X:XC C C C Z C t v <.0.e.0.<.v t %.&.A Z C u 6 7 9 r y 7 y 7 < 1 3 @ O O O :X:X",
":X:X:X:Xc z C u 7 y S >.5.1.,.%.i A A C C N e 4 3 7 7 9 9 9 1 , , 1 o o :X:X:X:X",
":X:X:X:Xe e e w ; > i %.1.:.:.p a p p a e e w ; ; 6 4 4 3 7 < o , 1 : o :X:X:X:X",
":X:X:X:X) ) ) _ v.c.E.Z.!.Z.n.c.c.c.c._ ) ) ( / ~ W W W Y m n m n f = = :X:X:X:X",
":X:X:X:XF.F.D.H.].{.$X@X@X|.P.].}.].].H.H.F.D.F.D.[ [  ./ R R ` L H J J :X:X:X:X"
};
