/* XPM */
static char *result[] = {
/* columns rows colors chars-per-pixel */
"70 70 25 1 ",
"  c black",
". c #010000",
"X c #000100",
"o c #010100",
"O c #000001",
"+ c #010001",
"@ c #000101",
"# c #010101",
"$ c #020000",
"% c #030000",
"& c #000200",
"* c #000300",
"= c #020200",
"- c #000002",
"; c #000003",
": c #020002",
"> c #000202",
", c #FEA600",
"< c #FFA600",
"1 c #FEA700",
"2 c #FFA700",
"3 c #FEA601",
"4 c #FFA601",
"5 c #FFA701",
"6 c None",
/* pixels */
"<<<<4<<<<<<<<<<<4<<2<<<<<<<<<<<<<<<<<<<<4<<<<<<<<<<<<<<<<<<<<<<<<<<<<<",
"<<<<<<<6666666<<4<<<<<<<<<<<<<<<<<<<<<<<<<<<<<<<<<<<<<<<<<<<<<<<<6<<<,",
"<<<<<66666662<<,4<<<<<<<4,<<<<<<<<<<44<<<<<,<<,<2<<<<6<<<<<<<<<6<6<<<<",
"<<<<6  +  . + 666<<<<<<<<<<,<<6<<3<<<<<<<<4<<<<<<<<6<6<<<<<<<<66< <<6<",
"<<<6 O XOO# <<2<<<<<<<<<,,<<66666<<666,<<<<<<<<<<4662.<<64<<<<6+2O<<6<",
"<<<6 +XX#XXX o O66<<<<<<<<6 66 66666666<<<<<<<<<<<6O<O<<6<<<<<.+<.<X66",
"<<6 O@ #X  X    @4<<<,<<<6 6  6  6 . X6664<<<<<<<<@O< <X66<<<< O+ @  6",
"<<6OO #XO  ......<<2<<<<66O 6O#6@;XO6 X666<4<<<<<< O@ oXO6<<<<XOOOXX.6",
"<<. o #XoO.XX@X<<<4<<<<66O 6#XXX   ## XX66<<4<<<<< O@ XX 6<<<4X+  X X6",
"<6OO @XX. @###66<<<<<266XX6#@XX  ..#Xo   66<<<<<2< +O XX.6<<<  OO+ X 6",
"<6OX #oXX+..  <<<<<<<<6O6&#XO..+oXOXX#..o 66<<<<< @O+  X 6<<4. X+# XX6",
"<.OX OX@  X     .<,<<6O-.#O X .OXXOOXXX@..66<<<<4. OOXX# 6<<<O6  X @X6",
"<.@ #  +.  <<<<<<<<<<6O6 #XX .  @.6#+#Xo@.X66<<<< .OX#XX 6<<< 6 +@ XXX",
"< XO#XoXX <2<<4<,<<<< OO @@@ X  XOo O..  @.X6<<<< OX+#XX 6<<<X6 +O X O",
"<  @@ XX  <<<4<<<<<<< ++ XX .6 . X @ oO  @@.6<<<< O@ @X@X<<<< 6 OO XO ",
"X6 @O# X >6<<<<<<<<<< OO XX.6XX<<<<X    ..@o6<<,< @O XX..<<<<<   O  @X",
" 6 XOo  +66666<<6<4<<@OO XX o <<<<<< OXXX @.64<<< OO @X  <<<<<  OO.XX ",
"o6+.#O#@   666666<<2   O#oXO.<<<<<<<O @ XX .6<<<< O  oX  <<<2<O OO o@.",
"< + O.OOOX    66 <<6.X@O+ XXO66<<3<6 OO  oX.<<<4X.O# XX. <<<4<  OO#   ",
"< 6+X   XOO #$+o.666O6 O@#@ 6666666&o6O  XX.<<<,  XO     66<<<  XO@ @ ",
"< 6OX@OO  O+O+OX#6&6 6 XOOXX X.6  6  XO  XX <<<<O XXOOX 6<<<<< 6 O@ XX",
"<, O @XOoOO X ##@XX  6-  O#OO@ + OOO XO@ @X <<<<  @X.###XX66<<.6  O.O ",
"<<.OO XOOX@oXOXO#X@ O6OXO O #OOO X  XOO .o= <<<2X6 OO#@XX  <<<O6O@O# X",
"4<<4 O  #+OOX +O@X@.< OO XOOO    #+ XO  @oOX<<,< 6XXXXO#X@$<<< 6  O# #",
"<<<<<<@   +# O@O# 6<<.6OX+#@XOOO+X @OO# .& <<4<< 6OX@OO@X<<<<<< .OOO#X",
"<<<<<<,<6O    O X66<<<X . @ OXXoX@ @+ .66  <<<<<O OXOO##66<<<<< 6 XO@X",
"<<<<<<4<<<<6+O+o 6& ,<<<  X @#+   O#@  6& <<<<5<< O+OO O<<<<<<< 6OXO@o",
"<<<<<<<<<<<66<66oXo <<<<<4O   @ @OOO O66X 4<<<<<<<<O X@XX@ 2<<<  OXO# ",
"<<<<<<<6666<<<24<<<<<<<<<<<<6OO#OX .6XXo <<<<<<<<<4<<6<X <<<<<<< O OO@",
"<<<<<666666O <66<<<<<<<<4<,<<<<66XXXX @<<<<<4<4<<<<<<<<<<<<<<<<< ,O+#X",
"<<<6  6 O O666<<2,<<<<<<,<<<<<<<<<<666<<<<<<<<<<<<<<<<<<<<<<<<<<<<O  <",
"<<6$    O 6#+X 66<,<,<<<<<<<<<<4<6666666<<,<<<<<<<<<<<<<<<<<<<<<3<<<6<",
"<6-O   #@XX X@  <<<<<<<<<<<<<<<6666   666<<<<<<<<<6666666666666666<<2<",
"<6OO.##X@X O. X+4<<<<<<<<<<<26-66  O 6  666<<<<<6666666666666666<<<<<<",
"6 @O@#XX   .o.<4<,<<<<<<<<<6 66  X ##X@X66<<<,<6 6      O         666<",
"6O6 # . X.+ #66<<<<<<<<<<6 66O  6##XXX  OX66<<<6O-O-OO-O-OO--OO-<<<<<2",
" O @XX@..#@ .<<<<<<<<<<<666 . 6##XXXX ...  <<<<    .          .###XX66",
"O  @X  +   66X  <2<<<<<66-  6##XXX  ..XX@. <<<<.6+ OOOOOOOOOOOOO+@X  <",
"OX XX@  6XO.  <<<<<<<<<6O  #@X X +..##@XX<2<,<<<XXXXXXXXXXXoXXXXO#X@$<",
"OO XX .XXO 6<<<2<<<<<<< X6 @XX  ..#   ##66,<4,<6oOOOOOOOOOOOOOOOO@X4,<",
"    @ X X62<<<<<<<<<<<6 O #XX ..#O 6OX   <<<<<                ####66<<",
"O+ @OO     @666<<<<<<66 XO+XXX# O66X  66&OX<4< <OOOO @OOOOOOOOO XX2<<<",
" OXOOOO+O-<<<<<<<<<<<6O  ##@@  66X  <<<<<<<<<<<<O  6XXXXXXXXoXXXXXXX <",
"O .  X   o@#@X66<<<<< O6 @XX .6* .<<<<<<<<<<<<<<<<6<@ 6 OO XX 6<<<<<<<",
"XoOOOOOO@O+@X  <<<<<6 O.#   .&  <,<<<<<<<<2<4<<<<<<<<<X OO# X 6<<,<<<<",
"X+@XXXXXX O#X@:<<<<<6 #O#XX X.<<<<2<<<<<<<,<<<<<<<<<<<  X # X 65<<<<<<",
"XO#OOOOOOOO@X<4<<<<< OX @X@Oo.<<<4<4<<<<<<<<<<<<<<4<,< 6 @@ @X66<<<,<2",
"O   X   ##+#6644<<<< OO XX .& <<<<<<<<<<<<<<<<<<4<<<<< 6 O  Xo 6<<<<<<",
"  O@O O+@+  <<<<<<<< OO XX X <<<<<<<<<<,<<<<4<4<<<<,,< 6 O@ XX 6<<2<<<",
"   @X XXXX X X <<<<< +O+OX  <<<<<<<<,<<<<<<<<,<<<<<<2< 6.OO XX 6<<<<<<",
"  OO@ X 6,<<,21<<<<. XO# X  <<<<<<<<<<<<<<<,<2<<<<<<<<2 .OO XX 6<,<2<4",
"O  +@o  6$6<<<<<<<< 6 O@#    6<,<<,<<<<<<<4<<<<<<<4<<<<  @O XX 6<<<<<<",
"6O @ X X  <<<<<2<<<.6 OO#X  6666666666666666<4<<<<<<<<2  +O# o 6<2<<<<",
" O +O@#.O  666<,2<< 6O OO.@X  666666666666<<<<2<<3<<<42  XO# XO6<<<,<<",
" 6O OOOOO 666<<<,<< 6@XO @OO@o   .  X   .   666<<<<4<<< 6 O@ XX66<<<<2",
"< O  X  ###XX66<<<<< O XO  @OOOOOO-O-OOOO-<<<<<<<<<<<<, 6 OO#XX 6<<<,<",
"< 6@X  O  @X  4<<<<< 6@ XX .         X   ###X@66<<<<<<< 6 XO#XX 6<<<<2",
"2< O X #X@#X@%<<<<<<< O  OXXO@O@O@@OOXO@OOO@X .<<<<<<<< 6OXO@X@ <<<<<<",
",<.6O.X@+ @X.<<<<<<<<<    oOXXXXXXX @XXXX  #XX=<<<<<<2,< OXO#o@$2<<<<<",
"<<< +  OO##664<<<<<<<<<<    #OOOO+OOOOOO@+O@o<,<<<<<<<<<.6 O@  <<<<<<<",
"<<<<O OOO .6<<<<24<<<<<2<< ...  .       #@##66<<<<<<<<<< <O #<X <<<<<<",
"<<<<<< OO XXX <<<<<<<<<<<<<<OOOOOOOOOOOOOO. <<<<<<<<<<<<<<;$ <XX<<<<<4",
"<2<<<<<<66X@ <<<<<<<<<<<<<<<<,66XX XXOXXXXXXXo <<<<<<<<<<4<<6<& <<<,<5",
"<<<<<<<,<<<<<2<2<<<<<<<<<<<<<<2<<<<<<<<<<<<<<<<<<44<<<<<<<,<<<<<<<<<<<",
"2<<<<<<<2<<<<<<<<<<<<<<<<<<<<<<<<<<<<<<<,<<,<<<<<<<<2<<<<<<<<<<<<<<<<<",
"<<<<<<<<<<<<<<<<<<<<<<<<4<,<<<<<2<<<<<<<<<<<<<<<<<<<<<<<<<<<<4<<<<<<42",
"<<<<<<<<<<<<<<2<<<<<<<<<<<<<<2<<<<<<<<<<<<<<<<<<<<<<<<<<<<<2<<<4<<<<<<",
"<<<<<<<<<<<<<<<2<<<<<<<<<,<<<<<<4<<<2<<<<<<<<<<<<<<<<<<<<<<<<<,<<<<<<,",
"<<<<<,<<<<<<<<<<<<,<<<<<<<<<<<<<<<<<<<<<<<<<4<<,<<<<<<<<<<<<<<<<<<<<<<",
"<<<<<<<<<<<<<<<<<<<<<<2<<<<<<<<4<2<<<<<<<<<2<<4<<<<<<<<<<<2<<<<<<<<<<<"
};
