/* XPM */
static char *result[] = {
/* columns rows colors chars-per-pixel */
"70 70 117 2 ",
"   c #030303",
".  c #0B0505",
"X  c #060807",
"o  c #050608",
"O  c #09060A",
"+  c #07090B",
"@  c #0A0B0D",
"#  c #0B0E11",
"$  c #0E1215",
"%  c #0F1419",
"&  c #121316",
"*  c #11151A",
"=  c #14191E",
"-  c #2D1716",
";  c #161C22",
":  c #191E25",
">  c #1A1F28",
",  c #1D2226",
"<  c #1B2028",
"1  c #232524",
"2  c #352324",
"3  c #313335",
"4  c #3D3C3C",
"5  c #662C1F",
"6  c #402A29",
"7  c #562B24",
"8  c #5C2D23",
"9  c #522D28",
"0  c #5D3F3A",
"q  c #642D24",
"w  c #544A4F",
"e  c #765F60",
"r  c #8E3D2B",
"t  c #933C26",
"y  c #943C29",
"u  c #983B2C",
"i  c #963734",
"p  c #91402C",
"a  c #99402E",
"s  c #934233",
"d  c #9C4432",
"f  c #904D3A",
"g  c #9E4B39",
"h  c #A04836",
"j  c #A44D3A",
"k  c #A6513E",
"l  c #A9523F",
"z  c #9B5042",
"x  c #A55344",
"c  c #A55C4A",
"v  c #AD5B4A",
"b  c #A8604C",
"n  c #A76554",
"m  c #AE6353",
"M  c #AE6C5B",
"N  c #B56655",
"B  c #B86656",
"V  c #B56857",
"C  c #BA6856",
"Z  c #B56659",
"A  c #B96659",
"S  c #B56A59",
"D  c #BC6A5A",
"F  c #8D7678",
"G  c #947C7D",
"H  c #B36663",
"J  c #B46C60",
"K  c #B87063",
"L  c #BD7869",
"P  c #C26A57",
"I  c #C37263",
"U  c #C97564",
"Y  c #CB7868",
"T  c #CA806F",
"R  c #CC8576",
"E  c #CD867A",
"W  c #CC8B7F",
"Q  c #977E80",
"!  c #9C8284",
"~  c #9C8A8C",
"^  c #9F9091",
"/  c #949799",
"(  c #A38783",
")  c #A18589",
"_  c #A58E8C",
"`  c #AC8E8F",
"'  c #AB908D",
"]  c #A78F94",
"[  c #AC8E91",
"{  c #A69292",
"}  c #AC9192",
"|  c #B39896",
" . c #B79C9D",
".. c #A9ACAD",
"X. c #ACAFB0",
"o. c #AFB3B4",
"O. c #B2B4B6",
"+. c #B8B4B5",
"@. c #BDB9B5",
"#. c #B4B7B8",
"$. c #B6B9BA",
"%. c #BABDBE",
"&. c #CA8C81",
"*. c #C5ACAB",
"=. c #C4B1B3",
"-. c #CCC1BF",
";. c #BEC0C1",
":. c #CFC8C7",
">. c #C6C7C8",
",. c #D0C8C7",
"<. c #D9C8C7",
"1. c #D8C6C8",
"2. c #D6CCCB",
"3. c #D9C9CA",
"4. c #D6CED1",
"5. c #D0D2D2",
"6. c #D6D8D8",
/* pixels */
"; ; ; ; ; ; ; ; ; ; ; ; ; ; ; ; ; ; ; ; ; ; ; ; ; ; ; ; ; ; ; ; ; ; ; ; ; ; ; ; ; ; ; ; ; ; ; ; ; ; ; ; ; ; ; ; ; ; ; ; ; ; ; ; ; ; ; ; ; ; ",
"; ; ; ; ; ; ; ; ; ; ; ; ; ; ; ; ; ; ; ; ; ; ; = ; ; ; ; ; ; ; ; ; ; ; ; ; ; ; ; ; ; ; ; ; ; ; ; ; ; ; ; ; ; ; ; ; ; ; ; ; ; ; ; ; ; ; ; ; ; ",
"; ; ; ; ; ; ; ; ; ; ; ; = ; ; ; ; ; ; ; ; ; ; > ; ; ; ; ; ; ; ; ; ; ; ; ; ; ; ; ; ; ; ; ; ; ; ; ; ; ; ; ; ; ; ; ; ; ; ; ; ; ; ; ; ; ; ; ; ; ",
"; ; ; ; ; ; ; : ; ; ; ; ; ; ; ; ; ; ; ; ; ; ; ; ; ; ; ; ; ; ; ; ; ; ; ; ; ; ; ; ; ; ; ; ; ; ; ; ; ; ; ; ; ; ; ; ; ; ; ; ; ; ; ; ; ; ; ; ; ; ",
"; ; ; ; ; ; ; ; ; ; : ; ; ; ; ; ; ; ; ; ; ; ; ; ; ; ; ; ; ; ; ; ; ; ; ; ; ; ; ; ; ; ; ; ; ; ; ; ; ; ; ; ; ; ; ; ; ; ; ; ; ; ; ; ; ; ; ; ; ; ",
"; ; ; ; ; ; = ; ; ; ; ; ; : ; ; ; ; ; ; ; ; ; ; ; ; ; ; ; ; ; ; ; ; ; ; ; ; ; ; ; ; ; ; ; ; ; ; ; ; ; ; ; ; ; ; ; ; ; ; ; ; ; ; ; ; ; ; ; ; ",
"; ; ; ; ; ; ; ; ; ; ; ; ; ; ; ; ; ; ; ; ; ; ; ; ; ; ; ; ; ; ; ; ; ; ; ; ; ; ; ; ; ; ; ; ; ; ; ; ; ; ; ; ; ; ; ; ; ; ; ; ; ; ; ; ; ; ; ; ; ; ",
"; ; ; = ; ; ; ; ; ; ; ; ; ; ; ; ; ; ; ; ; ; ; > ; ; ; ; ; ; ; ; ; ; ; ; ; ; ; ; ; ; ; ; ; ; ; ; ; ; ; ; ; ; ; ; ; ; ; ; ; ; ; ; ; ; ; ; ; ; ",
"; ; ; ; ; ; ; ; ; ; ; = ; ; ; ; ; ; ; ; ; ; ; ; ; = ; ; ; ; ; ; ; ; ; ; ; ; ; ; ; ; ; ; ; ; ; ; ; ; ; ; ; ; ; ; ; ; ; ; ; ; ; ; ; ; ; ; ; ; ",
"; ; ; ; ; ; ; ; ; ; ; ; ; ; ; ; ; ; ; ; ; ; ; ; : ; ; ; ; ; ; : ; ; ; ; ; ; ; ; ; ; ; ; ; ; > ; ; ; ; ; ; ; ; = ; ; ; ; ; ; ; ; ; ; ; ; ; ; ",
"; ; ; ; ; ; ; ; ; ; ; ; ; ; ; ; ; ; ; ; ; ; ; ; ; ; ; ; ; ; = ; ; ; ; ; ; ; ; ; ; ; ; ; ; ; ; ; ; ; ; ; ; ; ; ; ; ; ; ; ; ; ; = ; ; ; ; ; ; ",
"; ; ; ; ; ; ; ; ; ; ; ; ; ; ; ; ; ; ; ; ; ; ; ; ; ; ; ; ; ; ; ; ; ; ; ; ; ; ; ; ; ; ; ; ; ; ; ; ; ; ; ; ; ; ; ; ; ; ; ; ; ; ; ; ; ; ; ; ; ; ",
"; = ; ; ; ; ; ; ; ; ; ; ; ; ; ; ; ; ; ; ; ; ; ; ; ; ; ; ; ; ; ; ; ; ; ; ; ; ; ; ; ; ; ; ; ; ; ; ; ; ; ; ; ; ; ; ; ; ; ; ; ; ; ; ; < ; ; ; ; ",
"; < ; ; ; ; ; ; ; ; ; < ; ; ; ; ; ; ; ; ; ; ; ; ; ; ; ; ; ; ; ; ; ; ; ; ; ; ; ; ; ; ; ; ; ; ; = ; ; ; ; ; ; ; ; ; ; ; ; ; ; ; ; ; ; ; ; ; ; ",
"; ; ; ; ; ; ; : ; = ; = ; ; ; ; ; ; ; ; ; ; ; ; ; ; ; ; ; ; : : ; ; ; ; ; ; ; ; ; ; ; ; ; ; ; ; ; ; ; ; ; ; ; ; ; ; ; ; ; ; ; ; < = ; ; ; ; ",
"; ; ; ; ; ; ; : = < ; ; ; ; ; ; ; ; ; ; ; ; ; = ; ; ; ; ; ; : o.; ; ; ; ; ; ; ; ; ; ; ; ; ; ; ; ; ; ; ; ; ; ; ; ; ; ; ; ; ; ; ; ; ; ; ; ; ; ",
"; ; ; ; ; = < = ; ; ; ; ; ; ; ; ; ; ; ; ; ; ; ; ; ; ; : ; ; ; ;.o.; ; ; ; ; ; ; ; ; ; ; ; ; ; ; ; ; ; ; ; ; ; ; ; ; ; ; ; ; ; ; ; ; ; ; ; ; ",
"; ; ; ; ; ; ; ; ; ; ; ; ; ; ; ; ; ; ; ; ; ; ; ; ; ; ; ; ; ; : $.;.; ; ; ; ; : o.; ; ; = ; ; ; ; ; ; ; ; ; ; ; ; ; ; ; ; ; ; ; ; ; ; ; ; ; ; ",
"; ; ; ; ; ; ; ; ; ; ; ; ; ; ; ; ; ; ; ; ; ; ; ; ; : ; ; ; ; ; ; ;.%.; ; ; ; ; $.; ; ; ; ; ; ; ; ; ; ; ; ; ; ; > ; ; ; ; ; ; ; ; ; ; ; ; ; ; ",
"; ; ; ; ; ; ; ; ; ; ; ; ; ; ; ; ; ; ; ; ; ; ; ; ; ; ; ; ; ; ; ; ;.>.; ; ; ; : %.+.; ; ; ; ; ; ; ; ; ; ; ; ; ; ; ; ; ; ; ; ; ; ; ; ; = ; ; = ",
"; ; ; ; ; ; ; ; ; ; ; ; ; ; ; ; ; ; ; ; ; ; ; ; ; o.; ; ; ; ; ; ;.5.%.< ; ; ; -.#.; ; ; ; ; ; ; ; ; ; ; ; ; ; ; ; ; ; ; ; ; ; ; ; ; ; ; ; ; ",
"; ; ; ; ; ; ; ; ; ; ; ; ; ; ; ; ; ; ; ; ; ; ; ; : o.; : ; ; ; ; $.6.;.; ; ; ; O.O.; ; ; ; ; ; ; ; ; ; ; ; ; ; ; ; ; ; ; ; ; ; ; ; ; ; ; ; ; ",
"; ; ; ; ; ; ; ; ; ; ; ; ; ; ; ; ; ; ; ; ; ; ; ; : o.; ; ; ; ; : #.6.%.; ; ; ; O...; ; ; ; ; ; ; ; ; ; ; ; ; ; ; ; ; ; ; ; ; ; ; ; ; ; ; ; ; ",
"; ; ; ; ; ; ; ; ; ; ; ; ; ; ; ; ; ; ; ; ; ; ; ; ; o.; ; ; ; ; ; o.#.#.; ; ; ; ....; ; ; ; ; ; ; ; ; ; ; ; ; ; ; ; ; ; ; ; ; ; ; ; ; ; ; ; ; ",
"; ; ; ; ; ; : ; ; ; ; ; ; ; ; ; ; ; ; ; ; ; ; ; ; X.; ; ; ; ; ; o.; ; ; ; ; ; ; ; ; ; ; ; ; ; ; ; ; : ; ; ; ; ; ; ; ; ; ; ; ; ; ; ; ; ; ; < ",
"; ; ; ; ; ; ; ; ; ; ; ; ; ; ; ; ; ; ; ; ; ; ; ; ; ; ; ; ; ; ; / ; ; ; ; ; ; ; ; ; ; ; ; ; ; ; ; ; ; ; ; ; ; ; ; ; ; ; ; ; ; ; ; ; ; ; < ; = ",
"; ; ; ; ; ; ; ; ; ; ; ; ; ; ; ; ; ; ; ; ; ; ; ; ; ; ; ; ; ; ; ; ; ; ; ; ; ; ; ; ; ; ; ; ; ; ; ; ; ; ; ; ; ; ; ; ; ; ; ; ; ; ; ; ; ; ; ; ; = ",
"; ; ; ; ; ; ; ; ; ; ; ; ; ; ; ; ; ; ; ; ; ; ; ; ; ; ; ; ; ; ; ; ; ; ; ; : ; ; ; > ; ; ; ; ; ; ; ; ; ; ; ; ; ; ; ; ; ; ; ; ; ; ; ; ; ; ; ; < ",
"; ; ; ; ; ; ; ; ; ; ; ; ; ; ; ; ; ; ; ; ; ; ; ; ; ; ; ; ; ; ; ; ; ; ; : ; ; ; = % & & % % % * ; ; ; ; ; ; ; ; ; ; ; : ; ; : ; ; ; ; ; ; ; ; ",
"; ; ; ; ; ; ; ; ; ; ; ; ; ; ; ; ; ; ; ; ; ; ; ; ; ; ; ; ; ; ; ; : ; ; ; ; = H N B B B B B A B Z ; > ; ; ; ; ; ; ; ; ; ,.5.:.,.4.%.; ; ; ; ; ",
"; ; ; ; ; ; ; ; ; ; ; ; ; ; ; ; ; ; ; ; ; ; ; ; ; ; ; ; ; ; ; ; ; = B B B B N N B B B B B B y t B 0 ; ; ; ; ; ; ; -.3.3.3.3.3.3.:.< ; ; ; ; ",
"; ; ; ; ; ; ; ; ; ; ; ; ; ; ; ; ; ; ; ; ; ; ; ; ; > ; ; ; ; M Z B N N B B B B A B B B B B B B B A B B B 2 = > ; > ,.3.3.3.1.3.3.:.; ; = ; ; ",
"; ; ; ; ; ; ; ; ; ; ; ; ; ; ; ; ; = ; ; ; ; ; ; ; ; H B Z N B B N B B B B B B B B N B A B B B B B B B B N A # < : 2.3.3.3.3.3.[ ~ ; ; ; ; ; ",
"; ; ; ; ; ; ; ; ; ; : ; ; ; ; ; ; ; ; ; ; ; ; ; ; + B Z L Z B B B B N B B B B B B B B N K R m B B B B B B B o > < 2.3.3.3.3.3.( ~ ; ; ; ; ; ",
"; ; ; ; = ; ; ; ; ; ; ; ; ; ; ; ; ; ; ; ; ; ; A N B A R L S B t y B B B B B B B B B V A B y N B B B B B B B B . + 3.3.3.} [ ' = , ; ; ; ; ; ",
"; ; ; ; ; ; ; ; ; ; ; ; ; ; ; ; ; ; ; ; ; ; b B B N m m Z A B B B B B B B B B S B N S L &.K B E B B S B B B A y X [ } ` } `  ., ; ; ; ; ; ; ",
"= ; ; ; : ; ; ; ; ; ; ; ; ; ; ; ; ; ; ; ; : N B A B J B B B B B B B B B B B B B B B N V W m W N B B B B B B B t   ' ` ` ` _ } @ & , = ; ; ; ",
"; ; ; ; ; ; ; ; ; ; ; ; ; ; ; ; ; ; ; ; = B B N I M Z B B B B B B B B B B t B B B B T B C W B B B B B N B B B y u [ ` ` | *.` ' ~ = ; ; ; ; ",
"; ; ; ; ; ; ; ; ; ; ; ; ; ; ; ; ; = , = B N N i f B B B B B B B B B B B B A B B B B B S &.D B B B B B A B B B y y } ` _ *.` ` [ { ; ; ; = ; ",
"; ; ; ; ; ; ; ; ; ; ; : ; ; ; ; ; < 6 B N A N B B B B B A B D B B B B B B B B I B B B B B B S B S B B B B B t y y  .` ` ` ` ` ` ' ; ; ; ; ; ",
"; ; ; ; ; ; ; ; ; ; ; ; ; ; ; ; ; = 9 A B A y y y t y t y C B A A B B N B B B C B B B B B B B B D A B B s y y y y #   ` ` ` ` ` ' ; ; ; ; ; ",
"; ; ; ; ; ; ; ; ; ; ; ; ; ; ; ; , & 7 C A A y y y y y y t C B B B B B B B B I B D A C B B B B B A C C B d y y y g $ $ ) ` ` ` ` ' ; ; ; ; ; ",
"; ; ; ; ; ; ; ; : ; : : ; : ; ; * B A A a t y y y y y y y y y B A d B B B I A A y t y C B B B B N B A y y y B k y > > * ! ` [ ` G ; ; ; ; ; ",
"; ; ; ; ; : o o     o + # : ; : , B x t y y y y y y t y y t y y t C D B I A N B B B B B B B B B A x y y y y u y y ; ; ; = ; = = ; ; ; ; ; ; ",
"; ; ; ; : o +.2.2.2.2.2.@.@ ; > @ Y x y y y y y t y y t y y y y y B A U A A B B B B B B B B B B y y y y t j y y y ; ; ; ; ; ; ; ; = ; ; ; ; ",
"; ; ; ; :   4.3.3.3.3.2.3.  > > X A P y y               t t y y y B I A D C B B B N B B A N B B t t y y j u y y y ; ; ; ; ; ; ; ; ; ; ; ; ; ",
"; ; ; ; $ 3.3.3.3.3.3.3.3.1.    $     1   3.<.3.3.` ` `   u y y y l B A A C A N B A A N B y t y u t y h y y y t y : ; ; ; ; ; ; ; ; ; ; ; ; ",
"; ; ; ; # 3.3.3.3.3.3.3.3.2.2.2.2.3.2.3.3.3.3.3.3.3.[ ` [   y t l y y y r B C A y y r y y y y y C A U u y y y . % ; ; ; ; ; ; ; ; ; ; ; ; ; ",
"; ; ; ; $ 2.3.3.3.3.3.3.3.3.3.3.3.3.3.3.3. .` ` ` ` ` ` `   l y y B y y y y y d y y y y y y y y j y y y y y y & * ; ; ; ; ; ; ; ; ; ; ; ; ; ",
"; ; ; ; <   o     { ' 3.3.3.3.3.3.3.=._ ` ' ` ` ` ` ` ` `   y y y y y y y y y y y y t y y y t r t y y y y y # ; ; ; : ; ; ; ; ; ; ; ; ; ; ; ",
"; ; ; : ; : : < o ^ { <.3.3.3.3.3.3.*.` ` ` ` { [ [ ` ` )   y y y y t y y y t y y y y y y y n y y y y y y y & ; ; ; ; ; ; ; ; ; ; ; = ; ; ; ",
"; ; ; ; ; ; ; ; : o 4 ) 3.3.3.3.3.` } ` ` ` `       +   3 y y y y y y y y y y y B B y y y v z y y y y y - & ; ; ; ; ; ; ; ; ; ; ; ; ; ; ; ; ",
"; ; ; ; ; ; ; ; ; > >   _ 3.3.3.] ` ` `       y y y c y y y y y y y t y t y y y u u t y c n r y y y y @ : ; ; ; ; ; ; ; ; ; ; ; ; ; ; ; ; ; ",
"; ; ; ; ; ; ; ; ; ; >   ' 3.<.<.` ` [ ` @ @ @ r x y y y y y y y y y y y y y y y y y u m s S y y t u y # ; ; ; ; ; ; ; ; ; ; ; ; ; ; ; ; ; ; ",
"; ; ; ; ; ; ; ; ; ; ,   ` [ ` ` ` ` e   y y y y y y y y y y y y y y y y y y y y y y r t V y y y t 7 @ ; ; ; ; ; ; ; ; ; ; ; ; ; ; ; ; ; ; ; ",
"; ; ; ; ; ; ; ; ; ; : . ` ' ` ` [ [ e   o y y y y r p y y y y y y y y y y y y y y y i r y y y r O : ; ; ; ; ; ; ; ; ; ; ; ; ; ; ; ; ; ; ; ; ",
"; ; : ; ; ; ; ; ; ; : o ` [ [ ` ` G w % & r y y y p m y y y y y t y y y y y y y y r M y y y y i @ ; ; ; ; ; ; ; ; ; ; ; ; ; ; ; ; ; ; ; ; ; ",
"; ; ; ; ; ; ; ; ; ; ; * ! Q ) Q F < : ; ; ; * & # y p y y y d y y y y y y t y a y y o o @ @ # # ; ; ; ; ; ; ; ; ; ; ; ; ; ; ; ; ; ; ; ; ; ; ",
"= ; ; ; ; ; ; ; ; ; ; : : : ; ; ; ; : ; ; = ; ; , 7 q q y y y j y t y y y t 5 q 8 7 < ; : ; ; ; ; ; ; ; ; ; ; ; ; ; ; ; ; ; ; ; ; ; ; ; = ; ",
"; ; ; ; ; ; ; ; ; ; ; ; ; ; ; ; ; ; ; ; ; ; ; ; ; * & $ t t y t j a t t y y + @ # # ; ; ; ; ; ; ; ; ; = ; ; ; ; ; ; ; ; ; ; ; ; ; = < ; ; ; ",
"; ; ; ; ; ; ; ; ; ; ; ; ; ; = ; ; ; ; ; ; ; ; ; ; ; ; ; = * * * & = % & & $ : ; ; ; ; ; ; ; ; ; ; ; ; ; ; ; ; ; ; ; ; ; ; ; ; ; ; ; ; ; ; ; ",
"; ; ; ; ; ; ; ; = ; ; ; ; ; ; : ; ; ; = ; ; = ; ; ; ; ; ; = ; ; ; ; ; ; ; ; ; ; ; ; ; ; ; ; ; ; ; ; ; ; ; ; = ; ; ; ; ; ; ; ; ; ; ; ; ; ; ; ",
"; ; ; ; ; ; ; ; ; ; ; ; ; ; ; ; ; ; ; ; ; ; ; ; ; ; ; ; , ; ; ; ; ; ; ; ; ; ; ; ; : = ; ; ; ; ; ; ; ; = ; ; ; ; ; ; ; ; ; ; ; ; ; = ; ; ; ; ",
"; ; ; ; ; ; ; : ; ; ; ; ; ; ; ; : ; ; ; ; ; ; ; ; ; ; ; = ; ; ; ; ; = ; ; ; ; ; ; : ; , = ; ; ; ; = ; , ; : ; ; ; ; ; ; ; ; ; ; ; ; ; ; ; ; ",
"; ; ; ; ; ; ; ; : ; ; ; ; ; ; ; ; ; ; = = < = ; = < ; ; ; ; ; ; ; ; ; ; ; ; ; ; ; ; ; ; ; ; ; ; ; ; ; ; ; ; ; ; ; ; ; ; ; ; ; ; ; ; ; ; ; < ",
"; ; ; ; ; : ; ; ; : ; ; ; = ; ; ; ; = < < = ; ; < = ; ; ; ; < ; ; ; ; ; ; ; ; ; ; ; ; ; ; ; ; ; ; = ; = ; ; ; ; ; ; ; ; ; ; ; , ; ; ; ; = ; ",
"; ; = ; ; ; ; ; ; ; ; ; ; ; ; ; ; < < = ; ; ; ; = ; ; ; ; ; = = ; ; ; ; ; ; ; ; ; ; ; ; ; ; ; ; ; ; ; ; ; ; ; ; = ; ; ; ; ; ; ; ; ; ; ; ; ; ",
"; ; ; ; = ; ; ; ; ; ; ; ; ; ; ; ; ; ; ; ; ; ; ; ; ; ; ; ; ; = < ; ; ; ; ; ; ; ; ; ; ; ; ; ; ; ; ; ; < ; = ; ; ; ; ; ; ; ; ; = ; ; ; ; ; ; ; ",
"; ; ; ; ; ; ; ; ; ; ; ; = ; ; ; ; = ; ; ; ; ; ; ; ; ; ; ; ; ; ; ; ; ; ; ; ; ; ; ; ; ; ; ; ; ; ; ; ; ; ; ; ; ; ; ; ; ; ; ; ; = ; ; ; ; ; ; = ",
"; ; : ; ; ; ; ; ; ; ; ; ; ; ; ; ; ; ; ; ; ; ; ; ; ; ; ; ; ; ; ; ; ; ; ; ; ; ; ; ; ; ; ; ; ; ; ; ; ; ; ; ; ; ; ; ; ; ; ; ; ; ; ; ; ; ; ; ; ; "
};
