/* XPM */
static char *result[] = {
/* columns rows colors chars-per-pixel */
"70 70 129 2 ",
"   c black",
".  c #010000",
"X  c #000100",
"o  c #010100",
"O  c #000001",
"+  c #010001",
"@  c #000101",
"#  c #010101",
"$  c #060606",
"%  c #060706",
"&  c #070706",
"*  c #060607",
"=  c #070607",
"-  c #060707",
";  c #070707",
":  c #181A24",
">  c #191A24",
",  c #181B24",
"<  c #191B24",
"1  c #181A25",
"2  c #191A25",
"3  c #181B25",
"4  c gray14",
"5  c #252424",
"6  c #242524",
"7  c #252524",
"8  c #242425",
"9  c #252425",
"0  c #242525",
"q  c #252525",
"w  c #3E3E3E",
"e  c #3F3E3E",
"r  c #3F3F3E",
"t  c #3E3E3F",
"y  c #3F3E3F",
"u  c #3E3F3F",
"i  c #3F3F3F",
"p  c #5F0E03",
"a  c #5F0F03",
"s  c #72621C",
"d  c #73621C",
"f  c #72631C",
"g  c #73631C",
"h  c #72621D",
"j  c #73621D",
"k  c #72631D",
"l  c #73631D",
"z  c #10306E",
"x  c #11306E",
"c  c #10316E",
"v  c #11316E",
"b  c #10306F",
"n  c #11306F",
"m  c #10316F",
"M  c #11316F",
"N  c #902426",
"B  c #912426",
"V  c #902526",
"C  c #912526",
"Z  c #902427",
"A  c #912427",
"S  c #902527",
"D  c #912527",
"F  c #A05E26",
"G  c #A15E26",
"H  c #A05F26",
"J  c #A15F26",
"K  c #A05E27",
"L  c #A15E27",
"P  c #A05F27",
"I  c #A15F27",
"U  c #C64E64",
"Y  c #C74E64",
"T  c #C64F64",
"R  c #C64E65",
"E  c #C64F65",
"W  c #C74F65",
"Q  c #B4A052",
"!  c #B5A052",
"~  c #B4A152",
"^  c #B5A152",
"/  c #B4A053",
"(  c #B5A053",
")  c #B4A153",
"_  c #B5A153",
"`  c #D89A46",
"'  c #D99A46",
"]  c #D89B46",
"[  c #D99B46",
"{  c #D89A47",
"}  c #D99A47",
"|  c #D89B47",
" . c #D99B47",
".. c #F49760",
"X. c #F49661",
"o. c #F59661",
"O. c #295AC6",
"+. c #285BC6",
"@. c #295BC6",
"#. c #285AC7",
"$. c #295AC7",
"%. c #285BC7",
"&. c #687EC0",
"*. c #697EC0",
"=. c #687FC0",
"-. c #687EC1",
";. c #687FC1",
":. c #697FC1",
">. c #EAD684",
",. c #EBD684",
"<. c #EAD784",
"1. c #EBD784",
"2. c #EAD685",
"3. c #EBD685",
"4. c #EAD785",
"5. c #EBD785",
"6. c #F4D084",
"7. c #F5D084",
"8. c #F5D184",
"9. c #F4D085",
"0. c #F5D085",
"q. c #F4D185",
"w. c #F5D185",
"e. c #ABB9E2",
"r. c #AAB8E3",
"t. c #ABB9E3",
"y. c #FFF9EB",
"u. c #FEFFFE",
"i. c #FFFFFE",
/* pixels */
", , , , , , , 1 , , , , , , , , , , , , , , , , , , , , , , , , , , , , , , , , , , , , , , , , , , , , , , , , , , , , > , , , , , , > : : ",
", , , 1 , , , 1 , , , > , , , , , , , , , , , , , , , , , , , , , , , , , , , , , , , , , , , , , , , , , , , , , , , , , , , , , , , , > 1 ",
", , , , , , , , , , > , > 1 , , , , , , , , , , , , , , , , , , , , , , , , , , , , , , , , , , , , , , , , 1 , , , , , > , , , , , , , , , ",
", , , , , , , , , 1 1 , , , , , , , , , , 1 , , , , , , , , , , , , , , , , , , , , , , , , , , , , , , , 1 , , , , , , , , , , , , , , , , ",
", , , > , , , , , , , , , , , , , , , , , , , , , , , , , , , , , , , , , , , , , , , , , , , , , , , , , , , , , , , , , 1 , , > , , > , , ",
", , , , , , , , , , , , , , , , , , , , , , , , , , , , , , , , , , , , , , , , , , , , , , , , , , , , , , 1 , , , , , , > , , , , 1 , , < ",
", , , , , , , , , , , , , , , , , , , , 1 , , , , , , , , , , o o o o o o o + , , , , , , , , , , , , , , > , , , , , , , , , , , , 1 , , > ",
", , , , , , , , , , , , , , , , , , , , , , , , , , , , , , o ) ,.~ ~ 4.~ ~ j + , , , , , , , , , , , , 1 , , , , , 1 , , , , , , , , , , , ",
", , , , , , , , , , , , , , 1 , , , , , , , , , , , , , , o h ) ,.,.1.4._ 4.^ j + , , , , , , , , , , , , , , , , , , , , > , , , , , , , , ",
", 1 , , , , , , , , , , , , , , , , , , , , , , , , , , ,   ^ 3.! ~ E E _ ^ ^ ^ O , , , , , , , , , , , , , , , , , , 1 , , , , , , > , , , ",
", , , , , 1 , , , > , , , , , , , , , , , , , , , , , , + + Y Y Y Y Y U U R S C Z # , 1 , , , , , , , , , , , , , , , , , , 1 , , , , 1 , , ",
", , , , , , > 1 , > > , , , , > , , , , , , , , , , , + + + T W W / / / ^ U D V Z + , , , , , , , , , , , , , , , , 1 , , , , , , , , , , 2 ",
", , , , 1 , , , , , , , , , , , , , , 1 , , , , , , X X <.<./ ( / / 2.^ ,.( ( Q D X X , , , , , , , , , , , , , , , , , , , , , , , , , , , ",
", , , , , , , , , , , , , , , , , 1 , , > , , @ X o >.>.<./ # # # # X . . @ @ Q # # X X , , , , , , , , , , , 1 , , , , , , , > , , , , , , ",
", , , , , , , , , , , , , , , , , , 1 , , 1 , X ^ >.j j d o X @ # # . X @   O O @ k / / # , , , , , , , , , , , , , , , , , , , , , > , > , ",
", , , , , , , , , , , , , , , , , , , , , , , X 5.h s d d O   @ H H H H H H H # # h h d ^ # , , , , , , , , , , , , , , , , 1 , , 1 , , , , ",
", , , 1 , , , , , , , , , , , , , , , , , , , , . . h d d O O H H H H H H H H H # O h d d # , , , , , , , , , , 1 , , > , > , 1 , , , , , , ",
", , , , , , , , , , , , , , , , , , , , , , , , ,   # d #   P P y.@  . .@ y. .H X X # # # # , , , , , , 1 , , , > , , , , , , , , , , > , , ",
"> , , , , , , , , , , , , , , , , , , , , , , , , : # # # # X P  .@  . .@  .H O X O , , , , , , , , , , , , , , , , , , , , , , , , , , , , ",
"> , , , , , , , , , , , , , , , , , , , , , , , , , : : # @ X X `  . . . . .H @ O , , , , , , , , , , , , , 1 , , , , , > , , 1 , , , , , , ",
", , , , , , , , , , , , , , , , , , , , , , , , , , : : : : @ @ H  . . . .H @ @ , , , , , , , , , , , , , < 1 , , , , , , , 1 , , , , , , , ",
", , , , , , , , , , , , , , , , , , , > , , , , , , : : : : # # o H  . .| H @ @ , , , , , , , , , , , , , , , , , , , , , , , , , , , 1 , , ",
", , , , > , , , , , , , , , , , , , , , , , , , , , , , , : : : o H H H H @ @ o , , , , , , , , , : , 1 , , , > 1 , , , , , , , , , , , , , ",
", , , 1 , 1 , , , , , , , , , , , , , 1 , : , , , , , , , , , o o L H H | L o o o : @ , , , , 1 , , , , , , 1 , , , , , , , , , , , , , , 1 ",
", , , , , , , , > , , , , , , , 1 , , , , 1 , , , , , , , O X 4 r L 0.0.0.L r r o o # > , , , , , , , , , , , , , , , , , , , , , , , , , , ",
", , , , 1 , : , , , , , , , , , , , , , , , , , , , , , O 4 5.X.r 0.0.0.0.0.r 2.X.o # X , , , , > , , , , , , , , , , 3 , , , , , , , , 1 , ",
", 1 , , , , 1 , , , , , , , , , , , , , , , , , , , , . u 7 w 5.i S } w.[ S i t 2.o a o , , , , , , , , , , , , , , , , , , , , , , , , > , ",
", , , , , , , , , , , , , , , , , , , , , , , , , , O 4.8 @ 6 i w C D ` B C w 5 . + P a X , , , , , , , , , > , , , > , 1 , , , , , , , , , ",
", , , , , , , , , , , , , , , , , , , , 1 , , , , @ 4.o.<.X 5 e u } Z S C } u . . # P P @ , , , , , , , , , , , , , , 1 , , , , , , , , , , ",
", , , , , , , , , , , , , , , , , , , , , , , , > # + 4.. o o 0 t [ N A S [ t 4.# : a P P o , , , , , > , , , , , , , 1 , , , , 1 , , , , , ",
", > , , , 1 , , , , , , , , , , , , , > , , , , X # . . X : X 5.i C B } S C i o.  : @ P P X , , , , , > , , , , , , , , , , 1 , , , , , , , ",
"1 , , , , , , , , > , , , , , , , , , , , , , , o a   o : : @ o.y B } 0.' B y >.# > : . P P + , , , , > > , , , , , , , , , , , , > , , , , ",
", , , , > , , , , , , 1 , , , 2 , , , , , , , X a a a   : : + ,.q  .] 6.6. .q w ; O : : . P P + , , , > , , , , , , , , , , , , , > , , , , ",
", , , , , , , , , , , , , > , 1 , , , , , , , @ a a X : > #   6 + ' 9.` 8.' + y % @ : : . P P + , , , > , , , , , , , , , , , , , , > , , , ",
", , , , , , , , , , , , , , , , , > , , , ,   a a a . : : + 3.8 X J { [ ' J X u 2.e : : . P P + , , , > , , , , , , , , , , , , , , , , , , ",
", , , , , , , , , , 1 , , , , , , , , , ,   a a a + : : : @ ..3.O   d d d   O 4.X.3.. . 8.8.8.# , , , > , , , , , , , 1 , , , , 1 , , , , , ",
", , , , , , , , , , , , , , , , , , , ,   a K K K @ : : O 5 4.6 j j ^ ,.1.j j $ 5.% . 8.8.8.8.' # , 1 > 1 , , , , , , , , , , , , , , , 1 , ",
", , , , , , , , , , , , , , , , , , , ,     K K K @ : , o 9 + 5 k ) h k f ) k ; y % . q.8.8.8.6.. , , > , , , > , , , , , , , , , , , , , , ",
", , , , , , , , , , , , , , , , , , , , : @ @ @   o , , @ <.. 9 h - $ $ Q - h $ = & . 7.G o 8.` + , , > , , , , , , , , , , , , , , , , , , ",
", , , , , , , , , , , , , , , , , 1 > > , , , , , , , , : <.^ * l b v v c b l * ^ <.:   o ' F O , > , > > , , , , , , , > , , , , , , > , , ",
", , , , , : , , , , , , , 1 , , , , 1 , , , , , , , , , : X ,.g m O.*.&.=.O.m b n n # #   : : : : : : : , , , , , , , , , , , , < , 1 , , , ",
"3 1 1 2 , , 1 , , , , , , , , , , , , , , , , , , , , , , f ,.l z n m n $.&.=.-.;.#.+ + : : : : : : : : : : , , , , , , , , , > , , , > , , ",
", , , , , , < , , , , , , , , , , , , , , , 1 , , , ,   g <.s n -.-.-.&.=.t.O.-.O.n o : : : : : : : : : : , 1 1 , , , > , , , > 1 , , , , , ",
", , , , , , , , , , , , , > , , , , , , , , , , , , @ ~ h <.j -.-.=.-.%.@.M t.t.t.-.v + : : : : : : : : : , , , > , , , , , , , , , , , > 1 ",
", , , > 1 , , , , , , , , , , , , , , , , , , , , , + 3.j ,.,.-.-.-.-.#.m m +.t.t.t.#.O : : : : : : : : : , , , , 1 , > , > , , , > , > , 3 ",
", 1 , , , , , , , , , , , , , , , , , , , , 2 , , # 1./ h +.-.-.-.-.-.M # # c $.#.t.t.O , : : : : : : : : > , > , , , , , , , 1 > , , , , , ",
", , , , , , , , 1 , , , , > , , , , , , , , , , , , , @ x x *.*.*.*.O.# , , + c c c c O , , : : : : : , , , , , , , , , , , , , 1 , , , , , ",
", , , , , > , , , , , , , , , , , , , , , , , , , , , , x *.*.*.*.*.v # , , @ @ p a a O , , , , , , , , , , , , , , , , , , , , , , , , , , ",
", , , , , , , , , , , , , , , , , , , , , , , , , , , , $.*.*.*.*.*.b + , , , @ p a a o , , , , , , , , , , , , , , , 1 , 1 , , , , , , , , ",
", , , , , , , , , , , , , , , , , , , , , , , , , , , b :.:.:.:.*.*.n O , , , + a a o , , , , , , , , , , , , , , 1 , , > , , , , , , , , , ",
", , , , , , , , , , , , , , , , , , , , , , , , , , , + + i.i.u.e.r.r.@ , , # # a a o , , , , , , , , , , , , , , 3 , > , , , , , , , , , , ",
", , , > , , 1 , , , , , , , 1 , , , , , , , , , , , , , . | | | o , + + , , X F F # # , , , , , , , , , , , , , , , 1 , > , , , , 1 , , , , ",
", , , , 1 , , , , , , , , , > , , , , , , , , , , , , , X | | | o # + , , , X F F # , , , , , , , , , , , , , , 1 , , , , , , , , , , , , , ",
", , , , , 1 , , , , , , , , , , , , , , , , , , , , , , X | | ` o , , , , , , # # # , , , , , , , , , , , , , , , , , , , , , , , , , , , , ",
"1 , , , , , , , , , , , , , , , , , , , , , , , , , , , X | | } o , , , , , , , , , , , , , , , , , , , , , , , , , , , , , , , , , , , , , ",
", 1 , , , > , , , , , , , , , , , , , , , , , , , , , , X | | } o , , , , , , , , , , , , , , , , , , , , , , , , , , , , , , , , , , , , , ",
", , , , , , , , , , , , , , , , , , , , , , , , , , , , , X | | o , , , , , , , , , , , , , , , , , , , , , , , , , , , , , , 1 1 , , , , , ",
"1 > , , , , , , , , , , , , , , , , , , , , , , , , , , , X | | o , , , , , , , , , , , , , , , , , , , , , , , , , , , , , , , 3 , 2 3 , , ",
", , , , , , , , , , , , , , , , , , , , , , , , , , , , , X | | o 1 , , , , , , , , , , , , , , , , , , , , , , , , , 1 , , , , , , , , , , ",
", , , , , , , , , , , , , 1 , , , , , , , , , , , , , , , X | ` O , , , , , , , , , , , , , , , , , , , , , , , , > , , , , , , 1 , , , , , ",
", , , , , , , , , , , , , , , , , , , , , , , , , , , , , X | { O , , , , , , , , , , , , , , , , , , , , , , , 1 , , , , , , 1 , 1 , , , , ",
", , , , , , , , , , , , , , , , , , , , , , , , , , , , , F | } + , , , , , , , , , , , , , , , , , , , , , , , , , , , , , , , , , , , , , ",
", , , , , , , , , , , , , , , , , , , , , , , , , , , , , I F 6.P + , , , , , , , , , , , , , , , , , , , , , , , , , , , , , , , , , , , , ",
", , , , , , , , , 1 , , , , , , , , , , , , , , , , , , O I I @ P . , , , , , , , , , , , , , , , , , , , , , , , , 1 , , , , , , , , , , , ",
", , , , , , 1 > , , > , , , , , , , , , , , , , , , , # I # # P X + , , , , , , , , , , , , , , , , , , , , , , , , , , , , , , 1 , , , , , ",
", , , , , , , , > , , , , , , , , , , , , , , , , , # I # P P } } # , , , , , , , , , , , , , , , , , , , , , , , , , , , , , , , , 1 , , , ",
"> , 1 , , , , , , , , , , , , , , , , , , , , , , , + + + X X @   # , , , , , , , , , , , , , , , , , , , , , , , , , , , , , > 1 , , 1 1 , ",
", , , , , , , , , , , , , , , , , , , , , , , , , , , , , , , , , , , , , , , , , , , , , , , , , , , , , , , , , , , , , , , , , , < , , , ",
", , , 1 , , , , , , 1 , , , , , , , , , , , , , , , , , , , , , , , , , , , , , , , , , , , , , , , , , , , , , , , , , , , , , > , , , , 1 ",
", , , , , , , , , , , , , , , , , , , , , , , , , , , , , , , , , , , , , , , , , , , , , , , , , , , , , 3 , , , , , , , , , , 1 , , > , , "
};
