/* XPM */
static char *result[] = {
/* columns rows colors chars-per-pixel */
"70 70 135 2 ",
"   c black",
".  c #010000",
"X  c #000100",
"o  c #010100",
"O  c #000001",
"+  c #010001",
"@  c #000101",
"#  c #010101",
"$  c #060606",
"%  c #060706",
"&  c #070706",
"*  c #060607",
"=  c #060707",
"-  c #070707",
";  c #181A24",
":  c #191A24",
">  c #181B24",
",  c #191B24",
"<  c #181A25",
"1  c #191A25",
"2  c #181B25",
"3  c gray14",
"4  c #252424",
"5  c #242524",
"6  c #252524",
"7  c #242425",
"8  c #252425",
"9  c #242525",
"0  c #252525",
"q  c #3E3E3E",
"w  c #3F3E3E",
"e  c #3F3F3E",
"r  c #3E3E3F",
"t  c #3F3E3F",
"y  c #3E3F3F",
"u  c #3F3F3F",
"i  c #5F0F02",
"p  c #5F0E03",
"a  c #5F0F03",
"s  c #72621C",
"d  c #73621C",
"f  c #72631C",
"g  c #73631C",
"h  c #72621D",
"j  c #73621D",
"k  c #72631D",
"l  c #73631D",
"z  c #10306E",
"x  c #11306E",
"c  c #10316E",
"v  c #11316E",
"b  c #10306F",
"n  c #11306F",
"m  c #10316F",
"M  c #11316F",
"N  c #902426",
"B  c #912426",
"V  c #902526",
"C  c #912526",
"Z  c #902427",
"A  c #912427",
"S  c #902527",
"D  c #912527",
"F  c #A05E26",
"G  c #A15E26",
"H  c #A05F26",
"J  c #A15F26",
"K  c #A05E27",
"L  c #A15E27",
"P  c #A05F27",
"I  c #A15F27",
"U  c #C64E64",
"Y  c #C74E64",
"T  c #C64F64",
"R  c #C64E65",
"E  c #C64F65",
"W  c #C74F65",
"Q  c #B4A052",
"!  c #B5A052",
"~  c #B4A152",
"^  c #B5A152",
"/  c #B4A053",
"(  c #B5A053",
")  c #B4A153",
"_  c #B5A153",
"`  c #D89A46",
"'  c #D99A46",
"]  c #D89B46",
"[  c #D99B46",
"{  c #D89A47",
"}  c #D99A47",
"|  c #D89B47",
" . c #D99B47",
".. c #F49760",
"X. c #F49661",
"o. c #F59661",
"O. c #F49761",
"+. c #285AC6",
"@. c #295AC6",
"#. c #285BC6",
"$. c #295BC6",
"%. c #285AC7",
"&. c #295AC7",
"*. c #285BC7",
"=. c #295BC7",
"-. c #687EC0",
";. c #697EC0",
":. c #687FC0",
">. c #697FC0",
",. c #687EC1",
"<. c #697EC1",
"1. c #687FC1",
"2. c #697FC1",
"3. c #EAD684",
"4. c #EBD684",
"5. c #EAD784",
"6. c #EBD784",
"7. c #EAD685",
"8. c #EBD685",
"9. c #EAD785",
"0. c #EBD785",
"q. c #F4D084",
"w. c #F5D084",
"e. c #F4D184",
"r. c #F5D184",
"t. c #F4D085",
"y. c #F5D085",
"u. c #F4D185",
"i. c #F5D185",
"p. c #ABB9E2",
"a. c #AAB8E3",
"s. c #ABB9E3",
"d. c #FFF9EB",
"f. c #FEFFFE",
"g. c #FFFFFE",
/* pixels */
"> > > > > > > < > > > > > > > > > > > > > > > > > > > > > > > > > > > > > > > > > > > > > > > > > > > > > > < > > > > > : > > > > > > : ; ; ",
"> > > < > > > < > > > : > > > > > > > > > < > > > > > > > > > > > > > > > > > > > > > > > > > > > > > > > < > > > > > > > > > > > > > > : < ",
"> > > > > > > > > > : > : < > > > > > > > > > > > > > > > > > > > > > > > > > > > > > > > > > > > > > > > > > > > > > > : > > > > > > > > > ",
"> > > > > > > > > < < > > > > > > > > > > > > > > > > > > > > > > > > > > > > > > > > > > > > > > > > > > > < > > > > > > > > > > > > > > > ",
"> > > : > > > > > > > > > > > > > > > > < > > > > > > > > > > o o o o o o o + > > > > > > > > > > > > > > : > > > > > > > < > > : > > : > > ",
"> > > > > > > > > > > > > > > > > > > > > > > > > > > > > > o ) 4.~ ~ 9.~ ~ j + > > > > > > > > > > > > < > > > > > < > > : > > > > < > > , ",
"> > > > > > > > > > > > > > > > > > > > > > > > > > > > > o h ) 4.4.6.9._ 9.^ j + > > > > > > > > > > > > > > > > > > > > > > > > > < > > : ",
"> > > > > > > > > > > > > > > > > > > > > > > > > > > > >   ^ 8.! ~ E E _ ^ ^ ^ O > > > > > > > > > > > > > > > > > > > > > > > > > > > > > ",
"> > > > > > > > > > > > > > < > > > > > > > > > > > > > + + Y Y Y Y Y U U R S C Z # > < > > > > > > > > > > > > > > > > > : > > > > > > > > ",
"> < > > > > > > > > > > > > > > > > > > > > > > > > > + + + T W W / / / ^ U D V Z + > > > > > > > > > > > > > > > > < < > > > > > > : > > > ",
"> > > > > < > > > : > > > > > > > > > > > > > > > > X X 5.5./ ( / / 7.^ 4.( ( Q D X X > > > > > > > > > > > > > > > > > > > < > > > > < > > ",
"> > > > > > : < > : : > > > > : > > > > : > > @ X o 3.3.5./ # # # # X . . @ @ Q # # X X > > > > > > > > > > > < > > > > > > > > > > > > > 1 ",
"> > > > < > > > > > > > > > > > > > > < > < > X ^ 3.j j d o X @ # # . X @   O O @ k / / # > > > > > > > > > > > > > > > > > > > > > > > > > ",
"> > > > > > > > > > > > > > > > > < > > > > > X 0.h s d d O   @ H H H H H H H # # h h d ^ # > > > > > > > > > > > > > > > > > : > > > > > > ",
"> > > > > > > > > > > > > > > > > > < > > > > > . . h d d O O H H H H H H H H H # O h d d # > > > > > > > > > > < > > > > > > > > > : > : > ",
"> > > > > > > > > > > > > > > > > > > > > > > > >   # d #   P P d.@  . .@ d. .H X X # # # # > > > > > > < > > > : > > > > > < > > < > > > > ",
"> > > < > > > > > > > > > > > > > > > > > > > > > ; # # # # X P  .@  . .@  .H O X O > > > > > > > > > > > > > > > > > : > : > < > > > > > > ",
"> > > > > > > > > > > > > > > > > > > > > > > > > > ; ; # @ X X `  . . . . .H @ O > > > > > > > > > > > > > < > > > > > > > > > > > > : > > ",
": > > > > > > > > > > > > > > > > > > > > > > > > > ; ; ; ; @ @ H  . . . .H @ @ > > > > > > > > > > > > > , < > > > > > > > > > > > > > > > ",
": > > > > > > > > > > > > > > > > > > > > > > > > > ; ; ; ; # # o H  . .| H @ @ > > > > > > > > > > > > > > > > > > > > : > > < > > > > > > ",
"> > > > > > > > > > > > > > > > > > > > > > > > > > > > > ; # ; o H H H H @ @ o > > > > > > > > > ; > < > > > : < > > > > > < > > > > > > > ",
"> > > > > > > > > > > > > > > > > > > : > > > < > > > > @ ; o o o L H H | r.r.3 X O > > > > > > > < > > > > < > > > > > > > > > > > > < > > ",
"> > > > : > > > > > > > > > > > > > > > > > > > > > > : # o o e e L y.y.y.y.3 X.0.3 O > > > > > > > > > > > > > > > > > > > > > > > > > > > ",
"> > > < > < > > > > > > > > > > > > > > > > : > > > > X # o X.7.e y.y.y.y.| 3 0.q 6 y . > > > > > > > > > > > > > > > > > > > > > > > > > < ",
"> > > > > > > > : > > > > > > > > > > > > > > > > > > o a o 7.r u S } i.[ S 7 u 5 @ 7 9.O > > > > > > > > > > > > > > > > > > > > > > > > > ",
"> > > > > > > > > > > > > > > > > > > > > > > > > > X a a + . 4 q C D ` B D 8 w 4 X 5.o.9.@ > > > > < > > > : > > > : 2 > > > > > > > > < > ",
"> > > > > > > > > > > > > > > > > > > > > > > > > > @ a a # . . y } Z S C ] 9 9 o o . 9.+ # : > > > > > > > > > > > > > > > > > > > > > : > ",
"> : > > > > > : > > > > > > > > > > > > > > > > > o K e.L ; # 9.r [ N A S ' 9 0.X ; X . . # X > > > > : > > > > > > > > < > > > > > > > > > ",
"> > > : , > > > : > > > > > > > > > > > > > > > > X H L @ ;   o.u C B } S 4 8.o.@ ; ; o   a o > > > > > > > > > > > > < > > > > > > > > > > ",
"> > 1 > > > > > > > > > > > > > > > > : > > > > > o ] X ; : # 3.t B } y.' C 4 4.+ ; ;   a a a X > > > > > > > > > > > < > > > > < > > > > > ",
"> > > > > > > > > : > > > > > > > > > : > > > > . P ' . ; O - q 0  .] q.q. .6 5   # : ; X a a @ > > > > > > > > > > > > > > < > > > > > > > ",
"< > > > > > > > : > > > > > > > > > : : > > > > o [ G . @ @ % t + ' t.` r.] O 7 8.+ ; ; . a a F   > > > > > > > > > > > > > > > > : > > > > ",
"> > > > < > > > > > > < > > > 1 > > > : : : : + ' ' . : @ w 7.y X J { [ ' | + 8...@ ; ; ; + a a + > > > > > > > > > > > > > > > > : > > > > ",
"> > > > > < > > > > > > > : > < > > > : : : : + ' . . : @ 8.X.9.O   d d d d + 5 9.4 O ; ; @ L e.K o > > > > > > > > > > > > > > > > : > > > ",
"> > > < > > > > > > > > > > > > > : > > > > + ' ' . ; : @ y 0.y j j ^ 4.6.! j 4 + 8 o ; ; ; @ L H X > > > > > > > > > > > > > > > > > > > > ",
"> > : > > > > > > > < > > > > > > > > > > > # e.r.. ; : @ y y y k ) h k f d s 8 . 5.@ # ; ; @ G G o > > > > > : > > > < > > > > < > > > > > ",
"> > > < > < > > > > > > > > > > > > < < > # ' w.' ' @ ; @ & y y h = $ $ Q 9.0.j 6.O.0.o ; ; @ G G P . > > > > > > > > > > > > > > > > > < > ",
"> > > > > > > > > > > > > > > > > > > > > . q.t.' @ u.  @ @ ^ * l b v v c # + +     3 # X ; @ G G @ > > > > > > > > > > > > > > > > > > > > ",
"> > > > > > > > > > > > > > > > > > > > > + ` r.o G w.@ : X 4.g m @.;.-.:.@.m b n n # #   ; @ @ @ @ > > > > > > > > > > > > > > > > > > > > ",
"> > > : > > > > > > > > > > > > > < : > : > O F ' o   ; : f 4.l z n m n &.-.:.,.1.%.+ + ; ; ; > > > > > > > > > > > > > : > > > > > > : > > ",
"> > > > > > > > > > > > > < > > > > < : : : : @ @ @ : ; g 5.s n M *.<.-.:.s.@.,.@.n o ; ; ; ; > > > > > > > < < > > > > > > > > , > < > > > ",
"2 < < 1 > > < > > > > > > > > > > > > > > > > > > > @ ~ h 5.j ;.;.:.%.*.$.M s.s.s.,.v + ; > > > > > > > > > > > : > > > > > > : > > > : > > ",
"> > > > > > , > > > > > > > > > > > > > > > > > > + 8.j 4.h b x +.%.m z x *.#.s.s.s.%.O ; > > > > > > > > > > > > < > : > > > : < > > > > > ",
"> > > > > > > > > > > > > : > > > > > > > > 1 > # 6./ h #.@.&.=.n M # o O o c &.%.s.s.b + : > > > > > > > : > : > > > > > > > > > > > > : < ",
"> > > : < > > > > > > > > > > > > > > > > > > > + j j x #.M *.>.*.  > > > > o &.&.s.s.&.&.+ > > > > > > > > > > : > < : > : > > > : > : > 2 ",
"> < > > > > > > > > > > > > > > > > > > > > > > > + j x x x %.,.m   > > > > @ z &.s.s.%.X X > > > > > > > > > > > > > > > > > < : > > > > > ",
"> > > > > > > > < > > > > : > > > > > > > > > > > > @ x x %.*.@.@.# > > > > > c c >.,.M M @ > > > > > > > > > > > > > > > > > > < > > > > > ",
"> > > > > : > > > > > > > > > > > > > > > > > > > > > x %.*.M M v # > > > > : > c ,.,.+.+.> > > > > > > > > > > > > > > > > > > > > > > > > ",
"> > > > > > > > > > > > > > > > > > > > > > > > > > > &.;.;.n n b + > > > > > > v c ,.,.+.+.> > > > > > > > > > > > > < > < > > > > > > > > ",
"> > > > > > > > > > > > > > > > > > > > > > > > > > b 2.2.2.;.;.n O > > > > > c c c ,.,.+.> > > > > > > > > > > > < > > : > > > > > > > > > ",
"> > > > > > > > > > > > > > > > > > > > > > > > > > + + g.f.p.a.a.@ > > > > + c c c c :.x O > > > > > > > > > > > 2 > : > > > > > > > > > > ",
"> > > : > > < > > > > > > > < > > > > > > > > > > > > . i H J + + + > > > > + c c c c c c o > > > > > > > > > > > > < > : > > > > < > > > > ",
"> > > > < > > > > > > > > > : > > > > > > > > > > > > X H J J # + > > > > > @ @ p a a a o o > > > > > > > > > > < > > > > > > > > > > > > > ",
"> > > > > < > > > > > > > > > > > > > > > > > > > > > X J ` ' # > > > > > > > @ p a a o o > > > > > > > > > > > > > > > > > > > > > > > > > ",
"< > > > > > > > > > > > > > > > > > > > > > > > > > > X | } L . > > > > > > > + a a o > > > > > > > > > > > > > > > > > > > > > > > > > > > ",
"> < > > > : > > > > > > > > > > > > > > > > > > > > > X | } J   > > > > > > # # a a o > > > > > > > > > > > > > > > > > > > > > > > > > > > ",
"> > > > > > > > > > > > > > > > > > > > > > > > > > > # F ] o > > > > > > > X F F # # > > > > > > > > > > > > > > > > > > > > < < > > > > > ",
"< : > > > > > > > > > > > > > > > > > > > > > > > > > # F ] o < > > > > > > X F F # > > > > > > > > > > > > > > > > > > > > > > 2 > 1 2 > > ",
"> > > > > > > > > > > > > > > > > > > > > > > > > > > X F ` O > > > > > > > o ` F # > > > > > > > > > > > > > > > > > < > > > > > > > > > > ",
"> > > > > > > > > > > > > < > > > > > > > > > > > > > . F { O > > > > > > > o ` J J > > > > > > > > > > > > > > > : > > > > > > < > > > > > ",
"> > > > > > > > > > > > > > > > > > > > > > > > > > > + F } + > > > > > > > X ` ` @ # > > > > > > > > > > > > > < > > > > > > < > < > > > > ",
"> > > > > > > > > > > > > > > > > > > > > > > > > > > > I q.P + > > > > > > ` X  .@ + > > > > > > > > > > > > > > > > > > > > > > > > > > > ",
"> > > > > > > > > > > > > > > > > > > > > > > > > > > O I @ P . > > > > > > > ` q. .+ > > > > > > > > > > > > > > > > > > > > > > > > > > > ",
"> > > > > > > > > < > > > > > > > > > > > > > > > > # I # P X + > > > > > > > @ @ + ] > > > > > > > > > > > > > > > < > > > > > > > > > > > ",
"> > > > > > < : > > : > > > > > > > > > > > > > > # I # P } } # > > > > > > > > > > > > > > > > > > > > > > > > > > > > > > > > < > > > > > ",
"> > > > > > > > : > > > > > > > > > > > > > > > > + + + X @   # > > > > > > > > > > > > > > > > > > > > > > > > > > > > > > > > > > < > > > ",
": > < > > > > > > > > > > > > > > > > > > > > > > > > > > > > > > > > > > > > > > > > > > > > > > > > > > > > > > > > > > > > : < > > < < > ",
"> > > > > > > > > > > > > > > > > > > > > > > > > > > > > > > > > > > > > > > > > > > > > > > > > > > > > > > > > > > > > > > > > > , > > > ",
"> > > < > > > > > > < > > > > > > > > > > > > > > > > > > > > > > > > > > > > > > > > > > > > > > > > > > > > > > > > > > > > > : > > > > < ",
"> > > > > > > > > > > > > > > > > > > > > > > > > > > > > > > > > > > > > > > > > > > > > > > > > > > > > 2 > > > > > > > > > > < > > : > > "
};
