/* XPM */
static char *result[] = {
/* columns rows colors chars-per-pixel */
"70 70 130 2 ",
"   c black",
".  c #010000",
"X  c #000100",
"o  c #010100",
"O  c #000001",
"+  c #010001",
"@  c #000101",
"#  c #010101",
"$  c #060606",
"%  c #060706",
"&  c #070706",
"*  c #060607",
"=  c #070607",
"-  c #060707",
";  c #070707",
":  c #181A24",
">  c #191A24",
",  c #181B24",
"<  c #191B24",
"1  c #181A25",
"2  c #191A25",
"3  c #181B25",
"4  c gray14",
"5  c #252424",
"6  c #242524",
"7  c #252524",
"8  c #242425",
"9  c #252425",
"0  c #242525",
"q  c #252525",
"w  c #3E3E3E",
"e  c #3F3E3E",
"r  c #3F3F3E",
"t  c #3E3E3F",
"y  c #3F3E3F",
"u  c #3E3F3F",
"i  c #3F3F3F",
"p  c #5F0E03",
"a  c #5F0F03",
"s  c #72621C",
"d  c #73621C",
"f  c #72631C",
"g  c #73631C",
"h  c #72621D",
"j  c #73621D",
"k  c #72631D",
"l  c #73631D",
"z  c #10306E",
"x  c #11306E",
"c  c #10316E",
"v  c #11316E",
"b  c #10306F",
"n  c #11306F",
"m  c #10316F",
"M  c #11316F",
"N  c #902426",
"B  c #912426",
"V  c #902526",
"C  c #912526",
"Z  c #902427",
"A  c #912427",
"S  c #902527",
"D  c #912527",
"F  c #A05E26",
"G  c #A15E26",
"H  c #A05F26",
"J  c #A15F26",
"K  c #A05E27",
"L  c #A15E27",
"P  c #A05F27",
"I  c #A15F27",
"U  c #C64E64",
"Y  c #C74E64",
"T  c #C64F64",
"R  c #C64E65",
"E  c #C64F65",
"W  c #C74F65",
"Q  c #B4A052",
"!  c #B5A052",
"~  c #B4A152",
"^  c #B5A152",
"/  c #B4A053",
"(  c #B5A053",
")  c #B4A153",
"_  c #B5A153",
"`  c #D89A46",
"'  c #D99A46",
"]  c #D89B46",
"[  c #D99B46",
"{  c #D89A47",
"}  c #D99A47",
"|  c #D89B47",
" . c #D99B47",
".. c #F49760",
"X. c #F49661",
"o. c #F59661",
"O. c #295AC6",
"+. c #285BC6",
"@. c #295BC6",
"#. c #285AC7",
"$. c #295AC7",
"%. c #285BC7",
"&. c #687EC0",
"*. c #697EC0",
"=. c #687FC0",
"-. c #687EC1",
";. c #687FC1",
":. c #697FC1",
">. c #EAD684",
",. c #EBD684",
"<. c #EAD784",
"1. c #EBD784",
"2. c #EAD685",
"3. c #EBD685",
"4. c #EAD785",
"5. c #EBD785",
"6. c #F4D084",
"7. c #F5D084",
"8. c #F5D184",
"9. c #F4D085",
"0. c #F5D085",
"q. c #F4D185",
"w. c #F5D185",
"e. c #ABB9E2",
"r. c #AAB8E3",
"t. c #ABB9E3",
"y. c #FFF9EB",
"u. c #FEFFFE",
"i. c #FFFFFE",
"p. c None",
/* pixels */
": : > , , , , , , > , , , , , , , , , , , , , , , , , , , , , , , , , , , , , , , , , , , , , , , , , , , , , , , , , , , , 1 , , , , , , , ",
"1 > , , , , , , , , , , , , , , , , , , , , , , , , , , , , , , , , , , , , , , , , , , , , , , , , , , , , , , , , > , , , 1 , , , 1 , , , ",
", , , , , , , , , > , , , , , 1 , , , , , , , , , , , , , , , , , , , , , , , , , , , , , , , , , , , , , , , , 1 > , > , , , , , , , , , , ",
", , , , , , , , , , , , , , , , 1 , , , , , , , , , , , , , , , , , , , , , , , , , , , , , , , 1 , , , , , , , , , , 1 1 , , , , , , , , , ",
", , > , , > , , 1 , , , , , , , , , , , , , , , , , , , , , , , , , , , , , , , , , , , , , , , , , , , , , , , , , , , , , , , , , > , , , ",
"< , , 1 , , , , > , , , , , , 1 , , , , , , , , , , , , , , , , , , , , , , , , , , , , , , , , , , , , , , , , , , , , , , , , , , , , , , ",
"> , , 1 , , , , , , , , , , , , > , , , , , , , , , , , , , , + o o o o o o o , , , , , , , , , , 1 , , , , , , , , , , , , , , , , , , , , ",
", , , , , , , , , , , 1 , , , , , 1 , , , , , , , , , , , , + j ~ ~ 4.~ ~ ,.) o , , , , , , , , , , , , , , , , , , , , , , , , , , , , , , ",
", , , , , , , , > , , , , , , , , , , , , , , , , , , , , + j ^ 4._ 4.1.,.,.) h o , , , , , , , , , , , , , , 1 , , , , , , , , , , , , , , ",
", , , > , , , , , , 1 , , , , , , , , , , , , , , , , , , O ^ ^ ^ _ E E ~ ! 3.^   , , , , , , , , , , , , , , , , , , , , , , , , , , , 1 , ",
", , 1 , , , , 1 , , , , , , , , , , , , , , , , , , 1 , # Z C S R U U Y Y Y Y Y + + , , , , , , , , , , , , , , , , , , > , , , 1 , , , , , ",
"2 , , , , , , , , , , 1 , , , , , , , , , , , , , , , , + Z V D U ^ / / / W W T + + + , , , , , , , , , , , > , , , , > > , 1 > , , , , , , ",
", , , , , , , , , , , , , , , , , , , , , , , , , , , X X D Q ( ( ,.^ 2./ / ( / <.<.X X , , , , , , 1 , , , , , , , , , , , , , , 1 , , , , ",
", , , , , , > , , , , , , , 1 , , , , , , , , , , , X X # # Q @ @ . . X # # # # / <.>.>.o X @ , , > , , 1 , , , , , , , , , , , , , , , , , ",
", > , > , , , , , , , , , , , , , , , , , , , , , # / / k @ O O   @ X . # # @ X o d j j >.^ X , 1 , , 1 , , , , , , , , , , , , , , , , , , ",
", , , , 1 , , 1 , , , , , , , , , , , , , , , , # ^ d h h # # H H H H H H H @   O d d s h 5.X , , , , , , , , , , , , , , , , , , , , , , , ",
", , , , , , 1 , > , > , , 1 , , , , , , , , , , # d d h O # H H H H H H H H H O O d d h . . , , , , , , , , , , , , , , , , , , , , 1 , , , ",
", , > , , , , , , , , , , > , , , 1 , , , , , , # # # # X X H  .y.@  . .@ y.P P   # d #   , , , , , , , , , , , , , , , , , , , , , , , , , ",
", , , , , , , , , , , , , , , , , , , , , , , , , , , , O X O H  .@  . .@  .P X # # # # : , , , , , , , , , , , , , , , , , , , , , , , , > ",
", , , , , , 1 , , > , , , , , 1 , , , , , , , , , , , , , O @ H  . . . . .` X X @ # : : , , , , , , , , , , , , , , , , , , , , , , , , , > ",
", , , , , , , 1 , , , , , , , 1 < , , , , , , , , , , , , , @ @ H  . . . .H @ @ : : : : , , , , , , , , , , , , , , , , , , , , , , , , , , ",
", , 1 , , , , , , , , , , , , , , , , , , , , , , , , , , , @ @ H |  . .H o # # : : : : , , , , , , > , , , , , , , , , , , , , , , , , , , ",
", , , , , , , , , , , , , 1 > , , , 1 , : , , , , , , , , , o @ @ H H H H o : : : , , , , , , , , , , , , , , , , , , , , , , , , > , , , , ",
"1 , , , , , , , , , , , , , , 1 , , , , , , 1 , , , , @ : o o o L | H H L o o , , , , , , , , , : , 1 , , , , , , , , , , , , , 1 , 1 , , , ",
", , , , , , , , , , , , , , , , , , , , , , , , , , > # o o r r L 0.0.0.L r 4 X O , , , , , , , 1 , , , , 1 , , , , , , , > , , , , , , , , ",
", 1 , , , , , , , , 3 , , , , , , , , , , > , , , , X # o X.2.r 0.0.0.0.0.r X.5.4 O , , , , , , , , , , , , , , , , , , , , , : , 1 , , , , ",
", > , , , , , , , , , , , , , , , , , , , , , , , , o a o 2.t i S [ w.} S i 5.w 7 u . , , , , , , , , , , , , , , , , , , , , 1 , , , , 1 , ",
", , , , , , , , , 1 , > , , , > , , , , , , , , , X a P + . 5 w C B ` D C w i 6 @ 8 4.O , , , , , , , , , , , , , , , , , , , , , , , , , , ",
", , , , , , , , , , 1 , , , , , , , , , , , , , , @ P P # . . u } C S Z } u e 5 X <.o.4.@ , , , , 1 , , , , , , , , , , , , , , , , , , , , ",
", , , , , 1 , , , , 1 , , , , , , , > , , , , , o P P a : # 4.t [ S A N [ t 0 o o . 4.+ # > , , , , , , , , , , , , , , , , , , , , , , , , ",
", , , , , , , 1 , , , , , , , , , , > , , , , , X P P @ :   o.i C S } B C i 5.X : X . . # X , , , , > , , , , , , , , , , , , , 1 , , , > , ",
", , , , > , , , , , , , , , , , , > > , , , , + P P . : > # >.y B ' 0.} B y o.@ : : o   a o , , , , , , , , , , , , , , > , , , , , , , , 1 ",
", , , , > , , , , , , , , , , , , , > , , , + P P . : : O ; w q  .6.6.]  .q ,.+ : :   a a a X , , , , , , , 2 , , , 1 , , , , , , > , , , , ",
", , , > , , , , , , , , , , , , , , > , , , + P P . : : @ % y + ' 8.` 9.' + 6   # > : X a a @ , , , , , , , 1 , > , , , , , , , , , , , , , ",
", , , , , , , , , , , , , , , , , , > , , , + P P . : : e 2.u X J ' [ { J X 8 3.+ : : . a a a   , , , , > , , , , , , , , , , , , , , , , , ",
", , , , , 1 , , , , 1 , , , , , , , > , , , # 8.8.8.. . 3.X.4.O   d d d   O 3...@ : : : + a a a   , , , , , , , , , , 1 , , , , , , , , , , ",
", 1 , , , , , , , , , , , , , , , 1 > 1 , # ' 8.8.8.8.. % 5.$ j j 1.,.^ j j 6 4.5 O : : @ K K K a   , , , , , , , , , , , , , , , , , , , , ",
", , , , , , , , , , , , , , > , , , > , , . 6.8.8.8.q.. % y ; k ) f k h ) k 5 + 9 o , : @ K K K     , , , , , , , , , , , , , , , , , , , , ",
", , , , , , , , , , , , , , , , , , > , , + ` 8.o G 7.. & = $ h - Q $ $ - h 9 . <.@ , , o   @ @ @ : , , , , , , , , , , , , , , , , , , , , ",
", , > , , , , , , > , , , , , , , > > , > , O F ' o   : <.^ * l b c v v b l * ^ <.: , , , , , , , , > > 1 , , , , , , , , , , , , , , , , , ",
", , , 1 , < , , , , , , , , , , , , : : : : : : :   # # n n b m O.=.&.*.O.m g ,.X : , , , , , , , , , 1 , , , , 1 , , , , , , , : , , , , , ",
", , > , , , > , , , , , , , , , : : : : : : : : : : + + #.;.-.=.&.$.n m n z l ,.f , , , , , , , , , , , , , , , , , , , , , , 1 , , 2 1 1 3 ",
", , , , , 1 > , , , > , , , 1 1 , : : : : : : : : : : o n O.-.O.t.=.&.-.-.-.n s <.g   , , , , 1 , , , , , , , , , , , , , , , < , , , , , , ",
"1 > , , , , , , , , , , , > , , , : : : : : : : : : + v -.t.t.t.M @.%.-.=.-.-.j <.h ~ @ , , , , , , , , , , , , > , , , , , , , , , , , , , ",
"3 , > , > , , , > , > , 1 , , , , : : : : : : : : : O #.t.t.t.+.m m #.-.-.-.-.,.,.j 3.+ , , , , , , , , , , , , , , , , , , , , , 1 > , , , ",
", , , , , > 1 , , , , , , , > , > : : : : : : : : , O t.t.#.$.c # # M -.-.-.-.-.+.h / 1.# , , 2 , , , , , , , , , , , , , , , , , , , , 1 , ",
", , , , , 1 , , , , , , , , , , , , , : : : : : , , O c c c c + , , # O.*.*.*.*.x x @ , , , , , , , , , , , , , > , , , , 1 , , , , , , , , ",
", , , , , , , , , , , , , , , , , , , , , , , , , , O a a p @ @ , , # v *.*.*.*.*.x , , , , , , , , , , , , , , , , , , , , , , > , , , , , ",
", , , , , , , , 1 , 1 , , , , , , , , , , , , , , , o a a p @ , , , + b *.*.*.*.*.$., , , , , , , , , , , , , , , , , , , , , , , , , , , , ",
", , , , , , , , , > , , 1 , , , , , , , , , , , , , , o a a + , , , O n *.*.:.:.:.:.b , , , , , , , , , , , , , , , , , , , , , , , , , , , ",
", , , , , , , , , , > , 3 , , , , , , , , , , , , , , o a a # # , , @ r.r.e.u.i.i.+ + , , , , , , , , , , , , , , , , , , , , , , , , , , , ",
", , , , 1 , , , , > , 1 , , , , , , , , , , , , , , , # # F F X , , + + p.o | | | . , , , , , , , , , , , , , 1 , , , , , , , 1 , , > , , , ",
", , , , , , , , , , , , , 1 , , , , , , , , , , , , , , # F F X , , , + # o | | | X , , , , , , , , , , , , , > , , , , , , , , , 1 , , , , ",
", , , , , , , , , , , , , , , , , , , , , , , , , , , , # # # , , , , , , o ` | | X , , , , , , , , , , , , , , , , , , , , , , 1 , , , , , ",
", , , , , , , , , , , , , , , , , , , , , , , , , , , , , , , , , , , , , o } | | X , , , , , , , , , , , , , , , , , , , , , , , , , , , 1 ",
", , , , , , , , , , , , , , , , , , , , , , , , , , , , , , , , , , , , , o } | | X , , , , , , , , , , , , , , , , , , , , , , > , , , 1 , ",
", , , , , 1 1 , , , , , , , , , , , , , , , , , , , , , , , , , , , , , , o | | X , , , , , , , , , , , , , , , , , , , , , , , , , , , , , ",
", , 3 2 , 3 , , , , , , , , , , , , , , , , , , , , , , , , , , , , , , , o | | X , , , , , , , , , , , , , , , , , , , , , , , , , , , > 1 ",
", , , , , , , , , , 1 , , , , , , , , , , , , , , , , , , , , , , , , , 1 o | | X , , , , , , , , , , , , , , , , , , , , , , , , , , , , , ",
", , , , , 1 , , , , , , > , , , , , , , , , , , , , , , , , , , , , , , , O ` | X , , , , , , , , , , , , , , , 1 , , , , , , , , , , , , , ",
", , , , 1 , 1 , , , , , , 1 , , , , , , , , , , , , , , , , , , , , , , , O { | X , , , , , , , , , , , , , , , , , , , , , , , , , , , , , ",
", , , , , , , , , , , , , , , , , , , , , , , , , , , , , , , , , , , , , + } | F , , , , , , , , , , , , , , , , , , , , , , , , , , , , , ",
", , , , , , , , , , , , , , , , , , , , , , , , , , , , , , , , , , , , + P 6.F I , , , , , , , , , , , , , , , , , , , , , , , , , , , , , ",
", , , , , , , , , , , 1 , , , , , , , , , , , , , , , , , , , , , , , , . P @ I I O , , , , , , , , , , , , , , , , , , 1 , , , , , , , , , ",
", , , , , 1 , , , , , , , , , , , , , , , , , , , , , , , , , , , , , , + X P # # I # , , , , , , , , , , , , , , , , > , , > 1 , , , , , , ",
", , , 1 , , , , , , , , , , , , , , , , , , , , , , , , , , , , , , , , # } } P P # I # , , , , , , , , , , , , , , , , , > , , , , , , , , ",
", 1 1 , , 1 > , , , , , , , , , , , , , , , , , , , , , , , , , , , , , #   @ X X + + + , , , , , , , , , , , , , , , , , , , , , , , 1 , > ",
", , , < , , , , , , , , , , , , , , , , , , , , , , , , , , , , , , , , , , , , , , , , , , , , , , , , , , , , , , , , , , , , , , , , , , ",
"1 , , , , > , , , , , , , , , , , , , , , , , , , , , , , , , , , , , , , , , , , , , , , , , , , , , , , , , , , , , 1 , , , , , , 1 , , , ",
", , > , , 1 , , , , , , , , , , 3 , , , , , , , , , , , , , , , , , , , , , , , , , , , , , , , , , , , , , , , , , , , , , , , , , , , , , "
};
