/* XPM */
static char *result[] = {
/* columns rows colors chars-per-pixel */
"70 70 8 1 ",
"  c #181A24",
". c #191A24",
"X c #181B24",
"o c #191B24",
"O c #181A25",
"+ c #191A25",
"@ c #181B25",
"# c #191B25",
/* pixels */
"                          XX                     +O    O  O           ",
"          O  X.      X    .           O  O            X               ",
"         X.      X     O    X.           .          X        X   O  X ",
"       @     X    +  .                                              O ",
"       X  O+               .                  X                       ",
"                O                   .                XX           O   ",
"                    X  X O.  O     OX   #     X.                      ",
".    XX  .                                                       X    ",
" .             .       O                    O          O   .X     X  X",
"   X      X             O         X           +O                    O ",
"      .       .           X                   O       .              .",
"  O         . .        O      . .      O                       O O    ",
"          X       X        X   X         .     .                 O    ",
"O O.  .   XO  . O             .       .                       .       ",
"   . X O                          X  .    O    X O             O      ",
"       O                             O       X                      X ",
"                           O .    .                                   ",
"                     X                            .O                  ",
" .    +  X  .    X    X. OX                           XO O            ",
". X    O  X                X                             O         o  ",
"  .      X      . .     X                         O              X    ",
"              O       X        .                              .       ",
"      X       O         O    . O   O                    .     .       ",
"  O                                                   O     O         ",
"      O      X         O             X         X      O      ..    O O",
" O  O            O  . .                      .    .   .  X          . ",
"           .X       +       X                            X            ",
" X       . .       .     O          O                O           O   O",
"                       X         X                                    ",
" X       X               O                    O   .      X       O    ",
"       O                            ..           OO      . X     O    ",
"     O        .    OO    O.  O                   .  O .              X",
"    .    .  O.  X   X.    .    O   .O            X +   X     O       .",
"          O                    o           O                 O     .  ",
"           OX                       OX    O      X            .       ",
"             O          OO     .                      +    O +        ",
"    O . .    X   X   O          O     X                               ",
"    X+     O .                 .       OX                     . X     ",
"       X   .        .    O                                 .         X",
"          XO.         O        X O X        X                       . ",
"                            ..   .           O   O  X                 ",
"            .           .           O       .  X  X                 . ",
"          O                  O        X  o  ...X               O      ",
"O      O      .  O                  O X               .               ",
"  O              X  .     OO                                   O  . . ",
"         .       O O            X          X           XO     X       ",
"   .          .   X       . X  X  .  .                                ",
"                      X    X    .             X        . .            ",
"  O       o                            .    X.                        ",
"                                                X   . .   O O  O      ",
"  XO         O       ++     X    OX                .       .        . ",
"      X        O    X       X X                    O             X    ",
"      .           O  o. .               X               .             ",
"      .                     O        .                           X    ",
"   O     .   X                @                    .                 .",
"          X                 O   OO   O    X              .  O         ",
"     .           .O    O           X                                  ",
"      .     XX                    .          X             .  . X . X ",
" ..    X  X     .XO                           .  X X       .   .      ",
"       X O .       X  .              X X     O      .    O   X    O   ",
"           .    X    O  XX                     .                      ",
"   .           O                                   .           O      ",
"               X             .   .       OX  X            X        .  ",
"         X      O          .    X     X  O                   .        ",
"        O                       .       .          X     X        .  O",
"   X O                        O .O . O  .       .              O  X   ",
"                                        X  O                          ",
"             . .               X                  O  X            X   ",
"           .      X   X                 O                             ",
"  O     X                    O       .         X       .    X         "
};
