/* XPM */
static char *result[] = {
/* columns rows colors chars-per-pixel */
"70 70 21 1 ",
"  c black",
". c #010000",
"X c #000100",
"o c #010100",
"O c #000001",
"+ c #010001",
"@ c #000101",
"# c #010101",
"$ c #020000",
"% c #000200",
"& c #030200",
"* c #000002",
"= c #020002",
"- c #F44236",
"; c #F54236",
": c #F44336",
"> c #F54336",
", c #F44237",
"< c #F44337",
"1 c #F54337",
"2 c None",
/* pixels */
":::::::-:<::::<>::::::::::::::>>:::::<:::::<:::::>:::::::::::::2::::::",
"::::::::::::::::::::::::::::<:::::::::::::::::::::::::::-::::222:::<::",
"::::::::::>::::::::::::::::::<:::::::::::-:::::-:-:::::::::<222.::2::>",
"::::::::><:<:22:::::::<::::::::::::<::::::::::::::::::::<::2 OX <22:::",
":::::::::::22222:<:::::::::::::::::::::::::::-:::>::::>:::2 +  .:@22::",
"::::::::::222o 222:::::::::::::::::::::::::::::--:::-::::2 .  X@XX 2::",
":::::::::::O@2  222-:::::::>::::::::::::::::--:::::>::::2 +  @  @  ::-",
":-:::>::::  OOX  222:::::::::::::::::::>::::::::::<::::2%OO  .X@  o:::",
":::::<::::: .OOo  222:<::<::::::::::>::::::::::::::::::2OO   XX X.1:::",
"::::::<::::+. OOX X22::>:::::::::::::<::::::<::-:;>:::2 OX O#XO@#2::::",
"::>::->:::22   O   X 2<::::::::::::::::::<::<::::::::2 X   XX . 2  :::",
":::::::::  22  OO     2::::>:::::::::::::::::::::::: 2. .  @  .2O  :::",
"::::::::::XXO   +O . 2 2::::::::::::-1>:>::>::::::2 2O X  XX .22X ::::",
":::::::::>:XX X  OO O 2*2::::-::>::::::::<:::::::2 2 XX  X . 2 . ::-::",
"<:::<:::::-:XX O  OO  .2 2::::::::::::-::::::<::22* 22  X O..  .::::::",
">:::::::::-:;X    .OO X  222::-::::::::::::::::*2OX2o XX O.2X  ::<-:::",
":::::::::::::XX  X  @OOX  222:::::::::::::>::222O 2X o.  .22  ::-:::::",
"::::><:::::::<O@+     @OX X22:-:::<:>:::::::2 2 .2  XXX...2 X:::::::::",
":::::::::::::::oX .X ..O   X22>>::::::::::::2OO 2  X Oo.22O  :::::::::",
"::-:,::::::::-:: o  ..@XO o .$2-::::::>::::2O@   XX  ..22 o:::::::::::",
"::;::>:::::::::::XXXX X OO  X22::--:::::::22+ X  X X..22# :-:::::<<:>:",
":::::<:::>-::::::::#XX. OO X  222::::::::<2O2@  @O .22  +::-::-:::::::",
":::::::::::::::::::<XX  + OOX  22:::::-::2  X  @ ..22  -::::::::::-:::",
"::>::::::::::::::::<:X    .O   X22:-::-:22O X  X .22@ ::::::::::<:::::",
"::::::::::::-:::::::::X. OOXO    22><::2 O    o  22  :::::::::::::::::",
":>>::::::::-<::::::::: X + OX+  O222:::2OO X oO..   :>-<:::::::::<::::",
":-::>::::::::::::::::::X XXOOX@   222:2  X  XX .2  :-::<:::<::::::::::",
":::-::::::,:<:::::::::::oX .  OOO. 22 2@OX  X .2.O:>:::::::::::::<::::",
"::<::::::-:::::::::::::::XO OX+XO  X  O    X  .  :<:::::-:::::::::::::",
"::::::-:::::::::<>:>::::::O...  O ...O O.  X .2  :::::::::<>::::::::::",
":::::::::::::<:::<:::>:::::o    XO  O.   oX  2 =::::::>::::::>::::::::",
":-:::::::::::::::-::::::::::X  X O OO   XX .2  ::::::::<::::>:::::::::",
":::::>::::::::::::::::::::::XX       OX    2   :::::::::::::-:::::::::",
"::::::-:::::::::<:::::::::::::X..OO X. X  .2. ::::::::::::::::::>:::::",
":::::::::::::::::::::::::-<:::X2 O.XOXXX     :-<:::::::::::1:,::::::::",
":-::>::::::::::>:::::::>:::-:: XO X  o  o.  2:::::::::::>:::::::::::::",
":<::::::::::::::::::>::>,::::  @   O   X  .222::<-::::::::::::::::>:::",
"::::::::<:::::::::::::::::::2OO  o X  .  . O2 2:::::::::::::::::::::::",
":>:::>::::::::<::::-:::::::22OO  OX.  X  O XO2 2::-:::::::-::<::::::::",
":::-:::-::::::::::::::::::2   OX .X . O X+O   222::>::::-:::::::::::::",
"::::::::-<:::::::::::::::2* O  X     .     O X 222:::::::<:::::::::::<",
"::::::::::::::::::::::::2  .    OO .X ..   XOX+X22:::::::::::::::::>::",
":>:::;:::::-:::::::1:::2XO. X    O.2  o  X  +   X22:::::::::<:::::::<>",
"::::::::::::-::::::::: %O X XX   .2  :X@ O oXOX    2:::::<::1::>::::::",
"::::::::::::::::::::2&2O 2  XXO .2  >::@   . OOOX 222:<::::::::::::>::",
":::<:::::::::::-:::2 2  2@ X# O.    ::::XX  X  O  X222::::::::::::::::",
"::::>:::::-:::::::2$O  2  @   .22 .:::-::Xo  X .O XX22::::::::::>:::::",
":::::::::::::<:<: 2O 2  X   ..2   :::::::-@  X. OX  X22:::-:::;:::::::",
":<::::::::::<::2 2O 2+OX@O ..22  :::>:::<<:X.O  X@O@  22::::>:::>:::::",
":::::::-::::::% 2  2  X   ..2   ::::::<:<::X@    XO  X222::::::::>::::",
":--:::::::::2 2O .2  o O...2 . :::::::::::<:oX  X.#O . 222::::::::::::",
":::::::::::  2  2O.XXX +.22 O.:::::::->::::::XX    XO   2$2:<::::::::>",
":::::::::2O2+  2  oX  .X22  ::::::::::::::::;:X O   O  O 2 2::::::::::",
":::::::2  2  2  XXO  ..2   ::::::>:::<:::::::::X X.  OO   2 2:::::::::",
"::-:::      2 .o   ..22.  ::::::::::::::::::::::X  .  O  X .222>::::<:",
":<:::2 O  2 O X  . #22o :::::::::::::>:::::::::<:XO  .O OO   222::::::",
":::::2+OX  X#XO . .22  :::::::::::::::::::::::::::X .  O OOO.X22::::::",
"::::: O2  X XO ...2o.X::::::::::::::::::::-:::>:::X       O. XX22:::::",
"-:::: 2X  X   +.22   ::::::::::::::>:::::::::::::::@@  @O XX  X 2:::::",
":::::: X  o...22 X.::::::::::::::::::::::::::::-::::@X   X @X  X::-:::",
":<:::X  .+O..22  :::::-:::::::-::::::::::::::::::::::: o + X   $:::::>",
"::::XX2  O. 2   :::-::<::::::::::::::::::::::::::::::::XX.    2:::::::",
"<:::X: .o.2O .X::::::::::::::::::::::<::::::-:::::::::::%    O :::-:::",
":::::: Oo2   :::::::::::::::::::::::::::::::::::::::::::::  .  .::::::",
"::::::::2:O :::::-:::::::::::::::-:::::::<::::::::::::::::::2:  :-::::",
":::::::<:::::::-::::::::::::::::::::::::::::::::::::-:::::>::<::::::::",
"-::><:<::::::<::::::::-<:::::::::::::::::>::>:::::::::::::::::::::::::",
"::::--:>::::::::-:::::::::::::::-::<::::-:<:::-:::::>::::::::::-::::::",
":::<::::::::::::::::::<::::::::::::::::::::<:-:::::::::<<:::::::::::::",
"::::::::::::::::::::::<:<::::::-::::::::::::::::1:::::::::::::::::::>:"
};
