/* XPM */
static char *result[] = {
/* columns rows colors chars-per-pixel */
"70 70 172 2 ",
"   c #181A24",
".  c #0B6FAB",
"X  c #1275AA",
"o  c #1876AA",
"O  c #1F7BAE",
"+  c #0075B4",
"@  c #0578B7",
"#  c #0B7DB6",
"$  c #0076B9",
"%  c #017BBD",
"&  c #0B7DBA",
"*  c #1379B4",
"=  c #2B7DA7",
"-  c #227EB2",
";  c #007DC2",
":  c #0E7FC1",
">  c #0481BB",
",  c #0D85BD",
"<  c #1580B6",
"1  c #1C84B6",
"2  c #1B85BE",
"3  c #1E8CBD",
"4  c #2085B3",
"5  c #2486BB",
"6  c #238CBC",
"7  c #2D8CB8",
"8  c #308CBF",
"9  c #3992BA",
"0  c #4597BF",
"q  c #0082C5",
"w  c #0D84C3",
"e  c #0384CA",
"r  c #0C85C9",
"t  c #038ACD",
"y  c #0C8BCE",
"u  c #1383C4",
"i  c #148AC5",
"p  c #1186CB",
"a  c #108BCE",
"s  c #0F91C3",
"d  c #0D94CD",
"f  c #028DD0",
"g  c #0B8ED3",
"h  c #148ED2",
"j  c #0593D4",
"k  c #0C94D4",
"l  c #0D99D7",
"z  c #0C95D8",
"x  c #0699DC",
"c  c #0D9BDC",
"v  c #1294D4",
"b  c #1B95D3",
"n  c #139BD7",
"m  c #1B9AD4",
"M  c #1295DA",
"N  c #149BDC",
"B  c #1A9BDB",
"V  c #2395C4",
"C  c #2294CB",
"Z  c #229BCD",
"A  c #3295C4",
"S  c #3A97C3",
"D  c #3A9CC4",
"F  c #2296D1",
"G  c #269DD2",
"H  c #309FD6",
"J  c #15A1DE",
"K  c #1DA3DA",
"L  c #16A9DF",
"P  c #3BA3CC",
"I  c #26A3DD",
"U  c #2AA8DB",
"Y  c #35A3D3",
"T  c #37AAD6",
"R  c #31A3DA",
"E  c #39A6DC",
"W  c #33ABDB",
"Q  c #3CACDE",
"!  c #3EB2DE",
"~  c #0E9FE1",
"^  c #169DE1",
"/  c #1B9DE3",
"(  c #209CE2",
")  c #0FA3E5",
"_  c #14A2E3",
"`  c #1BA3E4",
"'  c #1BABE5",
"]  c #16A5E9",
"[  c #1AA6E9",
"{  c #15A9E9",
"}  c #1CACEC",
"|  c #15B1EE",
" . c #1CB2EF",
".. c #1CB5F3",
"X. c #1FB9F9",
"o. c #23A3E6",
"O. c #24AFE6",
"+. c #2CAEE3",
"@. c #21A7EE",
"#. c #24ACEB",
"$. c #33ABE2",
"%. c #3BADE3",
"&. c #30ACEA",
"*. c #2FB1E3",
"=. c #24B1EB",
"-. c #2CB4EB",
";. c #31B0E4",
":. c #38B2E5",
">. c #32B5E9",
",. c #39B6EB",
"<. c #35B8EE",
"1. c #25AEF3",
"2. c #2BAFF2",
"3. c #25B4F3",
"4. c #2BB3F4",
"5. c #26B8F3",
"6. c #2CBAF4",
"7. c #23B6F9",
"8. c #2FB6F8",
"9. c #24B9F9",
"0. c #2BBAFA",
"q. c #32B4F3",
"w. c #33BCF4",
"e. c #3DBEF4",
"r. c #4798C7",
"t. c #419CCB",
"y. c #4FA6CA",
"u. c #4CAED3",
"i. c #44ACD8",
"p. c #51AFD5",
"a. c #47B4DD",
"s. c #4EB6DB",
"d. c #5EB3D2",
"f. c #54B4DC",
"g. c #66B0CD",
"h. c #60B4D8",
"j. c #44AFE3",
"k. c #4CB7E3",
"l. c #49BEEB",
"z. c #5ABAE2",
"x. c #55BBEA",
"c. c #58BFEA",
"v. c #6ABEE3",
"b. c #2CC3FC",
"n. c #35C4FF",
"m. c #3CC1F9",
"M. c #5FC5EC",
"N. c #4DC4F5",
"B. c #4BC6FD",
"V. c #4DCCFD",
"C. c #53C8F3",
"Z. c #56CEFC",
"A. c #4AD3FF",
"S. c #4BD8FF",
"D. c #55D5FF",
"F. c #5BD4FE",
"G. c #50DBFF",
"H. c #5CD9FF",
"J. c #6BC4E7",
"K. c #65C8EF",
"L. c #79C2E3",
"P. c #61C3F0",
"I. c #6AC9F5",
"U. c #66D4FC",
"Y. c #64DAFF",
"T. c #6DD8FF",
"R. c #77D6F4",
"E. c #63E5FF",
"W. c #70E9FF",
"Q. c #7AEBFF",
"!. c #8ED1EE",
"~. c #8ADDFE",
/* pixels */
"                                                                                                                                            ",
"                                                                                                                                            ",
"                                                                                                                                            ",
"                                                                                                                                            ",
"                                                                                                                                            ",
"                                                                                                                                            ",
"                                                                                                                                            ",
"                                                                                                                                            ",
"                                                                                                                                            ",
"                                                                                                                                            ",
"                                                                                                                                            ",
"                                                                                                                                            ",
"                                                                                                                                            ",
"                                                                                                                                            ",
"                                                                    ~.I.x.j.E H H E %.R W ! M.                                              ",
"                                                              !.v.i.F a t q q q q q e t ] 3.-.N.u.                                          ",
"                                                          J.M.j.C ; % q j z ) ] { ] ] c % [  .O.D.D                                         ",
"                                                      d.K.N.b % ; r N 2.4.0.9.0.3. .0.] q #.5.L S.Y                                         ",
"                                                    s.U.W $ % h M z ` N _ ' ' ( M z g ; _ 3.c m.G.6                                         ",
"                                                  N.H.v + y / g g ` 3.l M v g t q ; g 4.} k -.H.-.X                                         ",
"                                                a.D.B % v B M e g M / ^ z f e f B 4.4.c k m.H.I % 4                                         ",
"                                                F.>.d q [ M / ( g t g ~ ^ @.1.1.} N f #.B.l.w @ & r.                                        ",
"                                              P Z.*./ ; y M / 2./ @./ 1.@.M v M N _ 8.2.a $ : i o                                           ",
"                                              d.M.Y.q._ q ; % % ; ; ; ; f v 2.q.1.^ q @ ; p : :                                             ",
"                                                g.f.B.0.0.6.4.#.@.} 1.7.2.q.( e ; ; f M h r a *                                             ",
"                                                  L.3 d l J ' ` ~ ~ j e t q ; r h N ^ / y y :                                               ",
"                                                    J.Z n j f t f f f ~ [ } ] ^ / N ` M r p *                                               ",
"                                                      c.w.6.n.5.1.7.0.0.9...] c _ N N v y *                                                 ",
"                                                      ~.:.6.6.n.| ........| ] c ^ ^ M a u                                                   ",
"                                                        l.=.=.' ..X.| ..X.X.{ ^ ^ B h *                                                     ",
"                                                        c.+.>.w.x 7.X.X.9.7._ M z p .                                                       ",
"                                                        P.m +.A.f ] } ) ~ z f r : X                                                         ",
"                                                        z.W *.-.j x c ~ ~ k M b o                                                           ",
"                                                        P 3 E.<. .9.9.3.^ B # o                                                             ",
"                                                        K.3 S.L  ...' N B & =                                                               ",
"                                                        a.s 6.b.b.{ N m # S                                                                 ",
"                                                      y.V K 5. ...0.&.Y h.                                                                  ",
"                                                      P e.=. .c n , 7                                                                       ",
"                                                    k.W.-.=.^ v i t.                                                                        ",
"                                                  A T m.J ^ v # -                                                                           ",
"                                                  Q C.U d y # A                                                                             ",
"                                                  Y Q.Z.#.K 5                                                                               ",
"                                                  9 i.R g w 1                                                                               ",
"                                                    x.B.v i 8                                                                               ",
"                                                    u.H.#.m 5                                                                               ",
"                                                    A G w.m 1                                                                               ",
"                                                      u ,.I i t.                                                                            ",
"                                                      O H I B O                                                                             ",
"                                                        < $.o.2                                                                             ",
"                                                        1 > d , =                                                                           ",
"                                                        U.,.> + A                                                                           ",
"                                                        Y.m.6.I D                                                                           ",
"                                                      R.Z.O.#.2                                                                             ",
"                                                      T.,.I 1 0                                                                             ",
"                                                    T.:.U 4                                                                                 ",
"                                                  f.V C 7                                                                                   ",
"                                                Y.a.1 9                                                                                     ",
"                                              V.m.V y.                                                                                      ",
"                                            <.V.G p.                                                                                        ",
"                                          q.K ;.3                                                                                           ",
"                                          O.y C                                                                                             ",
"                                          B c ,                                                                                             ",
"                                          U n                                                                                               ",
"                                          p.Y                                                                                               ",
"                                                                                                                                            ",
"                                                                                                                                            ",
"                                                                                                                                            ",
"                                                                                                                                            ",
"                                                                                                                                            ",
"                                                                                                                                            "
};
