/* XPM */
static char *result[] = {
/* columns rows colors chars-per-pixel */
"70 70 165 2 ",
"   c #010101",
".  c #0A0000",
"X  c #01020B",
"o  c #040B08",
"O  c #0A0A0C",
"+  c #150000",
"@  c #1A0000",
"#  c #141905",
"$  c #000313",
"%  c #00061C",
"&  c #020E1A",
"*  c #100016",
"=  c #0C1212",
"-  c #131518",
";  c #270100",
":  c #330000",
">  c #181A24",
",  c #2E373E",
"<  c #711009",
"1  c #6F0F11",
"2  c #661417",
"3  c #5B3A0F",
"4  c #5E3C15",
"5  c #58361B",
"6  c #563E1E",
"7  c #5E3D1A",
"8  c #623A15",
"9  c #603E1C",
"0  c #4D3C27",
"q  c #553D25",
"w  c #5D411C",
"e  c #524324",
"r  c #53402F",
"t  c #574434",
"y  c #66492B",
"u  c #6D513B",
"i  c #7E5A3D",
"p  c #3E474E",
"a  c #2F465E",
"s  c #3A4854",
"d  c #344B5D",
"f  c #3C4C5C",
"g  c #2E4E67",
"h  c #2C4D6B",
"j  c #324D64",
"k  c #2B506D",
"l  c #5B4F43",
"z  c #765B46",
"x  c #425164",
"c  c #8F0302",
"v  c #940102",
"b  c #990001",
"n  c #920F15",
"m  c #A60201",
"M  c #BD0800",
"N  c #8F221B",
"B  c #CC0000",
"V  c #C60108",
"C  c #CD0509",
"Z  c #D20001",
"A  c #D40005",
"S  c #8C562E",
"D  c #8D592A",
"F  c #835534",
"G  c #895735",
"H  c #855836",
"J  c #8A5A35",
"K  c #86573B",
"L  c #8E5538",
"P  c #835A3A",
"I  c #895A3B",
"U  c #9F7739",
"Y  c #A4643B",
"T  c #B66232",
"R  c #A27837",
"E  c #CB792F",
"W  c #A91D46",
"Q  c #A61F49",
"!  c #AD1B48",
"~  c #B0174D",
"^  c #B11A4B",
"/  c #992647",
"(  c #A22044",
")  c #835940",
"_  c #846044",
"`  c #937A4B",
"'  c #DA841D",
"]  c #D08A18",
"[  c #F2B90E",
"{  c #CD872F",
"}  c #D68324",
"|  c #D68228",
" . c #DB8528",
".. c #CE8833",
"X. c #D48434",
"o. c #FFB624",
"O. c #FEB42E",
"+. c #FFA531",
"@. c #FEB231",
"#. c #FFB038",
"$. c #FEF602",
"%. c #FDF803",
"&. c #F5F710",
"*. c #FFFF2B",
"=. c #EBE73D",
"-. c #C3894A",
";. c #DFAA5C",
":. c #FAB342",
">. c #EBE947",
",. c #F0EE4E",
"<. c #EDE952",
"1. c #FCE751",
"2. c #FAE65B",
"3. c #F3E85A",
"4. c #F3E868",
"5. c #4C7695",
"6. c #4F7898",
"7. c #547696",
"8. c #577B96",
"9. c #5B7C95",
"0. c #547D9D",
"q. c #597D9B",
"w. c #627583",
"e. c #61788A",
"r. c #657888",
"t. c #607B93",
"y. c #647D98",
"u. c #527DA1",
"i. c #5B7FA3",
"p. c #5E819D",
"a. c #688396",
"s. c #5481A2",
"d. c #5982A3",
"f. c #8C9EB4",
"g. c #8DA8BD",
"h. c #94A5B7",
"j. c #BEBEBE",
"k. c #F4E789",
"l. c #8298C1",
"z. c #8DA6C4",
"x. c #86A8C6",
"c. c #85A6CD",
"v. c #8AA7CC",
"b. c #86A8CC",
"n. c #8AAACC",
"m. c #93A4C2",
"M. c #91A9C5",
"N. c #9AB4CD",
"B. c #88A8D2",
"V. c #B9CBDC",
"C. c #BCD5E9",
"Z. c #CDCFCE",
"A. c #D4D3CF",
"S. c #CDCED1",
"D. c #CED3D4",
"F. c #C7D4DD",
"G. c #CBD4DB",
"H. c #D2D4D4",
"J. c #D3D4DC",
"K. c #CCDAE4",
"L. c #CBD9E8",
"P. c #D2DEEC",
"I. c #FFF9F2",
"U. c #F4FFFF",
"Y. c #FEFEFE",
/* pixels */
"> > > > > > > > > > > > > > > > > > > > > > > > > > > > > > > > > > > > > > > > > > > > > > > > > > > > > > > > > > > > > > > > > > > > > > ",
"> > > > > > > > > > > > > > > > > > > > > > > > > > > > > > > > > > > > > > > > > > > > > > > > > > > > > > > > > > > > > > > > > > > > > > ",
"> > > > > > > > > > > > > > > > > > > > > > > > > > > > > > > > > > > > > > > > > > > > > > > > > > > > > > > > > > > > > > > > > > > > > > ",
"> > > > > > > > > > > > > > > > > > > > > > > > > > > > > > > > > > > > > > > > > > > > > > > > > > > > > > > > > > > > > > > > > > > > > > ",
"> > > > > > > > > > > > > > > > > > > > > > > > > > > > > > > > > > > > > > > > > > > > > > > > > > > > > > > > > > > > > > > > > > > > > > ",
"> > > > > > > > > > > > > > > > > > > > > > > > > > > > > > > > > > > > > > > > > > > > > > > > > > > > > > > > > > > > > > > > > > > > > > ",
"> > > > > > > > > > > > > > > > > > > > > > > > > > > > > > > > > > > > > > > > > > > > > > > > > > > > > > > > > > > > > > > > > > > > > > ",
"> > > > > > > > > > > > > > > > > > > > > > > > > > > > > > > > > > > > > > > > > > > > > > > > > > > > > > > > > > > > > > > > > > > > > > ",
"> > > > > > > > > > > > > > > > > > > > > > > > > > > > > > > > > > > > > > > > > > > > > > > > > > > > > > > > > > > > > > > > > > > > > > ",
"> > > > > > > > > > > > > > > > > > > > > > > > > >   > >       > > > > > > > > > > > > > >   > > > > > > > > > > > > > > > > > > > > > > > ",
"> > > > > > > > > > > > > > > > > > > > > > > > > > >     C Q /   > > > > > > > > > > > >   N.  > > > > > > > > > > > > > > > > > > > > > > ",
"> > > > > > > > > > > > > > > > > > > > > > > > > > > X B Q Q C n   X > > > > > > > > > >   P   > > > > > > > > > > > > > > > > > > > > > > ",
"> > > > > > > > > > > > > > > > > > > > > > > > > > >   m   X + B B B   > > > > > > > > >   P   > > > > > > > > > > > > > > > > > > > > > > ",
"> > > > > > > > > > > > > > > > > > > > > > > > > > >   o > > > ; v b b o > > > > > >                   > > > > > > > > > > > > > > > > > > ",
"> > > > > > > > > > > > > > > > > > > > > > > > > > >   > > > > >       > > > > > > > . ] O.' ' } T   >   > > > > > > > > > > > > > > > > > ",
"> > > > > > > > > > > > > > > > > > > > > > > > > > >   > > > > > > > > > > > > > > >   .             > >   > > > > > > > > > > > > > > > > ",
"> > > > > > > > > > > > > > > > > > > > > > > > > > > + > > > > > > > > > > > > > > > > . J 8 4 7   > > > >   > > > > > > > > > > > > > > > ",
"> > > > > > > > > > > > > > > > > > > > > > >       . .             > > > > > > > > > > >   X X . > > > > > > >   > > > > > > > > > > > > > ",
"> > > > > > > > > > > > > > > > > > > > > >   m.c.  ^ W ( W X c.f.> > > > > > > > > > > >   `   > > > > > > > > > > > > > > > > > > > > > > ",
"> > > > > > > > > > > > > > > > > > > > > > z.0.  B B B B o x.d   > > > > > > > > >           X                             > > > > > > > > ",
"> > > > > > > > > > > > > > > > > > > > > $ 0.  A B B V X x.j   > > > > > > > >     v.c.v.v.v.c.v.v.c.v.n.c.c.v.c.c.n.n.  > > > > > > > > > ",
"> > > > > > > > > > > > > > > > > > > > > $ 0.  A B B V   x.j   > > > > > > >   x.x.0.0.u.0.u.0.0.0.0.0.0.u.u.0.u.0.h   > > > > > > > > > > ",
"> > > > > > > > > > > > > > > > > > > > > $ 0.  A B B V X z.j   > > > > > > X c.s.0.F.i.c.0.0.0.0.H.u.6.i.v.0.0.0.h X > > > > > > > > > > > ",
"> > > > > > > > > > > > > > > > > > > > > $ u.  B Z Z A X v.z.d   > > > >   b.0.8.H.G.8.0.0.0.0.0.H.H.u.0.0.0.0.q.X > > > > > > > > > > > > ",
"> > > > > > > > > > > > > > > > > > > > > > f f   1 1 < 2   f s , > > > > $ b.0.0.h h K.r.e.e.e.K.h h d.0.0.0.p.p > > > > > > > > > > > > > ",
"> > > > > > > > > > > > > > > > > > > > > > > > > >   ` . > > > > > > >   B.0.0.0.0.0.F.H.H.D.J.F.0.0.b.0.0.0.j   > > > > > > > > > > > > > ",
"> > > > > > > > > > > > > > > > > > >           . X   . O           >   m.u.0.0.0.0.G.S.8.L.9.8.S.j.0.8.0.0.d   > > > > > > > > > > > > > > ",
"> > > > > > > > > > > > > > > > > >   > X v.v.  ~ ( ( ! ^   v.b.h.> >   q.0.0.j 0.0.H.K.b.K.m.x.D.j.0.0.0.0.d   > > > > > > > > > > > > > > ",
"> > > > > > > > > > > > > > > > >   > - c.u.$ B A Z B B   u.0.a   > >   8.v.u.0.0.0.D.D.A.S.Z.A.S.j.0.0.0.0.d   > > > > > > > > > > > > > > ",
"> > > > > > > > > > > > > > > > O >   B.5.t.N M B A B + 0.q.j   > > >   0.0.0.0.0.0.p.H.P.P.a D.j.h d.0.0.0.f   > > > > > > > > > > > > > > ",
"> > > > > > > > > > > > > > >   >   n.0.9.: B B B B   0.6.u.j   > > >   q.0.0.0.0.p.H.a D.H.H.Y.g H.a 0.0.0.8.j   > > > > > > > > > > > > > ",
"> > > > > > > > > > > > > >   > >   u.0.9.: B B B B   0.v.u.j   > > >   8.0.0.u.J.H.h 8.H.H.H.Y.8.g H.D.0.0.0.j   > > > > > > > > > > > > > ",
"> > > > > > > > > > > > >   > > >   u.n.9.: B B B B   0.0.0.j   > > >   a.0.0.0.7.K.0.p.C.V.k K.5.p.V.k 0.0.p.0.f > > > > > > > > > > > > > ",
"> > > > > > > > > > > >   > > > >   0.0.t.: Z V B B   0.0.0.8.x   > > >   0.8.c.0.0.0.0.0.0.0.p.p.6.s.s.0.0.0.d.t.X > > > > > > > > > > > > ",
"> > > > > > > > > > >   > > > > > > X 0.6.y.m B B B C * p.0.0.7.s > > > > X 8.i.0.0.0.0.0.p.0.6.s.6.6.p.0.0.0.u.p.g     > > > > > > > > > > ",
"> > > > > > > > > >   > > > > > > > > $ j h 2 c v b v v   g j h h X > > > >     g h j g g g h h g g g g j h j g g g g g   > > > > > > > > > ",
"> > > > > > > > >   > > > > > > > > > >     X       X                 > > > > >       . .   X                     .         > > > > > > > > ",
"> > > > > > > >   > > > > > > > > > > > > > > > > >   R   > >   > > > > > > >   > > > > >   `   > > > > > > > > > > > > > > > > > > > > > > ",
"> > > > > > >   > > > > > > > > > > > > > > > > > >   H   > > >   > > > > >   > > > > > >   F   > >                               > > > > > ",
"> > > > > >   > > >   X                                       > > > > >             .       P         v.Y.Y.z.n.v.z.z.n.n.x.v.v.  > > > > > ",
"> > > > >   > > > >   h.Y.Y.z.z.z.z.z.z.z.z.z.z.z.z.z.M.m.v.  > >   > > X ..:.:.X.X.X.X.E + ) X Y T         X   O           X     > > > > > ",
"> > > >   > > > > >         $   X   X   X X   o   %   +   %   > > > - >       . . . .       z         a.  Y.  w.O   r.  Y.  e.  > > > > > > ",
"> >                         $       X     X X     X   +   $   > > > >       K . . . . P ; ;.-.-.Y   =.,.,.,.,.,.,.,.,.,.,.,.,.  > > > > > > ",
"> > > o  .O.@.| | | ' I.  %.$.Y.Y.Y.$.$.$.$.$.$.$.$.$.$.$.$.&.X > > > > >   P . R U   i   .         $.@.#.#.#.#.#.#.#.#.#.#.#.  > > > > > > ",
"> > > >               % o O.@.@.o.o.O.O.O.O.O.O.O.O.O.O.O.O.@.*.O - > > >   K   K G   F q z I R O $.@.'                         > > > > > > ",
"> > > > > > > > > > > >   X     o   o       o o   o   o X { @.[ <.X X             .             %.o.E @ 4 4 4 4 4 4 4 4 4 4   > > > > > > > ",
"> > > > > > > > > > > > > >   8 4 4 4 w w 4 3 4 8 w 4 4 4   } @.[ $.$.%.%.$.%.$.%.%.%.%.%.$.%.$.#. .  8 G G G G F G G 8 G S   > > > > > > > ",
"> > > > > > > > > > > > > >                                   ' O.O.@.O.@.@.@.@.@.@.@.@.@.@.@.@. .                        X   > > > > > > > ",
"> > > > > > > > > > > > > > >   I L S G G K + I.>.2.o H K L 4                                     7 H D i   U.v.v.$ u G G H X > > > > > > > ",
"> > > > > > > > > > > > > > > O e F 8 K K F . 3.. 4.  H H J H 8 y e e e w 8 8 8 8 8 8 9 r e r 7 8 P H G   U.    O m.  G F q X > > > > > > > ",
"> > > > > > > > > > > > > > > >     . . . .     1.      . . .   X z.m.z.. . . . . .   . U.m.g.. . . .     b.  Y.Y.m.X . .   > > > > > > > > ",
"> > > > > > > > > > > > > > > > > . 9 P )   _ O 1.  w     I ) O w.      n.. H P P P   Y.      l.O P P I   x.    X y.X z w   > > > > > > > > ",
"> > > > > > > > > > > > > > > > > X 4 J z O #   1.X   Y.  H P   g.Y.Y.  B.  P 7 H H   M.o Y.  n.  J 7 J D   c.c.n.$ 5 G   > > > > > > > > > ",
"> > > > > > > > > > > > > > > > > >   4 I z k.  2.X 2.o 8 H P   m.Y.Y.  c.  P H H H   z.  Y.  M.. H H G F 4       q P 3   > > > > > > > > > ",
"> > > > > > > > > > > > > > > > > > > . 9 L . 4.2.2.X 8 P H P   h.      u.  P H H H o z.      9.  H H H H G 8 4 7 H 8   > > > > > > > > > > ",
"> > > > > > > > > > > > > > > > > > > >         +.              & n.n.8.X               B.n.0.=                       > > > > > > > > > > > ",
"> > > > > > > > > > > > > > > > > > > > > . P I   4 H 7 H H H J 0       6 H P G P G H e       q P K H P 3 H P J _ . > > > > > > > > > > > > ",
"> > > > > > > > > > > > > > > > > > > > > > t 6 P P H H P H H G P 9 7 7 I H H P w H H P w 8 7 H H H H H K P F e l > > > > > > > > > > > > > ",
"> > > > > > > > > > > > > > > > > > > > > > > > . . . . . . . . . . . . . . . . . . . . . . . . . . . . . .   > > > > > > > > > > > > > > > ",
"> > > > > > > > > > > > > > > > > > > > > > > > > > > > > > > > > > > > > > > > > > > > > > > > > > > > > > > > > > > > > > > > > > > > > > ",
"> > > > > > > > > > > > > > > > > > > > > > > > > > > > > > > > > > > > > > > > > > > > > > > > > > > > > > > > > > > > > > > > > > > > > > ",
"> > > > > > > > > > > > > > > > > > > > > > > > > > > > > > > > > > > > > > > > > > > > > > > > > > > > > > > > > > > > > > > > > > > > > > ",
"> > > > > > > > > > > > > > > > > > > > > > > > > > > > > > > > > > > > > > > > > > > > > > > > > > > > > > > > > > > > > > > > > > > > > > ",
"> > > > > > > > > > > > > > > > > > > > > > > > > > > > > > > > > > > > > > > > > > > > > > > > > > > > > > > > > > > > > > > > > > > > > > ",
"> > > > > > > > > > > > > > > > > > > > > > > > > > > > > > > > > > > > > > > > > > > > > > > > > > > > > > > > > > > > > > > > > > > > > > ",
"> > > > > > > > > > > > > > > > > > > > > > > > > > > > > > > > > > > > > > > > > > > > > > > > > > > > > > > > > > > > > > > > > > > > > > ",
"> > > > > > > > > > > > > > > > > > > > > > > > > > > > > > > > > > > > > > > > > > > > > > > > > > > > > > > > > > > > > > > > > > > > > > ",
"> > > > > > > > > > > > > > > > > > > > > > > > > > > > > > > > > > > > > > > > > > > > > > > > > > > > > > > > > > > > > > > > > > > > > > ",
"> > > > > > > > > > > > > > > > > > > > > > > > > > > > > > > > > > > > > > > > > > > > > > > > > > > > > > > > > > > > > > > > > > > > > > ",
"> > > > > > > > > > > > > > > > > > > > > > > > > > > > > > > > > > > > > > > > > > > > > > > > > > > > > > > > > > > > > > > > > > > > > > "
};
