/* XPM */
static char *result[] = {
/* columns rows colors chars-per-pixel */
"70 70 25 1 ",
"  c black",
". c #010000",
"X c #000100",
"o c #010100",
"O c #000001",
"+ c #010001",
"@ c #000101",
"# c #010101",
"$ c #020000",
"% c #020001",
"& c #000200",
"* c #010200",
"= c #020200",
"- c #000002",
"; c #000003",
": c #020002",
"> c #030002",
", c #FE00FE",
"< c #FF00FE",
"1 c #FF01FE",
"2 c #FE00FF",
"3 c magenta",
"4 c #FE01FF",
"5 c #FF01FF",
"6 c None",
/* pixels */
"33333333333333333335333333333333333333323333333333333333353333333333<3",
"33333333233666666633333<33333333333333333334,3333333<33323333<33333<33",
"3333333336666666666633333333335333335333333333333333333333333333<33333",
"233333336        .66633333333333333335333333<3333333353332333333533323",
"335333336@O OX+O6   666333333353353333<3233333333323333333<23333333333",
"33233336 O  .@XoXXXX66333536633333333333333333333333333333333333333333",
"3333336XO. +OX       X6636666333333333333323333333333333343333,2333233",
"333336OOX   X OOo      6666  66633333<333333353333333333333353<3333333",
"33336-O O..XX  O       66OO6 6663333333333333333335333353333333<333533",
"3<336O@ . @X         666   ..OX6633333333333333333333332333333333<3333",
"2236 @    X. OX X.  66666  O  @ 63332363333333353323363333323333333333",
"3336OOO.  O   ... Xo+6666  O.. X66336633333333333336333333333353333<33",
"<36 O  #OO@ . .6666O.. 666 .O. X 63666 33633332333663 33633,3333335333",
"3<6+O   O.OOXX. O666333O 66 +.. o6O6O 336333333<333-333333323333333333",
"33 OXO  X+ .@#Oo6  66633- O. @. XO6O 6.6X363433333 33.3*36333333333333",
"33 O@     ...@.OOoX663333 O  @.. OO 6..o6.3333323333  O6 3233333533333",
"33 O. O     XX  .+.@&6633$6   O+ X 6. @X  333333333      3333333333333",
"33O   +  O   O  @X.O $3333 O  O.. X.XX O.35333333363 X 3353335333<3333",
"3  +  OO .  O   O o   3333 6+o O.   ++  633353333 533 3633326633333333",
"3 OOo OX .X.       O333<333XO  O+  X.  633333333233-  3333666666333533",
"3 OOXo@X .33   .   66353336.OO OX+O  o66 .3<33323336663 $666  66633333",
"3O. XOOX 633336OOOO=333336 O OXOX XX  6 .<33333353666 3366OO66  666333",
"3 OOOo    663333366  $336-O  +X O..X 6..333<3333336O6 336  6O+XX 66633",
"3X OOO.X 6666633333333366O  o O  . .X .33333333336 O .5 666  . .X 6663",
"3@6   .oX   666333333366O. .+ XXOX# X 633333332336O6 .O  6O   XO.  666",
"3.6  O OO+ 6  666333332OO6..X    O#.O 63332353333.O O.o+ 66    XO. X66",
"3X6OX    XOOXX66333335  6.+XX  O  . X.66333333333 OXO@X   66O  .O.. X6",
"<  O    X  ...X&66333333@.+O X OXOX O@ 6333333336 O .OX 63       O. @ ",
"53  O.O OX.XX+  %335333   X  .O  OXO X 6333333566  ooOo 6333 O   O.+ X",
"333@ @O X   O    33533 6X .  6 .  O.   663335336O6 ..X  .3<33 O   O.OX",
"33332O    OX   33<333  6O  66X. O O .OX66323333X 6 .X   +53366 O .X.. ",
"333<333O     .663333333-   6 .5O6  @...o6633336 O .OX  .33336O  O  X.O",
"3333353236@O  .333333333366>..3 6X XX OX.633336O  .OX O.3323 +6 O     ",
"33333323333366  $33333233335334 6O  @.O. 33333.O  .X   $3333 OX OO   .",
"333333333335333353333333333<3333 O  O    33333 OX.OX   .35<6 @ . O.   ",
"333333<3333333<35333<3333333333<  O.   6333333o X @X. $33236O  .OXO   ",
"333333333333333<33333<33333333333 O    .333333       .33336 O .o@  663",
"3333333333<333333333333333333233333-    o333< 6X   X.$33326O6 .OX  .53",
"3333333335<33333333333333333<3353333363-$3323 6O X 6 .3336 O ..X  .333",
"333333333333333323333333<33333333333333333333 3+  3 .33336O  .OX  .<33",
"33333333332333333333333333333333333333333333333@  3X.3333 O  .X   .333",
"333<3333353333333333333335333333333333333332<333363 .3336   .OX   $333",
"33333333335333533333333333333333<333333333333333333353336O  .@X ..3233",
",3333333333333333233333333323333333333333333333335333336 @ . X  $:3333",
"333<33333323333333333323333333333253<3333333333333333336O6 .OX  o53332",
"333333333333333233333<3333333<3333333332333333333333336 O +.X O $33333",
"3323333333333333333333333333333333333333333333333533336O  o+X  $333333",
"3333333533333353333333333333352333333323333333333<3333 @ ..X  ..333333",
"323333333333<33333323333333333353333333333333333333333  X.OX   $333333",
"3333335333<33333333333<3333333333<53333333333333333<33  X.O   .3333233",
"33333353<333333333333<33333343333333533333332333333233        $333333<",
"23233333333333353333333333333<5333343335<33,333333533 66   6 $33335233",
"33333<33<3353<333333<3333533333333333333333<333335333 3O X66 .2333333<",
"3333333333333333333333333333333323333333333333333333335; X3 .333333332",
"33333333333333333333333333333333<33333333<33333333323333363 $333333333",
"3323333333333333333333333333333<33333533333<3333333333333<333333233333",
"<333333333<33333533323333333<5333<33333<333333335333333333333333333333",
"333333333333333333<3<333333333333333333333333<3<3333333333333333333333",
"333333333333333333<333,333333333333333333333333333333433333<3333333333",
"333333<333333333333333333333333333333333353333333333333333333333333333",
"333<5353335335<33333333333333333333333333333323332333333<3332333333323",
"355322<33353333333333333333<3323333333323333333333333333333533<3333<35",
"33333333<3333333333333333332333333323323333333333<333333333<3255333233",
"<3333<323353333333353233333333335333333333333333333333333<<33333333333",
"33333333333233<333333333333333333<333333333353533333333<33333333333333",
"3333333333333333333333333333335333531353333333333333333333333333<33332",
"3333<33333233333333333333343333<3333333<33<33333533333333333223<523333",
"3333353<33333333,33333333333333333333333333333333333233333333333333333",
"333333<353333333333333<<33333<3<33333333333333333323333333333333333333",
"3333235333<3<35333333<3333333333333333333<2335332333233333333533333333"
};
