/* XPM */
static char *result[] = {
/* columns rows colors chars-per-pixel */
"70 70 135 2 ",
"   c black",
".  c #010000",
"X  c #000100",
"o  c #010100",
"O  c #000001",
"+  c #010001",
"@  c #000101",
"#  c #010101",
"$  c #060606",
"%  c #060706",
"&  c #070706",
"*  c #060607",
"=  c #060707",
"-  c #070707",
";  c #181A24",
":  c #191A24",
">  c #181B24",
",  c #191B24",
"<  c #181A25",
"1  c #191A25",
"2  c #181B25",
"3  c gray14",
"4  c #252424",
"5  c #242524",
"6  c #252524",
"7  c #242425",
"8  c #252425",
"9  c #242525",
"0  c #252525",
"q  c #3E3E3E",
"w  c #3F3E3E",
"e  c #3F3F3E",
"r  c #3E3E3F",
"t  c #3F3E3F",
"y  c #3E3F3F",
"u  c #3F3F3F",
"i  c #5F0F02",
"p  c #5F0E03",
"a  c #5F0F03",
"s  c #72621C",
"d  c #73621C",
"f  c #72631C",
"g  c #73631C",
"h  c #72621D",
"j  c #73621D",
"k  c #72631D",
"l  c #73631D",
"z  c #10306E",
"x  c #11306E",
"c  c #10316E",
"v  c #11316E",
"b  c #10306F",
"n  c #11306F",
"m  c #10316F",
"M  c #11316F",
"N  c #902426",
"B  c #912426",
"V  c #902526",
"C  c #912526",
"Z  c #902427",
"A  c #912427",
"S  c #902527",
"D  c #912527",
"F  c #A05E26",
"G  c #A15E26",
"H  c #A05F26",
"J  c #A15F26",
"K  c #A05E27",
"L  c #A15E27",
"P  c #A05F27",
"I  c #A15F27",
"U  c #C64E64",
"Y  c #C74E64",
"T  c #C64F64",
"R  c #C64E65",
"E  c #C64F65",
"W  c #C74F65",
"Q  c #B4A052",
"!  c #B5A052",
"~  c #B4A152",
"^  c #B5A152",
"/  c #B4A053",
"(  c #B5A053",
")  c #B4A153",
"_  c #B5A153",
"`  c #D89A46",
"'  c #D99A46",
"]  c #D89B46",
"[  c #D99B46",
"{  c #D89A47",
"}  c #D99A47",
"|  c #D89B47",
" . c #D99B47",
".. c #F49760",
"X. c #F49661",
"o. c #F59661",
"O. c #F49761",
"+. c #285AC6",
"@. c #295AC6",
"#. c #285BC6",
"$. c #295BC6",
"%. c #285AC7",
"&. c #295AC7",
"*. c #285BC7",
"=. c #687EC0",
"-. c #697EC0",
";. c #687FC0",
":. c #697FC0",
">. c #687EC1",
",. c #697EC1",
"<. c #687FC1",
"1. c #697FC1",
"2. c #EAD684",
"3. c #EBD684",
"4. c #EAD784",
"5. c #EBD784",
"6. c #EAD685",
"7. c #EBD685",
"8. c #EAD785",
"9. c #EBD785",
"0. c #F4D084",
"q. c #F5D084",
"w. c #F4D184",
"e. c #F5D184",
"r. c #F4D085",
"t. c #F5D085",
"y. c #F4D185",
"u. c #F5D185",
"i. c #ABB9E2",
"p. c #AAB8E3",
"a. c #ABB9E3",
"s. c #FFF9EB",
"d. c #FEFFFE",
"f. c #FFFFFE",
"g. c None",
/* pixels */
"; ; : > > > > > > : > > > > > < > > > > > > > > > > > > > > > > > > > > > > > > > > > > > > > > > > > > > > > > > > > > > > < > > > > > > > ",
"< : > > > > > > > > > > > > > > < > > > > > > > > > > > > > > > > > > > > > > > > > > > > > > > < > > > > > > > > > : > > > < > > > < > > > ",
"> > > > > > > > > : > > > > > > > > > > > > > > > > > > > > > > > > > > > > > > > > > > > > > > > > > > > > > > < : > : > > > > > > > > > > ",
"> > > > > > > > > > > > > > > < > > > > > > > > > > > > > > > > > > > > > > > > > > > > > > > > > > > > > > > > > > > < < > > > > > > > > > ",
"> > : > > : > > < > > > > > > > > > > > > > > > > > > > > > > > > > > > > > > > > > > > > > > > > > > > > > > > > > > > > > > > > > : > > > ",
", > > < > > > > : > > < > > > > > > > > > > > > > > > > > > > > > > > > > > > > > > > > > > > > > > > > > > > > > > > > > > > > > > > > > > ",
": > > < > > > > > > > > > > > > : > > > > > > > > > > > > > > + o o o o o o o > > > > > > > > > > < > > > > > > > > > > > > > > > > > > > > ",
"> > > > > > > > > > > > > > > > > < > > > > > > > > > > > > + j ~ ~ 8.~ ~ 3.) o > > > > > > > > > > > > > > > > > > > > > > > > > > > > > > ",
"> > > > > > > > : > > > > > > > > > > > > > > > > > > > > + j ^ 8._ 8.5.3.3.) h o > > > > > > > > > > > > > > < > > > > > > > > > > > > > > ",
"> > > : > > > > > > < < > > > > > > > > > > > > > > > > > O ^ ^ ^ _ E E ~ ! 7.^   > > > > > > > > > > > > > > > > > > > > > > > > > > > < > ",
"> > < > > > > < > > > > > > > > > > > > > > > > > > < > # Z C S R U U Y Y Y Y Y + + > > > > > > > > > > > > > > > > > > : > > > < > > > > > ",
"1 > > > > > > > > > > > > > > > > > > > > > > > > > > > + Z V D U ^ / / / W W T + + + > > > > > > > > > > > : > > > > : : > < : > > > > > > ",
"> > > > > > > > > > > > > > > > > > > > > > > > > > > X X D Q ( ( 3.^ 6./ / ( / 4.4.X X > > > > > > > > > > > > > > > > > > > > > < > > > > ",
"> > > > > > : > > > > > > > < > > > > > > > > > > > X X # # Q @ @ . . X # # # # / 4.2.2.o X @ > > : > > > > > > > > > > > > > > > > > > > > ",
"> : > : > > > > > > > > > > > > > > > > > > > > > # / / k @ O O   @ X . # # @ X o d j j 2.^ X > < > < > > > > > > > > > > > > > > > > > > > ",
"> > > > < > > < > > > > > > > > > > > > > > > > # ^ d h h # # H H H H H H H @   O d d s h 9.X > > > > > < > > > > > > > > > > > > > > > > > ",
"> > > > > > < > : > : > > < > > > > > > > > > > # d d h O # H H H H H H H H H O O d d h . . > > > > > < > > > > > > > > > > > > > > < > > > ",
"> > : > > > > > > > > > > : > > > < > > > > > > # # # # X X H  .s.@  . .@ s.P P   # d #   > > > > > > > > > > > > > > > > > > > > > > > > > ",
"> > > > > > > > > > > > > > > > > > > > > > > > > > > > O X O H  .@  . .@  .P X # # # # ; > > > > > > > > > > > > > > > > > > > > > > > > : ",
"> > > > > > < > > : > > > > > < > > > > > > > > > > > > > O @ H  . . . . .` X X @ # ; ; > > > > > > > > > > > > > > > > > > > > > > > > > : ",
"> > > > > > > < > > > > > > > < , > > > > > > > > > > > > > @ @ H  . . . .H @ @ ; ; ; ; > > > > > > > > > > > > > > > > > > > > > > > > > > ",
"> > < > > > > > > > > > > > > > > > > > > > > > > > > > > > @ @ H |  . .H o # # ; ; ; ; > > > > > > > > > > > > > > > > > > > > > > > > > > ",
"> > > > > > > > > > > > > < : > > > < > ; > > > > > > > > > o @ @ H H H H o ; # ; > > > > > > > > > > > > > > > > > > > > > > > > : > > > > ",
"< > > > > > > > > > > > > > > < > > > > < > > > > > > > O X 3 e.e.| H H L o o o ; @ > > > > < > > > : > > > > > > > > > > > > > < > < > > > ",
"> > > > > > > > > > > > > > > > > > > > > > > > > > > O 3 9.X.3 t.t.t.t.L e e o o # : > > > > > > > > > > > > > > > > > > : > > > > > > > > ",
"> < > > > > > > > > 2 : > > > > > > > > > > > > > > . y 6 q 9.3 | t.t.t.t.e 6.X.o # X > > > > : > > > > > > > > > > > > > > > > > > > > > > ",
"> : > > > > > > > > > > > > > > > > > > > > > > > O 8.7 @ 5 u 7 S [ u.} S u r 6.o a o > > > > > > > > > > > > > > > > > > > > > > > > > > > ",
"> > > > > > > > > < > > > > > : > > > < > > > > @ 8.o.4.X 4 w 8 D B ` D C q 4 . + a a X > > > > > > > > > > > > > > > > > > : > > > > > : > ",
"> > > > > > > > > > < > > > > > > > > > > > > : # + 8.. o o 9 9 ] C S Z } y . . # a a @ > > > > > > > > > > > > > > > > > : > > > , : > > > ",
"> > > > > < > > > > < > > > > > > > : > > > > X # . . X ; X 9.9 ' S A N [ r 8.# ; L w.K o > > > > > > > > > > > > > > > > > > > > > > 1 > > ",
"> > > > > > > < > > > > > > > > > > > > > > > o q.  o ; ; @ o.7.4 S } B C u o.  ; @ L H X > > > > > > > > > > > > > > > : > > > > > > > > > ",
"> > > > : > > > > > > > > > > > > > > > > > X ' ' q.  ; ; + 3.4 C ' t.} B t 2.# : ; X ] o > > > > > : > > > > > > > > > > : > > > > > > > < ",
"> > > > : > > > > > > > > > > > > > > > > > @ ' ' X ; : #   5 6  .0.0.]  .0 q - O ; . ' P . > > > > : > > > 1 > > > < > > > > > > < > > > > ",
"> > > : > > > > > > > > > > > > > > > > >   F ' ' . ; ; + 7.7 O ] e.` r.' + t % @ @ . G [ o > > > > : : > > < > : > > > > > > > < > > > > > ",
"> > > > > > > > > > > > > > > > > > > > > + ' ' + ; ; ; @ ..7.+ | ' [ { J X y 6.w @ : . ' ' + : : : : > > > > > > > > > > > > > > > < > > > ",
"> > > > > < > > > > < > > > > > > > > > o K q.L @ ; ; O 4 8.5 + d d d d   O 8.X.7.@ : . . ' + : : : : > > > > > > > > < > > > > > > > : > > ",
"> < > > > > > > > > > > > > > > > > > > X H q.@ ; ; ; o 8 + 4 j ! 5.3.^ j j y 9.y @ : ; . ' ' + > > > > : > > > > > > > > > > > < > < > > > ",
"> > > > > > > > > > > > > > : > > > > > o q.G @ ; ; # @ 4.. 8 s d f k h ) k y y y @ : ; . e.w.# > > > > > > > > > > > > > > > > > > > > > > ",
"> > > > > > > > > > > > > > > > > > > . q.q.q.@ ; ; o 9.O.5.j 9.8.Q $ $ = h y y & @ ; @ ' ' q.' # > < < > > > > > > > > > > > > > > > > > > ",
"> > : > > > > > > : > > > > > > > > > > @ q.G @ ; X # 3     + + # c v v b l * ^ @ @   y.@ ' r.0.. > > > > > > > > > > > > > > > > > : > > > ",
"> > > < > , > > > > > > > > > > > > > > @ @ @ @ ;   # # n n b m @.;.=.-.@.m g 3.X : @ q.G o e.` + > > > > > > > < > > > > > > > > > > > > > ",
"> > : > > > : > > > > > > > > > > > > > > > > ; ; ; + + %.<.>.;.=.&.n m n z l 3.f : ;   o ' F O > : > : < > > > > > > > > > > < > > 1 < < 2 ",
"> > > > > < : > > > : > < > < < > > > > > > > ; ; ; ; o n @.>.@.a.;.=.,.*.M n s 4.g ; : @ @ @ : : : : < > > > > > > > > > > > , > > > > > > ",
"< : > > > > > > > > > > > : > > > > > > > > > > > ; + v >.a.a.a.M $.*.%.;.-.-.j 4.h ~ @ > > > > > > > > > > > > : > > > > > > > > > > > > > ",
"2 > : > : > > > : > : < > : > > > > > > > > > > + &.&.a.a.&.&.o > > > >   *.:.*.M #.x j j + > > > > > > > > > > > > > > > > > > > < : > > > ",
"> > > > > : < > > > > > > > > > > > > > > > > > X X %.a.a.&.z @ > > > >   m >.%.x x x j + > > > > > > > > > > > > > > > > > > > > > > > < > ",
"> > > > > < > > > > > > > > > > > > > > > > > > @ M M >.:.c c > > > > > # @.@.*.%.x x @ > > > > > > > > > > > > : > > > > < > > > > > > > > ",
"> > > > > > > > > > > > > > > > > > > > > > > > > +.+.>.>.c > : > > > > # v M M *.%.x > > > > > > > > > > > > > > > > > > > > > : > > > > > ",
"> > > > > > > > < > < > > > > > > > > > > > > > +.+.>.>.c v > > > > > > + b n n -.-.&.> > > > > > > > > > > > > > > > > > > > > > > > > > > ",
"> > > > > > > > > : > > < > > > > > > > > > > > > +.>.>.c c c > > > > > O n -.-.1.1.1.b > > > > > > > > > > > > > > > > > > > > > > > > > > ",
"> > > > > > > > > > : > 2 > > > > > > > > > > > O x ;.c c c c + > > > > @ p.p.i.d.f.+ + > > > > > > > > > > > > > > > > > > > > > > > > > > ",
"> > > > < > > > > : > < > > > > > > > > > > > > o c c c c c c + > > > > + + g.J H i . > > > > > > > > > > > > < > > > > > > > < > > : > > > ",
"> > > > > > > > > > > > > < > > > > > > > > > > o o a a a p @ @ > > > > > + # J J H X > > > > > > > > > > > > : > > > > > > > > > < > > > > ",
"> > > > > > > > > > > > > > > > > > > > > > > > > o o a a p @ > > > > > > > # ' ` J X > > > > > > > > > > > > > > > > > > > > > < > > > > > ",
"> > > > > > > > > > > > > > > > > > > > > > > > > > > o a a + > > > > > > > . L } | X > > > > > > > > > > > > > > > > > > > > > > > > > > < ",
"> > > > > > > > > > > > > > > > > > > > > > > > > > > o a a # # > > > > > >   J } | X > > > > > > > > > > > > > > > > > > > > > : > > > < > ",
"> > > > > < < > > > > > > > > > > > > > > > > > > > # # F F X > > > : > > > > o ] F # > > > > > > > > > > > > > > > > > > > > > > > > > > > ",
"> > 2 1 > 2 > > > > > > > > > > > > > > > > > > > > > # F F X > > > : > > > < o ] F # > > > > > > > > > > > > > > > > > > > > > > > > > : < ",
"> > > > > > > > > > < > > > > > > > > > > > > > > > > # F ` o > > > : > > > > O ` F X > > > > > > > > > > > > > > > > > > > > > > > > > > > ",
"> > > > > < > > > > > > : > > > > > > > > > > > > > > J J ` o > > > : > > > > O { F . > > > > > > > > > > > > > < > > > > > > > > > > > > > ",
"> > > > < > < > > > > > > < > > > > > > > > > > > > + P 0.I > > > > > > > > > + } F + > > > > > > > > > > > > > > > > > > > > > > > > > > > ",
"> > > > > > > > > > > > > > > > > > > > > > > > > > + P 0.I > > > > > > > > + P 0.I > > > > > > > > > > > > > > > > > > > > > > > > > > > > ",
"> > > > > > > > > > > > > > > > > > > > > > > > > > . P @ I O > > > > > > > . P @ I O > > > > > > > > > > > > > > > > > > > > > > > > > > > ",
"> > > > > > > > > > > < > > > > > > > > > > > > > > + X P # I # > > > > > > + X P # I # > > > > > > > > > > > > > > > > < > > > > > > > > > ",
"> > > > > < > > > > > > > > > > > > > > > > > > > > # } } P # I # > > > > > # } } P # I # > > > > > > > > > > > > > > : > > : < > > > > > > ",
"> > > < > > > > > > > > > > > > > > > > > > > > > > #   @ X + + + > > > > > #   @ X + + + > > > > > > > > > > > > > > > > : > > > > > > > > ",
"> < < > > < : > > > > > > > > > > > > > > > > > > > > > > > > > > > > > > > > > > > > > > > > > > > > > > > > > > > > > > > > > > > > < > : ",
"> > > , > > > > > > > > > > > > > > > > > > > > > > > > > > > > > > > > > > > > > > > > > > > > > > > > > > > > > > > > > > > > > > > > > > ",
"< > > > > : > > > > > > > > > > > > > > > > > > > > > > > > > > > > > > > > > > > > > > > > > > > > > > > > > > > > > < > > > > > > < > > > ",
"> > : > > < > > > > > > > > > > 2 > > > > > > > > > > > > > > > > > > > > > > > > > > > > > > > > > > > > > > > > > > > > > > > > > > > > > "
};
