/* XPM */
static char *result[] = {
/* columns rows colors chars-per-pixel */
"70 70 136 2 ",
"   c black",
".  c #010000",
"X  c #000100",
"o  c #010100",
"O  c #000001",
"+  c #010001",
"@  c #000101",
"#  c #010101",
"$  c #060606",
"%  c #060706",
"&  c #070706",
"*  c #060607",
"=  c #060707",
"-  c #070707",
";  c #181A24",
":  c #191A24",
">  c #181B24",
",  c #191B24",
"<  c #181A25",
"1  c #191A25",
"2  c #181B25",
"3  c gray14",
"4  c #252424",
"5  c #242524",
"6  c #252524",
"7  c #242425",
"8  c #252425",
"9  c #242525",
"0  c #252525",
"q  c #3E3E3E",
"w  c #3F3E3E",
"e  c #3F3F3E",
"r  c #3E3E3F",
"t  c #3F3E3F",
"y  c #3E3F3F",
"u  c #3F3F3F",
"i  c #5F0F02",
"p  c #5F0E03",
"a  c #5F0F03",
"s  c #72621C",
"d  c #73621C",
"f  c #72631C",
"g  c #73631C",
"h  c #72621D",
"j  c #73621D",
"k  c #72631D",
"l  c #73631D",
"z  c #10306E",
"x  c #11306E",
"c  c #10316E",
"v  c #11316E",
"b  c #10306F",
"n  c #11306F",
"m  c #10316F",
"M  c #11316F",
"N  c #902426",
"B  c #912426",
"V  c #902526",
"C  c #912526",
"Z  c #902427",
"A  c #912427",
"S  c #902527",
"D  c #912527",
"F  c #A05E26",
"G  c #A15E26",
"H  c #A05F26",
"J  c #A15F26",
"K  c #A05E27",
"L  c #A15E27",
"P  c #A05F27",
"I  c #A15F27",
"U  c #C64E64",
"Y  c #C74E64",
"T  c #C64F64",
"R  c #C64E65",
"E  c #C64F65",
"W  c #C74F65",
"Q  c #B4A052",
"!  c #B5A052",
"~  c #B4A152",
"^  c #B5A152",
"/  c #B4A053",
"(  c #B5A053",
")  c #B4A153",
"_  c #B5A153",
"`  c #D89A46",
"'  c #D99A46",
"]  c #D89B46",
"[  c #D99B46",
"{  c #D89A47",
"}  c #D99A47",
"|  c #D89B47",
" . c #D99B47",
".. c #F49760",
"X. c #F49661",
"o. c #F59661",
"O. c #F49761",
"+. c #285AC6",
"@. c #295AC6",
"#. c #285BC6",
"$. c #295BC6",
"%. c #285AC7",
"&. c #295AC7",
"*. c #285BC7",
"=. c #295BC7",
"-. c #687EC0",
";. c #697EC0",
":. c #687FC0",
">. c #697FC0",
",. c #687EC1",
"<. c #697EC1",
"1. c #687FC1",
"2. c #697FC1",
"3. c #EAD684",
"4. c #EBD684",
"5. c #EAD784",
"6. c #EBD784",
"7. c #EAD685",
"8. c #EBD685",
"9. c #EAD785",
"0. c #EBD785",
"q. c #F4D084",
"w. c #F5D084",
"e. c #F4D184",
"r. c #F5D184",
"t. c #F4D085",
"y. c #F5D085",
"u. c #F4D185",
"i. c #F5D185",
"p. c #ABB9E2",
"a. c #AAB8E3",
"s. c #ABB9E3",
"d. c #FFF9EB",
"f. c #FEFFFE",
"g. c #FFFFFE",
"h. c None",
/* pixels */
"; ; : > > > > > > : > > > > > < > > > > > > > > > > > > > > > > > > > > > > > > > > > > > > > > > > > > > > > > > > > > > > < > > > > > > > ",
"< : > > > > > > > > > > > > > > < > > > > > > > > > > > > > > > > > > > > > > > > > > > > > > > < > > > > > > > > > : > > > < > > > < > > > ",
"> > > > > > > > > : > > > > > > > > > > > > > > > > > > > > > > > > > > > > > > > > > > > > > > > > > > > > > > < : > : > > > > > > > > > > ",
"> > > > > > > > > > > > > > > < > > > > > > > > > > > > > > > > > > > > > > > > > > > > > > > > > > > > > > > > > > > < < > > > > > > > > > ",
"> > : > > : > > < > > > > > > > : > > > > > > > > > > > > > > + o o o o o o o > > > > > > > > > > < > > > > > > > > > > > > > > > > : > > > ",
", > > < > > > > : > > < > > > > > < > > > > > > > > > > > > + j ~ ~ 9.~ ~ 4.) o > > > > > > > > > > > > > > > > > > > > > > > > > > > > > > ",
": > > < > > > > > > > > > > > > > > > > > > > > > > > > > + j ^ 9._ 9.6.4.4.) h o > > > > > > > > > > > > > > > > > > > > > > > > > > > > > ",
"> > > > > > > > > > > > > > > > > > > > > > > > > > > > > O ^ ^ ^ _ E E ~ ! 8.^   > > > > > > > > > > > > > > > > > > > > > > > > > > > > > ",
"> > > > > > > > : > > > > > > > > > > > > > > > > > < > # Z C S R U U Y Y Y Y Y + + > > > > > > > > > > > > > < > > > > > > > > > > > > > > ",
"> > > : > > > > > > < < > > > > > > > > > > > > > > > > + Z V D U ^ / / / W W T + + + > > > > > > > > > > > > > > > > > > > > > > > > > < > ",
"> > < > > > > < > > > > > > > > > > > > > > > > > > > X X D Q ( ( 4.^ 7./ / ( / 5.5.X X > > > > > > > > > > > > > > > > : > > > < > > > > > ",
"1 > > > > > > > > > > > > > < > > > > > > > > > > > X X # # Q @ @ . . X # # # # / 5.3.3.o X @ > > : > > > > : > > > > : : > < : > > > > > > ",
"> > > > > > > > > > > > > > > > > > > > > > > > > # / / k @ O O   @ X . # # @ X o d j j 3.^ X > < > < > > > > > > > > > > > > > > < > > > > ",
"> > > > > > : > > > > > > > > > > > > > > > > > # ^ d h h # # H H H H H H H @   O d d s h 0.X > > > > > < > > > > > > > > > > > > > > > > > ",
"> : > : > > > > > > > > > < > > > > > > > > > > # d d h O # H H H H H H H H H O O d d h . . > > > > > < > > > > > > > > > > > > > > > > > > ",
"> > > > < > > < > > > > > : > > > < > > > > > > # # # # X X H  .d.@  . .@ d.P P   # d #   > > > > > > > > > > > > > > > > > > > > > > > > > ",
"> > > > > > < > : > : > > > > > > > > > > > > > > > > > O X O H  .@  . .@  .P X # # # # ; > > > > > > > > > > > > > > > > > > > > > < > > > ",
"> > : > > > > > > > > > > > > < > > > > > > > > > > > > > O @ H  . . . . .` X X @ # ; ; > > > > > > > > > > > > > > > > > > > > > > > > > > ",
"> > > > > > > > > > > > > > > < , > > > > > > > > > > > > > @ @ H  . . . .H @ @ ; ; ; ; > > > > > > > > > > > > > > > > > > > > > > > > > : ",
"> > > > > > < > > : > > > > > > > > > > > > > > > > > > > > @ @ H |  . .H o # # ; ; ; ; > > > > > > > > > > > > > > > > > > > > > > > > > : ",
"> > > > > > > < > > > > > < : > > > < > ; > > > > > > > > > o @ @ H H H H o ; # ; > > > > > > > > > > > > > > > > > > > > > > > > > > > > > ",
"> > < > > > > > > > > > > > > < > > > > < > > > > > > > O X 3 r.r.| H H L o o o ; @ > > > > < > > > : > > > > > > > > > > > > > > > > > > > ",
"> > > > > > > > > > > > > > > > > > > > > > > > > > > O 3 0.X.3 y.y.y.y.L e e o o # : > > > > > > > > > > > > > > > > > > > > > > : > > > > ",
"< > > > > > > > > > > > > > > > > > > > > > > > > > . y 6 q 0.3 | y.y.y.y.e 7.X.o # X > > > > : > > > > > > > > > > > > > > > > < > < > > > ",
"> > > > > > > > > > > > > > > > > > > > > > > > > O 9.7 @ 5 u 7 S [ i.} S u r 7.o a o > > > > > > > > > > > > > > > > > > : > > > > > > > > ",
"> < > > > > > > > > 2 : > > > : > > > < > > > > @ 9.o.5.X 4 w 8 D B ` D C q 4 . + a a X > > > > > > > > > > > > > > > > > > > > > > > > > > ",
"> : > > > > > > > > > > > > > > > > > > > > > : # + 9.. o o 9 9 ] C S Z } y . . # a a @ > > > > > > > > > > > > > > > > > > > > > > > > > > ",
"> > > > > > > > > < > > > > > > > > : > > > > X # . . X ; X 0.9 ' S A N [ r 9.# ; L e.K o > > > > > > > > > > > > > > > > > : > > > > > : > ",
"> > > > > > > > > > < > > > > > > > > > > > > o w.  o ; ; @ o.8.4 S } B C u o.  ; @ L H X > > > > > > > > > > > > > > > > : > > > , : > > > ",
"> > > > > < > > > > < > > > > > > > > > > > X ' ' w.  ; ; + 4.4 C ' y.} B t 3.# : ; X ] o > > > > > : > > > > > > > > > > > > > > > > 1 > > ",
"> > > > > > > < > > > > > > > > > > > > > > @ ' ' X ; : #   5 6  .q.q.]  .0 q - O ; . ' P . > > > > : > > > > > > > > > : > > > > > > > > > ",
"> > > > : > > > > > > > > > > > > > > > >   F ' ' . ; ; + 8.7 O ] r.` t.' + t % @ @ . G [ o > > > > : : > > > > > > > > > : > > > > > > > < ",
"> > > > : > > > > > > > > > > > > > > > > + ' ' + ; ; ; @ ..8.+ | ' [ { J X y 7.w @ : . ' ' + : : : : > > > 1 > > > < > > > > > > < > > > > ",
"> > > : > > > > > > > > > > > > > > > > o K w.L @ ; ; O 4 9.5 + d d d d   O 9.X.8.@ : . . ' + : : : : > > > < > : > > > > > > > < > > > > > ",
"> > > > > > > > > > > > > > > > > > > > X H w.@ ; ; ; o 8 + 4 j ! 6.4.^ j j y 0.y @ : ; . ' ' + > > > > : > > > > > > > > > > > > > < > > > ",
"> > > > > < > > > > < > > > : > > > > > o w.G @ ; ; # @ 5.. 8 s d f k h ) k y y y @ : ; . r.e.# > > > > > > > > > > > < > > > > > > > : > > ",
"> < > > > > > > > > > > > > > > > > > . w.w.w.@ ; ; o 0.O.6.j 0.9.Q $ $ = h y y & @ ; @ ' ' w.' # > < < > > > > > > > > > > > > < > < > > > ",
"> > > > > > > > > > > > > > > > > > > > @ w.G @ ; X # 3     + + # c v v b l * ^ @ @   u.@ ' t.q.. > > > > > > > > > > > > > > > > > > > > > ",
"> > > > > > > > > > > > > > > > > > > > @ @ @ @ ;   # # n n b m @.:.-.;.@.m g 4.X : @ w.G o r.` + > > > > > > > > > > > > > > > > > > > > > ",
"> > : > > > > > > : > > > > > > > > > > > > > ; ; ; + + %.1.,.:.-.&.n m n z l 4.f : ;   o ' F O > : > : < > > > > > > > > > > > > > : > > > ",
"> > > < > , > > > > > > > > < < > > > > > > > ; ; ; ; o n @.,.@.s.:.-.<.*.M n s 5.g ; : @ @ @ : : : : < > > > > < > > > > > > > > > > > > > ",
"> > : > > > : > > > > > > : > > > > > > > > > > > ; + v ,.s.s.s.M $.*.%.:.;.;.j 5.h ~ @ > > > > > > > > > > > > > > > > > > > < > > 1 < < 2 ",
"> > > > > < : > > > : > < > > > > > > > > > > > > ; O %.s.s.s.#.*.x z m %.+.x b h 4.j 8.+ > > > > > > > > > > > > > > > > > > , > > > > > > ",
"< : > > > > > > > > > > > > : > : > > > > > > > : + b s.s.%.&.c o O o # M n =.&.@.#.h / 6.# > 1 > > > > > > > > : > > > > > > > > > > > > > ",
"2 > : > : > > > : > : < > : > > > > > > > > > > + &.&.s.s.&.&.o > > > >   *.>.*.M #.x j j + > > > > > > > > > > > > > > > > > > > < : > > > ",
"> > > > > : < > > > > > > > > > > > > > > > > > X X %.s.s.&.z @ > > > >   m ,.%.x x x j + > > > > > > > > > > > > > > > > > > > > > > > < > ",
"> > > > > < > > > > > > > > > > > > > > > > > > @ M M ,.>.c c > > > > > # @.@.*.%.x x @ > > > > > > > > > > > > : > > > > < > > > > > > > > ",
"> > > > > > > > > > > > > > > > > > > > > > > > > +.+.,.,.c > : > > > > # v M M *.%.x > > > > > > > > > > > > > > > > > > > > > : > > > > > ",
"> > > > > > > > < > < > > > > > > > > > > > > > +.+.,.,.c v > > > > > > + b n n ;.;.&.> > > > > > > > > > > > > > > > > > > > > > > > > > > ",
"> > > > > > > > > : > > < > > > > > > > > > > > > +.,.,.c c c > > > > > O n ;.;.2.2.2.b > > > > > > > > > > > > > > > > > > > > > > > > > > ",
"> > > > > > > > > > : > 2 > > > > > > > > > > > O x :.c c c c + > > > > @ a.a.p.f.g.+ + > > > > > > > > > > > > > > > > > > > > > > > > > > ",
"> > > > < > > > > : > < > > > > > > > > > > > > o c c c c c c + > > > > + + h.J H i . > > > > > > > > > > > > < > > > > > > > < > > : > > > ",
"> > > > > > > > > > > > > < > > > > > > > > > > o o a a a p @ @ > > > > > + # J J H X > > > > > > > > > > > > : > > > > > > > > > < > > > > ",
"> > > > > > > > > > > > > > > > > > > > > > > > > o o a a p @ > > > > > > > # ' ` J X > > > > > > > > > > > > > > > > > > > > > < > > > > > ",
"> > > > > > > > > > > > > > > > > > > > > > > > > > > o a a + > > > > > > > . L } | X > > > > > > > > > > > > > > > > > > > > > > > > > > < ",
"> > > > > > > > > > > > > > > > > > > > > > > > > > > o a a # # > > > > > >   J } | X > > > > > > > > > > > > > > > > > > > > > : > > > < > ",
"> > > > > < < > > > > > > > > > > > > > > > > > > > # # F F X > > > : > > > > o ] F # > > > > > > > > > > > > > > > > > > > > > > > > > > > ",
"> > 2 1 > 2 > > > > > > > > > > > > > > > > > > > > > # F F X > > > : > > > < o ] F # > > > > > > > > > > > > > > > > > > > > > > > > > : < ",
"> > > > > > > > > > < > > > > > > > > > > > > > > > > # F ` o > > > : > > > > O ` F X > > > > > > > > > > > > > > > > > > > > > > > > > > > ",
"> > > > > < > > > > > > : > > > > > > > > > > > > > > J J ` o > > > : > > > > O { F . > > > > > > > > > > > > > < > > > > > > > > > > > > > ",
"> > > > < > < > > > > > > < > > > > > > > > > > > > + P q.I > > > > > > > > > + } F + > > > > > > > > > > > > > > > > > > > > > > > > > > > ",
"> > > > > > > > > > > > > > > > > > > > > > > > > > + P q.I > > > > > > > > + P q.I > > > > > > > > > > > > > > > > > > > > > > > > > > > > ",
"> > > > > > > > > > > > > > > > > > > > > > > > > > . P @ I O > > > > > > > . P @ I O > > > > > > > > > > > > > > > > > > > > > > > > > > > ",
"> > > > > > > > > > > < > > > > > > > > > > > > > > + X P # I # > > > > > > + X P # I # > > > > > > > > > > > > > > > > < > > > > > > > > > ",
"> > > > > < > > > > > > > > > > > > > > > > > > > > # } } P # I # > > > > > # } } P # I # > > > > > > > > > > > > > > : > > : < > > > > > > ",
"> > > < > > > > > > > > > > > > > > > > > > > > > > #   @ X + + + > > > > > #   @ X + + + > > > > > > > > > > > > > > > > : > > > > > > > > ",
"> < < > > < : > > > > > > > > > > > > > > > > > > > > > > > > > > > > > > > > > > > > > > > > > > > > > > > > > > > > > > > > > > > > < > : ",
"> > > , > > > > > > > > > > > > > > > > > > > > > > > > > > > > > > > > > > > > > > > > > > > > > > > > > > > > > > > > > > > > > > > > > > ",
"< > > > > : > > > > > > > > > > > > > > > > > > > > > > > > > > > > > > > > > > > > > > > > > > > > > > > > > > > > > < > > > > > > < > > > ",
"> > : > > < > > > > > > > > > > 2 > > > > > > > > > > > > > > > > > > > > > > > > > > > > > > > > > > > > > > > > > > > > > > > > > > > > > "
};
