/* XPM */
static char *result[] = {
/* columns rows colors chars-per-pixel */
"70 70 149 2 ",
"   c black",
".  c #010000",
"X  c #000100",
"o  c #010100",
"O  c #000001",
"+  c #010001",
"@  c #000101",
"#  c #010101",
"$  c #060606",
"%  c #070606",
"&  c #060706",
"*  c #070706",
"=  c #060607",
"-  c #070607",
";  c #060707",
":  c #070707",
">  c #181A24",
",  c #191A24",
"<  c #181B24",
"1  c #191B24",
"2  c #181A25",
"3  c #191A25",
"4  c #181B25",
"5  c gray14",
"6  c #252424",
"7  c #242524",
"8  c #252524",
"9  c #242425",
"0  c #252425",
"q  c #242525",
"w  c #252525",
"e  c #3E3E3E",
"r  c #3F3E3E",
"t  c #3E3F3E",
"y  c #3F3F3E",
"u  c #3E3E3F",
"i  c #3F3E3F",
"p  c #3E3F3F",
"a  c #3F3F3F",
"s  c #5E0F02",
"d  c #5F0F02",
"f  c #5F0E03",
"g  c #5E0F03",
"h  c #5F0F03",
"j  c #72621C",
"k  c #73621C",
"l  c #72631C",
"z  c #73631C",
"x  c #72621D",
"c  c #73621D",
"v  c #72631D",
"b  c #73631D",
"n  c #10306E",
"m  c #11306E",
"M  c #10316E",
"N  c #11316E",
"B  c #10306F",
"V  c #11306F",
"C  c #10316F",
"Z  c #11316F",
"A  c #902426",
"S  c #912426",
"D  c #902526",
"F  c #912526",
"G  c #902427",
"H  c #912427",
"J  c #902527",
"K  c #912527",
"L  c #A05E26",
"P  c #A15E26",
"I  c #A05F26",
"U  c #A15F26",
"Y  c #A05E27",
"T  c #A15E27",
"R  c #A05F27",
"E  c #A15F27",
"W  c #C64E64",
"Q  c #C74E64",
"!  c #C74F64",
"~  c #C64E65",
"^  c #C74E65",
"/  c #C64F65",
"(  c #C74F65",
")  c #B4A052",
"_  c #B5A052",
"`  c #B4A152",
"'  c #B5A152",
"]  c #B4A053",
"[  c #B5A053",
"{  c #B4A153",
"}  c #B5A153",
"|  c #D89A46",
" . c #D99A46",
".. c #D89B46",
"X. c #D99B46",
"o. c #D89A47",
"O. c #D99A47",
"+. c #D89B47",
"@. c #D99B47",
"#. c #F49660",
"$. c #F59660",
"%. c #F49760",
"&. c #F59760",
"*. c #F49661",
"=. c #F59661",
"-. c #285AC6",
";. c #295AC6",
":. c #285BC6",
">. c #295BC6",
",. c #285AC7",
"<. c #295AC7",
"1. c #285BC7",
"2. c #295BC7",
"3. c #687EC0",
"4. c #697EC0",
"5. c #687FC0",
"6. c #697FC0",
"7. c #687EC1",
"8. c #697EC1",
"9. c #687FC1",
"0. c #697FC1",
"q. c #EAD684",
"w. c #EBD684",
"e. c #EAD784",
"r. c #EBD784",
"t. c #EAD685",
"y. c #EBD685",
"u. c #EAD785",
"i. c #EBD785",
"p. c #F4D084",
"a. c #F5D084",
"s. c #F4D184",
"d. c #F5D184",
"f. c #F4D085",
"g. c #F5D085",
"h. c #F4D185",
"j. c #F5D185",
"k. c #AAB8E2",
"l. c #ABB8E2",
"z. c #AAB9E2",
"x. c #ABB9E2",
"c. c #ABB8E3",
"v. c #ABB9E3",
"b. c #FFFFFE",
"n. c #FEFEFF",
"m. c #FFFEFF",
"M. c #FEFFFF",
"N. c white",
"B. c None",
/* pixels */
"> > > > > > , > > > > > > > > > > 2 2 > 2 , > 3 < > > > , > > > 2 > > > > > > > > 2 > 2 > > > > 2 > > , > > > > > , > > > > , > 2 > > > > > ",
"> > , > > > 3 > > > > > > 3 > < 2 > > > > > > > > > < > > , > > < > > > > > > > > > > > , > > > > > > > > , > > > > > > > > > > > > > > > > ",
"> > > > > , < > > > > > 2 > 2 > > > > > > > > > > > > > > < > > > > > < > > > > > > > > > > < > < > > > 2 > > > > > > , > > > > > > 2 > 2 > ",
"> > > > > > > > > > > > > > < > 2 > > > > > > > > > > > 2 > > > > > 2 > < > > > > > > > > > > > > > > > > > > > > > > > > > > > > > > > > 2 ",
"> > > > > < > > > 2 > < > > > > > > > > > > > > > < > > > 4 > X o O o O . > > > > > > , > 2 > > > < > > > > < > > > > > > > , > > > > 2 2 > ",
"2 > > > > > > > > > > > > > > > > > > > 2 > < > > > > > > O . x ` r.w.` j   > > > > > > > > , > 1 , > > > > > , > 1 > > 3 > > > > 4 > < > 2 ",
"> > > > > > > > > < > > > > > > > > > > > > > > > > > > . b [ i.u.t.t.r.t.}   > 2 > > > > > > > > > 2 > > < > , > > > > 2 2 2 < > > > > 2 > ",
"> > > > > > > > > < > > > > 1 > > > > > > , > > > > > > O ' w.} u.) _ Q ^ ( S + . O #   . > > > > > , > > > > > > > , > > > > > > > > > > 2 ",
"> , > > > > < > > , > 2 3 > > > > > > > > < > > > > > + j u.} i./ Q ! / ! ' q.i.y.q.w.u._ @ > > > > > > > > 2 > > > > > > , > > > > > > > 3 ",
"> > > > 2 , > > > > > > < > > > > > > > > > > > > > > + _ ' ^ Q W Q ] e.w.w._ b b c z z e.+ > > > > > > > < 4 2 > > > > > > > > > > > > > > ",
"> > > > > > > > > > > > > > > > > > > > > 2 > > > > 2 + [ D ! ~ [ w.u.] j # @ @   . # c X 2 > > , > > > 2 2 > > > > > > > > > > > > > > > > ",
"2 > > > > , 2 > > < > > > > > > , > , > 2 > > , > < > # F D J y.w.` X @ X O o . # v v j X > > > > > > > > > > > > > > 2 > > > > > > 2 , > > ",
"> > > > > > > > , > > > 2 > > , > > > > > > > > > > > O K J u.[   o   O U # o . X @ v + > 2 > > > > > > > > > > > > > > > > > > > > > > > > ",
"> > > < > > , > > > > < > > > < > > > > > > > > > > 2 # o q.) . X @ X .  .O X L @ o # > > 2 > > > > 2 > > > > > , > > > > > > > > < > 1 > > ",
"> > > > > > > > > > > > , > > > < > > > > > > > > , > X q.j O O + P + + I o.. | X X   , < > > > > > > > > > > > > > > > > > 2 > > > > > > > ",
"> > > 2 > > > > < > > > > > > > < > > > > > > > 2 > . r.) X + o O ..+ c.+ T X @.O   > # > > , , > > > > > > < > < > > > > > > > > < > > > > ",
"> > > > 2 2 > > > > > > > > > > > < > > > > > > > >   } l c   j.# s. .b.+  .o.Y @ + > > > > > < > >   . > > > > > > > > > > > 2 > > > > > > ",
"> > > > > > > > > > > > > > > > > > , > > > 1 > >   ) z x @ O  .E f.a. .@.p...  > O > > > > > > . O p. .X < > > > > > > > > , > > > > > > > ",
"> > , > > > > > > > > > > > < , > > > > > > > > > X ` l c j # X o @.j.j.p.f.p.# > > , 2 > > > X f.p.X U p.O > > > > > > > > > > > > , > > > ",
"> > 2 > > > > > > > > > 3 , > > > > , > > > > > > > o o O + > #   + O.N.m.O.O < > > 2 > > > > # +.o    .R h.  < > < > > > > > > > > > < > > ",
"> > > > > > > > > , 2 > > > > > > > > > > > > > > > > > > > > > + T o X.| O > > > > > > < > 2 > + L I X O.U @ < , 2 2 > < > > > > < > > > > ",
"> > > > > > 2 > > > > 2 2 > , > > > > > > > > > > < > > > # @ O R  .U . # @ # # > > > > > > > > > # | O.O Y @ > > > , > > > > > 2 < > > > > ",
"> 2 > , > > > > > > > > < , > > > > > 2 > > > > < > > . X X i.@ a.| X.d U o 0 a > > > > > > 2 < >   Y O.Y   > < > > > > 2 > , > > > > > > > ",
"> > 2 > > > > > > > > > > < > > , > 2 > 2 > > > 2 > 9 p 9 u.#.w.a.f. .+.I + 7 r.@   > > > > > , + Y X.T o < > > > > < > > > > > 2 > < 1 > > ",
"2 > > , > > > > > > , > > > > > > > > > > > > > > > 7 p 6 r u.6 o.f.f.f.s.u q.#.    o > > > . # X. .E   > > > , > > > > > > > > > > > > > > ",
"> > > > > < > > > > > > > > > > > > > > > > > < > X y.5 # q u 9 K @.f.O.G p u t.X X ..o   o L P ..Y # > > < , > > < > > > > > > > > < > > > ",
"2 > 2 > > > > > > > > > < > 2 > > , > > > > > > O i.*.i.@ 7 a 9 K D ..K K t 5 O . @ Y | |  .@.O.L # > > > > > > > > > > > < > > , > > 2 > > ",
"> > > > > > > > < > > > > > > > > > > > > > > < o # t.o X o q 9 +.F G J | a #   O . # Y I T o.T   > > > > < > > > , < 2 , > > 2 > > > > > < ",
"> > > > > , < > < > > > > > > > > > > > > > > X + + o o > X r.w X.A D A X.u u.o > > > O . + o # > > > > > > > > > 3 > > , > > > > > > 2 > > ",
"> > > > > < > 2 > > , > > > > > < > > , > > > # U . X > > . =.t.8 D +.S J p &.  > > > 2 > > > > 2 > > > > < > > > > > > > > > > > > > > > > ",
"< 2 > > > > , > > , > > , > > > > > , > > > # T p.L O 2 > + i.q F o.a.@.H i t.# > > > > > > 2 > > 4 , > > > > > > > > > , > 2 > > 2 > > > > ",
"> > > > > > > > > > > > > > > , > < > > > > o I I O > > # # 5 8 O.p.s.| X.w e & O > 2 > > > > > > , > > > > > > > < > > , > > > < > > > > > ",
"> > > > > > > > 2 > 2 > > > > > 2 > > > > . P | E . > > O q.0 + ..p...g. .. i & # > > , > > , > 2 > > > > > > > > > > > > > > > > > 2 > > > ",
"> > > , > , > 2 > > > > > > > > > > > > > O T P + > > > @ &.y.+ @.| X.o.U   y w.r   , > > > > > > < > , > > > > > 2 > > > > > > > > > > > > ",
"> > > > > > > > > > > > > > 2 , < > > > o R f.U o > > O 9 t.5 + k l k b . O u.*.i.# > > > , > > > > > > , > > > > > > > > > > > > > > > , > ",
"3 > > > > > > > > , , > > > > > > > > >   L Y @ 2 , > o 6 @ 8 x [ q.w.` b x $ u.& ; . , > > > > > > > > > > > > 2 > > > > , > 2 > > < > > > ",
"> > < > > > > > > > > > > > > 2 > > > > o +.@ , 2 > # + u.o 9 j z c b x { v : u % a o > > > > > > > > > > 2 > > > > > > > > > > < > > > > > ",
"> > > > > > > > , > > > > , 1 > < > > . Y o.. > > >   i.$.w.x y.u.] % $ ; x = - * r.  O 2 2 > > > > > > > < > , > > > > > > , > > > > > > > ",
"> > > > 2 > > > > < 2 > > > > > > > > # ..I O > > o O 8   . O + # C Z M B v = ] r.%.w.. > > > > > > > > > > > < > > > > > > > > > > > > > , ",
"> > > > > > > > > > > > > > > > 2 > O | p.X > 2 > O o . V m n M -.5.5.7.-.B v w.X u.+ > > > > > > > < > > > > > > > > > > 2 > > > > > > > > ",
"> , > > > > 3 > , > > > > > > > > > o h.d.. > > > > O . -.9.5.3.9.<.C M B m v y.v . > > > > > > > , > > > > > > > > > > > > > > > < > > < > ",
"> > > > > > < > 2 > > > > > 2 > > #  .j. . .@ > > > > # Z -.3.:.,.6.3.0.>.N C v e.l . > > > > > > > > > > > > > > > > > > > > < , > > > > , ",
"> > > > > > , > > < > > > > > > > + p.h.T +.h.O > > O N 9.>.N C N -.1.,.5.8.0.x e.v _ @ > > > > > > > > > > > > 2 > > > > > > , 2 > > > > 4 ",
"2 > < > > > > > > > > > > > > > < + o.s.X T g.@ > > X <.;.8.8.;.1.C n C <.-.C V c i.x t.. > 2 > > > > > > > > > < < , 2 > > > > > > > > 2 > ",
"> > > > > > > , > > > > > > > > > > O R  .O o > X O n 1.0.<.;.B o O # @ V B 2.;.;.2.l ) r.# > > 3 > > > > 2 > > > > > > > > > > > > > > > , ",
"> > > 2 > 2 > , > > > > > > > > > > > #   > 2 < @ # 5.0.<.M N m   2 > > O n V n 5.6.>.-.] . > > > > 2 2 > , > > > > 2 > > < > > > > > > > > ",
"> 2 > > > < > > > > > > > > > > > > > > > > , o N -.:.5.,.n # > < > > > 2 >   m >.6.4.,.n m . > > > > > > 1 > , > > > > 2 < > > 2 > > > > > ",
"> > > > > < > > > 2 > > > > > > > > , , > > O n 2.6.7.:.C O > > > > > > > > < # <.Z ;.6.3.,.n o > > > < > > > > > > > > > > 2 , 2 > > > > > ",
"> 1 > > > > > > > , > > > > > > > > > > > o b.l.0.3.2.M m o > > > > < > > > > + N n m 8.8.4.k.@ > > > > > > > > > > > > > > > 1 > > > > > > ",
"> > > > > > > > > > > > > > > > > > > > > X x.N.N.1.,.M . < > > < < > > > 2 > > + -.8.-.N.M.+ > 2 > > > > > > > > > > > > > > < > > > > > > ",
"> > > > 1 > > > > > > 2 > > > > > > > > > > o g c.n.n.v.o > > > < > > > > > > > O V z.n.c.h o > > > > > > > > > > > > , > > < > > > > > > > ",
"> > > > > < , > > > > 2 > > > > > > > > > > O R h f 8.0.  > > 2 > > > 2 > > > > @ v.B.g P E X > > > > > > > > > > , > > > > 2 > > > > > > > ",
"> < > 2 > > < > > > > > > > > > > 2 > > > > O o.T P # O > > > > > > > 2 > > > < < X O s P o.I . > > > 2 > > > > , > > > > > < > > > > > > > ",
"> > > 2 > > > > > > > > > > > > > > > < > X Y h.| O > > > > > 2 > > > > > > 2 > > > , + O.d.+.  > > > > > > > , , 4 < > > > > > > > > > > > ",
"> > > > 2 , > > > > > > > > > < > > > < > + o.g.| + > > > > > > > > > > > > > > > > > . T o.p.O < > > > , > > > > > > > > > , > > > > > > > ",
"> > > > > > , > 2 > > > > > > > > > > > > o d.X.E # > > > > > < > > 2 > , > 2 > > > > > O P j.U # > > > > > > > > > > > > > > > > > > > , > ",
"> > > < > > > > > > > > > > > > > > > > o R p.R . , > > > > > > 2 2 > > > > > > > > > > > # X.o.X > > < > > > > > > > > > > > > > 2 2 > > > ",
"< 2 > > > > > > > > > > > > > > > > > >   O.f.+ > > > > > > > > > > > > > > > 2 > > > 2 > X I o.X < < > > > > > > > > > , , > > > < > > < > ",
"> > > > > > > > > , , > > > > > > < > > # f.o.# > > > > > > , , 4 > > > > > > > > , > > < > @ o.P X > > > > > > > > > > > > > > > > > > > > ",
"> > > < > > > > > > > > > > 2 > > 2 > o I o.R X > , > > > > > > > > , > > 2 > > > > > > > > . p.o.X > > > < > > > > > > > > > > > 2 , > 2 > ",
"> > > > > > > > > > > > > , > , > > + U j.+.X > > , > > > > > , > > 2 > > > > > > > > > > > . +.a.E @ > > 2 4 > > > > > 2 > > > > > > > 2 > ",
"> 2 > > > > > > > > > > 2 > > > + @ . g.O.R o < > > > > > > > > > > > > > > > > > > > > > > . R X # U + . > 2 > > > > 2 , > , > > < < > > > ",
"> > < > > > > > > > > > > < > X X.@ X.o | L   > > > > > > > > > > > > > > > > > > > > > > > +   +.Y # o.E X > > > > > > > > > > > > > > > > ",
"> > > > > > > > > > > > > > + | O f.f.+.X L .   > , > > < > > > > > > > < > > > > > > > 2 + . L f.+.X o.R X > > > > < > > > > > > , > > > 2 ",
"< > , > > , > > 2 > < > > >   . +   X o O + # > > 2 > > > > > 2 > 1 > > > > > > > > > > > > O + + O O O . + > > > 2 > < > > > > > > > > > > ",
"> > > > > > > > > > > , > > > > > > > > > > > > > > < > > > > > , > 2 > > > > > > > > > > > > > > > > > > > > > > > > > > 2 > > 2 > < > > > ",
"> > < > > > > > > , > > > > > > > > > > > > , > > 2 > > > > > > , > > > > > > > > , > > > > > < > < > > > > > 3 > , > > > > 2 > < > > < > > ",
"> > > > > 2 > < > > > > > > < > > > > > > , > > > > > > , 2 > > > > > > > > > > > > > > > > > > > , > > > > > > > > 2 > > > > > > > > 4 , > ",
"> > > , > , > > > > > > > > > 2 < > > > > > > , > > < > > > > < > < > > > > 2 > > > > > > > > > > > < < > > > > > > > , > > > > > > > > > > ",
"> > , > 2 > > > > > > > > 2 > > > > > < > > > > > > > 2 > > > > > > , > > > > > > > > > > > > > > , > > > > > > > > > > > > > 2 > > > > > > "
};
