/* XPM */
static char *result[] = {
/* columns rows colors chars-per-pixel */
"70 70 149 2 ",
"   c black",
".  c #010000",
"X  c #000100",
"o  c #010100",
"O  c #000001",
"+  c #010001",
"@  c #000101",
"#  c #010101",
"$  c #060606",
"%  c #060706",
"&  c #070706",
"*  c #060607",
"=  c #070607",
"-  c #060707",
";  c #070707",
":  c #181A24",
">  c #191A24",
",  c #181B24",
"<  c #191B24",
"1  c #181A25",
"2  c #191A25",
"3  c #181B25",
"4  c gray14",
"5  c #252424",
"6  c #242524",
"7  c #252524",
"8  c #242425",
"9  c #252425",
"0  c #242525",
"q  c #252525",
"w  c #3E3E3E",
"e  c #3F3E3E",
"r  c #3F3F3E",
"t  c #3E3E3F",
"y  c #3F3E3F",
"u  c #3E3F3F",
"i  c #3F3F3F",
"p  c #5E0E02",
"a  c #5F0F02",
"s  c #5E0E03",
"d  c #5F0E03",
"f  c #5F0F03",
"g  c #72621C",
"h  c #73621C",
"j  c #72631C",
"k  c #73631C",
"l  c #72621D",
"z  c #73621D",
"x  c #72631D",
"c  c #73631D",
"v  c #10306E",
"b  c #11306E",
"n  c #10316E",
"m  c #11316E",
"M  c #10306F",
"N  c #11306F",
"B  c #10316F",
"V  c #11316F",
"C  c #902426",
"Z  c #912426",
"A  c #902526",
"S  c #912526",
"D  c #902427",
"F  c #912427",
"G  c #902527",
"H  c #912527",
"J  c #A05E26",
"K  c #A15E26",
"L  c #A05F26",
"P  c #A15F26",
"I  c #A05E27",
"U  c #A15E27",
"Y  c #A05F27",
"T  c #A15F27",
"R  c #C64E64",
"E  c #C74E64",
"W  c #C64F64",
"Q  c #C74F64",
"!  c #C64E65",
"~  c #C74E65",
"^  c #C64F65",
"/  c #C74F65",
"(  c #B4A052",
")  c #B5A052",
"_  c #B4A152",
"`  c #B5A152",
"'  c #B4A053",
"]  c #B5A053",
"[  c #B4A153",
"{  c #B5A153",
"}  c #D89A46",
"|  c #D99A46",
" . c #D89B46",
".. c #D99B46",
"X. c #D89A47",
"o. c #D99A47",
"O. c #D89B47",
"+. c #D99B47",
"@. c #F49660",
"#. c #F49760",
"$. c #F49661",
"%. c #F59661",
"&. c #F49761",
"*. c #285AC6",
"=. c #295AC6",
"-. c #285BC6",
";. c #295BC6",
":. c #285AC7",
">. c #295AC7",
",. c #285BC7",
"<. c #295BC7",
"1. c #687EC0",
"2. c #697EC0",
"3. c #687FC0",
"4. c #697FC0",
"5. c #687EC1",
"6. c #697EC1",
"7. c #687FC1",
"8. c #697FC1",
"9. c #EAD684",
"0. c #EBD684",
"q. c #EAD784",
"w. c #EBD784",
"e. c #EAD685",
"r. c #EBD685",
"t. c #EAD785",
"y. c #EBD785",
"u. c #F4D084",
"i. c #F5D084",
"p. c #F4D184",
"a. c #F5D184",
"s. c #F4D085",
"d. c #F5D085",
"f. c #F4D185",
"g. c #F5D185",
"h. c #AAB8E2",
"j. c #ABB8E2",
"k. c #ABB9E2",
"l. c #AAB8E3",
"z. c #AAB9E3",
"x. c #ABB9E3",
"c. c #FEFEFE",
"v. c #FFFEFE",
"b. c #FEFFFE",
"n. c #FFFFFE",
"m. c #FEFEFF",
"M. c #FFFEFF",
"N. c white",
"B. c None",
/* pixels */
", : : : : : : 1 : : : : : : : : : : : : : : : : : : : : : : : : : : : : : : : , , : , : 1 : : : : : , : : : 1 : : : , : > : : : : : : > : : ",
": : : 1 : : : 1 : : : > : : : : : : : : : 1 : : : : : , : : : : : : : : : : : : : , : : : : : : : , : : : 1 : : : : : : : : : : : , : : > 1 ",
": : : : : : : : : : > : > 1 : : : : : : : : : : : : : : : : : : : : : : > : : : : : : , : , : : , : : : : : : : : : : : > : : : : : : : : : ",
": : : : : : : : : 1 1 : : : : , : : : : : : : : : : : : : : : : : o O o   o @ : : : : : , , : : : : : : : : 1 : : : : : : : : : : : : : : : ",
": : : > : : : : : : : , : : : : : : : : 1 > : : : : : : : : : :   l [ r.0._ l + + : , : : : : : > : : : : > : : : : : : : 1 : : > : : > : : ",
": : : : : : : : , : : : : : : : : : : : , : : > > > : : : , :   ` y.r.t.0.w.t.' l o : : : : : : : : : : 1 : : : : : 1 : : > : : : : 1 : : < ",
": : : : , : : : : : : : , : : : : : 1 : : : : , : @ X o . X + D W E Q ) _ t.` w._ + : : : : : : : , : : : : : : : : : , : : : : : : 1 : : > ",
": : : : : : : : : : : : : : : : : , : : : : : : X ` q.9.9.r.q.t.] / Q E E ^ w.{ t.z + : : : , : : : : : : : : : : : : : : : : : : : : : : , ",
": : : : : : : : : : : : : : 1 : : : , : : : : : + y.l g z x k ' w.0.w.' R R ^ ~ ` _ O : : : : : 1 , : : : : : : : : : : : > : : : , : : : : ",
": 1 : : , : : : : : : : : : : : , : : : : : 1 : : . l o +   X o # g ' e.r.' ! R C [ O , : : : : : : : : : : : : : : 1 1 : : : : : : > : : : ",
": : : : : 1 : : : > : : : : : : , : : : : : : : :   h c j @ + X @ # @   [ 0.r.G A S # : : : : : : : : : : : : : : : : : : : 1 : : : : 1 : : ",
": : : : : : > 1 : > > : : : : > : , : : > : : , : , # h O   O X @ L + X . @ ] r.D H + : 1 : > : : , : : : : : 1 : : : : : : : : : : , : : 2 ",
": , : : 1 : : : : : : : : : : : : : : 1 : 1 : : 1 : > # @ # Y @ O o.. X @     ( q.# X : > : : : : : : : : : : : : : : : : : : , : : : : : : ",
": : : : : : : : : : : : : : : : : 1 : : : : : : : : , . o X }   o.L O . K   + O j 9.X : : : : : : : : 1 : : : : : : : : : : : > : : : : : : ",
": : : : : : : : : : : : : : : : : : 1 : : : : : : : . : @   +.X P @ j.+ | . + # @ ' w.. : : : : > : : : : : : : 1 : : : : : : : : : > : > : ",
": : : : : : : : : : : : 1 : : : : : . o : : : : : : : : . + I  .X.. v...p.. g.O x k ` X : : : , : : , : 1 , , : > : : : : : 1 : : 1 : : : : ",
": : : 1 : : : : : , : : : 1 , : : X } f.@ + : : : : : : # : @ ..a.+.} u.s.L o.O   l h ` X : : : : , : : : , : : : : : > : > : 1 : , : : : : ",
": : : : : : : : : : , : : : : : @ p.L # d.f.o : : : : : : 1 @ p.d.p.s.s.o.X X @ l z h ` @ : : : : : : : : : 1 : : : : : : : : : : : : > : : ",
"> : : : : : : : : : : : : : : . g.U o.  X o.@ : : : : : : : > O +.M.N.| . O O : # O   # : : , > : : : : : < 1 : : : : : : : : : : : : : : : ",
"> : : : : , : : > : 1 : : : > @ K O.  Y J   < : : : 1 : 1 : : : O O...o T . : : : : , : : : : : : : > : : : : : : : : : > : : 1 : : : : : , ",
": : : , : : : : : : > : : > > # Y O o.} + : : 1 > : : : : : # + o o X K o.Y @ @ o : : : : : : : : : , 1 : : : > 1 : : : : : 1 : : : : : : : ",
": : : : : : : : : : : , : : : :   I +.I   : : : : : : : : : y 5 o P s ..| a.@ 0.X O . : : : , : : 1 : : : , 1 : : : : : : : : : : : : 1 : : ",
": : : : > : : > : : : > : 3 : 1 : X U +.U O : : : : : :   O 9.6 . U O.o.s.i.y.$.y.4 u 9 : : : : : : : : : : : : : : : : : : : : : , : : : : ",
": : : 1 , 1 : : > : : : : : : , : > # T | O.# . : , : o . o @.e.r g.i.f.d.O.4 y.w 7 u 4 : : : : : : : , : : : : : : : : : : : : : : : , : 1 ",
": : : : : : : : : : : : : : : : 3 : : + U  .U J # O o O.X o e.t i G o.g...G 8 i 6 @ 8 t.O : : : : : : : : : : : : : : : : : : : : : : : : : ",
": : : : : : : : : > : : : : : > : : : : # J |  .} } | K o + . 5 w S H } Z H 9 e 5 X q.%.t.@ : : : : 1 : : , > : : : > 3 : : : : : : : : 1 : ",
": : : : : : : : > : : : : : : : : : : : :   T } U K J @ . # . . u o.D G S  .0 0 o o . t.+ # > : : : : : , : : : : : : , : : : : : : : : > : ",
": > : : : , : : : : : 1 : : : 2 : : : : : : # # # O O : : : # t.t ..C F G | 0 y.X : X . . # X : : : : > : : : : : : : : 1 , : : : : : : : : ",
": : : > < : , : : : : : : > : 1 : : 1 : 1 : : : : : : : : :   %.i S Z o.G 5 r.%.@ : : o   P o : : : : : : : : : : : : 1 : : : : : : , : : : ",
": : 2 : : : : : : : : : : : : : : > : : : : , : 1 : : : , > # 9.y Z o.d.| S 5 0.+ : :   U d.P X : : : : : : : : : : : 1 : : : : 1 : , : : : ",
": : : : : : : : : : 1 : : : : : : : : : : : : : : : : : : O ; w q +. .u.u.+.7 6   # > : X L Y @ : : : : : : : : : : : : : : 1 : : : : : : , ",
"1 : : : : : 1 : > , : : : : : : : : : > : : : : : : : : : @ % y + | s.} a. .O 8 r.+ : : . U X.J   : : : : : : : : : : : : : : : : > : : : : ",
": : : : 1 : : : : : : : : : : : : : : : : : : : , : : : O e e.u X P X...| O.+ r.#.@ : : : + I U + : : : : : : : : : : , : : : : : > : : : : ",
": : : : : 1 : : : , : : , : : : : : 1 : : : : : : : : : . r.$.t.O   h h h h + 6 t.5 O : : @ U p.I o : , : : : : : : : : : : : : : : > , , : ",
": : : 1 : : : , : , : : : : : : : : : : : : : : : : : + * % y.$ z z ` 0.w.) z 5 + 9 o : : : @ U L X : : : : : : : : : : : : : : : : : : : : ",
": : > : : : : : : : : : : : : : : : : : > : : : : : : o i % y ; x [ l x j h g 9 . q.@ # : : : X  .o : : : : : > : : , 1 : : : : 1 : : : : : ",
": : : 1 : 1 : : : : : : : : : : : : , : : : : : : : @ X 9.& = $ l - $ $ ( t.y.z w.&.y.o : : : . | Y . : : : : : : : : : : : : : : : : : 1 : ",
": : : : : : : : : : : , : : : : 1 1 : : : > : : : : . 0.#.q.` * c M m m n # + +     4 # X : : . K ..o : : : : : : : : : : : : : : : : : : : ",
": : : : : : : : : : , : : : : : : : : : : : : : : : : + y.X 0.k B =.2.1.3.=.B M N N # #   : : : o p.| + : : : : : : , : : : : : : : : : : : ",
", : : > : : : : : : : : : : : : : 1 : : : : , : : : : : . j 0.c v N B N >.1.3.5.7.:.+ + : : : : . a.p.# : : : : : : : : > : : : : : : > : : ",
": : : : : : : : : : : : : 1 : : : : 1 : : : 1 : > : :   k q.g N V ,.6.1.3.*.=.5.=.N o : : : : @ | | i.| # : 1 1 : : , : : : : : < : 1 , : : ",
"3 1 1 2 : : 1 : : : : , : : : : : : : : : , : : : : @ _ l q.z 2.2.3.:.,.;.V B b ;.5.m + : :   f.O.U s.u.. : : : > : : : : : , > : : : > : : ",
": : : : : : < : : : : : : : : : : : : : , : : : : + r.z 0.l M b *.:.B v b ,.-.6.7.=.:.O : : @ i.K o a.} + , : : : 1 : > : : : > 1 : : : : : ",
": : : : : : : : : : : : : > : : : : : : : : 2 : # w.' l -.=.>.<.N V # o O o n >.:.8.,.M + > :   O | J O : > : > : : : : : : : : : : : : > 1 ",
", : : > 1 , : : : : : : , , : 1 : : : : : 1 : : + z 3.4.-.V ,.B   : : > : : . v >.v 1.:.:.X : : :   X : : : : : > : 1 > : > , : , > : > : 3 ",
": 1 : : : : , : : , : : : , : : : > 1 : 1 : : : @ >.b V :.4.,.# : : : : > : : @ M 4.,.V V @ : : : : : : : : : : : : : : : : : 1 > : : : : : ",
": : : : : : : : 1 : : , : > : : : : : : : : : . m b :.4.5.-.B   : : : : : : > X B -.7.;.*.b X : : : : : , : : : : : : : : : : : 1 : : : : : ",
": : : : : > , : : : : : : : : , : : : : : : X M >.2.4.,.V =.# : : : : : : 1 : : O V *.5.8.-.b O : : : : : : : : : : : : : , : : : : , : : : ",
": , : : : : : : : : : : , : : : : : : : : :   h.8.6.8.N M m # : : : : : : : : : + m n <.3.6.j.b.o : 1 , : : : : : : : 1 , 1 , : : : : : : : ",
": : : : : : : : : : : : : : : , : : : : : : : + n.N.:.2.=.+ : : : : : : : : : : : X n -.:.N.N.x.X : : : : : : : : 1 : : > : : : : : : : : : ",
": : : : : : : : : : : : : : : : , : : : : : : . a l.b.k.N O : : : : : : : : : : : + x.m.c.z.p o , : : : : : : : : 3 : > : : : : : : , : : : ",
": : : > : : 1 : : : : : : : 1 : : > : > : : : X L P s B.l.@ > : : : : : : : : : : . 4.5.d f I O : : : : : : : : : : 1 : > : : : : 1 : : : : ",
": , : : 1 : : : : : : : : : > : : : : : : :   P } P d O + : : 1 : : : : : : 1 : : : + @ U I X.@ : : : : 1 : : < 1 : : : : : : : : : : : : : ",
": : : : : 1 : : : : : : : : : : : : : : : : X O.i.| # : : : : : : : : : : : : : : : : : O  .g.I   : : : : : : : : : : : : : : : : : : : : : ",
"1 : : : : : : : : : : : : : : : : : : : > > X s.o.U . : : : > : : : : : : : : : : : : : O X.d. .+ : : : 1 > : : : : : : : : : : : : : : : : ",
", 1 : , : > : : : : : : : : , : : : > : : # J f.P   : : > : : : : : : : : : > : : : : : # T ..u.o : : 1 : : : : : : : : : : : : : : : : : , ",
": : : : : : : : : : : : : : : : , : : : : X |  .o : : : : : > : : : 1 : : : , : : : : , : . Y u.T o : : : : : : : : : : : : : 1 1 : : : : : ",
"1 > : : : : : : : : : : : : : : : < : : >   } J X 1 : : : : : : : : : : : 1 > : : : : 1 : : + f.o.  : 1 : : : : : : : : : : : : 3 : 2 3 : : ",
": : : : : : : : : : : , : : : , : : : : . L X.O 2 : > : : : : : : : , : : : : : : : : : : : # X.g.# : : : : : : : : : 1 : : : : : : : : : : ",
": : : : : : : : : : : : , 1 : : : : : : + o.u.. > : : : : : : : : : : : : , : : : : , , : : X L X.L # : : : : : : > : : : : : : 1 : : : : : ",
": : : , : : : : : : : : : : : : : : : O T p.O.+ : : > : : : : : : : : : : : : : : : : : : : , X O.f.P . : , : 1 1 : : : : : : 1 : 1 : : : : ",
": : : : : : : : : : : : : : : : : # + T # @ Y . : : : : > : : : : : : : : : : : : : : : : : : . Y o.g.X @ + : : : : : : : : : : : : : : : : ",
": : : : : : : : : : : : : : : :   T X.# Y o.X @ > : : : : : : : , : , : : : : : : : : : : > : o P } X +.# +.X : : : : : : , : : : : , : : : ",
", : : : : : : : : 1 : : : : : : + Y  .X +.s.I + + : : : : : : : : : : : : : : : : : : : : : + . J X } u.d.+  .X : : 1 : : : : : : : : : : : ",
": : : : : : 1 > : : > : : : : : +   + # @   #   : : : : : : > : 1 > : : : : : : : : > : : : : X + + o X @ . .   : : : : : : : : 1 : : : , : ",
": : : : : : : : > : : : : : : : : : : : : 1 : : : : : : : : : : : : : : : : : : : : : : : : : : : : : : : : , : : , : : : : : : , : 1 : : : ",
"> : 1 : : : : : : : : : : : : : : : : : : : : : : : : : : : : : > : : : : : : : , : : : : : : , : : : : : : : : : : : : : : : > 1 : : 1 1 : ",
": : : : , : : : : , : : , : : > : : : : : 1 : : > : 3 : > : : : : : : : : 1 : : : : : : : : : > : : : , : : > : : : : : : : : : : : < : : : ",
": : : 1 : : : : : : 1 : : : : : : : : : : : > : : : : : : : : : : > : : : , : : : : : : : : : > 1 : : : : : : : : : : : , : : : > : : : : 1 ",
": : : : : : : : : : : : : : : : : : : : , 2 : : : > : : : : : : : : : : : : : : > : , : : : : : : : : , : 3 : : : : : : : : : : 1 : : > : : "
};
