/* XPM */
static char *result[] = {
/* columns rows colors chars-per-pixel */
"70 70 149 2 ",
"   c black",
".  c #010000",
"X  c #000100",
"o  c #010100",
"O  c #000001",
"+  c #010001",
"@  c #000101",
"#  c #010101",
"$  c #060606",
"%  c #060706",
"&  c #070706",
"*  c #060607",
"=  c #070607",
"-  c #060707",
";  c #070707",
":  c #181A24",
">  c #191A24",
",  c #181B24",
"<  c #191B24",
"1  c #181A25",
"2  c #191A25",
"3  c #181B25",
"4  c gray14",
"5  c #252424",
"6  c #242524",
"7  c #252524",
"8  c #242425",
"9  c #252425",
"0  c #242525",
"q  c #252525",
"w  c #3E3E3E",
"e  c #3F3E3E",
"r  c #3F3F3E",
"t  c #3E3E3F",
"y  c #3F3E3F",
"u  c #3E3F3F",
"i  c #3F3F3F",
"p  c #5E0E02",
"a  c #5F0F02",
"s  c #5E0E03",
"d  c #5F0E03",
"f  c #5F0F03",
"g  c #72621C",
"h  c #73621C",
"j  c #72631C",
"k  c #73631C",
"l  c #72621D",
"z  c #73621D",
"x  c #72631D",
"c  c #73631D",
"v  c #10306E",
"b  c #11306E",
"n  c #10316E",
"m  c #11316E",
"M  c #10306F",
"N  c #11306F",
"B  c #10316F",
"V  c #11316F",
"C  c #902426",
"Z  c #912426",
"A  c #902526",
"S  c #912526",
"D  c #902427",
"F  c #912427",
"G  c #902527",
"H  c #912527",
"J  c #A05E26",
"K  c #A15E26",
"L  c #A05F26",
"P  c #A15F26",
"I  c #A05E27",
"U  c #A15E27",
"Y  c #A05F27",
"T  c #A15F27",
"R  c #C64E64",
"E  c #C74E64",
"W  c #C64F64",
"Q  c #C74F64",
"!  c #C64E65",
"~  c #C74E65",
"^  c #C64F65",
"/  c #C74F65",
"(  c #B4A052",
")  c #B5A052",
"_  c #B4A152",
"`  c #B5A152",
"'  c #B4A053",
"]  c #B5A053",
"[  c #B4A153",
"{  c #B5A153",
"}  c #D89A46",
"|  c #D99A46",
" . c #D89B46",
".. c #D99B46",
"X. c #D89A47",
"o. c #D99A47",
"O. c #D89B47",
"+. c #D99B47",
"@. c #F49660",
"#. c #F49760",
"$. c #F49661",
"%. c #F59661",
"&. c #F49761",
"*. c #285AC6",
"=. c #295AC6",
"-. c #285BC6",
";. c #295BC6",
":. c #285AC7",
">. c #295AC7",
",. c #285BC7",
"<. c #295BC7",
"1. c #687EC0",
"2. c #697EC0",
"3. c #687FC0",
"4. c #697FC0",
"5. c #687EC1",
"6. c #697EC1",
"7. c #687FC1",
"8. c #697FC1",
"9. c #EAD684",
"0. c #EBD684",
"q. c #EAD784",
"w. c #EBD784",
"e. c #EAD685",
"r. c #EBD685",
"t. c #EAD785",
"y. c #EBD785",
"u. c #F4D084",
"i. c #F5D084",
"p. c #F4D184",
"a. c #F5D184",
"s. c #F4D085",
"d. c #F5D085",
"f. c #F4D185",
"g. c #F5D185",
"h. c #AAB8E2",
"j. c #ABB8E2",
"k. c #ABB9E2",
"l. c #AAB8E3",
"z. c #AAB9E3",
"x. c #ABB9E3",
"c. c #FEFEFE",
"v. c #FFFEFE",
"b. c #FEFFFE",
"n. c #FFFFFE",
"m. c #FEFEFF",
"M. c #FFFEFF",
"N. c white",
"B. c None",
/* pixels */
": : > : : : : : : > : , : : : 1 : : : , : : : : : 1 : , : , , : : : : : : : : : : : : : : : : : : : : : : : : : : : : : : : 1 : : : : : : , ",
"1 > : : , : : : : : : : : : : : 1 : : : , : : : : : : : , : : : : : : : : : : : : : , : : : : : 1 : : : : : : : : : > : : : 1 : : : 1 : : : ",
": : : : : : : : : > : : : : : : : : : : : , : : , : , : : : : : : > : : : : : : : : : : : : : : : : : : : : : : 1 > : > : : : : : : : : : : ",
": : : : : : : : : : : : : : : 1 : : : : : : : : , , : : : : : @ o   o O o : : : : : : : : : : : : : : : : : , : : : : 1 1 : : : : : : : : : ",
": : > : : > : : 1 : : : : : : : > : : : : > : : : : : , : + + l _ 0.r.[ l   : : : : : : : : : : > 1 : : : : : : : : , : : : : : : : > : : : ",
"< : : 1 : : : : > : : 1 : : : : : 1 : : : : : : : : : : o l ' t.w.0.t.r.y.`   : , : : : > > > : : , : : : : : : : : : : : , : : : : : : : : ",
"> : : 1 : : : : : : , : : : : : : : : : , : : : : : : : + _ w.` t._ ) Q E W D + X . o X @ : , : : : : 1 : : : : : , : : : : : : : , : : : : ",
", : : : : : : : : : : : : : : : : : : : : : : , : : : + z t.{ w.^ E E Q / ] t.q.r.9.9.q.` X : : : : : : , : : : : : : : : : : : : : : : : : ",
": : : : , : : : > : : : : : : : : : : : , 1 : : : : : O _ ` ~ ^ R R ' w.0.w.' k x z g l y.+ : : : : : , : : : 1 : : : : : : : : : : : : : : ",
": : : > : : : : : : 1 1 : : : : : : : : : : : : : : , O [ C R ! ' r.e.' g # o X   + o l . : : 1 : : : : : , : : : : : : : : : : : , : : 1 : ",
": : 1 : : : : 1 : : : : : : : : : : : : : : : : : : : # S A G r.0.[   @ # @ X + @ j c h   : : : : : : : : , : : : : : : > : : : 1 : : : : : ",
"2 : : , : : : : : : : : : : 1 : : : : : , : : > : 1 : + H D r.] @ . X + L @ X O   O h # , : , : : > : : , : > : : : : > > : 1 > : : : : : : ",
": : : : : : , : : : : : : : : : : : : : : : : : : > : X # q.(     @ X . o.O @ Y # @ # > : 1 : : 1 : 1 : : : : : : : : : : : : : : 1 : : , : ",
": : : : : : > : : : : : : : : : : : 1 : : : : : : : : X 9.j O +   K . O L o.  } X o . , : : : : : : : : 1 : : : : : : : : : : : : : : : : : ",
": > : > : : : : : : : : : 1 : : : : : : : > : : : : . w.' @ # + . | + j.@ P X +.  @ : . : : : : : : : 1 : : : : : : : : : : : : : : : : : : ",
": : : : 1 : : 1 : : : : : > : , , 1 : , : : , : : : X ` k x O g.. p...v.. X. .I + . : : : : : : : : o . : : : : : 1 : : : : : : : : : : : : ",
": : : : , : 1 : > : > : : : : : , : : : , : : : : X ` h l   O o.L s.u.} +.a...@ : # : : : : : : + @ f.} X : : , 1 : : : , : : : : : 1 : : : ",
": : > : : : : : : : : : : : : 1 : : : : : : : : : @ ` h z l @ X X o.s.s.p.d.p.@ 1 : : : : : : o f.d.# L p.@ : : : : : , : : : : : : : : : : ",
": : : : : : : : : : : : : : : 1 < : : : : : > , : : #   O # : O O . | N.M.+.O > : : : : : : : @ o.X   o.U g.. : : : : : : : : : : : : : : > ",
", : : : : : 1 : : > : : : : : : : : : > : : : : : : : , : : : : . T o ..O.O : : : 1 : 1 : : : <   J Y   O.K @ > : : : 1 : > : : , : : : : > ",
": : : : : : : 1 : : : : : 1 > : : : 1 , : : : : : : : : : o @ @ Y o.K X o o + # : : : : : > 1 : : + } o.O Y # > > : : > : : : : : : , : : : ",
": : 1 : : : : : : : : : : : : 1 , : : : 1 : : , : : : . O X 0.@ a.| ..s P o 5 y : : : : : : : : :   I +.I   : : : : , : : : : : : : : : : : ",
": : : : , : : : : : : : : : : : : : : : : : : : : : 9 u 4 y.$.y.i.s.o.O.U . 6 9.O   : : : : : : O U +.U X : 1 : 3 : > : : : > : : > : : : : ",
"1 : , : : : : : : : : : : : : : : : , : : : : : : : 4 u 7 w y.4 O.d.f.i.g.r e.@.o . o : , : . # O.| T # > : , : : : : : : > : : 1 , 1 : : : ",
": : : : : : : : : : : : : : : : : : : : : : : : : O t.8 @ 6 i 8 G ..g.o.G i t e.o X O.o O # J U  .U + : : 3 : : : : : : : : : : : : : : : : ",
": 1 : : : : : : : : 3 > : : : > , : : 1 : : : : @ t.%.q.X 5 e 9 H Z } H S w 5 . + o K | } }  .| J # : : : : > : : : : : > : : : : : : : : : ",
": > : : : : : : : : , : : : : : : , : : : : : > # + t.. o o 0 0  .S G D o.u . . # . @ J K U } T   : : : : : : : : : : : : > : : : : : : : : ",
": : : : : : : : , 1 : : : : : : : : > : : : : X # . . X : X y.0 | G F C ..t t.# : : : O O # # # : : : : : : 2 : : : 1 : : : : : , : : : > : ",
": : : , : : : : : : 1 : : : : : : : : : : : : o P   o : : @ %.r.5 G o.Z S i %.  : : : : : : : : : 1 : 1 : : 1 : > : : : : : : , : < > : : : ",
": : : , : 1 : : : : 1 : : : : : : : : : : : X P d.U   : : + 0.5 S | d.o.Z y 9.# > , : : : 1 : , : : : : > : : : : : : : : : : : : : : 2 : : ",
", : : : : : : 1 : : : : : : : : : : : : : : @ Y L X : > #   6 7 +.u.u. .+.q w ; O : : : : : : : : : : : : : : : : : : 1 : : : : : : : : : : ",
": : : : > : : : : : : : : : : : : : : : :   J X.U . : : + r.8 O  .a.} s.| + y % @ : : : : : : : : : > : : : : : : : : : , > : 1 : : : : : 1 ",
": : : : > : : : : : , : : : : : : : : : : + U I + : : : @ #.r.+ O.| ..X.P X u e.e O : : : , : : : : : : : : : : : : : : : : : : : 1 : : : : ",
": , , > : : : : : : : : : : : : : : , : o I p.U @ : : O 5 t.6 + h h h h   O t.$.r.. : : : : : : : : : 1 : : : : : , : : , : : : 1 : : : : : ",
": : : : : : : : : : : : : : : : : : : : X L U @ : : : o 9 + 5 z ) w.0.` z z $ y.% * + : : : : : : : : : : : : : : : : : , : , : : : 1 : : : ",
": : : : : 1 : : : : 1 , : : > : : : : : o  .X : : : # @ q.. 9 g h j x l [ x ; y % i o : : : : : : > : : : : : : : : : : : : : : : : : > : : ",
": 1 : : : : : : : : : : : : : : : : : . Y | . : : : o y.&.w.z y.t.( $ $ - l $ = & 9.X @ : : : : : : : , : : : : : : : : : : : : 1 : 1 : : : ",
": : : : : : : : : : : : : : : : : : : o ..K . : : X # 4     + + # n m m M c * ` q.#.0.. : : : : > : : : 1 1 : : : : , : : : : : : : : : : : ",
": : : : : : : : : : : , : : : : : : + | p.o : : :   # # N N M B =.3.1.2.=.B k 0.X y.+ : : : : : : : : : : : : : : : : , : : : : : : : : : : ",
": : > : : : : : : > : : : : : : : : # p.a.. : : : : + + :.7.5.3.1.>.N B N v c 0.j . : : : : : , : : : : 1 : : : : : : : : : : : : : > : : , ",
": : , 1 : < : : : : : , : : 1 1 : # | i.| | @ : : : : o N =.5.=.*.3.1.6.,.V N g q.k   : : > : 1 : : : 1 : : : : 1 : : : : : : : : : : : : : ",
": : > : : : > , : : : : : > : : : . u.s.U O.f.  : : + m 5.;.b B V ;.,.:.3.2.2.z q.l _ @ : : : : , : : : : : : : : : , : : : : 1 : : 2 1 1 3 ",
": : : : : 1 > : : : > : 1 : : : , + } a.o K i.@ : : O :.=.7.6.-.,.b v B :.*.b M l 0.z r.+ : : : : , : : : : : : : : : : : : : < : : : : : : ",
"1 > : : : : : : : : : : : : > : > : O J | O   : > + M ,.8.:.>.n o O o # V N <.>.=.-.l ' w.# : 2 : : : : : : : : > : : : : : : : : : : : : : ",
"3 : > : > , : , > : > 1 : > : : : : : X   : : : X :.:.1.v >.v . : : > : :   B ,.V -.4.3.z + : : 1 : : : : : 1 : , , : : : : : : , 1 > : : , ",
": : : : : > 1 : : : : : : : : : : : : : : : : : @ V V ,.4.M @ : : > : : : : # ,.4.:.V b >.@ : : : 1 : 1 > : : : , : : : , : : , : : : : 1 : ",
": : : : : 1 : : : : : : : : : : : , : : : : : X b *.;.7.-.B X > : : : : : :   B -.5.4.:.b m . : : : : : : : : : > : , : : 1 : : : : : : : : ",
": : : , : : : : , : : : : : : : : : : : : : O b -.8.5.*.V O : : 1 : : : : : : # =.V ,.4.2.>.M X : : : : : : , : : : : : : : : , > : : : : : ",
": : : : : : : , 1 , 1 : : : : : : : , 1 : o b.j.6.3.<.n m + : : : : : : : : : # m M N 8.6.8.h.  : : : : : : : : : , : : : : : : : : : : , : ",
": : : : : : : : : > : : 1 : : : : : : : : X x.N.N.:.-.n X : : : : : : : : : : : + =.2.:.N.n.+ : : : : : : : , : : : : : : : : : : : : : : : ",
": : : , : : : : : : > : 3 : : : : : : : : , o p z.c.m.x.+ : : : : : : : : : : : O N k.b.l.a . : : : : : : , : : : : : : : : : : : : : : : : ",
": : : : 1 : : : : > : 1 : : : : : : : : : : O I f d 5.4.. : : : : : : : : : : > @ l.B.s P L X : : : > : > : : 1 : : : : : : : 1 : : > : : : ",
": : : : : : : : : : : : : 1 < : : 1 : : : : @ X.I U @ + : : : 1 : : : : : : 1 : : + O d P } P   : : : : : : : > : : : : : : : : : 1 : : , : ",
": : : : : : : : : : : : : : : : : : : : :   I g. .O : : : : : : : : : : : : : : : : : # | i.O.X : : : : : : : : : : : : : : : : 1 : : : : : ",
": : : : : : : : : : : : : : : : > 1 : : : +  .d.X.O : : : : : : : : : : : : : > : : : . U o.s.X > > : : : : : : : : : : : : : : : : : : : 1 ",
", : : : : : : : : : : : : : : : : : 1 : : o u...T # : : : : : > : : : : : : : : : > : :   P f.J # : : > : : : , : : : : : : : : > : , : 1 , ",
": : : : : 1 1 : : : : : : : : : : : : : o T u.Y . : , : : : : , : : : 1 : : : > : : : : : o  .| X : : : : , : : : : : : : : : : : : : : : : ",
": : 3 2 : 3 : : : : : : : : : : : : 1 :   o.f.+ : : 1 : : : : > 1 : : : : : : : : : : : 1 X J }   > : : < : : : : : : : : : : : : : : : > 1 ",
": : : : : : : : : : 1 : : : : : : : : : # g.X.# : : : : : : : : : : : , : : : : : : : > : 2 O X.L . : : : : , : : : , : : : : : : : : : : : ",
": : : : : 1 : : : : : : > : : : : : : # L X.L X : : , , : : : : , : : : : : : : : : : : : > . u.o.+ : : : : : : 1 , : : : : : : : : : : : : ",
": : : : 1 : 1 : : : : : : 1 1 : , : . P f.O.X , : : : : : : : : : : : : : : : : : : : > : : + O.p.T O : : : : : : : : : : : : : : : , : : : ",
": : : : : : : : : : : : : : : : + @ X g.o.Y . : : : : : : : : : : : : : : : : : : > : : : : . Y @ # T + # : : : : : : : : : : : : : : : : : ",
": : : , : : : : , : : : : : : X +.# +.X } P o : > : : : : : : : : : : , : , : : : : : : : > @ X o.Y # X.T   : : : : : : : : : : : : : : : : ",
": : : : : : : : : : : 1 : : X  .+ d.u.} X J . + : : : : : : : : : : : : : : : : : : : : : + + I s.+.X  .Y + : : : : : : 1 : : : : : : : : , ",
": , : : : 1 : : : : : : : :   . . @ X o + + X : : : : > : : : : : : : : > 1 : > : : : : : :   #   @ # +   + : : : : : > : : > 1 : : : : : : ",
": : : 1 : , : : : : : : , : : , : : : : : : : : : : : : : : : : : : : : : : : : : : : : : : : : 1 : : : : : : : : : : : : > : : : : : : : : ",
": 1 1 : : 1 > : : : : : : : : : : : : : : : , : : : : : : , : : : : : : : > : : : : : : : : : : : : : : : : : : : : : : : : : : : : : 1 : > ",
": : : < : : : : : : : : : : : > : : , : : : > : : : : : : : : : 1 : : : : : : : : > : 3 : > : : 1 : : : : : > : : , : : , : : : : , : : : : ",
"1 : : : : > : : : , : : : : : : : : : : : 1 > : : : : : : : : : , : : : > : : : : : : : : : : > : : : : : : : : : : : 1 : : : : : : 1 : : : ",
": : > : : 1 : : : : : : : : : : 3 : , : : : : : : : : , : > : : : : : : : : : : : : : : > : : : 2 , : : : : : : : : : : : : : : : : : : : : "
};
