/* XPM */
static char *result[] = {
/* columns rows colors chars-per-pixel */
"70 70 119 2 ",
"   c black",
".  c #010000",
"X  c #000100",
"o  c #010100",
"O  c #000001",
"+  c #010001",
"@  c #000101",
"#  c #010101",
"$  c #070706",
"%  c #060607",
"&  c #181A24",
"*  c #191A24",
"=  c #181B24",
"-  c #191B24",
";  c #181A25",
":  c #191A25",
">  c #181B25",
",  c #191B25",
"<  c gray14",
"1  c #252424",
"2  c #242524",
"3  c #252524",
"4  c #242425",
"5  c #252425",
"6  c #242525",
"7  c #252525",
"8  c #3E3E3E",
"9  c #3F3E3E",
"0  c #3E3F3E",
"q  c #3F3F3E",
"w  c #3E3E3F",
"e  c #3F3E3F",
"r  c #3E3F3F",
"t  c #3F3F3F",
"y  c #5E0E02",
"u  c #5E0F02",
"i  c #5E0E03",
"p  c #72621C",
"a  c #73621C",
"s  c #72631C",
"d  c #73631C",
"f  c #72621D",
"g  c #73621D",
"h  c #72631D",
"j  c #73631D",
"k  c #10306E",
"l  c #11306E",
"z  c #10316E",
"x  c #11316E",
"c  c #10306F",
"v  c #11306F",
"b  c #10316F",
"n  c #11316F",
"m  c #902426",
"M  c #912426",
"N  c #902526",
"B  c #912526",
"V  c #912427",
"C  c #A05E26",
"Z  c #A15E26",
"A  c #A05F26",
"S  c #A15F26",
"D  c #A05E27",
"F  c #A15E27",
"G  c #A05F27",
"H  c #A15F27",
"J  c #C74E64",
"K  c #C64F64",
"L  c #C74F64",
"P  c #C64E65",
"I  c #C64F65",
"U  c #C74F65",
"Y  c #B4A052",
"T  c #B5A052",
"R  c #B4A152",
"E  c #B5A152",
"W  c #B4A053",
"Q  c #B5A053",
"!  c #B4A153",
"~  c #B5A153",
"^  c #D89A46",
"/  c #D99A46",
"(  c #D89B46",
")  c #D89A47",
"_  c #D89B47",
"`  c #D99B47",
"'  c #F59660",
"]  c #F49760",
"[  c #F59760",
"{  c #F59661",
"}  c #F49761",
"|  c #F59761",
" . c #285AC6",
".. c #295AC6",
"X. c #285BC6",
"o. c #295BC6",
"O. c #295AC7",
"+. c #285BC7",
"@. c #295BC7",
"#. c #687EC0",
"$. c #697EC0",
"%. c #687FC0",
"&. c #697FC0",
"*. c #687EC1",
"=. c #687FC1",
"-. c #697FC1",
";. c #EAD684",
":. c #EBD684",
">. c #EAD784",
",. c #EBD784",
"<. c #EAD685",
"1. c #EBD685",
"2. c #EAD785",
"3. c #EBD785",
"4. c #F4D185",
"5. c #AAB8E2",
"6. c #ABB8E3",
"7. c #FEFEFE",
"8. c None",
/* pixels */
"* * & - - : & > - > > , : > & ; ; ; - ; * ; > > : ; ; > - ; > * ; * > - = & & - = > ; & - : : : , : > > ; * - & > - - : , * > : , * & > ; ; ",
"> : & , * - > - : * - > & ; * & = , : = - , * - * - : , : , : & & ; > * > > & & ; * & & - - > = ; ; - ; ; = * * > ; : , = & , : > : : * , ; ",
"- & > = & & & - : & * ; = , & ; & & & & & & & & & & & & & & & & & & & & & & & & & & & & & & & & & & & & & - - - - : ; = : * , : = * * - : > ",
"& > ; & > : > - > : = ; & , , ; & & & & & & & & & & & & & & & & & & & & & & & & & & & & & & & & & & & & & & * - ; : , ; > & ; = : & : = , * ",
"- & : & ; * ; : : * , : & > , ; ; , - > = ; - & ; ; : = : * > - = : > = , , ; * - , : : * > * : : * = > , ; - = & - , ; - - = * > , > > ; = ",
"- = & = : - : * - = = , , - & > * ; > : * > & - : * - , > : ; > ; ; = : & - = , > ; - , : : , : : & & * & & : : * ; , = : : > > & * * * ; : ",
": , > & > > = : , * : - , ; * > , ; & , & , : ; : * > = , > = o @ + # X X .   > & - ; , - > : , : : & = & > - > & > & & : = = : > ; = > - = ",
", > & * : , : & ; ; = ; : * & > & - & = ; - : = & > , = : ;   a E E 1.! ! :.R + = - : = : > = * , : = * ; : * - = > = = > > , & > = = : > ; ",
": = = = ; , ; = ; = = = - * , : > : * , - , > ; = ; > = = o a W 1.Q :.,.:.2.R g   & > - , - = = * > - & : > * , ; = > > = - : , ; * ; * * * ",
": > ; * : = & > ; : ; - * = * , : = > - ; & & ; > = & , -   Y E ! ! J J R Y 3.R . , - * - * , : - > - ; & - , * , & & : = : > - ; - = * & , ",
"; : , : & & & , : * > - & ; , : ; , ; * = , : : = - & : X m V B J K I L U P U I X + - - = : * = : - - & - * > : , > & ; ; = - > = , * * ; ; ",
", , - & = : : > - = = * * & * = * & , & ; , : - : & ; : X M B B I ~ E Y Y U U U o X + ; ; - = = : - , - , : = - > ; , = , - - - - : : - & & ",
", > - - : = = & > & - : > & ; * * * - > , - , , - > - . # N E E Q :.Q ,.Q W Y E ,.;.  # ; & : , ; > & > , & > - - , : = ; ; * * , , * : = > ",
", : & & - = - , ; , , = ; = & & & - ; * - , , : & *   . o R W @ + # +   + o . X E 1.,.,.#   o ; , = : - : ; & * = = : - * - > ; ; = ; , = & ",
"= = > > - , = - > & : - * - - * & * * - : & > > # ~ g g g R O @ . X .   X O # . # s d s s >.  = = ; ; , * - = > ; & - > & = ; & - , * = ; & ",
": - - > > , : * = > > = = & : * : - - , : - * ; . g f d X # O . . . + @   o X X + j s g # X : : > & - = > ; , - ; , - & > & * & * : & > * = ",
"= - & = & - * , & & - - ; > = = * ; > , * > = = o . O o + +   # O + # # o # O # @ o + . o > , ; - : : * : : , , > > * - * - : = & & , * = - ",
": = : & : = & = ; & & * & ; = : = ; ; * : > , - : & : > + X   O # + . @ # + # o # # +   > * = ; = ; & , & & : * = > , , * , > , > * : : = ; ",
"- * ; , = ; & - = ; > & > - > & > = > - * * > , & > ; * = @ # . .   # . X . . + X * = & & ; * , = - ; = : : = - , * , , : ; , ; > : = & ; = ",
"* - : * & > > & : & > & ; , ; & = - : * - = , = : - & = * # @ . O .   + +   + . O , - , > : ; & > & & - = ; & ; ; - : > , = & : = & : * , & ",
"> ; = = : = > : > - - * = & = : * ; & = ; , > - > * = > - & & . X + O @ o + @ X > : ; , = ; : = = , & , = ; , - > , , , > - ; = ; * : * , > ",
": & ; * & * ; : = : - * ; - > = * : ; = : ; , , & * * ; > - ; . D / ` # F D . + & , * , ; ; : > * = = ; = - , , - : , : : ; = , > = = : > ; ",
": ; = = > & : : > * > > > > ; > = , & , * - : , , & - , * , > . o C S S G . ; : & ; & > ; & ; - > - = * : & ; * > - = > = = , & * , - * = , ",
"= ; = - , - = - = - = & , > - ; - * = & > - > - > : : ; X X 5 5 6 6 7 1 1 2 # X = , , > - & : , = - & - : : * ; > , * > = > > - > > > & : - ",
"- , ; = * = & & - ; * > > , & > : , : , > > & : - - =   3 :.' 1 7 < 6 < 3 t 0 X X , , * & ; ; , & > * * & - - - - = : * - , * - * & - = ; > ",
": , & , & > , & > : = = = & = * : & : , > = ; - ; &   q 2 q >.6 3 4 <.4 2 t 3.} # o , : > , > = * : & , = ; : , > & & ; ; * - = * ; ; & : > ",
"> = : > ; - - : , * - & - : - - & - : = > = > > > @ :.7 O 6 w 4 5 >.] ;.7 8 9 <.. i o = > = , ; = & > > ; * - & : , > & - ; : = > ; : , * - ",
"- ; : & > * : = , * - = > > & & * = , = > ; : , # >.| :.@ 7 0 0 9 3 >.7 7 8 6 . X y u o : & , - > = > * ; * > , , & - * & ; , ; * ; - - > * ",
"- : = > & : - : * ; = * * - * = * * : > * - , > @ w ,.  . O 5 3 5 9 2 1 5 w     o y u   : > = & : : ; > : * = * > & > = * = & , - > - & > : ",
"* > * > - - > & : > & * : : & - - > - > : , *   4.4.O o ; # 3.3 5 8 t 3 5 6 1 X * u u u . : > ; & ; , > & = > = : = ; : > ; > , & & , > * = ",
"= * & - ; ; > : ; ; - & & , , & , * > & = ; - O 4.4.. * , . ' :.7 q 5 0 3 2 ' O > # u u O * ; = > > = > , : : & & * - ; : ; ; ; = - & - : & ",
"; > ; , & ; * * & = , = = , * : - - > & = ; X 4.4.4.O > & X 1.1 t 7 < <.r e :.. , ; # Z Z O & > - , * > * ; , * - - , ; > , ; > - , ; ; ; ; ",
", > * : > - & = ; - , - : & - ; > , > - = : o 4.4.  & * O . 1 w 4 6 <.{ :.3 8 % & # Z Z Z Z O = = & : : , = > = , > > - & ; * > * = , = * , ",
"- : - & : ; - , - = - & = & * : ; > - * * X A D D   * - . :.4 2 e 6 4 <.3 5 0 $ + # Z Z Z Z O & & & : , : : & > > : : & > - = - - > = = > : ",
": & ; * * , : : - = ; - - = = , : > , > , + F D   & > &   [ 2.- : 8 < 4 t t t 3.e & X Z Z Z O & : , , > * - > * = = > ; : > * * : - = > , > ",
"> * ; , - ; : , > * * > & = : * - & > - * X G D o & : X 1 ,.3 * , >.q < 1 q 3.} <.; & X X X & & ; > > , > > - & * & - ; * , > ; , - = & * = ",
"; , : : , = > , = - : ; & = , * - * > ; * X F H @ > = X 7 . 6 : ,.{ ,.q < < 4 <.t ; & & & & & & & = = , & = ; - : & : = * , ; * - & & > * - ",
"= > - = - = > , = ; > , : = * > ; * > : * + u u o * # O 3.o < ; , > , * * o 4 2 e = & & & & & & & = = = & * - : & , & : ; , & * : & , ; , & ",
"> = ; - , ; - = = > & ; ; & : & : , > ; * + O . o : X 1.j s d >.,.f f f h h >.:.p g X = = = = = = = = & & - ; & > : = - & ; - - & > > > > > ",
": , * : ; : > , - ; > : - - > & : > > : > = & * * O @ ! W ,.>.;.<.>.,.<.,.g R ~ T ~ X = = = = = = = = & ; - ; = * ; = - - : * * * = - ; , > ",
": = * - = & * , : ; = = = - > = ; ; > > ; & * - =   o   n l l b ..$.#.*. .v g ,.h g X = = = = = = = = - ; : > * * - * = = = : - & ; - = * ; ",
"; ; , = > , : = * - > > : = - > * : ; & > ; > > & > O l -.6.6.b b b o.@.=.%.*.j <.s E X = = = = = = = = * = - - > : , , : : & ; , - * > > , ",
"; & & = > ; & : ; = : ; > - - : * = > > > = & - ; - . O.b b b b b b x n o.X.k +.g 1.h 3.X = - : : : & ; ; : - - > , ; : , = * = , = & : : , ",
", = , , = & , , & > ; , - & * * - = - ; ; > - * - - . 6.b b b b O   + . l k +.+.X.@.f T ;.+ * & : & > - = - & ; * = > , - , ; = * = = & - , ",
"> , & = , : - - : ; ; ; ; ; * & : * - : ; - & - > - . b &.b b z ; , * o o.*.+.+.o.8.c s j X , & , : = & , - ; & = = , & ; , - = ; , & = = ; ",
"- & = = - & & * ; & - , * * - , > & = ; : & : ; > - . b b b k o > = & o c -...b +.8.n j + ; * = ; ; = & = - , * & * > > & , , : - = : - = > ",
"> - , & - : : * , : : * & ; - ; ; , ; > = = : > > ; . b b b k o = , & o X.+.+.+.+.z o : ; ; ; ; ; ; > = > ; : & & > * , > * - ; : : ; & = & ",
", , , = = * > > - , : & , * - = - - * = * - : : * > . b b b k o & , > o b +.+.+.+.+.o > ; : & > * ; - ; ; = * & > , - & & ; ; * & & & ; : * ",
"* ; , & = * : , ; & , = & = = > & = & > > = : * & * @ l b b z v o , > o b +.+.+.+.+.o & ; - > , , ; * & > , * & : ; - = : > = , - = = ; * * ",
"- ; * = > & & : : * > , : - ; , , = * & & ; : : , * o *.*.+.+.+...o & = > *.+.+.+...o & = > ; - * ; * = ; = * & - - , : & = : : : - : > = , ",
"> , > , ; = * - , ; : * : = > ; & = , , , > : - & & o 5.5.5.7.#   > & = & 5.5.7.#   > & = & & ; * ; ; - ; , ; : & : : - , , ; : : & - > = - ",
", - : , , - & - = , : ; - * - : * : : * ; , : : & * o + H H H # # & > = = H H H # # & > = = - - * ; > = > : ; = = - = * - - : * > : & - ; * ",
"; ; - > , = & : = = = ; - , : : , - = * , - : > = * = o H H H   & ; ; ; : H H H   & ; ; ; : * , & ; > , ; * = & * , * > = ; & - , ; , : ; = ",
"> & ; = * & , , * & > = > , > & : : , - > > : , - ; & o ) H H # - : - : : ) H H # - : - : : - > * ; - , = > ; * = & & = & * & > & , = , - & ",
"- = , - & > ; ; * & : ; - & = * : * * - = & : - = & & o H / `   > & - & * H / `   > & - & * > , * ; : > ; & ; = - = & ; : , , = , , : * * - ",
"& = : * : & , - , - , & * * : = & > ; ; - : : & : & ; X X ` ` # ; - > * - X ` ` # ; - > * - > > : ; > ; * , - > > : ; : = * ; - ; ; - - > & ",
"& - > = = & - * > - , > > * * & - > > = , : : : & * * * o ( ` o > > = > > o ( ` o > > = > > , > * ; * : > ; & - : * * = * & > > - ; = - * ; ",
"; * * , * - > > = ; > * = & * : , : = , - & : = & * - * o _ ` X = = - * * o _ ` X = = - * * & ; - ; ; , ; ; - > : : , , & = & & & > ; & , = ",
", > , * = ; > * - * = = * - > - > - ; & , - : : : : : : o _ ` X * * * & & o _ ` X * * * & & ; & = ; ; = = ; - = , = & = - > * > ; ; : * - : ",
"; & = > - & ; & ; & = ; & * > , ; - , - * & : : : : > : o ^ ` o & - * ; ; o ^ ` o & - * ; ; ; : = ; * * & , , * , = : & - & > & , & > = * * ",
"> * > : ; - : - ; : > = > * , & - * = & > : : : : , > # S ( ` . > > - : # S ( ` . > > - : ; ; : ; ; > : : & > > & : : , : , * , & = = - = : ",
"* & ; ; : = & : , : & & , * & ; ; * : & : - : : > , & # G ` _   : ; ; ; # G ` _   : ; ; ; & ; ; ; ; & - : & - > - & > - = & - & : : - = > & ",
"> ; , = - , : - : * > : ; & , * > > > : ; : : : ; ; & X D C _ O : , , * # D C _ O : , , * * * - ; ; - = > = - * ; * & & ; ; > : ; , * & = , ",
", - : ; : , * , - - , : , : > > * * * & : : : : ; ; &     O O * * ; - - #   O O * * ; - - * * > ; ; : , * & & : : & , - : , , * : ; = , ; - ",
"= = , & > ; > - , , > : - ; > ; : : & * = & , & : : > - , , - : - , - = - , , - : - , - = - ; - ; ; : ; ; > & > , = > = = : , = ; , = & - , ",
"& ; = > ; - : > & = - : > , , ; = & > , ; - ; * > - > , , = , = & > & > & , = , = & > & > & * > : * ; , = - * & = & , = ; * * : ; & & = = - ",
"; ; & & , , > , = = : > = & ; = , = = & = , & ; , : > , , ; & * : ; , - - , ; & * : ; , - - & * = ; - , = , * , & : , & - : : & : ; & = : : ",
"> : , - - * * = , * , * & , ; - & ; & > : - = - : > & * > - : : = : & * & , ; * ; = - , : ; , = : ; * = - : : : - * , & * : , - > : & - > , ",
", ; * , & ; - = , : ; - * * * ; & , - ; : : , , * = - > , - & - - > & , > : : - > & : * & & * * * & * = ; : : , : > * , & & ; * = - : = ; - ",
"; : ; = : - & & = - = ; & & = = > > , & - * - = * ; * - * , : : = ; - > , ; & : - > > & - , - = - : ; > = - , = * , , > : * , & , > - * - = "
};
