/* XPM */
static char *result[] = {
/* columns rows colors chars-per-pixel */
"70 70 149 2 ",
"   c black",
".  c #010000",
"X  c #000100",
"o  c #010100",
"O  c #000001",
"+  c #010001",
"@  c #000101",
"#  c #010101",
"$  c #060606",
"%  c #070606",
"&  c #060706",
"*  c #070706",
"=  c #060607",
"-  c #070607",
";  c #060707",
":  c #070707",
">  c #181A24",
",  c #191A24",
"<  c #181B24",
"1  c #191B24",
"2  c #181A25",
"3  c #191A25",
"4  c #181B25",
"5  c gray14",
"6  c #252424",
"7  c #242524",
"8  c #252524",
"9  c #242425",
"0  c #252425",
"q  c #242525",
"w  c #252525",
"e  c #3E3E3E",
"r  c #3F3E3E",
"t  c #3E3F3E",
"y  c #3F3F3E",
"u  c #3E3E3F",
"i  c #3F3E3F",
"p  c #3E3F3F",
"a  c #3F3F3F",
"s  c #5E0F02",
"d  c #5F0F02",
"f  c #5F0E03",
"g  c #5E0F03",
"h  c #5F0F03",
"j  c #72621C",
"k  c #73621C",
"l  c #72631C",
"z  c #73631C",
"x  c #72621D",
"c  c #73621D",
"v  c #72631D",
"b  c #73631D",
"n  c #10306E",
"m  c #11306E",
"M  c #10316E",
"N  c #11316E",
"B  c #10306F",
"V  c #11306F",
"C  c #10316F",
"Z  c #11316F",
"A  c #902426",
"S  c #912426",
"D  c #902526",
"F  c #912526",
"G  c #902427",
"H  c #912427",
"J  c #902527",
"K  c #912527",
"L  c #A05E26",
"P  c #A15E26",
"I  c #A05F26",
"U  c #A15F26",
"Y  c #A05E27",
"T  c #A15E27",
"R  c #A05F27",
"E  c #A15F27",
"W  c #C64E64",
"Q  c #C74E64",
"!  c #C74F64",
"~  c #C64E65",
"^  c #C74E65",
"/  c #C64F65",
"(  c #C74F65",
")  c #B4A052",
"_  c #B5A052",
"`  c #B4A152",
"'  c #B5A152",
"]  c #B4A053",
"[  c #B5A053",
"{  c #B4A153",
"}  c #B5A153",
"|  c #D89A46",
" . c #D99A46",
".. c #D89B46",
"X. c #D99B46",
"o. c #D89A47",
"O. c #D99A47",
"+. c #D89B47",
"@. c #D99B47",
"#. c #F49660",
"$. c #F59660",
"%. c #F49760",
"&. c #F59760",
"*. c #F49661",
"=. c #F59661",
"-. c #285AC6",
";. c #295AC6",
":. c #285BC6",
">. c #295BC6",
",. c #285AC7",
"<. c #295AC7",
"1. c #285BC7",
"2. c #295BC7",
"3. c #687EC0",
"4. c #697EC0",
"5. c #687FC0",
"6. c #697FC0",
"7. c #687EC1",
"8. c #697EC1",
"9. c #687FC1",
"0. c #697FC1",
"q. c #EAD684",
"w. c #EBD684",
"e. c #EAD784",
"r. c #EBD784",
"t. c #EAD685",
"y. c #EBD685",
"u. c #EAD785",
"i. c #EBD785",
"p. c #F4D084",
"a. c #F5D084",
"s. c #F4D184",
"d. c #F5D184",
"f. c #F4D085",
"g. c #F5D085",
"h. c #F4D185",
"j. c #F5D185",
"k. c #AAB8E2",
"l. c #ABB8E2",
"z. c #AAB9E2",
"x. c #ABB9E2",
"c. c #ABB8E3",
"v. c #ABB9E3",
"b. c #FFFFFE",
"n. c #FEFEFF",
"m. c #FFFEFF",
"M. c #FEFFFF",
"N. c white",
"B. c None",
/* pixels */
"> > > > > 2 > , > > > > , > > > > > , > > 2 > > > > 2 > 2 > > > > > > > > 2 > > > , > > > < 3 > , 2 > 2 2 > > > > > > > > > > , > > > > > > ",
"> > > > > > > > > > > > > > > > , > > > > > > > > , > > > > > > > > > > > < > > , > > < > > > > > > > > > 2 < > 3 > > > > > > 3 > > > , > > ",
"> 2 > 2 > > > > > > , > > > > > > 2 > > > < > < > > > > > > > > > > < > > > > > < > > > > > > > > > > > > > > 2 > 2 > > > > > < , > > > > > ",
"2 > > > > > > > > > > > > > > > > > > > > > > > > > > > > > > > > < > 2 > > > > > 2 > > > > > > > > > > > 2 > < > > > > > > > > > > > > > > ",
"> 2 2 > > > > , > > > > > > > < > > > > < > > > 2 > , > > > > > > . O o O o X > 4 > > > < > > > > > > > > > > > > > < > 2 > > > < > > > > > ",
"2 > < > 4 > > > > 3 > > 1 > , > > > > > , 1 > , > > > > > > > >   j ` w.r.` x . O > > > > > > < > 2 > > > > > > > > > > > > > > > > > > > 2 ",
"> 2 > > > > < 2 2 2 > > > > , > < > > 2 > > > > > > > > > 2 >   } t.r.t.t.u.i.[ b . > > > > > > > > > > > > > > > > > > < > > > > > > > > > ",
"2 > > > > > > > > > > , > > > > > > > , > > > > > .   # O . + S ( ^ Q _ ) u.} w.' O > > > > > > , > > > > > > 1 > > > > < > > > > > > > > > ",
"3 > > > > > > > , > > > > > > 2 > > > > > > > > @ _ u.w.q.y.i.q.' ! / ! Q / i.} u.j + > > > > > < > > > > > > > > 3 2 > , > > < > > > > , > ",
"> > > > > > > > > > > > > > 2 4 < > > > > > > > + e.z z c b b _ w.w.e.] Q W Q ^ ' _ + > > > > > > > > > > > > > > < > > > > > > , 2 > > > > ",
"> > > > > > > > > > > > > > > > 2 2 > > > , > > 2 X c # .   @ @ # j ] u.w.[ ~ ! D [ + 2 > > > > 2 > > > > > > > > > > > > > > > > > > > > > ",
"> > , 2 > > > > > > 2 > > > > > > > > > > > > > > X j v v # . o O X @ X ` w.y.J D F # > < > , > > 2 > , > , > > > > > > < > > 2 , > > > > 2 ",
"> > > > > > > > > > > > > > > > > > > > > > > > 2 > + v @ X . o # U O   o   [ u.J K O > > > > > > > > > > > , > > 2 > > > , > > > > > > > > ",
"> > 1 > < > > > > > > > > , > > > > > 2 > > > > 2 > > # o @ L X O  .. X @ X . ) q.o # 2 > > > > > > > > > > < > > > < > > > > , > > < > > > ",
"> > > > > > > 2 > > > > > > > > > > > > > > > > > < ,   X X | . o.I + + P + O O j q.X > , > > > > > > > > < > > > , > > > > > > > > > > > > ",
"> > > > < > > > > > > > > < > < > > > > > > , , > > # >   O @.X T + c.+ ..O o + X ) r.. > 2 > > > > > > > < > > > > > > > < > > > > 2 > > > ",
"> > > > > > 2 > > > > > > > > > > > .   > > < > > > > > + @ Y o. .+ b. .s.# j.  c l }   > > > > > > > > < > > > > > > > > > > > 2 2 > > > > ",
"> > > > > > > , > > > > > > > > < X  .p.O . > > > > > > O >   ..p.@. .a.f.E  .O @ x z )   > > 1 > > > , > > > > > > > > > > > > > > > > > > ",
"> > > , > > > > > > > > > > > > O p.U X p.f.X > > > 2 , > > # p.f.p.j.j.@.o X # j c l ` X > > > > > > > > > , < > > > > > > > > > > > , > > ",
"> > < > > > > > > > > > < > <   h.R  .  o +.# > > > > 2 > > < O O.m.N.O.+   # > + O o o > > > > > > > , > > > > , 3 > > > > > > > > > 2 > > ",
"> > > > < > > > > < > 2 2 , < @ U O.X I L + > 2 > < > > > > > > O | X.o T + > > > > > > > > > > > > > > > > > > > > > 2 , > > > > > > > > > ",
"> > > > < 2 > > > > > , > > > @ Y O O.| # > > > > > > > > > # # @ # . U  .R O @ # > > > < > > > > > > > > > > , > 2 2 > > > > 2 > > > > > > ",
"> > > > > > > , > 2 > > > > < >   Y O.Y   > < 2 > > > > > > a 0 o U d X.| a.@ i.X X . > > < > > > > 2 > > > > > , < > > > > > > > > , > 2 > ",
"> > 1 < > 2 > > > > > < > > > > < o T X.Y + , > > > > >   @ r.7 + I +. .f.a.w.#.u.9 p 9 > 2 > > > 2 > 2 > , > > < > > > > > > > > > > 2 > > ",
"> > > > > > > > > > > > > > , > > >   E  .X.# . > > > o     #.q.u s.f.f.f.o.6 u.r 6 p 7 > > > > > > > > > > > > > > > , > > > > > > , > > 2 ",
"> > > < > > > > > > > > < > > , < > > # Y ..P L o   o ..X X t.u p G O.f.@.K 9 u q # 5 y.X > < > > > > > > > > > > > > > > > > > < > > > > > ",
"> > 2 > > , > > < > > > > > > > > > > > # L O.@. .| | Y @ . O 5 t K K ..D K 9 a 7 @ i.*.i.O > > > > > > , > > 2 > < > > > > > > > > > 2 > 2 ",
"< > > > > > 2 > > , 2 < , > > > < > > > >   T o.T I Y # . O   # a | J G F +.9 q o X o t.# o < > > > > > > > > > > > > > > < > > > > > > > > ",
"> > 2 > > > > > > , > > 3 > > > > > > > > > # o + . O > > > o u.u X.A D A X.w r.X > o o + + X > > > > > > > > > > > > > > < > < , > > > > > ",
"> > > > > > > > > > > > > > > > < > > > > 2 > > > > 2 > > >   &.p J S +.D 8 t.=.. > > X . U # > > > , > > < > > > > > , > > 2 > < > > > > > ",
"> > > > 2 > > 2 > , > > > > > > > > > , 4 > > 2 > > > > > > # t.i H @.a.o.F q i.+ > 2 O L p.T # > > > , > > > > > , > > , > > , > > > > 2 < ",
"> > > > > < > > > , > > < > > > > > > > , > > > > > > 2 > O & e w X.| s.p.O.8 5 # # > > O I I o > > > > < > , > > > > > > > > > > > > > > > ",
"> > > 2 > > > > > > > > > > > > > > > > > 2 > , > > , > > # & i .  .g...p...+ 0 q.O > > . E | P . > > > > 2 > > > > > 2 > 2 > > > > > > > > ",
"> > > > > > > > > > > > 2 > > > > > , > < > > > > > > ,   r w.y   U o.X.| @.+ y.&.@ > > > + P T O > > > > > > > > > > > > > 2 > , > , > > > ",
"> , > > > > > > > > > > > > > > > , > > > > > > , > > > # i.*.u.O . b k l k + 5 t.9 O > > o U f.R o > > > < , 2 > > > > > > > > > > > > > > ",
"> > > < > > 2 > , > > > > 2 > > > > > > > > > > > > , . ; & u.$ x b ` w.q.[ x 8 @ 6 o > , 2 @ Y L   > > > > > > > > > , , > > > > > > > > 3 ",
"> > > > > < > > > > > > > > > > 2 > > > > > > > > > > o a % u : v { x b c z j 9 o u.+ # > 2 , @ +.o > > > > 2 > > > > > > > > > > > > < > > ",
"> > > > > > > , > > > > > > , > < > > > > > > > 2 2 O   r.* - = x ; $ % ] u.y.x w.$.i.  > > > . o.Y . > > < > 1 , > > > > , > > > > > > > > ",
", > > > > > > > > > > > > > < > > > > > > > > > > > . w.%.r.] = v B M Z C # + O .   8 O o > > O I ..# > > > > > > > > 2 < > > > > 2 > > > > ",
"> > > > > > > > 2 > > > > > > > > > > < > > > > > > > + u.X w.v B -.7.5.5.-.M n m V . o O > 2 > X p.| O > 2 > > > > > > > > > > > > > > > > ",
"> < > > < > > > > > > > > > > > > > > > , > > > > > > > . v y.v m B M C <.9.3.5.9.-.. O > > > > . d.h.o > > > > > > > > > , > 3 > > > > , > ",
", > > > > , < > > > > > > > > > > > > > > > > > > > > . l e.v C N >.0.3.6.,.:.3.-.Z # > > > > @  . .j. .# > > 2 > > > > > 2 > < > > > > > > ",
"4 > > > > 2 , > > > > > > 2 > > > > > > > > > > > > @ _ v e.x 0.8.5.,.1.-.N C N >.9.N O > > O h.+.T h.p.+ > > > > > > > < > > , > > > > > > ",
"> 2 > > > > > > > > 2 , < < > > > > > > > > > 2 > . t.x i.c V C -.<.C n C 1.;.8.8.;.<.X > > @ g.T X s.o.+ < > > > > > > > > > > > > > < > 2 ",
", > > > > > > > > > > > > > > > 2 > > > > 3 > > # r.) l 2.;.;.2.B V @ # O o B ;.<.0.1.n O X > o O  .R O > > > > > > > > > > , > > > > > > > ",
"> > > > > > > > < > > 2 > > > > , > 2 2 > > > > . ] -.>.6.5.n V n O > > 2   m N M <.0.5.# @ < 2 >   # > > > > > > > > > > > , > 2 > 2 > > > ",
"> > > > > 2 > > < 2 > > > > , > 1 > > > > > > . m n ,.4.6.>.m   > 2 > > > < > # n ,.5.:.-.N o , > > > > > > > > > > > > > > > > < > > > 2 > ",
"> > > > > 2 , 2 > > > > > > > > > > < > > > o n ,.3.6.;.Z <.# < > > > > > > > > O C :.7.6.2.n O > > , , > > > > > > > > 2 > > > < > > > > > ",
"> > > > > > 1 > > > > > > > > > > > > > > > @ k.4.8.8.m n N + > > > > < > > > > o m M 2.3.0.l.b.o > > > > > > > > > > > , > > > > > > > 1 > ",
"> > > > > > < > > > > > > > > > > > > > > 2 > + M.N.-.8.-.+ > > 2 > > > < < > > < . M ,.1.N.N.x.X > > > > > > > > > > > > > > > > > > > > > ",
"> > > > > > > < > > , > > > > > > > > > > > > o h c.n.z.V O > > > > > > > < > > > o v.n.n.c.g o > > > > > > > > > > 2 > > > > > > 1 > > > > ",
"> > > > > > > 2 > > > > , > > > > > > > > > > X E P g B.v.@ > > > > 2 > > > 2 > >   0.8.f h R O > > > > > > > > > > 2 > > > > , < > > > > > ",
"> > > > > > > < > > > > > , > > > > 2 > > > . I o.P s O X < < > > > 2 > > > > > > > O # P T o.O > > > > 2 > > > > > > > > > > < > > 2 > < > ",
"> > > > > > > > > > > < 4 , , > > > > > > >   +.d.O.+ , > > > 2 > > > > > > 2 > > > > > O | h.Y X > < > > > > > > > > > > > > > > > 2 > > > ",
"> > > > > > > , > > > > > > > > > , > > > < O p.o.T . > > > > > > > > > > > > > > > > > + | g.o.+ > < > > > < > > > > > > > > > , 2 > > > > ",
"> , > > > > > > > > > > > > > > > > > > > # U j.P O > > > > > 2 > , > 2 > > < > > > > > # E X.d.o > > > > > > > > > > > > 2 > , > > > > > > ",
"> > > 2 2 > > > > > > > > > > > > > < > > X o.X.# > > > > > > > > > > > 2 2 > > > > > > , . R p.R o > > > > > > > > > > > > > > > > < > > > ",
"> < > > < > > > , , > > > > > > > > > < < X o.I X > 2 > > > 2 > > > > > > > > > > > > > > > + f.O.  > > > > > > > > > > > > > > > > > > 2 < ",
"> > > > > > > > > > > > > > > > > > > > X P o.@ > < > > , > > > > > > > > 4 , , > > > > > > # o.f.# > > < > > > > > > , , > > > > > > > > > ",
"> 2 > , 2 > > > > > > > > > > > < > > > X o.p.. > > > > > > > > 2 > > , > > > > > > > > , > X R o.I o > 2 > > 2 > > > > > > > > > > < > > > ",
"> 2 > > > > > > > 2 > > > > > 4 2 > > @ E a.+.. > > > > > > > > > > > 2 > > , > > > > > , > > X +.j.U + > > , > , > > > > > > > > > > > > > ",
"> > > < < > > , > , 2 > > > > 2 > . + U # X R . > > > > > > > > > > > > > > > > > > > > > > < o R O.g.. @ + > > > 2 > > > > > > > > > > 2 > ",
"> > > > > > > > > > > > > > > > X E o.# Y +.  + > > > > > > > > > > > > > > > > > > > > > > >   L | o X.@ X.X > < > > > > > > > > > > < > > ",
"2 > > > , > > > > > > < > > > > X R o.X +.f.L . + 2 > > > > > > > < > > > > > > > < > > , >   . L X +.f.f.O | + > > > > > > > > > > > > > > ",
"> > > > > > > > > > < > 2 > > > + . O O O + + O > > > > > > > > > > > > 1 > 2 > > > > > 2 > > # + O o X   + .   > > > < > 2 > > , > > , > < ",
"> > > < > 2 > > 2 > > > > > > > > > > > > > > > > > > > > > > > > > > 2 > , > > > > > < > > > > > > > > > > > > > > , > > > > > > > > > > > ",
"> > < > > < > 2 > > > > , > 3 > > > > > < > < > > > > > , > > > > > > > > , > > > > > > 2 > > , > > > > > > > > > > > > , > > > > > > < > > ",
"> , 4 > > > > > > > > 2 > > > > > > > > , > > > > > > > > > > > > > > > > > > > 2 , > > > > > > , > > > > > > < > > > > > > < > 2 > > > > > ",
"> > > > > > > > > > , > > > > > > > < < > > > > > > > > > > > 2 > > > > < > < > > > > < > > , > > > > > > < 2 > > > > > > > > > , > , > > > ",
"> > > > > > 2 > > > > > > > > > > > > > , > > > > > > > > > > > > > > , > > > > > > 2 > > > > > > > < > > > > > 2 > > > > > > > > 2 > , > > "
};
