/* XPM */
static char *result[] = {
/* columns rows colors chars-per-pixel */
"70 70 123 2 ",
"   c black",
".  c #010000",
"X  c #000100",
"o  c #010100",
"O  c #000001",
"+  c #010001",
"@  c #000101",
"#  c #010101",
"$  c #181A24",
"%  c #191A24",
"&  c #181B24",
"*  c #191B24",
"=  c #181A25",
"-  c #191A25",
";  c #181B25",
":  c #661804",
">  c #671804",
",  c #661904",
"<  c #671904",
"1  c #661805",
"2  c #671805",
"3  c #661905",
"4  c #671905",
"5  c #223658",
"6  c #233658",
"7  c #223758",
"8  c #233758",
"9  c #223659",
"0  c #233659",
"q  c #223759",
"w  c #233759",
"e  c #6D6C6C",
"r  c #6D6D6C",
"t  c #6D6C6D",
"y  c #6C6D6D",
"u  c #902526",
"i  c #912526",
"p  c #902427",
"a  c #912427",
"s  c #902527",
"d  c #912527",
"f  c #94581C",
"g  c #95581C",
"h  c #94591C",
"j  c #95591C",
"k  c #94581D",
"l  c #95581D",
"z  c #94591D",
"x  c #95591D",
"c  c #94842C",
"v  c #95842C",
"b  c #95852C",
"n  c #94842D",
"m  c #95842D",
"M  c #94852D",
"N  c #95852D",
"B  c #C0B24A",
"V  c #C1B24A",
"C  c #C0B34A",
"Z  c #C1B34A",
"A  c #C0B24B",
"S  c #C1B24B",
"D  c #C0B34B",
"F  c #C1B34B",
"G  c #E2A040",
"H  c #E3A040",
"J  c #E2A140",
"K  c #E3A140",
"L  c #E2A041",
"P  c #E3A041",
"I  c #E2A141",
"U  c #E3A141",
"Y  c #F29861",
"T  c #F29961",
"R  c #F39961",
"E  c #E2DA6A",
"W  c #E3DA6A",
"Q  c #E3DB6A",
"!  c #E2DA6B",
"~  c #E3DA6B",
"^  c #E2DB6B",
"/  c #E3DB6B",
"(  c #4262A0",
")  c #4362A0",
"_  c #4263A0",
"`  c #4363A0",
"'  c #4262A1",
"]  c #4362A1",
"[  c #4263A1",
"{  c #4363A1",
"}  c #527AC2",
"|  c #537AC2",
" . c #527BC2",
".. c #537BC2",
"X. c #527AC3",
"o. c #537AC3",
"O. c #537BC3",
"+. c #ACACAC",
"@. c #ADACAC",
"#. c #ACADAC",
"$. c #ADADAC",
"%. c #ACACAD",
"&. c #ACADAD",
"*. c #EAD684",
"=. c #EBD684",
"-. c #EAD784",
";. c #EBD784",
":. c #EAD685",
">. c #EBD685",
",. c #EAD785",
"<. c #EBD785",
"1. c #F8D686",
"2. c #F9D686",
"3. c #F8D786",
"4. c #F9D786",
"5. c #F8D687",
"6. c #F9D687",
"7. c #F8D787",
"8. c #F9D787",
"9. c #FEFEFE",
"0. c #FFFEFE",
"q. c #FEFEFF",
"w. c #FEFFFF",
/* pixels */
"$ $ $ % $ = $ $ $ = $ $ & $ $ $ $ $ = $ $ $ $ $ $ & $ $ $ $ & $ $ $ $ $ $ $ $ $ $ $ $ $ $ $ $ $ $ $ $ $ $ $ $ $ $ $ = $ $ $ $ $ $ $ $ $ $ $ ",
"$ $ $ $ $ $ $ $ $ $ $ $ $ $ % $ $ % $ $ $ $ $ & $ $ $ $ $ $ $ $ $ $ $ $ % $ $ $ $ = $ $ $ $ $ $ $ $ $ $ $ $ = $ $ $ $ $ $ $ & $ $ $ $ $ $ $ ",
"$ = $ $ & $ $ = $ $ $ $ $ $ $ $ $ $ $ $ $ $ $ $ $ $ $ $ % $ $ $ $ $ $ $ $ $ $ $ $ $ $ $ $ $ $ $ $ $ $ $ $ $ $ = $ $ $ $ $ = $ $ = $ $ $ $ $ ",
"$ $ $ $ $ $ $ $ $ $ $ $ $ = $ $ $ $ $ $ $ & $ $ $ $ $ $ $ $ $ $ $ $ $ $ $ $ $ $ % $ $ % $ $ $ $ $ $ $ $ $ $ = $ $ $ $ $ $ = $ $ $ $ $ $ $ $ ",
"$ $ $ $ $ $ $ $ $ $ $ $ $ $ $ $ $ = % = = $ $ $ $ $ $ = $ $ $ $ $ $ $ $ $ $ $ $ $ $ $ $ $ $ $ $ $ $ $ $ $ $ $ $ $ & $ % $ $ $ $ $ $ $ $ $ $ ",
"$ $ $ $ $ $ $ $ = % $ $ $ $ $ $ $ = $ $ $ $ $ $ $ $ & $ $ $ $ $ $ $ $ % $ $ $ $ $ $ $ $ % $ $ $ $ $ $ $ % $ % $ $ $ $ & $ $ $ $ $ $ $ $ $ $ ",
"$ $ $ $ $ $ $ $ $ $ $ $ $ $ $ $ $ $ $ $ $ $ $ % $ % $ $ $ $ $ $ $ $ $ & $ $ $ $ $ $ $ $ $ $ $ $ % $ $ $ $ $ $ $ $ $ % $ = $ $ $ $ $ $ $ % $ ",
"$ % $ $ $ $ & $ $ $ $ $ $ $ $ $ $ $ $ $ $ $ $ $ $ $ & $ $ $ $ $ $ $ $ $ $ $ $ = $ $ $ $ $ = $ % = $ $ $ & $ $ $ = $ $ $ $ $ $ $ $ $ $ $ $ $ ",
"= $ $ $ $ $ $ $ $ $ $ $ & $ $ $ $ & $ $ $ $ $ $ $ $ $ $ $ $ $ $ $ $ $ $ = $ & $ $ = =       $ $ . $ $ $ $ $ $ $ $ $ $ $ $ $ $ $ $ $ $ $ $ $ ",
"$ $ $ $ & $ $ $ $ $ $ $ $ = $ $ $ $ $ $ $ $ $ $ $ $ $ $ $ $ $ $ $ $ $ $ $ $ $ $ $ $ $ $ # X . @ $ o $ $ $ $ $ $ $ $ $ $ % % $ $ $ = $ $ $ $ ",
"$ $ $ & $ $ $ $ $ $ $ $ $ $ $ % $ $ $ $ % $ $ $ $ $ $ $ $ $ $ $ $ $ $ % $ $ $ $ $ . . @   O @   O o $ $ $ $ $ $ $ $ $ $ $ $ $ $ = $ $ $ $ $ ",
"$ $ $ $ $ $ $ $ $ $ $ $ $ $ $ $ $ $ $ $ $ $ $ $ $ $ $ $ $ $ $ $ $ $ $ $ $ $ % O @ # o X @ O O +   # # $ $ $ $ $ $ $ $ $ $ $ & $ $ $ $ $ $ $ ",
"$ & $ $ $ $ $ $ $ $ $ $ $ $ $ $ $ $ & $ $ = $ $ $ $ $ $ $ $ & $ $ $ $ $ $ $ . O X o   O . + # X @     $ $ $ $ $ = $ $ $ $ $ $ % $ $ $ $ $ $ ",
"$ $ $ $ $ $ $ $ & $ $ $ $ $ $ $ $ $ $ $ $ $ $ $ % $ $ $ $ $ $ & $ $ $ $ $ $ $ $ O X # O   @ o . # o o $ $ $ $ $ % $ $ $ $ $ $ $ $ $ $ & $ & ",
"$ $ $ $ $ $ $ $ $ & $ $ $ ; $ $ $ $ $ $ $ $ $ $ $ & $ $ $ $ $ $ $ $ $ $ $ $ $ #   @ . @ @ o z o @ o X + $ $ $ $ $ $ $ $ $ $ $ $ $ $ $ $ $ $ ",
"$ $ $ $ $ $ $ $ $ $ $ = $ $ $ $ $ $ $ $ $ $ $ $ $ $ $ % $ $ $ $ $ $ $ $ $ =   O O @ . . O # H O # k + # $ $ $ $ $ $ $ % $ $ $ $ $ $ $ $ $ $ ",
"& $ $ $ % = $ $ $ $ $ $ $ $ $ $ $ $ $ $ $ $ $ $ $ $ % $ $ o . @     X $ $ X . # X j @ j . z H . g U O + $ $ $ $ $ $ $ $ $ $ & $ $ $ $ $ % $ ",
"$ $ $ & $ $ = $ $ $ $ $ $ $ $ $ $ $ $ $ $ $ $ $ = $ $ $ . C B @ o @ c   $ $ $ + # 3.X L # #.g . J U # $ $ $ $ $ % $ $ $ % & $ $ $ $ $ $ $ $ ",
"$ $ $ $ $ $ $ $ $ $ $ $ $ $ $ $ $ $ $ $ $ $ $ $ $ $ $ . D @   7.2.H + o X $ O O . I   3.k 9.o f L x # $ $ $ $ $ $ $ $ $ $ $ $ $ $ = $ $ % $ ",
"$ $ $ $ $ $ $ $ $ $ $ $ $ $ $ $ $ $ $ $ $ & $ $ $ $ $ . O H 6.4.K 7.2.1.P + . @ X # G 1.8.X . 4.U   $ $ $ $ $ % $ & $ $ $ $ $ $ $ $ $ $ $ $ ",
"% $ $ $ $ $ $ $ $ $ $ $ $ $ $ $ $ = $ $ $ $ $ $     o + H 3.1.H @   z J K @ #   o # @ H 8.3.5.4.8.@ $ $ $ $ $ & $ $ $ $ $ $ $ $ $ = $ $ $ = ",
"$ $ $ $ $ $ % $ $ $ $ $ $ $ $ $ $ $ $ $ $ $ $ + ^ F # G 7.I . @ N v @ # h X <.# O o l # +.9.9.P o $ $ $ $ $ $ $ $ $ $ = $ $ $ $ $ $ $ $ % $ ",
"$ $ $ $ $ = $ $ $ $ $ $ $ $ $ $ $ $ $ $ $ $ O A N X H 2.P @ x x g h + @ + *.R *.+ O K f @ H I # $ $ $ $ $ $ $ * $ $ = $ $ $ $ $ $ $ $ $ $ $ ",
"$ $ $ $ $ $ % $ $ $ $ $ $ $ $ $ $ $ $ $ $ $ @ . o K 5.K # k j + + + o X     ,.X # L K   #   o $ $ $ = % $ $ $ $ $ $ $ & $ $ $ $ $ $ $ $ $ $ ",
"$ $ $ $ $ $ $ $ $ $ = $ $ $ $ $ $ $ $ $ $ X L 2.8.3.H @ @ # o O # :.X # o X O @ I 3.f . O $ $ $ $ $ & $ = $ $ $ $ $ $ $ $ $ $ $ $ % $ $ $ $ ",
"$ $ $ $ $ $ $ $ = $ $ $ $ $ $ $ $ $ $ $ + J 4.5.5.7.P O O o X # ;.T ,.X o o O i U 1.  @ o . $ $ $ $ $ $ $ $ $ $ $ $ $ $ $ $ $ $ $ $ $ $ $ $ ",
"$ $ $ $ $ $ & $ % $ $ $ $ $ $ & $ $ $ & O 7.4.1.6.8.1.# @ O   X # -.+ @ # o : s U u . + g j   $ $ $ $ $ $ $ $ $ $ % $ $ $ % $ $ $ $ = = $ $ ",
"$ $ $ % $ $ $ $ $ $ $ % $ $ $ $ $ $ $ $ X J U 1.6.U 8.+ o -.O + # + O . 1 2 x d p h . @ < f   $ $ $ $ $ + O . o $ $ $ $ $ $ & $ $ $ = $ $ = ",
"$ $ $ $ $ $ $ $ $ $ $ $ & $ $ $ $ $ $ $ $ # z 7.P l 2.# =.Y =.# + X 1 4 d g a h d O @ @ 2 l 1 + $ $ $ # G U 6.I   $ $ $ $ $ $ $ $ $ $ $ $ $ ",
"$ $ $ & $ % $ $ = $ $ $ $ $ $ $ $ $ $ $ $ $ # U f 5.X + . >.X X O n 3 j h f h l o + # $ + > k @ $ $ O 5.@ h 8.6.O $ $ $ $ $ $ $ $ $ $ $ $ $ ",
"% $ $ $ $ $ $ $ $ $ $ $ $ $ $ $ $ $ $ $ $ $ $ + X . O . # O . b S ! ! c j < O @ X $ % $ $ + f 4   $ O I 7.@ 8.G 8.@ $ $ $ $ $ $ = $ $ $ $ $ ",
"$ $ $ $ = $ $ $ $ % $ & $ $ & $ $ $ $ $ $ $ $ $ @ + O b m X O . N n n F D . X $ $ $ = $ $ @ , k   X . o G X j 5.L   $ $ $ $ $ = $ $ % $ $ $ ",
"= $ = & $ $ $ $ & $ $ $ $ $ $ $ & $ O   O .   O v V ~ D N @ q 8 + # D ^ O $ $ $ $ $ $ $ $ $ . x , , > h : @ z J h @ $ $ $ $ $ $ $ % $ $ $ $ ",
"$ $ $ $ & = $ $ $ $ $ $ $ $ $ $ $ X D Q ~ ~ V S E E Z M # X _ '  ...' n O $ $ $ $ $ $ $ $ $ o 1 h h k h : < < j X $ $ $ $ $ $ $ $ $ % $ $ $ ",
"$ $ $ $ $ $ $ $ $ $ $ $ $ $ $ $ . c n c m C ! / V M o O O ] ) o.| O...` X $ $ $ $ $ $ $ $ $ $ X 2 < 3 : . . + + $ $ $ $ $ $ = $ $ $ & $ $ $ ",
"% $ $ & $ $ = % $ $ $ $ $ $ $ $ o E ^ W ~ / C b O   $ o 6 [ ` }  .) { ' @ $ $ $ $ $ $ $ $ $ $ $ O X . . $ $ $ $ $ $ $ $ $ $ $ $ $ $ $ $ $ $ ",
"$ $ & $ $ $ $ $ $ $ $ $ $ $ $ $   O O + # o X O $ $ $ X 5 5 { ' ` [ } X.)   $ $ $ $ $ $ = $ $ = $ $ $ $ $ $ $ $ $ $ $ $ $ $ $ $ = $ $ % $ $ ",
"$ $ $ $ $ $ $ $ $ & $ $ $ = $ $ $ $ $ $ $ $ = $ $ $ + q 5 8 5 9 0 w w { ( ` . & $ $ $ $ $ $ $ $ $ $ $ $ & $ $ = $ & $ % $ $ $ $ $ $ & $ = $ ",
"$ $ $ $ $ $ $ $ $ $ = - $ $ $ $ $ $ $ $ $ $ $ $ $ $   5 [ 7 6 5 w 6 ( (  .X.)   # $ = $ $ $ $ $ $ $ $ $ $ $ $ $ $ $ $ $ $ $ $ $ $ $ $ $ $ $ ",
"$ $ $ $ $ $ $ $ $ $ $ $ $ $ $ $ $ $ $ $ $ $ $ $ $ o 5 q { 7 0 @ . 7 w ] [ O. ._ ' @ $ $ $ $ $ $ $ $ $ $ $ $ $ $ $ & $ $ $ $ $ $ $ $ $ $ $ $ ",
"$ $ $ $ & $ $ $ $ $ % $ $ = $ $ $ $ $ $ $ % $ $ $ @ 9 ) 0 q # $ $ O @ w ( ' X.o...[ X   $ $ $ $ $ $ $ $ $ $ $ & $ $ = $ $ $ $ $ $ $ $ $ $ $ ",
"$ $ $ $ $ $ $ $ $ % & $ $ $ $ $ = $ $ % $ $ @ @   q 9 ] 9 w # $ $ $ $ . 5 { ' ) X.] #.q.  $ $ $ $ $ $ $ $ $ $ $ $ $ $ $ $ $ $ $ $ $ $ $ $ $ ",
"$ $ $ $ = $ $ $ $ $ $ $ $ $ $ $ $ $ $ $ $ $ . $.@.q ( 5 7 @ $ $ $ & % $ X 9 ] ) ] $.w.#.+ $ $ $ $ $ $ $ $ $ $ $ & $ $ % $ & $ $ $ % $ $ $ $ ",
"$ $ = $ $ $ $ $ $ $ $ $ X     @ $ $ $ @ . O . e &.%.5 7 6 o $ $ $ $ $ $ $ . 5 _ @.w.%.g   $ $ $ $ & $ $ $ $ $ = $ $ & $ $ $ $ $ $ $ $ $ $ $ ",
"$ $ $ $ $ $ $ $ $ $ $ . O P z 4 o o o 2 j g > : y &.+.q . $ $ $ * $ $ $ $ $ @ @.0.@.h z k o $ $ $ $ $ $ $ $ $ $ $ $ $ $ $ = $ $ $ $ $ $ $ $ ",
"$ $ $ $ $ $ $ $ $ $ $ @ g g g k f g x h g j k > 2 e %.@.+ $ $ $ $ $ $ $ $ $ . @.@.g z I 8.3.O $ $ & $ $ $ $ $ $ $ $ $ $ $ $ $ $ $ $ $ $ $ $ ",
"$ = $ $ $ $ $ $ & = # . g j k @ @ O o .   o O .   # t r o $ $ $ $ $ $ $ $ $ $ . X # @ z I 1.7.. $ $ $ $ $ $ $ $ $ $ $ $ $ $ $ $ $ $ $ $ $ $ ",
"$ $ $ $ $ $ $ $ $ $ O f k l > + $ $ $ $ = $ $ $ $ $ @ + # $ $ $ $ $ $ $ $ $ $ % $ $ $ O f J 1.1.  $ $ $ $ $ $ $ $ # @ $ $ $ $ $ $ $ $ $ $ $ ",
"$ $ $ = & $ $ $ $ # X f f : o $ $ $ $ $ $ $ $ $ $ $ $ $ % $ % $ $ $ = $ $ $ $ $ & $ $ $ O @ I 3.3.# $ $ $ $ $ $   8.G # $ $ $ $ $ $ $ $ $ $ ",
"$ $ $ $ $ $ $ $ $ # f # l # $ $ $ $ $ $ $ $ $ $ = $ $ $ $ $ $ $ $ $ $ & $ $ $ $ $ $ $ $ $ $ . z I 7.  # $ $ $ O + o z o $ $ = $ $ $ $ $ $ $ ",
"$ % $ $ $ $ $ $ $ o l O . $ & $ $ $ $ & $ $ $ $ $ $ $ $ $ $ $ $ $ $ $ $ % $ $ % % $ $ $ $ $ $ O O J 2.K X . o J 7.J # @ $ % $ $ $ $ $ $ & $ ",
"$ $ $ $ % $ $ $ $ o f l   $ = $ $ $ $ $ $ $ $ $ % $ $ $ $ $ $ $ $ $ $ $ $ % $ $ & $ $ $ $ % $ $ $ # K 2.2.1.O 7.H # . & $ $ $ $ $ $ $ $ $ $ ",
"$ $ $ $ $ $ $ $ $ o z j # $ $ % $ % $ $ $ $ $ % $ $ $ $ $ $ % $ $ $ $ % = $ $ $ $ $ $ $ $ $ $ $ $ $ @ J 5.5.o I + . $ $ $ $ $ $ $ $ $ $ & $ ",
"$ $ $ $ $ $ $ % $ %   X & $ $ $ $ $ $ $ $ $ $ $ $ $ $ $ $ $ $ $ $ $ $ $ $ $ % $ $ $ $ $ $ $ = $ $ $ o J K 1.K # @ $ $ $ $ $ = $ & $ $ $ $ = ",
"$ = $ $ $ $ $ $ $ $ $ $ $ $ $ % % $ $ $ $ $ $ $ $ $ $ $ $ $ % $ $ $ $ $ $ % $ $ $ $ $ $ $ $ $ $ $ $ $ @ J I . O $ $ $ $ $ $ $ $ $ $ & $ $ $ ",
"$ $ = $ $ $ $ $ $ $ & $ $ $ $ $ $ $ = $ $ $ $ $ $ $ $ $ = $ $ & $ $ $ $ $ $ $ $ = $ $ $ $ $ $ $ $ $ $ # O X . $ $ $ $ $ $ $ $ $ $ $ $ $ = $ ",
"$ $ % $ $ $ $ $ $ $ $ $ = $ $ $ $ $ $ $ $ $ $ $ $ & $ $ = $ $ $ $ $ $ $ $ $ $ $ $ $ $ $ $ $ $ $ $ & $ $ O # $ $ $ $ $ $ $ $ $ $ $ $ $ $ $ $ ",
"$ $ $ $ $ $ $ $ $ $ $ $ $ $ $ $ $ $ $ $ $ $ $ = $ $ $ $ $ $ $ $ $ $ $ $ $ $ $ & $ $ $ $ $ * $ $ $ $ $ $ $ & % $ $ $ $ $ $ $ $ $ $ $ $ $ $ $ ",
"$ $ $ $ % $ $ $ $ $ $ $ $ $ $ $ $ $ $ $ $ $ $ $ $ $ $ $ $ $ $ $ $ $ $ $ $ $ $ $ $ $ $ $ $ $ = $ $ $ $ & $ $ $ $ $ $ $ $ = $ $ $ $ = $ $ $ = ",
"$ $ $ $ $ $ $ $ $ $ $ $ $ $ $ $ $ $ $ $ $ $ $ $ $ $ $ $ $ $ $ % $ $ $ $ $ $ $ % $ $ $ $ = $ $ $ $ $ $ $ $ $ $ $ $ $ $ $ $ $ $ $ $ $ & $ $ $ ",
"$ $ $ $ $ $ $ $ $ $ $ $ $ $ $ $ $ $ $ $ $ $ $ $ $ $ $ $ $ $ $ $ $ $ $ $ $ $ $ $ $ $ $ $ $ $ & $ $ $ $ $ $ $ $ $ $ $ $ $ $ $ $ & $ $ $ & $ $ ",
"$ $ % $ $ $ $ $ % $ $ $ $ $ $ $ $ $ $ $ $ $ $ $ $ $ $ $ $ $ $ $ $ $ $ = $ $ $ $ $ % $ $ $ $ $ $ $ $ $ $ $ $ $ $ $ $ = $ $ $ $ $ $ $ & $ $ $ ",
"$ $ $ $ $ $ $ $ $ $ $ $ $ $ $ $ $ $ & $ $ $ $ $ $ $ $ $ $ $ $ $ $ $ $ $ $ $ $ $ = $ $ $ $ $ $ $ = & $ $ $ $ $ $ $ $ % $ $ $ $ $ $ $ & $ $ $ ",
"$ & $ $ $ $ $ $ $ $ $ $ $ $ $ $ $ $ $ $ % $ $ $ $ $ $ $ ; & $ $ $ $ $ $ % $ $ $ $ $ % $ = $ = & $ $ $ $ $ $ $ $ $ $ $ $ & % $ $ $ $ $ $ $ $ ",
"$ $ $ $ $ $ = % $ $ $ $ $ $ $ $ $ = $ $ $ % $ $ $ $ = $ $ $ $ $ $ $ $ $ $ $ $ $ $ $ $ % $ $ $ $ $ $ $ $ $ $ $ $ $ % $ % $ $ $ $ $ $ $ $ $ $ ",
"$ $ $ $ $ $ $ $ $ $ $ $ $ $ $ $ $ $ $ $ $ $ $ $ $ $ $ $ $ = = $ $ $ $ $ $ $ $ $ $ $ $ $ $ $ & $ $ $ $ & $ $ $ $ $ $ $ $ $ $ $ $ $ $ $ $ $ $ ",
"$ $ $ $ $ $ $ $ $ $ & $ $ $ $ $ $ $ $ $ $ $ $ $ = $ $ $ $ $ $ $ $ $ $ $ $ $ $ $ $ = $ $ $ $ $ $ $ = $ $ $ $ = $ % % $ $ $ $ $ $ $ $ $ $ $ $ ",
"$ $ $ $ $ $ $ $ $ $ $ $ $ $ $ $ $ $ $ $ $ $ $ $ $ $ $ $ $ $ $ $ $ $ $ $ $ $ $ $ $ $ $ & $ $ $ $ $ $ $ $ $ $ $ $ & $ $ $ $ $ $ $ $ $ $ $ $ $ ",
"$ $ $ $ $ $ $ $ $ $ $ $ $ $ $ $ $ $ $ = $ $ $ $ = $ = = $ $ $ $ $ $ $ $ & = % $ $ $ $ $ $ $ $ $ $ $ % $ $ $ $ $ $ $ $ $ $ $ $ $ $ $ $ $ $ $ ",
"$ $ $ $ $ $ $ $ $ $ $ $ $ $ $ $ $ $ % $ $ $ $ $ $ $ $ = $ $ $ $ $ $ $ $ $ $ $ $ $ $ $ $ $ $ $ $ $ $ $ $ $ $ $ $ $ $ $ $ $ $ $ $ $ $ $ $ $ $ "
};
