/* XPM */
static char *result[] = {
/* columns rows colors chars-per-pixel */
"70 70 139 2 ",
"   c black",
".  c #010000",
"X  c #000100",
"o  c #010100",
"O  c #000001",
"+  c #010001",
"@  c #000101",
"#  c #010101",
"$  c #181A24",
"%  c #191A24",
"&  c #181B24",
"*  c #191B24",
"=  c #181A25",
"-  c #191A25",
";  c #181B25",
":  c gray14",
">  c #252424",
",  c #242524",
"<  c #252524",
"1  c #242425",
"2  c #252425",
"3  c #242525",
"4  c #252525",
"5  c #661804",
"6  c #671804",
"7  c #661904",
"8  c #661805",
"9  c #671805",
"0  c #661905",
"q  c #671905",
"w  c #72621C",
"e  c #72631C",
"r  c #72621D",
"t  c #73621D",
"y  c #73631D",
"u  c #223658",
"i  c #233658",
"p  c #223758",
"a  c #223659",
"s  c #233659",
"d  c #223759",
"f  c #233759",
"g  c #6C6C6C",
"h  c #6D6C6C",
"j  c #6D6C6D",
"k  c #8C2826",
"l  c #8C2926",
"z  c #8D2926",
"x  c #8C2827",
"c  c #8D2927",
"v  c #902526",
"b  c #96581C",
"n  c #97581C",
"m  c #96591C",
"M  c #97591C",
"N  c #96581D",
"B  c #97581D",
"V  c #96591D",
"C  c #97591D",
"Z  c #BF3E4C",
"A  c #BE3F4C",
"S  c #BF3F4C",
"D  c #BE3E4D",
"F  c #BF3E4D",
"G  c #BE3F4D",
"H  c #BF3F4D",
"J  c #94842E",
"K  c #94852E",
"L  c #94842F",
"P  c #95842F",
"I  c #B4A152",
"U  c #B5A152",
"Y  c #B5A053",
"T  c #B4A153",
"R  c #B5A153",
"E  c #C0B24A",
"W  c #C1B24A",
"Q  c #C0B34A",
"!  c #C1B34A",
"~  c #C0B24B",
"^  c #C1B24B",
"/  c #C0B34B",
"(  c #C1B34B",
")  c #E2A240",
"_  c #E3A240",
"`  c #E2A340",
"'  c #E3A340",
"]  c #E2A241",
"[  c #E3A241",
"{  c #E2A341",
"}  c #E3A341",
"|  c #F49660",
" . c #F49760",
".. c #F49661",
"X. c #F49761",
"o. c #E4DC6A",
"O. c #E4DD6A",
"+. c #E5DD6A",
"@. c #E4DC6B",
"#. c #E5DC6B",
"$. c #E4DD6B",
"%. c #E5DD6B",
"&. c #4260A0",
"*. c #4360A0",
"=. c #4261A0",
"-. c #4361A0",
";. c #4260A1",
":. c #4360A1",
">. c #4261A1",
",. c #4361A1",
"<. c #5378C2",
"1. c #5279C2",
"2. c #5278C3",
"3. c #5378C3",
"4. c #ACACAC",
"5. c #ADACAC",
"6. c #ACADAC",
"7. c #ADADAC",
"8. c #ACACAD",
"9. c #EAD684",
"0. c #EBD684",
"q. c #EAD784",
"w. c #EBD784",
"e. c #EAD685",
"r. c #EBD685",
"t. c #EAD785",
"y. c #FAD886",
"u. c #FBD886",
"i. c #FAD986",
"p. c #FBD986",
"a. c #FAD887",
"s. c #FBD887",
"d. c #FAD987",
"f. c #FBD987",
"g. c #FFFEFE",
"h. c #FEFFFE",
"j. c #FEFEFF",
"k. c #FEFFFF",
"l. c white",
/* pixels */
"$ $ $ $ $ $ $ $ $ = $ $ $ = $ $ = $ & $ $ $ & $ $ = $ $ $ $ $ $ $ $ $ $ $ $ $ $ $ $ $ $ $ $ $ $ $ $ $ $ $ $ $ $ $ $ $ = $ $ $ $ $ $ $ $ $ $ ",
"$ $ $ $ $ - $ $ $ $ $ $ $ $ $ $ $ $ $ $ $ % $ $ $ $ $ $ $ $ $ $ $ $ $ $ $ $ $ $ $ $ $ $ $ $ $ % $ $ $ $ $ $ $ $ $ $ = $ $ $ & $ $ $ $ = $ $ ",
"$ $ $ % $ $ $ = $ $ $ & $ $ $ % $ $ $ $ $ $ $ $ $ $ $ $ $ $ $ $ $ % = $ $ $ $ $ $ $ % $ $ $ $ $ $ $ $ $ $ $ $ = $ % = $ % $ $ $ $ $ $ $ $ $ ",
"$ $ $ $ $ $ $ $ $ % = $ $ $ $ $ $ $ $ $ $ $ $ $ $ $ $ $ $ $ $ $ $ $ $ $ $ $ $ & $ $ $ $ $ $ = $ $ $ $ $ $ $ $ $ $ $ $ $ $ $ $ $ $ $ $ $ $ $ ",
"$ $ $ $ $ $ $ $ $ $ $ $ $ $ $ & & $ % = $ $ = = $ $ $ $ & $ % $ $ $ $ % $ $ $ $ % $ $ $ $ $ $ $ $ $ $ $ $ $ = $ $ = & $ $ $ $ $ $ $ $ $ $ $ ",
"= $ $ $ $ $ $ & $ & $ $ $ $ % $ $ $ $ $ $ $ % $ $ $ $ $ $ $ $ $ $ $ $ $ $ $ $ $ $ $ $ $ $ $ $ $ $ $ $ = $ $ $ $ $ $ $ $ $ $ $ $ $ $ $ $ = $ ",
"$ $ $ $ = $ $ $ $ $ $ = $ & $ $ $ $ & $ $ $ $ $ $ $ $ $ $ = $ $ $ $ $ $ $ = $ $ $ $ $ $ $ $ $ $ = $ $ $ $ $ $ $ $ $ $ $ = $ $ $ $ $ $ = $ $ ",
"$ $ $ & $ $ $ $ $ = $ $ $ $ $ $ $ $ % $ $ $ $ $ $ $ & % $ $ $ $ $ $ $ $ $ $ & $ $ $ $ = $ $ $ $ $ * = $ $ $ $ $ $ $ $ $ $ $ $ $ $ $ $ $ $ $ ",
"$ $ $ $ $ $ $ & $ $ $ $ $ % $ $ $ $ $ $ $ $ $ $ & $ $ $ $ $ $ - $ $ $ % $ $ & $ $ $ % $ $ $ $ $ $ $ $ $ $ $ $ $ $ $ $ $ $ $ $ $ $ $ $ $ $ $ ",
"& $ $ $ = $ $ ; $ $ $ & $ $ $ $ $ $ $ $ $ $ $ $ $ $ $ $ $ $ $ $ $ $ $ $ % $ $ $ $ $ $ % $ & = o $ $ $ $ $ $ & $ $ $ $ $ $ $ $ $ $ $ $ $ $ = ",
"$ $ $ $ $ $ $ $ $ $ % = $ $ $ $ $ $ % $ $ $ $ $ % $ $ $ $ & $ $ & $ % $ $ % $ $ $ $ X $ $ . o O $ $ + $ $ $ $ $ & $ $ $ $ $ $ $ $ $ $ $ $ $ ",
"$ $ $ $ $ $ $ $ $ $ $ $ % $ $ $ $ $ $ $ $ $ $ $ = $ $ $ $ $ $ $ $ $ $ $ $ $ $ $ $ $ . X O X # o o $   $ $ $ $ $ $ $ $ = $ $ $ $ $ $ $ $ $ $ ",
"$ $ $ $ $ $ $ $ $ $ $ $ $ = $ $ $ $ $ $ $ $ $ $ $ $ & $ $ $ $ $ $ % $ $ $ $ $ $ $ # X . o # + # . . . $ O $ $ $ $ $ = % $ $ $ $ $ $ $ $ $ $ ",
"$ $ $ $ $ $ $ $ $ % & $ $ $ $ $ $ $ $ $ = $ $ $ $ $ $ & $ $ $ $ $ $ $ $ $ $ $ # o X @ #   # O @ X . + O @ $ $ $ = $ $ $ $ & $ $ $ $ $ $ $ $ ",
"$ $ $ $ $ $ $ $ $ $ & $ $ $ $ $ % $ = $ $ $ $ $ $ & $ = $ $ $ $ $ $ $ $ $ & % $ # o @ o # O . # O @ +   $ % $ $ % $ $ $ $ $ % & $ $ $ $ $ $ ",
"$ $ $ $ $ $ $ = $ $ $ $ $ $ $ $ $ $ % $ $ $ & $ $ $ $ $ = $ + O o # O $ $ $ $ $ O @ O + o O o @     X + X $ $ $ $ $ $ $ $ $ $ $ $ $ $ $ $ $ ",
"$ $ $ $ $ $ $ $ = $ $ $ $ $ $ $ $ $ $ $ $ $ $ $ $ $ $ $ $ X ( @.%.+.Q o $ $ $ . . # @ + @ + o B . . +   # $ $ $ $ $ $ $ $ = - = $ $ $ $ $ $ ",
"$ $ $ $ $ $ & % $ $ $ $ $ $ $ $ $ $ $ $ $ $ & $ $ $ $ $ X ! #.%.@.%.@.! o $ . + .   N o V X o _ O m @ @ + $ $ $ $ $ $ $ $ $ $ $ $ $ $ $ $ $ ",
"$ = $ $ $ $ $ $ $ $ $ $ $ $ $ $ $ $ $ $ $ $ $ % $ $ $ $   W W %.$.O.( +.( X $ $ . O i.X ' o 8.n + )   o $ $ $ $ $ $ $ $ $ $ $ $ $ $ $ $ $ $ ",
"= $ $ $ $ $ $ $ $ $ $ $ & $ $ $ $ $ $ $ $ = - $ $ % $ + K W #.^ ~ H D D G z . . + o ] C s.C j.@ m ]   o $ $ % $ $ $ $ $ $ $ $ $ $ $ $ $ $ = ",
"$ $ $ $ $ $ $ $ $ $ $ - $ $ $ $ $ $ $ $ $ $ $ & $ $ $ @ x S Z H F Z S A S ^ @.E X X n ' a.s.@ # } O $   $ $ $ $ $ $ $ $ $ $ $ $ $ $ $ & $ $ ",
"$ $ $ $ $ $ $ $ $ = $ $ $ $ $ $ & = % $ $ $ $ $ $ # @ O 7 l c k l ^ o.%.@./ + . o @ O M } u.a.s.p.@ % $ % $ $ $ $ = $ $ $ $ $ $ $ $ $ $ $ $ ",
"$ $ $ $ $ $ $ $ $ $ & $ $ $ $ $ $ $ $ $ & $ $ $ X L ( ^ Q E Q E / P K J # + : 4 t.< b X ) C N } . O $ $ $ $ $ $ $ $ $ = $ $ $ $ $ $ & $ $ $ ",
"$ $ $ $ $ $ $ $ $ $ $ $ $ $ $ $ % $ $ $ $ = $ $ $ o   .   O # @ O .   # _ @ + w.| 9.M m o { _ O $ $ $ $ $ $ $ $ $ $ $ $ $ $ $ $ $ $ $ $ $ $ ",
"$ $ $ $ $ $ $ $ $ $ $ $ $ $ $ $ $ $ $ $ $ $ $ $ $ $ $ $ $ $ $ $ O @ ] f._ { @ 4 0.> B   $ . # $ $ $ $ % % $ $ $ $ $ $ $ $ $ $ $ $ $ $ $ $ $ ",
"% $ $ $ $ $ $ $ & $ $ $ $ $ $ % $ $ $ & $ $ $ $ $ $ $ $ 2 o o O { y.f.[ V # X 3 2 1 # $ $ $ $ $ & $ $ $ $ = $ $ $ $ $ $ $ $ $ $ $ $ $ $ $ $ ",
"$ $ $ $ $ $ $ $ $ $ = $ $ $ % $ $ $ $ $ $ $ $ $ $ $ $ o 1 o s._ } } V + X > , , , b . $ = $ $ $ $ $ $ % $ $ $ $ $ $ $ $ $ $ $ $ $ $ $ $ $ % ",
"$ $ $ $ $ $ $ $ $ $ $ = = $ $ $ $ $ $ $ $ $ $ $ $ $ o < , @ i.] m   O < t.: > > B v + $ $ $ $ $ $ $ $ $ $ $ & $ $ $ $ $ $ $ = $ $ $ $ $ $ $ ",
"$ $ $ $ $ $ $ $ $ $ $ $ $ $ $ $ $ $ = $ $ $ $ $ & & X e.+ . { d.[   X r...r.1 m N @ $ & $ $ $ $ $ $ $ $ $ & & $ $ % $ $ $ & $ $ $ $ $ $ $ $ ",
"$ $ $ $ $ $ $ $ $ $ $ $ $ $ $ $ $ $ $ $ $ $ $ $ $ O t.X.w.X @ ` p.# @ X q.# 9 0 + $ $ .   O $ $ $ $ $ = $ % $ % $ $ $ % $ $ $ $ $ $ $ $ $ $ ",
"$ $ $ $ = $ $ $ $ $ $ $ $ $ $ $ $ & $ = $ & $ $ $ + o q.  o + # ' ) o > : 8 +   # @ o @ [ } # $ $ $ $ $ $ % $ $ $ $ = $ $ & $ $ $ $ $ $ $ $ ",
"$ $ $ $ $ $ = $ $ & $ $ $ $ $ = $ $ & $ $ $ $ $ $ @   O 2 4 > 1 B [ ] O   o ) d.B . ) b @ B [ O $ $ % $ $ $ $ $ $ $ $ $ $ $ $ $ $ $ $ $ $ $ ",
"$ $ $ $ $ $ $ $ $ $ $ $ $ $ $ $ $ $ $ $ $ $ & $ $ $ + 2 : 3 r.< , M ] [ _ f.y.a.V ' o _ + ' ` N + $ $ $ $ $ $ $ $ $ $ % $ $ $ $ $ $ $ $ $ $ ",
"$ $ $ $ $ $ $ $ = $ $ $ $ $ $ $ $ $ $ $ $ $ $ $ $ + # o , 0. .t., 2 V ` p.d.s.f.d.s.@   + + C }   $ $ $ = $ $ $ $ $ $ $ $ $ % $ $ $ $ % $ $ ",
"$ $ & $ $ $ $ $ $ $ $ $ $ % @ . $ $ $ $ $ $ $ $ . r Y R < p f p u i . } i.y.y.y.' ) @ V n   [ M O $ = $ $ $ $ = $ $ $ $ $ $ $ $ $ $ * % $ $ ",
"& $ $ $ $ $ $ $ $ $ $ $ $ $ + I #   $ $ $ $ $ @ T T e t > -.:.>.*.-.f . ' f.d.u.y.# o X n   ) # $ $ $ $ $ $ $ $ $ $ & $ $ $ $ $ $ $ % $ $ $ ",
"$ $ = & $ $ $ $ $ $ $ $ $ $ o T q.T @ . @ O o I e # @ o 3 >.=.3.*.s f d @ ` [ ] @ $ $ $ . @ O $ $ $ $ $ $ % $ $ $ & $ $ $ $ $ $ $ $ = $ $ $ ",
"$ $ $ $ $ $ $ $ $ $ $ $ $ $ $ O T q.q.U y y T q.@ $ $ = $ # a ,.>.-.&.&.i + X o $ $ $ = $ $ % $ $ $ $ $ $ $ $ $ $ $ $ $ $ $ $ $ $ $ $ $ $ = ",
"$ $ $ $ $ $ $ $ $ $ $ $ $ $ $ $ @ r I I Y w.9.w   $ $ $ $ o . &.&.<.1.2.=.X $ $ $ $ = $ % $ $ $ $ $ $ $ $ $ $ $ $ $ $ - $ $ $ $ $ $ $ $ $ $ ",
"$ $ $ $ $ $ & $ = $ $ $ $ $ $ $ $ @ . e T T w + $ = $ $ $ $ O X =.=.=.&.:.>.  $ $ $ $ $ $ $ $ $ $ $ $ $ $ $ $ & $ = $ $ $ $ $ $ $ $ $ $ $ = ",
"$ $ $ $ $ $ $ $ $ $ $ $ $ $ $ $ $ $ $ X @ + @ $ $ $ $ $ $ $ $ o @ >.;.=.<.1.&.# $ % $ $ = $ & = $ $ $ $ $ $ $ $ $ $ $ $ $ $ $ $ $ $ $ $ $ $ ",
"$ $ $ $ $ $ $ $ $ $ $ $ $ % $ $ $ $ $ $ $ $ $ $ $ $ $ $ $ = $ $ + O &.*.,.<.<.,.# $ $ $ $ $ $ $ $ $ $ $ $ $ $ $ $ $ $ = $ $ $ $ & = $ $ $ $ ",
"$ $ $ $ $ $ $ $ $ = $ $ $ $ $ $ $ $ $ $ $ $ $ $ $ $ $ $ $ $ $ $   d @ ;.=.>.6.g.h.o $ $ % $ $ $ $ $ $ $ $ $ $ $ % $ = $ $ $ $ $ $ $ $ $ $ $ ",
"$ $ $ $ $ $ $ $ $ $ $ $ $ $ $ $ $ $ $ $ $ = $ $ $ $ # X @ $ & $ $ . @ 5.l.h.k.4.7.+ $ $ & $ $ $ $ $ $ $ $ $ = $ $ $ $ $ $ $ $ % & $ $ $ $ $ ",
"$ $ $ $ $ $ $ $ $ $ $ & $ $ = & $ $ % $ $ $ $ $ $ O . } u.# o O o + B ' M M m m @ O $ $ $ $ $ $ $ $ $ $ $ $ $ $ $ $ $ $ $ $ $ $ $ $ $ $ $ $ ",
"$ $ $ $ $ $ $ $ $ $ $ $ $ $ $ $ $ & $ $ $ $ $ $ @ + _ a.d.] ' ) p.a.d.u.i.u.[ ` . h # $ $ $ $ $ $ $ $ $ $ $ $ $ $ = $ $ $ $ $ = $ $ $ $ = $ ",
"$ $ $ $ $ $ = $ $ $ $ $ $ $ = $ $ $ $ $ $ $ $ @   N f.} ' n O + o + X .   o @ + j g . $ = $ $ $ $ $ $ $ $ $ $ $ $ $ $ $ $ $ $ $ $ $ $ $ $ $ ",
"$ $ $ $ = $ $ $ $ $ $ % $ $ $ $ $ $ $ $ $ $   @ ] X i._ C X $ $ $ $ $   O 5 6 0 + + $ $ $ $ $ $ $ $ $ $ $ $ $ & $ $ % $ $ $ $ $ $ & $ $ $ $ ",
"$ $ ; $ $ $ = % $ $ $ $ $ $ $ $ $ $ $ $ $ $ o { f.  ` m   $ $ $ $ $ @ 6 n 9 @ o $ $ $ $ $ $ $ $ $ $ $ $ $ $ $ $ $ $ $ $ $ $ $ $ $ $ $ $ $ $ ",
"$ $ $ $ $ - $ = $ = $ $ $ $ $ $ $ & $ $ $ $ + f.{ + m @ $ $ % $ =   C N q # $ $ $ $ $ $ $ $ $ % $ $ % $ $ $ $ $ $ $ $ $ $ & & $ $ $ $ $ $ $ ",
"$ = $ $ $ $ $ = = $ $ $ $ $ ; $ $ $ $ $ $ $   ) . )   $ $ $ $ $ X C V . . $ $ $ $ $ $ & $ $ $ $ $ $ $ $ $ $ $ $ $ $ $ $ $ $ $ $ $ $ $ $ $ $ ",
"$ $ $ $ $ $ $ $ $ $ $ $ $ $ $ $ $ $ = $ $ $ $ # _ ) . $ $ $ $ + N M # $ = $ $ $ $ $ $ $ $ $ $ $ $ $ $ $ $ $ $ $ $ $ $ % & $ $ $ $ $ $ $ = $ ",
"$ $ $ $ $ $ $ $ $ $ & $ % $ $ $ $ = $ $ $ % $ % o + $ & $ $ O n M   $ = $ $ $ $ $ $ $ $ $ $ $ $ $ $ $ $ $ $ $ $ $ $ $ $ $ $ $ $ $ $ $ $ $ $ ",
"$ $ $ $ $ $ $ $ $ $ $ $ $ $ & $ $ $ $ $ $ $ $ $ $ $ $ $ $ @ M n ' } @ $ $ # # $ $ $ $ $ $ $ $ $ $ $ $ $ $ $ = $ $ $ % $ $ $ $ $ $ $ $ $ $ $ ",
"$ $ = $ $ $ $ $ $ & $ $ $ $ $ = $ $ $ $ $ $ $ $ & $ $ $ $ o n m M b )   # ` ) . $ $ $ $ $ $ $ $ $ $ $ $ $ $ $ $ $ $ $ $ $ $ $ $ $ % $ $ $ $ ",
"$ $ $ $ $ $ $ $ $ $ $ = $ $ $ $ $ $ $ % $ $ $ $ $ $ $ $ $ o C b q @ o m V m m O $ $ $ $ $ $ & $ $ $ $ $ $ $ $ & $ $ $ $ $ $ $ $ $ $ $ $ $ $ ",
"$ $ & $ $ $ $ $ $ $ $ $ $ $ $ $ $ $ $ $ $ $ $ % $ $ $ = X @ @ . # o o + @ X X $ $ $ $ $ & $ $ $ $ $ $ $ $ $ $ $ $ $ $ % % $ $ $ $ $ $ = $ $ ",
"% $ $ $ $ $ $ $ $ $ $ $ $ $ $ $ $ % $ $ $ $ = $ $ $ $ $ $ $ $ $ $ $ & $ $ $ $ $ $ $ $ $ $ $ $ $ = $ $ $ $ $ $ $ $ $ $ $ $ = $ $ $ $ $ $ $ & ",
"$ $ $ & $ $ $ $ $ $ $ $ $ $ $ $ $ $ $ $ $ $ $ $ $ $ $ $ $ $ $ $ $ & $ $ $ $ $ $ $ $ $ $ $ $ $ $ $ $ $ $ $ $ $ $ $ $ $ $ $ $ $ $ $ $ $ $ $ $ ",
"$ $ $ & $ $ $ $ $ $ $ $ $ $ $ $ & $ $ $ $ $ $ $ $ $ $ $ $ $ $ $ $ $ $ $ $ & $ $ $ $ $ $ $ $ $ $ $ $ % $ $ $ = $ $ $ $ $ $ $ $ $ $ $ $ $ = $ ",
"& $ $ & $ $ % $ $ = $ $ $ $ $ $ $ $ $ $ $ $ $ $ $ $ $ $ $ $ $ $ $ $ $ $ $ $ $ $ $ $ $ $ $ $ $ $ $ $ $ $ $ $ $ $ $ $ $ $ $ = $ $ $ $ $ $ $ $ ",
"$ $ $ $ $ $ $ $ $ $ $ $ $ = $ $ $ = $ = $ $ $ & $ $ $ $ & $ $ $ $ $ $ & $ $ $ $ $ $ $ $ $ $ $ $ $ $ $ $ $ $ $ $ $ $ $ $ $ $ $ $ $ $ $ $ $ $ ",
"$ $ $ $ & $ $ & $ % $ $ = $ $ $ = $ $ $ $ % $ = $ $ $ $ $ $ $ $ $ $ $ $ $ $ $ $ & $ $ $ % $ $ $ $ $ $ $ $ $ $ $ $ $ $ $ $ $ $ $ $ $ $ $ $ $ ",
"$ % $ $ $ $ $ = $ % % $ $ & $ % $ $ $ $ $ $ $ $ $ $ $ $ $ % $ $ & $ $ $ $ & $ % $ $ $ $ $ $ $ $ $ $ $ $ = $ $ $ $ $ $ $ % $ $ & $ $ $ $ % $ ",
"$ $ $ % $ $ $ & $ $ $ $ $ $ $ $ $ & $ $ * $ $ $ % $ $ $ $ $ $ $ $ $ $ $ = $ $ $ $ = $ = $ $ $ $ $ $ $ $ $ $ $ $ $ $ $ $ $ $ $ $ & $ $ $ $ $ ",
"$ $ $ $ $ $ $ $ $ $ $ $ & $ $ $ % $ $ $ $ $ $ $ $ $ $ $ $ $ $ & $ $ $ $ $ $ % $ $ = $ $ $ $ $ $ $ $ $ $ $ $ $ $ $ $ $ $ $ $ $ $ $ $ $ $ $ $ ",
"$ $ $ $ $ $ $ $ $ $ $ $ $ $ = $ $ $ $ $ $ = $ $ $ $ $ $ $ $ $ $ $ $ $ % $ $ = % $ $ $ $ $ $ $ $ $ $ $ $ $ $ $ $ $ $ $ $ $ $ $ $ $ $ $ $ $ $ ",
"$ $ $ $ $ $ $ $ $ $ $ $ $ $ $ $ & $ % $ $ $ & $ $ $ $ $ $ $ $ $ $ $ $ $ & $ $ $ $ = $ $ $ $ $ $ $ $ $ $ $ $ % $ $ $ $ $ $ $ $ % $ $ $ $ $ $ ",
"$ $ & = $ % $ $ $ $ % $ $ $ $ $ $ $ $ & $ $ $ $ $ $ = $ $ $ $ $ $ $ = $ $ $ $ $ $ $ $ $ & $ $ $ $ $ $ & $ $ $ $ $ $ $ $ $ $ $ $ $ $ $ $ $ $ ",
"$ $ % $ = & $ $ $ $ $ $ $ = $ $ $ = $ $ $ $ $ $ $ $ $ $ $ $ $ $ $ $ $ $ $ $ $ $ $ & $ $ $ $ $ $ $ $ $ $ $ $ $ $ $ $ $ $ $ $ $ $ $ $ $ $ $ $ "
};
