/* XPM */
static char *result[] = {
/* columns rows colors chars-per-pixel */
"70 70 127 2 ",
"   c black",
".  c #010000",
"X  c #000100",
"o  c #010100",
"O  c #000001",
"+  c #010001",
"@  c #000101",
"#  c #010101",
"$  c #181A24",
"%  c #191A24",
"&  c #181B24",
"*  c #191B24",
"=  c #181A25",
"-  c #191A25",
";  c #181B25",
":  c #661804",
">  c #671804",
",  c #661904",
"<  c #671904",
"1  c #661805",
"2  c #671805",
"3  c #661905",
"4  c #671905",
"5  c #73621C",
"6  c #72631C",
"7  c #72621D",
"8  c #73621D",
"9  c #72631D",
"0  c #73631D",
"q  c #223658",
"w  c #233658",
"e  c #223758",
"r  c #233758",
"t  c #223659",
"y  c #233659",
"u  c #223759",
"i  c #233759",
"p  c #6C6D6C",
"a  c #6D6D6C",
"s  c #6D6C6D",
"d  c #6C6D6D",
"f  c #6D6D6D",
"g  c #8C2826",
"h  c #8D2826",
"j  c #8C2926",
"k  c #8D2926",
"l  c #8C2827",
"z  c #96581C",
"x  c #97581C",
"c  c #96591C",
"v  c #97591C",
"b  c #96581D",
"n  c #97581D",
"m  c #96591D",
"M  c #97591D",
"N  c #94842C",
"B  c #95842C",
"V  c #94852C",
"C  c #94842D",
"Z  c #94852D",
"A  c #95852D",
"S  c #C0B24A",
"D  c #C1B24A",
"F  c #C0B34A",
"G  c #C1B34A",
"H  c #C0B24B",
"J  c #C1B24B",
"K  c #C0B34B",
"L  c #C1B34B",
"P  c #E2A240",
"I  c #E3A240",
"U  c #E2A340",
"Y  c #E3A340",
"T  c #E2A241",
"R  c #E3A241",
"E  c #E2A341",
"W  c #E3A341",
"Q  c #F59660",
"!  c #F49760",
"~  c #F59661",
"^  c #E4DC6A",
"/  c #E5DC6A",
"(  c #E4DD6A",
")  c #E5DD6A",
"_  c #E4DC6B",
"`  c #E5DC6B",
"'  c #E4DD6B",
"]  c #E5DD6B",
"[  c #4260A0",
"{  c #4360A0",
"}  c #4261A0",
"|  c #4361A0",
" . c #4260A1",
".. c #4360A1",
"X. c #4261A1",
"o. c #4361A1",
"O. c #5378C2",
"+. c #5279C2",
"@. c #5379C2",
"#. c #5378C3",
"$. c #5279C3",
"%. c #5379C3",
"&. c #ACACAC",
"*. c #ADACAC",
"=. c #ADADAC",
"-. c #ACACAD",
";. c #ADACAD",
":. c #ACADAD",
">. c gray68",
",. c #EAD684",
"<. c #EAD784",
"1. c #EBD784",
"2. c #EAD685",
"3. c #EBD685",
"4. c #EBD785",
"5. c #FAD886",
"6. c #FBD886",
"7. c #FAD986",
"8. c #FBD986",
"9. c #FAD887",
"0. c #FBD887",
"q. c #FAD987",
"w. c #FBD987",
"e. c #FFFFFE",
"r. c #FEFEFF",
"t. c #FFFEFF",
"y. c white",
/* pixels */
"$ $ $ $ $ $ $ $ $ $ $ $ $ $ = $ $ = $ $ $ $ $ $ $ $ $ % $ $ $ $ $ $ $ $ $ $ $ $ $ $ $ $ $ $ $ $ $ $ $ $ $ $ & $ $ $ $ $ $ $ = = % $ % $ $ $ ",
"$ $ $ $ $ $ % $ $ $ $ $ $ $ $ $ $ $ $ $ $ % $ $ % $ $ $ $ $ $ $ $ $ $ $ $ $ $ $ $ $ $ $ $ $ $ $ $ $ $ $ $ $ $ $ $ = $ $ $ $ $ $ $ $ $ $ $ $ ",
"$ ; & $ $ $ $ $ $ $ $ $ $ $ $ & $ $ $ $ $ % $ = $ $ $ $ $ $ $ $ $ $ $ $ $ $ $ & $ $ & % = & $ $ $ $ $ % $ $ $ $ $ % $ $ = $ $ $ $ $ $ $ $ $ ",
"$ % $ $ $ $ $ $ $ $ $ $ $ $ $ $ $ $ $ $ $ $ $ $ $ $ & $ $ $ $ $ $ $ $ $ $ $ $ $ $ $ $ $ & = $ $ $ $ = $ $ $ $ $ $ $ $ $ $ $ $ = $ $ $ $ $ $ ",
"$ $ $ $ & $ % $ $ $ $ $ = $ $ $ $ $ $ $ $ $ $ $ $ $ $ $ $ $ $ $ $ $ $ & & $ $ $ = $ $ $ $ $ $ $ $ $ $ $ $ $ $ $ $ $ $ $ $ $ $ $ $ $ $ $ $ $ ",
"$ $ $ $ $ = $ $ $ $ $ $ $ $ $ $ $ % $ & $ $ $ $ $ $ $ $ $ $ $ = $ $ $ $ $ $ = $ $ $ $ $ % $ $ $ $ $ $ $ % $ $ $ $ $ $ % $ $ $ $ $ $ $ $ $ $ ",
"$ $ & % $ $ $ $ $ $ $ $ $ = % $ $ $ $ $ $ $ $ $ $ = $ $ % $ $ $ $ $ $ $ $ $ $ $ $ $ % $ $ @ $ & $ $ $ $ $ $ $ $ $ $ $ $ & $ $ $ $ $ $ $ $ = ",
"$ $ $ % $ $ $ $ $ $ $ $ $ $ $ $ $ $ & $ & % $ $ $ $ $ $ = $ $ $ $ $ $ $ $ $ $ & $ $ $ $ . # X $ . $ $ $ $ $ $ $ & $ $ $ $ $ $ $ $ $ $ $ $ $ ",
"$ % $ = $ $ $ $ & % $ $ $ $ $ $ $ $ $ $ $ $ $ $ $ $ $ $ $ $ $ $ $ $ $ $ $ $ $ # @ X X O # # O O o $ $ $ $ $ & $ $ $ % $ = $ $ & $ $ $ $ $ $ ",
"$ = $ $ $ $ $ $ $ & $ $ $ % $ $ $ % $ $ $ $ $ $ $ $ $ $ $ $ $ $ = $ $ $ $ $ $ $ # . X O O X # o @ @ $ $ $ $ $ % $ $ $ $ $ $ $ $ $ & & $ $ $ ",
"$ $ $ $ $ $ $ $ $ $ & $ $ $ = % $ $ $ $ $ $ $ $ $ $ $ $ $ $ $ = $ $ $ % $ $ $ o O #   # o # . X O +   $ $ $ $ $ $ $ $ $ $ $ $ $ $ $ $ $ $ $ ",
"$ $ $ $ $ $ $ = $ $ $ $ $ $ $ $ $ $ = $ $ $ $ $ $ $ $ $ $ $ = $ $ $ $ $ $ # O   + #     X + + + # o + $ $ $ $ $ $ % $ $ $ $ $ $ $ $ * $ $ = ",
"% $ $ $ $ $ $ % $ $ $ = $ $ $ $ $ $ $ $ $ $ $ $ $ $ $ $ $ $ $ $ $ $ $ $ $ $ X #   o O o o M o #   # . $ $ $ $ $ & = $ $ $ $ $ $ $ $ $ $ $ $ ",
"$ $ $ $ & $ $ $ $ $ $ $ $ $ $ $ $ $ $ $ $ $ $ $ $ $ $ $ $ % $ $ = $ $ $ & $ $ X @ O X o @ W o o m @ O . & $ & $ * & $ $ $ $ & $ $ $ $ $ & $ ",
"$ $ $ $ $ $ $ $ $ $ $ = $ $ $ $ $ $ $ $ $ $ $ $ $ $ $ $ $ $ $ % $ $ $ $ $ % @   c X n + o P   b Y + @ X $ $ $ $ $ $ $ $ $ $ $ $ $ $ & $ $ = ",
"$ $ $ & & $ $ $ $ $ $ $ $ $ $ $ $ $ $ $ $ $ $ $ $ $ $ $ $ + @ @ o o $ $ $ X O o 9.+ E   ;.n X W U X $ . $ $ $ $ $ $ $ $ $ $ $ $ $ $ $ $ & $ ",
"$ $ $ $ $ $ $ $ $ $ $ $ $ $ $ $ $ $ $ $ $ $ $ $ $ $ $ $ @ Z L S S B X = $ $ o + I X 0.M y.X m E b X $ $ $ $ $ % $ $ $ $ $ $ $ $ $ $ $ $ $ $ ",
"$ % & $ $ $ $ $ $ $ $ $ $ $ $ $ $ $ $ $ $ $ $ $ $ $ $ @ H F J S V D Z @ $ $ $ # + I 7.w.@ . 0.U @ O $ $ $ $ $ $ % $ $ $ $ $ $ $ $ $ $ % $ $ ",
"= $ $ $ $ $ $ $ $ $ $ $ $ $ $ $ $ $ $ $ $ $ $ $ $ $ . N L # O + O O   # . # + . @ @ P 5.w.q.q.0.# % $ $ $ $ = $ $ $ $ $ $ $ $ $ $ $ % $ $ $ ",
"$ $ $ $ $ $ $ $ $ $ $ $ $ % $ $ $ $ $ $ % $ & $ $ $ X j @ P w.5.0.U E w.+ + 4.~ 4.o + Y e.r.:.# $ $ $ $ $ $ $ $ $ $ = $ = $ $ % % $ $ $ $ $ ",
"$ $ $ & $ $ $ $ $ $ $ $ $ $ $ $ $ $ $ $ $ $ & $ $ @ + C . 7.6.R E R n I q.X O <.O Y n @ I R X = = $ $ $ $ & $ $ $ = $ % $ $ $ $ $ $ $ $ $ $ ",
"& $ $ $ $ $ $ $ $ $ $ $ $ $ $ $ $ $ $ $ $ $ $ $ + _ D X T w.E X + . @   # o . o X Y R O . X $ $ $ $ $ $ $ $ $ % $ $ $ $ $ $ $ $ $ $ $ $ % $ ",
"$ $ $ $ $ = $ $ $ $ $ = $ $ $ $ $ $ $ $ $ $ $   L A c # q.6.o x M b . X # o     @ 9.M . o 4 + $ $ $ $ + + O + $ $ $ $ $ $ & $ $ $ $ $ $ $ $ ",
"$ $ $ = $ $ & = % $ $ $ $ $ $ $ % $ % $ % $ $ $ O . +   7.W O   + @ o +   1.X O M q.k .   2 . $ $ $ . R 7.q.Y   $ $ $ $ $ $ $ $ $ $ $ $ $ $ ",
"$ $ $ $ $ $ $ $ $ $ $ % $ $ $ $ $ $ $ & $ $ $ $ $ $ + Y 9.R . @ + + O # <.! 2.O h l T   : 4 m   $ $ O m P P I R @ $ $ $ $ $ $ $ $ $ $ $ $ $ ",
"$ $ $ $ $ = $ $ $ $ $ $ $ $ $ $ $ $ $ $ $ % $ = $ $ X 7.w.R X + @     . . ,.. < c g O @ O # 2 M O . w.U X P 6.9.@ $ $ $ $ $ $ $ $ $ $ $ $ $ ",
"% $ $ $ $ $ $ $ $ = $ $ $ $ $ $ $ $ $ $ $ = $ $ $ $ # 5.5.R .   O <.@ # O + O 1 I c O # $ $ @ v x   P U   c 8.6.@ & % $ $ $ $ $ $ $ $ $ $ $ ",
"$ $ $ $ $ $ $ $ $ $ $ $ = $ $ $ $ $ $ $ $ = $ & $   T 0.8.9.E O 2.Q 3.X + o 2 W x X o $ $ % $   b M : + . n Y P . $ $ $ $ $ $ $ $ $ $ % $ $ ",
"$ $ $ $ % $ & $ $ $ $ $ $ $ $ $ $ $ $ $ $ $ $ = $ @ 8.5.6.w.8.U # 3.X # # 3 v # X $ $ $ $ $ $ % X 3 1 2 O x n M + $ $ $ $ $ $ $ $ $ $ $ % $ ",
"= $ $ $ $ $ $ $ $ $ $ $ % $ $ % = $ $ $ $ $ $ $ $ X 5.7.q.0.n 0.  . + 0 5 O X # $ $ $ $ $ $ $ $ $ o , , O # X X $ $ $ $ $ $ $ $ $ $ $ $ $ $ ",
"$ $ $ $ $ = $ $ = $ $ $ % $ $ $ $ $ $ $ $ & $ $ $ O 9.w.5.6.M R   + G _ S 8 7   = $ & $ $ $ $ $ $ $ @ @ $ $ $ $ $ $ $ $ $ % $ $ $ $ $ $ $ $ ",
"$ $ $ $ $ & $ $ $ $ $ $ $ $ $ % $ $ $ $ $ $ .   . @ I U c Y b .   6 8 K F J + $ $ $ $ $ $ $ $ $ $ $ $ $ $ $ $ $ $ $ $ $ $ $ $ $ $ $ $ $ $ & ",
"$ $ & $ $ $ $ $ $ $ * = $ $ $ $ $ $ $ $ . o F ) ^ ] . x R + o @ { } %.@ o @ $ $ $ $ $ % = $ $ $ $ $ = = $ $ $ = $ $ = & $ $ $ $ $ $ $ = $ $ ",
"$ $ $ $ $ $ $ $ & $ $ $ $ $ $ = $ $ $ o L / ( S 5 7 8 # # $ . .... .o.{ O...+ $ % $ $ $ $ $ $ $ $ $ $ $ $ $ $ $ $ $ $ $ $ $ = $ $ $ $ $ $ $ ",
"% $ % $ $ % $ $ $ = $ $ $ $ $ $ % $ $ X ` F 7 9 K S G # . # e  .| | | #.[ X.o @ $ $ $ $ $ $ $ $ $ $ $ $ $ $ $ $ $ $ $ $ = $ $ $ $ $ $ $ $ $ ",
"$ $ $ $ $ $ $ $ $ $ $ $ $ $ $ ; $ $ O ' J 5 6 @   o o $ # u i i e [ } } o.$.} + . $ $ $ $ $ $ $ $ $ $ $ % $ $ $ $ $ $ $ $ $ $ $ $ $ $ % $ $ ",
"$ & $ $ $ $ $ $ $ $ $ & $ $ $ $ $ $ O ' O   o $ $ $ $   t { e r # e X.| o.o.+.@. .. $ $ $ $ $ $ $ $ $ $ & $ $ $ $ $ $ $ $ $ $ $ $ $ $ $ $ & ",
"$ $ $ $ $ $ = $ $ $ $ $ $ $ $ $ $ $ # # $ $ $ $ $ $ & O | e  .w r # y u | } | #.@.{ . @ $ $ $ $ $ $ $ $ $ = & $ $ $ $ $ $ & $ $ $ $ $ $ $ $ ",
"$ $ $ $ $ $ $ $ $ $ $ $ $ $ $ $ $ & $ $ $ $ $ $ $ & X } [ y u w O $ # @ r ....| { #.{ X.@ # % $ $ $ $ $ $ $ $ $ $ $ $ $ $ $ $ $ $ $ $ $ $ $ ",
"$ $ $ $ $ $ $ $ $ $ $ $ $ % $ $ $ $ $ $ $ $ $ @ o X X. .e e w @ & $ $ $ o e e X.X.o.X.| y.y.@ $ & $ $ $ $ $ $ $ $ $ $ $ $ $ $ $ $ $ $ $ $ $ ",
"$ $ % $ $ $ $ $ $ $ $ $ $ $ $ & $ $ & $ $ $   d *.q { y y y   $ $ $ $ $ % + u e *.t.y.y.-.*.@ $ $ $ $ $ & $ $ $ $ $ $ $ $ $ $ $ $ $ $ $ % $ ",
"% $ $ $ % % $ $ = $ $ $ $ $ $ $ $ $ $ $ $ $ . f ;.>.r q u i X $ $ $ = $ $ $ O &.-.=.z c n z o $ $ & $ = = $ $ $ $ = $ $ $ $ = $ $ $ $ $ $ % ",
"$ $ $ $ $ $ $ $ $ $ $ $ $ $ $ $ $ % $ $ $ % $ o a ;.;.r q @ $ $ $ $ $ $ $ $ #   M z U I m   + $ $ $ $ $ $ % $ $ $ $ $ % $ $ $ $ $ $ $ $ $ $ ",
"$ $ $ % $ $ $ $ $ $ $ $ $ $ $ $ $ $ $ $ $ $ $ O @ p &.s o $ $ $ $ $ $ $ $ $ @ M W P M   O $ $ $ $ $ $ $ $ $ $ & & $ $ $ $ $ $ $ $ $ $ % $ $ ",
"$ $ $ $ $ $ $ $ $ $ $ $ $ $ $ $ $ $ $ $ $ $ o v : + p d O $ $ $ $ $ $ $ $ + U P v O O $ $ $ $ $ $ $ & $ $ $ $ $ $ $ $ $ $ $ $ $ = % $ $ $ $ ",
"= $ $ % $ $ $ $ $ $ $ $ $ $ $ $ $ & $ $ $ + x x < . o @ $ & $ $ $ $ $ $   5.E @ . $ $ $ $ $ $ & $ % $ $ $ $ $ $ $ $ % $ $ $ $ & $ $ $ $ $ % ",
"$ $ $ $ $ $ $ $ $ $ $ $ $ = $ $ $ $ $ $ X > m > # $ $ $ $ $ $ $ $ *   . P Y o $ % $ $ $ $ $ $ $ $ $ $ $ $ $ $ & $ $ $ $ $ $ $ $ $ $ $ $ $ $ ",
"$ $ $ $ $ $ $ $ $ & $ $ $ $ $ $ = $ $ $ @ v 2 . $ $ % $ $ $ $ $ O . U 9.E X $ $ $ $ $ $ $ $ = $ $ $ $ $ $ $ % $ $ $ $ % $ $ $ $ $ $ $ $ $ $ ",
"$ $ $ $ $ $ $ $ $ $ $ $ $ = $ $ $ $ $ + c < # $ $ $ $ $ $ $ $ X @ T P U T @ $ $ $ $ $ $ $ $ $ % = $ $ $ $ $ $ & $ $ $ $ $ $ $ $ $ $ $ $ $ $ ",
"$ $ & $ $ $ $ $ $ = $ $ $ $ $ $ $ $ X m >   $ $ $ $ $ $ $ $ $ + . x I T w.U   $ $ $ = $ $ $ $ $ $ $ $ $ $ $ $ $ $ $ $ $ $ $ $ & $ $ $ $ $ $ ",
"$ $ $ $ $ $ $ $ $ = & $ $ $ O   @ + M z # $ $ $ $ $ $ $ $ $ $ $ O o b   # @ @ O $ $ % $ $ $ $ $ $ % $ $ $ % $ $ $ $ $ $ $ $ $ $ $ $ $ $ $ & ",
"$ % $ $ % % $ & $ $ $ $ $ $ X + n b b z X $ $ $ $ $ $ $ $ = $ $ $ @ + Y 0.R @ E # $ & $ $ $ $ $ $ $ = $ $ $ $ % $ $ $ $ $ % $ $ $ $ & $ $ $ ",
"$ $ $ & $ $ % $ $ $ $ $ $ $ X X m z M U X $ $ & $ $ $ $ $ $ $ $ $ $   . I 0.9.X 5.. $ $ $ $ $ $ $ & $ $ $ % $ $ $ $ % $ $ $ $ $ $ $ $ $ $ $ ",
"$ $ $ $ $ $ $ $ = $ $ $ $ $ & @   x m m I X . + % $ $ $ $ $ $ $ $ & $ o   E U O Y O $ $ $ $ $ $ $ $ $ % $ $ $ = = $ $ $ $ $ = $ $ = $ $ $ $ ",
"$ $ & $ $ $ $ $ % $ $ % $ $ & $   X v b o . T R O $ $ $ $ $ $ $ $ $ $ $   O # @ + $ = $ $ $ $ $ $ $ $ % $ $ $ $ $ $ $ $ $ $ $ $ $ $ $ $ $ $ ",
"$ $ $ $ % $ $ $ $ $ $ $ $ $ $ $ % + # O b c z b # $ $ % $ $ $ $ $ $ $ $ $ % $ $ $ $ $ $ $ $ $ $ $ $ $ $ $ % $ $ $ $ $ & $ $ $ $ $ $ $ $ $ $ ",
"$ & $ $ $ $ $ $ $ $ $ $ $ $ $ $ $ % $   O #   O $ $ $ $ $ $ $ $ $ $ $ $ % $ $ $ $ $ $ $ $ $ $ $ $ $ $ $ $ $ $ $ $ $ $ $ $ $ $ $ $ $ $ $ $ $ ",
"$ $ $ $ $ $ $ $ $ $ $ $ $ $ $ $ $ $ $ % $ $ $ $ $ % $ * $ $ $ $ $ $ $ $ $ $ $ $ $ $ $ $ $ $ $ $ $ $ $ = $ $ $ $ ; $ $ $ = $ $ $ $ $ $ $ $ & ",
"$ $ & $ $ $ $ $ $ $ $ $ & $ $ $ $ $ $ $ % $ $ $ $ $ & $ $ $ $ $ $ $ $ $ $ $ $ * $ $ $ $ $ $ $ $ $ $ % $ $ $ $ $ $ $ $ $ $ $ $ $ $ $ & $ $ $ ",
"$ $ % $ $ $ & $ $ $ $ $ $ $ $ $ $ $ $ $ $ & $ $ $ $ $ $ $ $ $ $ $ $ $ $ $ $ & $ $ $ $ $ % $ $ $ $ $ $ $ $ $ $ $ & $ $ $ $ $ $ $ $ $ = $ $ $ ",
"$ $ $ $ $ $ $ $ $ $ $ $ $ $ $ $ $ = $ ; $ $ $ $ & $ $ $ $ & $ $ $ $ $ $ $ $ $ $ $ $ $ % $ $ $ $ $ $ $ $ $ $ $ $ % $ $ $ $ $ $ $ $ $ $ = $ $ ",
"$ $ $ $ $ $ & $ $ $ $ $ $ $ $ $ $ $ $ $ $ $ $ $ $ $ $ % $ $ $ $ $ $ $ $ $ $ $ = $ $ $ $ $ $ $ $ $ $ $ $ $ % $ $ $ $ $ $ $ = $ ; $ $ $ $ $ $ ",
"$ $ * $ $ $ $ $ $ $ $ $ $ $ $ = $ $ $ $ $ $ $ $ $ $ $ $ $ $ $ $ $ $ $ $ $ $ $ $ $ $ $ $ $ $ $ $ $ $ $ $ $ $ $ = $ $ $ $ $ $ $ $ % $ $ $ $ $ ",
"$ $ $ $ $ $ $ $ $ $ $ $ $ $ $ $ $ $ $ $ $ $ $ $ $ % $ $ $ = $ & $ $ $ $ $ $ $ $ & $ $ $ $ $ $ $ $ $ $ $ $ $ $ $ $ $ & & % $ $ $ $ $ $ $ $ $ ",
"$ $ $ $ $ $ $ $ $ & $ $ = $ $ $ $ $ $ $ $ $ = $ $ $ $ $ $ $ * $ & $ $ $ & % % $ $ $ $ $ $ $ $ $ $ $ $ $ $ $ $ $ $ $ $ $ % $ $ % $ $ & $ & $ ",
"$ $ $ $ $ $ $ $ $ $ $ $ $ $ = $ $ $ $ = $ $ $ $ $ $ $ $ $ $ $ $ $ $ $ $ $ $ = $ $ $ $ $ $ $ $ $ - $ $ $ $ $ $ $ $ $ $ $ $ $ $ $ $ = $ $ $ $ ",
"$ $ $ $ $ $ $ = $ $ $ $ $ $ $ $ $ = $ $ $ $ $ $ $ $ $ $ $ & $ $ % $ $ $ $ $ $ $ $ $ $ $ $ $ $ $ $ $ $ $ $ $ $ $ $ $ $ $ $ $ $ $ $ = $ $ $ $ ",
"$ $ $ $ $ $ = $ $ $ $ $ $ $ $ $ $ $ % $ $ % $ $ $ $ $ $ $ $ $ $ $ % $ $ $ $ $ $ $ $ $ $ $ $ $ $ % $ & $ $ $ & $ $ $ $ $ $ $ $ $ $ $ $ $ $ $ ",
"$ $ $ $ $ $ $ $ = $ $ $ $ $ = $ $ $ $ $ $ $ $ $ $ $ $ $ $ $ $ $ % $ $ $ $ $ $ $ $ $ $ $ & % $ $ $ $ $ $ $ $ $ $ $ % $ % $ $ % $ $ $ $ $ $ $ ",
"$ $ $ $ $ $ $ $ $ $ $ $ $ $ $ $ $ $ $ $ $ $ $ $ $ $ $ $ $ $ $ $ $ $ $ % $ $ $ $ $ $ $ $ $ $ $ % $ $ $ & $ $ $ $ $ $ $ $ $ $ $ $ % $ $ $ $ $ "
};
