/* XPM */
static char *result[] = {
/* columns rows colors chars-per-pixel */
"70 70 134 2 ",
"   c black",
".  c #010000",
"X  c #000100",
"o  c #010100",
"O  c #000001",
"+  c #010001",
"@  c #000101",
"#  c #010101",
"$  c #181A24",
"%  c #191A24",
"&  c #181B24",
"*  c #191B24",
"=  c #181A25",
"-  c #191A25",
";  c #181B25",
":  c #661804",
">  c #671804",
",  c #661904",
"<  c #671904",
"1  c #661805",
"2  c #671805",
"3  c #661905",
"4  c #671905",
"5  c #223658",
"6  c #233658",
"7  c #223758",
"8  c #233758",
"9  c #223659",
"0  c #233659",
"q  c #223759",
"w  c #233759",
"e  c #6C6C6C",
"r  c #6D6C6C",
"t  c #6C6D6C",
"y  c #6C6C6D",
"u  c #6D6C6D",
"i  c #6D6D6D",
"p  c #8D2826",
"a  c #8C2926",
"s  c #8C2827",
"d  c #8C2927",
"f  c #912526",
"g  c #902427",
"h  c #94581C",
"j  c #95581C",
"k  c #94591C",
"l  c #95591C",
"z  c #94581D",
"x  c #95581D",
"c  c #94591D",
"v  c #95591D",
"b  c #BC3C4E",
"n  c #BD3C4E",
"m  c #BC3D4E",
"M  c #BD3D4E",
"N  c #BC3C4F",
"B  c #BD3C4F",
"V  c #BC3D4F",
"C  c #BD3D4F",
"Z  c #94842C",
"A  c #95842C",
"S  c #94852C",
"D  c #95852C",
"F  c #94842D",
"G  c #95842D",
"H  c #94852D",
"J  c #95852D",
"K  c #C0B24A",
"L  c #C1B24A",
"P  c #C0B34A",
"I  c #C1B34A",
"U  c #C0B24B",
"Y  c #C1B24B",
"T  c #C0B34B",
"R  c #C1B34B",
"E  c #E2A040",
"W  c #E3A040",
"Q  c #E2A140",
"!  c #E3A140",
"~  c #E2A041",
"^  c #E3A041",
"/  c #E2A141",
"(  c #E3A141",
")  c #F29860",
"_  c #F39960",
"`  c #F29961",
"'  c #E2DA6A",
"]  c #E3DA6A",
"[  c #E2DB6A",
"{  c #E3DB6A",
"}  c #E2DA6B",
"|  c #E3DA6B",
" . c #E2DB6B",
".. c #E3DB6B",
"X. c #4262A0",
"o. c #4362A0",
"O. c #4263A0",
"+. c #4363A0",
"@. c #4262A1",
"#. c #4362A1",
"$. c #4263A1",
"%. c #527AC2",
"&. c #537AC2",
"*. c #527BC2",
"=. c #537BC2",
"-. c #527AC3",
";. c #537AC3",
":. c #527BC3",
">. c #537BC3",
",. c #ACACAC",
"<. c #ADACAC",
"1. c #ACADAC",
"2. c #ADADAC",
"3. c #ADACAD",
"4. c #ACADAD",
"5. c gray68",
"6. c #EAD784",
"7. c #EBD784",
"8. c #EBD685",
"9. c #EAD785",
"0. c #EBD785",
"q. c #F8D686",
"w. c #F9D686",
"e. c #F8D786",
"r. c #F9D786",
"t. c #F8D687",
"y. c #F9D687",
"u. c #F8D787",
"i. c #F9D787",
"p. c #FFFEFE",
"a. c #FEFEFF",
"s. c #FFFEFF",
"d. c #FEFFFF",
"f. c white",
/* pixels */
"$ $ $ $ $ $ $ % $ $ $ $ $ $ $ & $ $ $ $ $ $ $ $ $ $ % $ $ $ $ $ $ $ $ $ $ $ $ $ $ $ $ $ $ & $ $ $ $ $ $ $ $ $ $ $ $ $ $ $ $ $ $ $ $ $ $ $ $ ",
"$ $ % $ $ $ $ $ $ $ $ $ $ $ $ $ $ & $ $ $ $ $ $ $ $ $ $ $ % $ $ $ $ $ $ $ $ $ $ $ $ $ $ $ $ $ $ $ $ $ $ $ $ $ $ & $ % $ $ $ $ $ $ $ $ $ $ $ ",
"$ $ $ $ $ $ $ $ $ $ $ $ = $ $ $ $ $ $ $ $ % $ $ $ $ $ $ $ $ $ $ $ $ $ $ $ $ $ $ $ $ $ $ $ $ $ $ $ $ $ $ $ $ $ $ $ = $ % $ $ $ $ $ & $ % $ $ ",
"$ $ $ $ $ $ $ $ % $ $ = $ $ $ $ ; $ $ $ $ $ $ $ $ $ $ $ $ % $ $ $ $ $ $ $ $ $ $ % $ $ $ $ $ $ $ $ $ $ $ $ $ $ $ & & & $ $ $ $ $ $ $ $ $ $ $ ",
"$ $ $ & $ $ $ $ % $ $ $ - $ $ $ $ $ $ & $ $ $ $ $ $ $ $ $ $ $ $ $ $ $ $ $ $ $ = $ $ $ $ $ $ $ $ # $ & $ $ $ $ $ $ $ $ $ $ & $ $ $ $ $ $ $ $ ",
"$ $ $ $ $ $ $ $ $ $ $ $ $ $ $ $ $ $ $ $ $ $ % $ $ $ = $ $ $ $ $ $ $ $ $ $ $ $ $ $ $ $ $ $ $ % $ X X $ $ $ $ $ $ $ $ $ $ $ $ $ $ $ $ $ $ $ $ ",
"$ $ $ $ $ $ $ $ $ $ $ $ $ $ $ $ $ $ $ $ & $ $ $ $ $ $ $ $ $ $ $ $ $ $ $ $ $ $ $ $ $ $ . X o O # X   o $ + $ $ % $ $ % $ $ $ $ $ $ $ % $ = $ ",
"$ $ $ $ $ $ $ $ $ $ $ $ $ $ $ $ $ $ $ = $ $ $ $ $ $ $ $ $ $ $ $ $ - $ = $ $ $ $ $ $ $ $ X   # + O o X O + $ $ $ $ % $ $ $ $ $ $ $ $ $ $ $ $ ",
"$ $ $ $ $ $ $ $ $ $ % $ $ $ $ $ $ $ & $ $ $ $ $ & $ $ $ $ $ $ $ $ $ $ $ $ $ $ $ $ $ $   o o . # @ @ @ o # $ $ $ $ $ $ $ $ $ $ $ $ $ $ $ $ $ ",
"& $ $ $ $ $ $ $ $ & $ $ $ $ = $ % $ $ $ % $ $ $ $ $ $ $ $ $ $ $ $ $ $ $ $ $ $ $ $ $ @ + #   O # X @ @ @ + # $ $ $ $ $ $ $ $ $ $ $ = $ = $ $ ",
"$ $ $ $ $ $ $ $ $ $ $ $ $ & $ $ $ $ $ $ $ $ $ $ $ $ $ $ & $ $ $ = $ $ $ $ $ $ $ $ o # X +   @ . O . O . @ o $ $ $ $ $ $ $ & $ $ $ $ $ $ * $ ",
"$ $ $ $ $ $ $ $ $ $ $ $ $ $ $ $ $ $ $ $ $ $ & $ $ $ $ $ $ $ $   X # O + . $ $ $ $ $ # X o .   X h # o O . # + $ $ & $ $ % $ $ $ $ $ $ $ $ $ ",
"$ $ = $ $ $ $ $ $ $ $ = % $ = $ $ $ $ $ $ $ $ $ $ $ $ $ $ $ + U ' }  .I L O $ $ %     # o . o . ! +   l . O . $ $ $ $ $ $ $ $ $ $ $ $ & $ $ ",
"$ $ $ $ $ $ $ $ $ $ $ $ $ $ $ $ $ $ $ $ % $ $ % $ $ $ % $ O I { | } { ' P F @ $ @ . @ c @ x O X ^ Q   ^ @ + # & $ $ $ $ $ $ $ $ $ $ $ * $ $ ",
"$ $ $ $ $ $ $ $ $ $ $ $ $ $ $ $ $ $ $ $ $ $ $ $ $ $ $ * $ O ' I  .] ' T V s @ $ $ o O u.# W o ,.x Q + ^   + $ $ $ $ & $ $ $ $ $ $ $ $ & $ $ ",
"$ $ $ $ $ $ $ $ $ $ $ $ $ $ $ $ % $ $ $ $ $ $ = $ $ $ $ X p N C N n V M C a p # + . # W   i.h f.. l E j . o $ $ $ $ $ $ $ $ $ $ $ $ % $ $ $ ",
"$ $ $ = $ $ $ $ $ $ $ $ $ $ $ $ $ = $ $ $ $ $ & $ $ $ $ O d b M n V B m U P  ...| K . O ( i.i.. X q./ o $ X $ $ $ $ $ $ $ $ $ $ $ % $ & $ & ",
"= $ $ $ $ $ $ $ & = $ $ $ $ $ $ $ $ $ $ $ $ % % $ . o @ F L  .I [ P ..} } [ R @ O   X # + ( t.u.i.e.i.+ $ $ $ $ $ $ $ $ $ $ $ % $ $ $ $ $ $ ",
"% $ $ $ % $ $ % $ $ $ $ $ $ $ $ $ $ % $ $ $ % $ @ R  .I { | R { R  .I X o O   # o o @   j X 5.f.f.( O & $ $ $ $ $ $ $ & $ $ $ & $ $ $ $ $ $ ",
"$ $ $ $ $ $ $ $ $ $ $ $ $ $ $ $ $ = $ $ $ $ = $ $ @ A J F J D G . + . + # c X X + 8.@ # ( z + ^ E # $ & & $ $ $ $ $ $ $ $ & $ $ $ $ $ $ $ $ ",
"$ $ $ $ $ $ $ $ $ $ $ $ $ $ $ $ $ $ $ $ $ $ $ $ $ $ @   J A + . k ^ i.w.t./ ! + 6._ 9.# ( X + O + $ $ & $ $ $ $ $ $ $ % $ $ $ $ $ $ $ $ $ $ ",
"$ $ $ & $ $ $ $ $ $ % $ $ $ $ $ $ $ $ $ $ $ $ $ $ $ $ $ . . u./ ~ y.u.( ! ^   . + 7.O + X $ $ $ $ $ $ $ $ $ $ $ $ $ $ $ $ $ $ $ $ $ $ $ = $ ",
"$ $ $ $ $ $ $ $ $ $ & $ $ $ & $ $ $ $ $ $ $ $ $ $ $ $ $ # + u.! ~ z @ O X #     # @ o c . $ $ & $ $ $ $ $ $ $ $ $ $ $ $ $ $ $ $ $ $ % $ $ $ ",
"$ $ % $ $ $ $ $ $ $ $ $ $ $ $ $ $ $ $ $ $ $ $ $ $ $ $ + o X q.y.^ @ @ # O # 0.@ . + ! z O $ $ % $ $ $ $ $ $ $ $ $ $ $ $ $ $ $ $ $ $ $ $ $ $ ",
"$ $ $ $ $ $ $ & $ $ $ = $ $ $ $ $ $ % $ $ $ % = $ = % X o + Q w.( + 7.X @ 7.` X + f z o # $ $ $ $ $ $ $ $ $ % $ $ $ $ $ $ $ $ $ $ $ $ $ $ $ ",
"$ $ $ $ $ $ $ $ $ $ & $ $ % $ $ = $ $ $ $ $ $ $ $ $ $ # o o Q u.( # ) 9.O X # , g l X x o $ $ $ $ $ $ $ $ $ $ $ $ $ $ $ $ $ & $ $ $ $ $ $ $ ",
"$ $ % $ $ & $ $ $ $ $ $ $ $ $ $ $ $ X O O o = $ $ $ $ $     c t.~ @ 8.@ # > , z + # j v X $ $ $ $ $   @ X $ $ $ $ $ $ $ $ $ $ $ $ $ $ $ $ $ ",
"$ $ $ $ $ $ $ $ $ $ $ $ $ $ $ $ O # { | | {   O $ $ $ $ O @ . w.! .   3 1     @ $ + h l X $ $ $ % + l . E X $ $ $ $ $ $ $ $ $ % $ $ $ $ $ $ ",
"$ $ $ $ $ $ $ $ $ $ $ $ $ $ .   U } P Y L U ..{ o + $ $ $ o Y u.r.l # K K F + $ $ # c 3 @ % $ $ # v Q   l ! @ $ $ $ $ $ $ $ $ $ $ $ $ $ $ $ ",
"$ = $ $ $ $ $ $ $ $ $ $ $ $ $ # A J S I P Z A [ ..] O o # X G w.t.x x O   @ @ $ $ O x 4   O .   1   W   Q ^ O $ $ $ = $ $ $ $ & $ % $ $ $ $ ",
"= & $ $ $ $ $ $ $ $ $ $ $ $ $ $ o # O X A Y P G S G U F G   # r.r.e.r.E + :.@.+ $ @ j z / E W ^ > , . . k ( O $ & $ $ $ % $ $ $ $ $ $ $ $ $ ",
"$ $ $ $ & $ $ $ $ $ $ & $ $ $ $ $ $ $ $ . D H U R J F D F @ X w.w.w.q.u./ + $.@ $ @ c z v k v z 4 h   j / j + $ $ $ $ $ $ $ % = $ = $ $ $ $ ",
"$ $ $ $ $ $ $ = $ $ $ $ $ $ = $ $ $ $ $ % o X   + o X     @ # w.u.t.( z ~ . >.=.X $   # + X o + @ > @ j j o = $ $ $ $ $ $ $ $ & $ $ $ $ = $ ",
"% $ $ $ $ % $ $ $ $ $ $ $ $ $ $ = & $ $ $ $ $ $ $ $ $ $ $ $ O l Q u.Q X W @ o.@.O $ $ $ $ $ $ $ $ # @ o # % $ $ $ $ $ = $ $ $ $ $ $ $ $ $ $ ",
"$ % $ $ $ $ $ $ $ $ $ $ $ = $ $ $ & $ $ @ $ $ $ $ $ $ $ $ $ $ @ l ^ v ! X O.X.=.O.@ $ $ $ $ $ % $ $ % $ $ $ $ $ $ $ $ $ $ $ $ $ $ $ $ $ $ $ ",
"$ $ $ $ $ $ $ $ $ $ $ $ $ $ $ $ $ $ $ O o # . $ $ $ $ $ $ $ $ # +   +   0 @.$.*.&.+.. $ $ $ $ $ $ % $ $ $ $ $ $ $ $ $ $ $ $ $ $ $ $ $ $ $ $ ",
"$ % $ = $ $ $ $ $ % $ $ $ $ = $ $ $ o   O 2 z + $ $ $ $ & $ $ + 6 &.q 8 X w O.X.*.&.$.+ $ $ $ $ $ $ $ $ $ $ & $ $ $ $ $ $ ; $ = $ $ $ $ $ $ ",
"$ $ $ $ $ $ $ $ $ & $ $ $ $ $ $ $ $ @   v k v l + $ $ $ % $ $ X ;.:.6 7   9 5 #.X.X.>.O.o $ $ $ & = $ $ $ $ $ $ $ % & $ $ $ $ $ $ $ $ $ $ $ ",
"$ $ $ $ $ $ $ $ $ $ $ $ $ $ $ $ $ X   1 v h x c k # + $ $ # # . ;.>.6 w X # 7 9 $.o.*.>.o.. o $ $ $ $ $ $ $ % $ & $ $ $ % $ $ $ $ $ = $ $ $ ",
"$ $ $ $ $ $ $ $ = $ $ $ $ $ $ $ $ . 3 h v x 3 : l c v X   X u 1.5 6 q q @ $ X w q $.%.-.%.s.4.O $ $ $ $ % $ $ $ & $ $ $ $ $ $ $ $ % $ $ % $ ",
"$ $ $ $ $ $ $ $ $ $ $ $ $ $ $ $ = O o h z 1 . . o . : x k 1 X <.e 9 9 q @ $ $ + 6 X.O.f.d.<.5.o & $ $ $ & $ $ $ $ $ $ $ $ $ & $ $ $ $ $ $ $ ",
"$ $ $ $ $ $ $ % $ $ $ $ $ $ $ $ . j o c , X $ $ $ $ O + , v 2 1 2.8 9 w . $ $ + w p.a.4.,.1 o & $ % $ $ $ $ & $ $ $ & & $ $ % $ $ $ $ $ $ $ ",
"$ $ $ $ $ $ & $ $ $ $ $ $ $ $ $ + v O 3 X $ $ $ $ $ $ $ O 3 z 3 i 1.7 + $ & $ O 4.3.2.3 , < . $ $ $ $ $ $ $ $ $ $ $ $ $ $ $ $ $ $ $ = $ $ $ ",
"$ & $ $ $ $ $ $ $ $ $ $ $ $ % $ # ~ k . $ $ $ $ $ $ % $ $ +   c : r y X $ $ $ $ + O + < Q ~   $ $ $ $ $ % $ $ $ $ $ $ $ $ $ $ = $ $ $ & $ $ ",
"$ = $ % $ $ $ $ $ $ $ $ $ $ $ $   z v . $ $ $ $ $ $ $ $ $ $ % + 1 t i # $ $ $ $ $ $   ~ ! t.  $ $ $ $ $ $ $ $ $ $ $ $ & $ $ & & $ $ $ $ $ $ ",
"$ $ $ $ $ $ $ $ % $ $ $ $ $ $ $ = + O $ $ $ $ = $ = $ $ $ $ & = @ # O X $ $ $ $ $ & X W t.u.O $ $ $ $ $ $ = $ $ $ $ $ $ % $ $ $ $ $ $ $ $ $ ",
"$ $ $ $ $ & $ = $ % $ $ $ $ $ * $ $ $ = = $ $ $ $ $ & $ = $ $ $ $ $ $ $ $ $ $ $ $ $ + ~ u.! O $ $ % $ & $ $ $ $ % $ $ $ $ $ $ $ $ $ $ $ $ $ ",
"% $ $ $ $ $ $ $ % & $ $ $ $ $ $ $ $ $ $ = $ $ $ $ $ $ $ $ $ $ $ $ $ $ $ $ $ $ $ $ $ o t.t.O $ $ $ $ $ $ $ $ $ $ $ $ $ $ $ $ $ $ $ $ $ $ $ $ ",
"$ $ $ $ $ $ $ $ $ $ $ $ $ $ $ $ $ $ $ $ $ $ $ $ $ $ $ $ $ $ $ $ $ $ $ $ $ % $ $ $ $ X u.( + & $ $ $ $ $ $ = & $ $ = $ $ $ $ $ $ $ $ $ $ $ $ ",
"$ $ $ $ $ % $ $ $ $ $ $ $ $ $ $ $ $ & $ $ $ = $ $ $ $ $ $ $ $ $ $ $ $ $ & $ $ $ $ $ . q.^ @ $ $ $ = $ $ $ % $ $ $ $ $ $ $ $ $ $ $ $ $ $ $ $ ",
"= $ $ $ $ $ $ $ = $ $ $ $ $ $ $ $ $ $ $ $ = $ $ $ $ $ $ $ $ $ $ $ $ $ $ $ $ $ $ $ $ @ i.^   $ $ $ $ $ $ $ $ $ & $ $ $ $ $ $ $ $ % $ % $ $ $ ",
"& $ $ $ = $ $ $ $ $ $ $ $ $ $ $ $ $ $ $ $ $ $ $ $ $ $ $ $ $ $ $ % $ $ $ $ = $ $ $ $ o u./ # $ $ $ $ $ $ $ $ $ % = $ $ $ $ % $ $ $ $ $ $ $ $ ",
"$ $ $ $ $ $ $ $ $ & $ $ $ $ $ $ $ $ $ $ $ $ $ $ $ $ $ $ $ $ $ $ $ $ $ $ $ $ $ $ $ $ O e.(   $ $ $ $ $ $ $ $ $ $ $ & $ $ $ $ $ $ & $ $ $ $ & ",
"$ $ $ $ $ $ $ % $ $ $ $ % $ $ % $ $ $ $ $ % $ $ $ $ $ $ $ $ * $ $ $ $ $ $ $ $ $ $ # ( r.w.w.@ # $   . $ $ $ & $ $ $ $ $ $ $ $ $ $ $ $ $ $ $ ",
"$ $ $ $ % $ $ $ $ $ $ $ & $ $ $ $ $ $ $ $ $ $ $ $ $ & $ $ $ $ $ $ $ $ $ $ $ $ $ $ X ~ Q q.. w.Q   E q.+ $ $ $ $ $ & $ $ $ $ $ $ $ $ $ $ $ $ ",
"$ $ $ $ $ $ $ $ % $ $ $ $ % $ $ $ $ $ $ $ $ $ $ $ $ $ $ $ % $ $ $ $ $ $ $ $ % $ $ . Q / o ! ! w.E O E o $ $ $ = $ & % $ $ $ $ $ $ $ $ $ $ $ ",
"$ $ $ % $ $ $ $ $ $ $ $ $ $ $ $ $ $ $ $ $ $ $ $ $ $ $ $ & $ $ $ $ $ $ $ $ $ $ $ # X @ + #     # X O . . = $ $ $ $ $ & $ $ $ $ $ $ $ $ $ = $ ",
"$ $ $ $ $ $ $ $ $ % $ $ $ $ $ $ $ $ $ $ $ $ $ $ $ $ $ $ $ $ $ $ $ $ $ $ $ $ $ & = $ $ $ $ % $ $ $ & & $ $ $ $ $ $ $ $ $ $ $ $ = $ $ $ $ $ $ ",
"$ $ $ = $ $ $ $ $ $ $ $ $ $ $ $ $ $ $ $ = $ $ % $ % $ $ % $ $ $ $ $ $ $ $ $ $ $ $ $ % $ $ $ $ $ $ $ $ $ $ $ $ $ $ $ $ $ $ $ $ $ $ $ $ $ $ & ",
"$ $ $ $ $ $ $ $ $ $ $ $ $ $ $ $ $ $ $ & $ $ $ $ $ $ & $ $ $ $ $ $ $ $ $ $ $ $ $ $ $ $ $ $ $ $ $ $ $ $ $ = $ $ % & $ $ $ $ $ $ $ $ $ $ $ $ $ ",
"$ $ $ $ & $ $ $ $ $ $ $ $ $ $ $ $ $ $ % = $ & $ $ % $ $ & $ $ $ & % $ $ $ $ $ $ % $ $ $ $ $ $ $ $ $ $ $ $ = $ $ $ & $ $ $ $ $ $ $ $ $ $ $ $ ",
"$ $ $ $ $ $ $ $ $ $ $ $ $ $ $ $ $ $ $ $ $ $ $ $ $ $ $ $ $ % $ $ $ $ $ $ $ $ & $ $ $ % $ $ & $ $ % $ % $ $ $ $ $ $ $ = $ $ $ $ $ & $ $ $ $ $ ",
"$ $ $ $ $ $ $ $ $ $ $ $ $ $ $ $ $ $ $ $ $ $ = $ $ $ $ & % $ $ $ $ $ $ $ $ $ $ & $ $ $ $ $ $ $ $ & $ $ $ % $ $ $ $ $ $ $ $ $ $ $ $ % $ $ $ $ ",
"$ % $ $ $ $ $ $ $ $ $ $ $ $ $ $ $ $ $ $ $ $ $ $ $ $ $ $ $ $ $ $ $ $ * $ $ $ $ $ $ $ $ $ $ $ $ $ $ $ $ $ $ $ % $ $ $ $ $ & $ $ $ $ $ = $ $ $ ",
"$ $ $ $ $ $ % $ $ & $ $ & $ & $ $ $ $ $ $ $ $ $ $ $ $ $ $ $ $ $ & $ $ $ $ $ $ $ $ % $ $ $ $ $ $ $ $ $ $ $ $ $ $ $ $ $ $ $ $ $ $ $ $ $ $ $ $ ",
"$ $ = $ & $ $ $ $ $ $ % $ $ $ $ $ $ % $ $ $ $ $ $ $ $ $ $ $ $ $ $ $ $ $ $ $ $ $ $ $ $ $ $ $ $ $ $ $ $ $ $ $ $ $ $ $ $ $ $ $ $ $ $ $ $ $ $ $ ",
"$ $ $ $ $ $ $ - $ $ $ ; $ $ % $ $ $ * = $ $ $ $ $ $ % $ $ $ $ & $ $ $ % $ $ $ $ $ & $ $ $ $ $ $ $ $ $ $ ; $ $ $ $ $ $ = $ $ $ $ $ $ $ $ & $ ",
"$ $ $ $ $ % $ $ $ = $ $ $ $ $ $ $ $ $ $ $ $ $ $ $ $ $ = $ $ $ $ $ $ $ $ $ % $ $ $ $ $ $ $ $ $ $ $ $ $ $ $ $ $ $ $ $ $ $ $ $ $ $ $ $ $ $ $ $ ",
"$ $ $ $ $ $ $ $ $ $ $ $ & $ $ % $ $ $ $ = $ $ $ $ $ $ $ $ & $ $ $ $ $ $ $ $ $ $ $ $ % $ $ $ $ $ $ $ $ $ $ $ $ $ $ $ $ $ $ $ $ $ $ $ $ & $ $ ",
"$ $ $ $ $ $ $ $ $ $ = $ & $ $ $ $ $ $ $ $ $ $ $ $ $ $ $ $ $ $ $ $ $ $ $ $ $ $ $ $ $ $ & $ $ $ $ $ $ $ $ $ $ $ $ $ $ $ $ $ $ & $ $ $ $ $ & $ "
};
