/* XPM */
static char *result[] = {
/* columns rows colors chars-per-pixel */
"70 70 139 2 ",
"   c black",
".  c #010000",
"X  c #000100",
"o  c #010100",
"O  c #000001",
"+  c #010001",
"@  c #000101",
"#  c #010101",
"$  c #181A24",
"%  c #191A24",
"&  c #181B24",
"*  c #191B24",
"=  c #181A25",
"-  c #191A25",
";  c #181B25",
":  c gray14",
">  c #252424",
",  c #242524",
"<  c #252524",
"1  c #242425",
"2  c #252425",
"3  c #242525",
"4  c #252525",
"5  c #661804",
"6  c #671804",
"7  c #661904",
"8  c #661805",
"9  c #671805",
"0  c #661905",
"q  c #671905",
"w  c #72621C",
"e  c #72631C",
"r  c #72621D",
"t  c #73621D",
"y  c #73631D",
"u  c #223658",
"i  c #233658",
"p  c #223758",
"a  c #223659",
"s  c #233659",
"d  c #223759",
"f  c #233759",
"g  c #6C6C6C",
"h  c #6D6C6C",
"j  c #6D6C6D",
"k  c #8C2826",
"l  c #8C2926",
"z  c #8D2926",
"x  c #8C2827",
"c  c #8D2927",
"v  c #902526",
"b  c #96581C",
"n  c #97581C",
"m  c #96591C",
"M  c #97591C",
"N  c #96581D",
"B  c #97581D",
"V  c #96591D",
"C  c #97591D",
"Z  c #BF3E4C",
"A  c #BE3F4C",
"S  c #BF3F4C",
"D  c #BE3E4D",
"F  c #BF3E4D",
"G  c #BE3F4D",
"H  c #BF3F4D",
"J  c #94842E",
"K  c #94852E",
"L  c #94842F",
"P  c #95842F",
"I  c #B4A152",
"U  c #B5A152",
"Y  c #B5A053",
"T  c #B4A153",
"R  c #B5A153",
"E  c #C0B24A",
"W  c #C1B24A",
"Q  c #C0B34A",
"!  c #C1B34A",
"~  c #C0B24B",
"^  c #C1B24B",
"/  c #C0B34B",
"(  c #C1B34B",
")  c #E2A240",
"_  c #E3A240",
"`  c #E2A340",
"'  c #E3A340",
"]  c #E2A241",
"[  c #E3A241",
"{  c #E2A341",
"}  c #E3A341",
"|  c #F49660",
" . c #F49760",
".. c #F49661",
"X. c #F49761",
"o. c #E4DC6A",
"O. c #E4DD6A",
"+. c #E5DD6A",
"@. c #E4DC6B",
"#. c #E5DC6B",
"$. c #E4DD6B",
"%. c #E5DD6B",
"&. c #4260A0",
"*. c #4360A0",
"=. c #4261A0",
"-. c #4361A0",
";. c #4260A1",
":. c #4360A1",
">. c #4261A1",
",. c #4361A1",
"<. c #5378C2",
"1. c #5279C2",
"2. c #5278C3",
"3. c #5378C3",
"4. c #ACACAC",
"5. c #ADACAC",
"6. c #ACADAC",
"7. c #ADADAC",
"8. c #ACACAD",
"9. c #EAD684",
"0. c #EBD684",
"q. c #EAD784",
"w. c #EBD784",
"e. c #EAD685",
"r. c #EBD685",
"t. c #EAD785",
"y. c #FAD886",
"u. c #FBD886",
"i. c #FAD986",
"p. c #FBD986",
"a. c #FAD887",
"s. c #FBD887",
"d. c #FAD987",
"f. c #FBD987",
"g. c #FFFEFE",
"h. c #FEFFFE",
"j. c #FEFEFF",
"k. c #FEFFFF",
"l. c white",
/* pixels */
"$ $ $ $ $ $ $ $ $ $ = $ $ $ $ $ $ $ $ $ $ $ $ $ $ $ $ $ $ $ $ $ $ $ $ $ $ $ $ $ $ $ $ $ = $ $ & $ $ $ & $ = $ $ = $ $ $ = $ $ $ $ $ $ $ $ $ ",
"$ $ = $ $ $ $ & $ $ $ = $ $ $ $ $ $ $ $ $ $ % $ $ $ $ $ $ $ $ $ $ $ $ $ $ $ $ $ $ $ $ $ $ $ $ $ % $ $ $ $ $ $ $ $ $ $ $ $ $ $ $ - $ $ $ $ $ ",
"$ $ $ $ $ $ $ $ $ % $ = % $ = $ $ $ $ $ $ $ $ $ $ $ $ % $ $ $ $ $ $ $ = % $ $ $ $ $ $ $ $ $ $ $ $ $ $ $ $ $ % $ $ $ & $ $ $ = $ $ $ % $ $ $ ",
"$ $ $ $ $ $ $ $ $ $ $ $ $ $ $ $ $ $ $ $ $ $ $ = $ $ $ $ $ $ & $ $ $ $ $ $ $ $ $ $ $ $ $ $ $ $ $ $ $ $ $ $ $ $ $ $ $ $ = % $ $ $ $ $ $ $ $ $ ",
"$ $ $ $ $ $ $ $ $ $ $ & = $ $ = $ $ $ $ $ $ $ $ $ $ $ $ $ % $ $ $ $ % $ $ $ $ % $ & $ $ $ $ = = $ $ = % $ & & $ $ $ $ $ $ $ $ $ $ $ $ $ $ $ ",
"$ = $ $ $ $ $ $ $ $ $ $ $ $ $ $ $ $ = $ $ $ $ $ $ $ $ $ $ $ $ $ $ $ $ $ $ $ $ $ $ $ $ $ $ $ $ % $ $ $ $ $ $ $ % $ $ $ $ & $ & $ $ $ $ $ $ = ",
"$ $ = $ $ $ $ $ $ = $ $ $ $ $ $ $ $ $ $ $ = $ $ $ $ $ $ $ $ $ $ = $ $ $ $ $ $ $ = $ $ $ $ $ $ $ $ $ $ & $ $ $ $ & $ = $ $ $ $ $ $ = $ $ $ $ ",
"$ $ $ $ $ $ $ $ $ $ $ $ $ $ $ $ $ $ $ = * $ $ $ $ $ = $ $ $ $ & $ $ $ $ $ $ $ $ $ $ % & $ $ $ $ $ $ $ % $ $ $ $ $ $ $ $ = $ $ $ $ $ & $ $ $ ",
"$ $ $ $ $ $ $ $ $ $ $ $ $ $ $ $ $ $ $ $ $ $ $ $ $ $ $ % $ $ $ & $ $ % $ $ $ - $ $ $ $ $ $ & $ $ $ $ $ $ $ $ $ $ % $ $ $ $ $ & $ $ $ $ $ $ $ ",
"= $ $ $ $ $ $ $ $ $ $ $ $ $ $ & $ $ $ $ $ $ o = & $ % $ $ $ $ $ $ % $ $ $ $ $ $ $ $ $ $ $ $ $ $ $ $ $ $ $ $ $ $ $ $ & $ $ $ ; $ $ = $ $ $ & ",
"$ $ $ $ $ $ $ $ $ $ $ $ $ & $ $ $ $ $ + $ $ O o . $ $ X $ $ $ $ % $ $ % $ & $ $ & $ $ $ $ % $ $ $ $ $ % $ $ $ $ $ $ = % $ $ $ $ $ $ $ $ $ $ ",
"$ $ $ $ $ $ $ $ $ $ = $ $ $ $ $ $ $ $   $ o o # X O X . $ $ $ $ $ $ $ $ $ $ $ $ $ $ $ $ $ = $ $ $ $ $ $ $ $ $ $ $ % $ $ $ $ $ $ $ $ $ $ $ $ ",
"$ $ $ $ $ $ $ $ $ $ % = $ $ $ $ $ O $ . . . # + # o . X # $ $ $ $ $ $ $ % $ $ $ $ $ $ & $ $ $ $ $ $ $ $ $ $ $ $ = $ $ $ $ $ $ $ $ $ $ $ $ $ ",
"$ $ $ $ $ $ $ $ & $ $ $ $ = $ $ $ @ O + . X @ O #   # @ X o # $ $ $ $ $ $ $ $ $ $ $ & $ $ $ $ $ $ = $ $ $ $ $ $ $ $ $ & % $ $ $ $ $ $ $ $ $ ",
"$ $ $ $ $ $ & % $ $ $ $ $ % $ $ % $   + @ O # . O # o @ o # $ % & $ $ $ $ $ $ $ $ $ = $ & $ $ $ $ $ $ = $ % $ $ $ $ $ & $ $ $ $ $ $ $ $ $ $ ",
"$ $ $ $ $ $ $ $ $ $ $ $ $ $ $ $ $ X + X     @ o O o + O @ O $ $ $ $ $ O # o O + $ = $ $ $ $ $ & $ $ $ % $ $ $ $ $ $ $ $ $ $ = $ $ $ $ $ $ $ ",
"$ $ $ $ $ $ = - = $ $ $ $ $ $ $ $ #   + . . B o + @ + @ # . . $ $ $ o Q +.%.@.( X $ $ $ $ $ $ $ $ $ $ $ $ $ $ $ $ $ $ $ $ = $ $ $ $ $ $ $ $ ",
"$ $ $ $ $ $ $ $ $ $ $ $ $ $ $ $ $ + @ @ m O _ o X V o N   . + . $ o ! @.%.@.%.#.! X $ $ $ $ $ & $ $ $ $ $ $ $ $ $ $ $ $ $ $ % & $ $ $ $ $ $ ",
"$ $ $ $ $ $ $ $ $ $ $ $ $ $ $ $ $ $ o   ) + n 8.o ' X i.O . $ $ X ( +.( O.$.%.W W   $ $ $ $ % $ $ $ $ $ $ $ $ $ $ $ $ $ $ $ $ $ $ $ $ $ = $ ",
"= $ $ $ $ $ $ $ $ $ $ $ $ $ $ % $ $ o   ] m @ j.C s.C ] o + . . z G D D H ~ ^ #.W K + $ % $ $ - = $ $ $ $ $ $ $ $ & $ $ $ $ $ $ $ $ $ $ $ = ",
"$ $ & $ $ $ $ $ $ $ $ $ $ $ $ $ $ $   $ O } # @ s.a.' n X X E @.^ S A S Z F H Z S x @ $ $ $ & $ $ $ $ $ $ $ $ $ $ $ - $ $ $ $ $ $ $ $ $ $ $ ",
"$ $ $ $ $ $ $ $ $ $ $ $ = $ $ $ $ % $ % @ p.s.a.u.} M O @ o . + / @.%.o.^ l k c l 7 O @ # $ $ $ $ $ $ % = & $ $ $ $ $ $ = $ $ $ $ $ $ $ $ $ ",
"$ $ $ & $ $ $ $ $ $ = $ $ $ $ $ $ $ $ $ O . } N C ) X b < t.4 : + # J K P / E Q E Q ^ ( L X $ $ $ & $ $ $ $ $ $ $ $ $ & $ $ $ $ $ $ $ $ $ $ ",
"$ $ $ $ $ $ $ $ $ $ $ $ $ $ $ $ $ $ $ $ $ $ O _ { o m M 9.| w.+ @ _ #   . O @ # O   .   o $ $ $ = $ $ $ $ % $ $ $ $ $ $ $ $ $ $ $ $ $ $ $ $ ",
"$ $ $ $ $ $ $ $ $ $ $ $ $ $ $ $ $ % % $ $ $ $ # . $   B > 0.4 @ { _ f.] @ O $ $ $ $ $ $ $ $ $ $ $ $ $ $ $ $ $ $ $ $ $ $ $ $ $ $ $ $ $ $ $ $ ",
"$ $ $ $ $ $ $ $ $ $ $ $ $ $ $ $ = $ $ $ $ & $ $ $ $ $ # 1 2 3 X # V [ f.y.{ O o o 2 $ $ $ $ $ $ $ $ & $ $ $ % $ $ $ $ $ $ & $ $ $ $ $ $ $ % ",
"% $ $ $ $ $ $ $ $ $ $ $ $ $ $ $ $ $ % $ $ $ $ $ $ = $ . b , , , > X + V } } _ s.o 1 o $ $ $ $ $ $ $ $ $ $ $ $ % $ $ $ = $ $ $ $ $ $ $ $ $ $ ",
"$ $ $ $ $ $ $ = $ $ $ $ $ $ $ & $ $ $ $ $ $ $ $ $ $ $ + v B > > : t.< O   m ] i.@ , < o $ $ $ $ $ $ $ $ $ $ $ $ $ = = $ $ $ $ $ $ $ $ $ $ $ ",
"$ $ $ $ $ $ $ $ & $ $ $ % $ $ & & $ $ $ $ $ $ $ $ $ & $ @ N m 1 r...r.X   [ d.{ . + e.X & & $ $ $ $ $ = $ $ $ $ $ $ $ $ $ $ $ $ $ $ $ $ $ $ ",
"$ $ $ $ $ $ $ $ $ $ % $ $ $ % $ % $ = $ $ $ $ $ O   . $ $ + 0 9 # q.X @ # p.` @ X w.X.t.O $ $ $ $ $ $ $ $ $ $ $ $ $ $ $ $ $ $ $ $ $ $ $ $ $ ",
"$ $ $ $ $ $ $ $ & $ $ = $ $ $ $ % $ $ $ $ $ $ # } [ @ o @ #   + 8 : > o ) ' # + o   q.o + $ $ $ & $ = $ & $ $ $ $ $ $ $ $ $ $ $ $ = $ $ $ $ ",
"$ $ $ $ $ $ $ $ $ $ $ $ $ $ $ $ $ $ $ % $ $ O [ B @ b ) . B d.) o   O ] [ B 1 > 4 2 O   @ $ $ $ $ $ $ & $ $ = $ $ $ $ $ & $ $ = $ $ $ $ $ $ ",
"$ $ $ $ $ $ $ $ $ $ % $ $ $ $ $ $ $ $ $ $ + N ` ' + _ o ' V a.y.f._ [ ] M , < r.3 : 2 + $ $ $ & $ $ $ $ $ $ $ $ $ $ $ $ $ $ $ $ $ $ $ $ $ $ ",
"$ $ % $ $ $ $ % $ $ $ $ $ $ $ $ $ = $ $ $   } C + +   @ s.d.f.s.d.p.` V 2 , t. .0., o # + $ $ $ $ $ $ $ $ $ $ $ $ $ $ $ $ = $ $ $ $ $ $ $ $ ",
"$ $ % * $ $ $ $ $ $ $ $ $ $ = $ $ $ $ = $ O M [   n V @ ) ' y.y.y.i.} . i u p f p < R Y r . $ $ $ $ $ $ $ $ . @ % $ $ $ $ $ $ $ $ $ $ & $ $ ",
"$ $ $ % $ $ $ $ $ $ $ & $ $ $ $ $ $ $ $ $ $ # )   n X o # y.u.d.f.' . f -.*.>.:.-.> t e T T @ $ $ $ $ $   # I + $ $ $ $ $ $ $ $ $ $ $ $ $ & ",
"$ $ $ = $ $ $ $ $ $ $ $ & $ $ $ % $ $ $ $ $ $ O @ . $ $ $ @ ] [ ` @ d f s *.3.=.>.3 o @ # e I o O @ . @ T q.T o $ $ $ $ $ $ $ $ $ $ & = $ $ ",
"= $ $ $ $ $ $ $ $ $ $ $ $ $ $ $ $ $ $ $ $ $ $ % $ $ = $ $ $ o X + i &.&.-.>.,.a # $ = $ $ @ q.T y y U q.q.T O $ $ $ $ $ $ $ $ $ $ $ $ $ $ $ ",
"$ $ $ $ $ $ $ $ $ $ - $ $ $ $ $ $ $ $ $ $ $ $ $ $ % $ = $ $ $ $ X =.2.1.<.&.&.. o $ $ $ $   w 9.w.Y I I r @ $ $ $ $ $ $ $ $ $ $ $ $ $ $ $ $ ",
"= $ $ $ $ $ $ $ $ $ $ $ = $ & $ $ $ $ $ $ $ $ $ $ $ $ $ $ $ $   >.:.&.=.=.=.X O $ $ $ $ = $ + w T T e . @ $ $ $ $ $ $ $ $ = $ & $ $ $ $ $ $ ",
"$ $ $ $ $ $ $ $ $ $ $ $ $ $ $ $ $ $ $ $ $ $ = & $ = $ $ % $ # &.1.<.=.;.>.@ o $ $ $ $ $ $ $ $ @ + @ X $ $ $ $ $ $ $ $ $ $ $ $ $ $ $ $ $ $ $ ",
"$ $ $ $ = & $ $ $ $ = $ $ $ $ $ $ $ $ $ $ $ $ $ $ $ $ $ $ # ,.<.<.,.*.&.O + $ $ = $ $ $ $ $ $ $ $ $ $ $ $ $ $ $ % $ $ $ $ $ $ $ $ $ $ $ $ $ ",
"$ $ $ $ $ $ $ $ $ $ $ = $ % $ $ $ $ $ $ $ $ $ $ $ % $ $ o h.g.6.>.=.;.@ d   $ $ $ $ $ $ $ $ $ $ $ $ $ $ $ $ $ $ $ $ $ $ = $ $ $ $ $ $ $ $ $ ",
"$ $ $ $ $ & % $ $ $ $ $ $ $ $ = $ $ $ $ $ $ $ $ $ & $ $ + 7.4.k.h.l.5.@ . $ $ & $ @ X # $ $ $ $ = $ $ $ $ $ $ $ $ $ $ $ $ $ $ $ $ $ $ $ $ $ ",
"$ $ $ $ $ $ $ $ $ $ $ $ $ $ $ $ $ $ $ $ $ $ $ $ $ $ $ $ O @ m m M M ' B + o O o # u.} . O $ $ $   $ $ % $ $ & = $ $ & $ $ $ $ $ $ $ $ $ $ $ ",
"$ = $ $ $ $ = $ $ $ $ $ = $ $ $ $ $ $ $ $ $ $ $ $ $ $ # h . ` [ u.i.u.d.a.p.) ' ] d.a._ + @ $ $ $ $ $ $ & $ $ $ $ $ $ $ $ $ $ $ $ $ $ $ $ $ ",
"$ $ $ $ $ $ $ $ $ $ $ $ $ $ $ $ $ $ $ $ $ $ $ $ $ = $ . g j + @ o   . X + o + O n ' } f.N   @ $ $ $ $ $ $ $ $ = $ $ $ $ $ $ $ = $ $ $ $ $ $ ",
"$ $ $ $ & $ $ $ $ $ $ % $ $ & $ $ $ $ $ $ $ $ $ $ $ $ $ + + 0 6 5 O   $ $ $ $ $ X C _ i.X ] @   $ $ $ $ $ $ $ $ $ $ % $ $ $ $ $ $ = $ $ $ $ ",
"$ $ $ $ $ $ $ $ $ $ $ $ $ $ $ $ $ $ $ $ $ $ $ $ $ $ $ $ $ $ o @ 9 n 6 @ $ $ $ $ $   m `   f.{ o $ $ $ $ $ $ $ $ $ $ $ $ $ $ % = $ $ $ ; $ $ ",
"$ $ $ $ $ $ $ & & $ $ $ $ $ $ $ $ $ $ % $ $ % $ $ $ $ $ $ $ $ $ # q N C   = $ % $ $ @ m + { f.+ $ $ $ $ & $ $ $ $ $ $ $ = $ = $ - $ $ $ $ $ ",
"$ $ $ $ $ $ $ $ $ $ $ $ $ $ $ $ $ $ $ $ $ $ $ $ $ $ & $ $ $ $ $ $ . . V C X $ $ $ $ $   ) . )   $ $ $ $ $ $ $ ; $ $ $ $ $ = = $ $ $ $ $ = $ ",
"$ = $ $ $ $ $ $ $ & % $ $ $ $ $ $ $ $ $ $ $ $ $ $ $ $ $ $ $ $ $ $ = $ # M N + $ $ $ $ . ) _ # $ $ $ $ = $ $ $ $ $ $ $ $ $ $ $ $ $ $ $ $ $ $ ",
"$ $ $ $ $ $ $ $ $ $ $ $ $ $ $ $ $ $ $ $ $ $ $ $ $ $ $ $ $ $ $ $ $ $ = $   M n O $ $ & $ + o % $ % $ $ $ = $ $ $ $ % $ & $ $ $ $ $ $ $ $ $ $ ",
"$ $ $ $ $ $ $ $ $ $ $ % $ $ $ = $ $ $ $ $ $ $ $ $ $ $ $ $ $ $ # # $ $ @ } ' n M @ $ $ $ $ $ $ $ $ $ $ $ $ $ $ & $ $ $ $ $ $ $ $ $ $ $ $ $ $ ",
"$ $ $ $ % $ $ $ $ $ $ $ $ $ $ $ $ $ $ $ $ $ $ $ $ $ $ $ $ $ . ) ` #   ) b M m n o $ $ $ $ & $ $ $ $ $ $ $ $ = $ $ $ $ $ & $ $ $ $ $ $ = $ $ ",
"$ $ $ $ $ $ $ $ $ $ $ $ $ $ & $ $ $ $ $ $ $ $ & $ $ $ $ $ $ O m m V m o @ q b C o $ $ $ $ $ $ $ $ $ % $ $ $ $ $ $ $ = $ $ $ $ $ $ $ $ $ $ $ ",
"$ $ = $ $ $ $ $ $ % % $ $ $ $ $ $ $ $ $ $ $ $ $ $ & $ $ $ $ $ X X @ + o o # . @ @ X = $ $ $ % $ $ $ $ $ $ $ $ $ $ $ $ $ $ $ $ $ $ $ $ & $ $ ",
"& $ $ $ $ $ $ $ = $ $ $ $ $ $ $ $ $ $ $ $ = $ $ $ $ $ $ $ $ $ $ $ $ $ & $ $ $ $ $ $ $ $ $ $ $ = $ $ $ $ % $ $ $ $ $ $ $ $ $ $ $ $ $ $ $ $ % ",
"$ $ $ $ $ $ $ $ $ $ $ $ $ $ $ $ $ $ $ $ $ $ $ $ $ $ $ $ $ $ $ $ $ $ $ $ & $ $ $ $ $ $ $ $ $ $ $ $ $ $ $ $ $ $ $ $ $ $ $ $ $ $ $ $ $ & $ $ $ ",
"$ = $ $ $ $ $ $ $ $ $ $ $ $ $ = $ $ $ % $ $ $ $ $ $ $ $ $ $ $ $ & $ $ $ $ $ $ $ $ $ $ $ $ $ $ $ $ $ $ $ $ & $ $ $ $ $ $ $ $ $ $ $ $ & $ $ $ ",
"$ $ $ $ $ $ $ $ = $ $ $ $ $ $ $ $ $ $ $ $ $ $ $ $ $ $ $ $ $ $ $ $ $ $ $ $ $ $ $ $ $ $ $ $ $ $ $ $ $ $ $ $ $ $ $ $ $ $ $ = $ $ % $ $ & $ $ & ",
"$ $ $ $ $ $ $ $ $ $ $ $ $ $ $ $ $ $ $ $ $ $ $ $ $ $ $ $ $ $ $ $ $ $ & $ $ $ $ $ $ & $ $ $ $ & $ $ $ = $ = $ $ $ = $ $ $ $ $ $ $ $ $ $ $ $ $ ",
"$ $ $ $ $ $ $ $ $ $ $ $ $ $ $ $ $ $ $ $ $ $ $ $ $ % $ $ $ & $ $ $ $ $ $ $ $ $ $ $ $ $ $ $ $ = $ % $ $ $ $ = $ $ $ = $ $ % $ & $ $ & $ $ $ $ ",
"$ % $ $ $ $ & $ $ % $ $ $ $ $ $ $ = $ $ $ $ $ $ $ $ $ $ $ $ % $ & $ $ $ $ & $ $ % $ $ $ $ $ $ $ $ $ $ $ $ $ % $ & $ $ % % $ = $ $ $ $ $ % $ ",
"$ $ $ $ $ & $ $ $ $ $ $ $ $ $ $ $ $ $ $ $ $ $ $ $ $ = $ = $ $ $ $ = $ $ $ $ $ $ $ $ $ $ $ % $ $ $ * $ $ & $ $ $ $ $ $ $ $ $ & $ $ $ % $ $ $ ",
"$ $ $ $ $ $ $ $ $ $ $ $ $ $ $ $ $ $ $ $ $ $ $ $ $ $ $ $ = $ $ % $ $ $ $ $ $ & $ $ $ $ $ $ $ $ $ $ $ $ $ $ % $ $ $ & $ $ $ $ $ $ $ $ $ $ $ $ ",
"$ $ $ $ $ $ $ $ $ $ $ $ $ $ $ $ $ $ $ $ $ $ $ $ $ $ $ $ $ $ % = $ $ % $ $ $ $ $ $ $ $ $ $ $ $ $ = $ $ $ $ $ $ = $ $ $ $ $ $ $ $ $ $ $ $ $ $ ",
"$ $ $ $ $ $ % $ $ $ $ $ $ $ $ % $ $ $ $ $ $ $ $ $ $ $ $ = $ $ $ $ & $ $ $ $ $ $ $ $ $ $ $ $ $ & $ $ $ % $ & $ $ $ $ $ $ $ $ $ $ $ $ $ $ $ $ ",
"$ $ $ $ $ $ $ $ $ $ $ $ $ $ $ $ $ $ & $ $ $ $ $ $ & $ $ $ $ $ $ $ $ $ = $ $ $ $ $ $ $ = $ $ $ $ $ $ & $ $ $ $ $ $ $ $ % $ $ $ $ % $ = & $ $ ",
"$ $ $ $ $ $ $ $ $ $ $ $ $ $ $ $ $ $ $ $ $ $ $ $ $ $ $ $ & $ $ $ $ $ $ $ $ $ $ $ $ $ $ $ $ $ $ $ $ $ $ $ = $ $ $ = $ $ $ $ $ $ $ & = $ % $ $ "
};
