/* XPM */
static char *result[] = {
/* columns rows colors chars-per-pixel */
"70 70 134 2 ",
"   c black",
".  c #010000",
"X  c #000100",
"o  c #010100",
"O  c #000001",
"+  c #010001",
"@  c #000101",
"#  c #010101",
"$  c #181A24",
"%  c #191A24",
"&  c #181B24",
"*  c #191B24",
"=  c #181A25",
"-  c #191A25",
";  c #181B25",
":  c #661804",
">  c #671804",
",  c #661904",
"<  c #671904",
"1  c #661805",
"2  c #671805",
"3  c #661905",
"4  c #671905",
"5  c #223658",
"6  c #233658",
"7  c #223758",
"8  c #233758",
"9  c #223659",
"0  c #233659",
"q  c #223759",
"w  c #233759",
"e  c #6C6C6C",
"r  c #6D6C6C",
"t  c #6C6D6C",
"y  c #6C6C6D",
"u  c #6D6C6D",
"i  c #6D6D6D",
"p  c #8D2826",
"a  c #8C2926",
"s  c #8C2827",
"d  c #8C2927",
"f  c #912526",
"g  c #902427",
"h  c #94581C",
"j  c #95581C",
"k  c #94591C",
"l  c #95591C",
"z  c #94581D",
"x  c #95581D",
"c  c #94591D",
"v  c #95591D",
"b  c #BC3C4E",
"n  c #BD3C4E",
"m  c #BC3D4E",
"M  c #BD3D4E",
"N  c #BC3C4F",
"B  c #BD3C4F",
"V  c #BC3D4F",
"C  c #BD3D4F",
"Z  c #94842C",
"A  c #95842C",
"S  c #94852C",
"D  c #95852C",
"F  c #94842D",
"G  c #95842D",
"H  c #94852D",
"J  c #95852D",
"K  c #C0B24A",
"L  c #C1B24A",
"P  c #C0B34A",
"I  c #C1B34A",
"U  c #C0B24B",
"Y  c #C1B24B",
"T  c #C0B34B",
"R  c #C1B34B",
"E  c #E2A040",
"W  c #E3A040",
"Q  c #E2A140",
"!  c #E3A140",
"~  c #E2A041",
"^  c #E3A041",
"/  c #E2A141",
"(  c #E3A141",
")  c #F29860",
"_  c #F39960",
"`  c #F29961",
"'  c #E2DA6A",
"]  c #E3DA6A",
"[  c #E2DB6A",
"{  c #E3DB6A",
"}  c #E2DA6B",
"|  c #E3DA6B",
" . c #E2DB6B",
".. c #E3DB6B",
"X. c #4262A0",
"o. c #4362A0",
"O. c #4263A0",
"+. c #4363A0",
"@. c #4262A1",
"#. c #4362A1",
"$. c #4263A1",
"%. c #527AC2",
"&. c #537AC2",
"*. c #527BC2",
"=. c #537BC2",
"-. c #527AC3",
";. c #537AC3",
":. c #527BC3",
">. c #537BC3",
",. c #ACACAC",
"<. c #ADACAC",
"1. c #ACADAC",
"2. c #ADADAC",
"3. c #ADACAD",
"4. c #ACADAD",
"5. c gray68",
"6. c #EAD784",
"7. c #EBD784",
"8. c #EBD685",
"9. c #EAD785",
"0. c #EBD785",
"q. c #F8D686",
"w. c #F9D686",
"e. c #F8D786",
"r. c #F9D786",
"t. c #F8D687",
"y. c #F9D687",
"u. c #F8D787",
"i. c #F9D787",
"p. c #FFFEFE",
"a. c #FEFEFF",
"s. c #FFFEFF",
"d. c #FEFFFF",
"f. c white",
/* pixels */
"$ $ $ $ $ $ $ $ $ $ $ $ $ $ $ $ $ $ $ $ $ $ $ $ & $ $ $ $ $ $ $ $ $ $ $ $ $ $ $ $ $ $ % $ $ $ $ $ $ $ $ $ $ & $ $ $ $ $ $ $ % $ $ $ $ $ $ $ ",
"$ $ $ $ $ $ $ $ $ $ $ % $ & $ $ $ $ $ $ $ $ $ $ $ $ $ $ $ $ $ $ $ $ $ $ $ $ $ $ % $ $ $ $ $ $ $ $ $ $ $ & $ $ $ $ $ $ $ $ $ $ $ $ $ $ % $ $ ",
"$ $ % $ & $ $ $ $ $ % $ = $ $ $ $ $ $ $ $ $ $ $ $ $ $ $ $ $ $ $ $ $ $ $ $ $ $ $ $ $ $ $ $ $ $ $ % $ $ $ $ $ $ $ $ = $ $ $ $ $ $ $ $ $ $ $ $ ",
"$ $ $ $ $ $ $ $ $ $ $ & & & $ $ $ $ $ $ $ $ $ $ $ $ $ $ $ % $ $ $ $ $ $ $ $ $ $ % $ $ $ $ $ $ $ $ $ $ $ $ ; $ $ $ $ = $ $ % $ $ $ $ $ $ $ $ ",
"$ $ $ $ $ $ $ $ & $ $ $ $ $ $ $ $ $ $ & $ # $ $ $ $ $ $ $ $ = $ $ $ $ $ $ $ $ $ $ $ $ $ $ $ $ $ $ $ & $ $ $ $ $ $ - $ $ $ % $ $ $ $ & $ $ $ ",
"$ $ $ $ $ $ $ $ $ $ $ $ $ $ $ $ $ $ $ $ X X $ % $ $ $ $ $ $ $ $ $ $ $ $ $ $ $ $ $ $ $ = $ $ $ % $ $ $ $ $ $ $ $ $ $ $ $ $ $ $ $ $ $ $ $ $ $ ",
"$ = $ % $ $ $ $ $ $ $ % $ $ % $ $ + $ o   X # O o X . $ $ $ $ $ $ $ $ $ $ $ $ $ $ $ $ $ $ $ $ $ $ & $ $ $ $ $ $ $ $ $ $ $ $ $ $ $ $ $ $ $ $ ",
"$ $ $ $ $ $ $ $ $ $ $ $ % $ $ $ $ + O X o O + #   X $ $ $ $ $ $ $ $ = $ - $ $ $ $ $ $ $ $ $ $ $ $ $ = $ $ $ $ $ $ $ $ $ $ $ $ $ $ $ $ $ $ $ ",
"$ $ $ $ $ $ $ $ $ $ $ $ $ $ $ $ $ # o @ @ @ # . o o   $ $ $ $ $ $ $ $ $ $ $ $ $ $ $ $ $ $ & $ $ $ $ $ & $ $ $ $ $ $ $ % $ $ $ $ $ $ $ $ $ $ ",
"$ $ = $ = $ $ $ $ $ $ $ $ $ $ $ # + @ @ @ X # O   # + @ $ $ $ $ $ $ $ $ $ $ $ $ $ $ $ $ $ $ $ $ $ % $ $ $ % $ = $ $ $ $ & $ $ $ $ $ $ $ $ & ",
"$ * $ $ $ $ $ $ & $ $ $ $ $ $ $ o @ . O . O . @   + X # o $ $ $ $ $ $ $ $ = $ $ $ & $ $ $ $ $ $ $ $ $ $ $ $ $ $ & $ $ $ $ $ $ $ $ $ $ $ $ $ ",
"$ $ $ $ $ $ $ $ $ % $ $ & $ $ + # . O o # h X   . o X # $ $ $ $ $ . + O # X   $ $ $ $ $ $ $ $ & $ $ $ $ $ $ $ $ $ $ $ $ $ $ $ $ $ $ $ $ $ $ ",
"$ $ & $ $ $ $ $ $ $ $ $ $ $ $ . O . l   + ! . o . o #     % $ $ O L I  .} ' U + $ $ $ $ $ $ $ $ $ $ $ $ $ $ $ = $ % = $ $ $ $ $ $ $ $ = $ $ ",
"$ $ * $ $ $ $ $ $ $ $ $ $ $ & # + @ ^   Q ^ X O x @ c @ . @ $ @ F P ' { } | { I O $ % $ $ $ % $ $ % $ $ $ $ $ $ $ $ $ $ $ $ $ $ $ $ $ $ $ $ ",
"$ $ & $ $ $ $ $ $ $ $ & $ $ $ $ +   ^ + Q x ,.o W # u.O o $ $ @ s V T ' ]  .I ' O $ * $ $ $ $ $ $ $ $ $ $ $ $ $ $ $ $ $ $ $ $ $ $ $ $ $ $ $ ",
"$ $ $ % $ $ $ $ $ $ $ $ $ $ $ $ o . j E l . f.h i.  W # . + # p a C M V n N C N p X $ $ $ $ = $ $ $ $ $ $ % $ $ $ $ $ $ $ $ $ $ $ $ $ $ $ $ ",
"& $ & $ % $ $ $ $ $ $ $ $ $ $ $ X $ o / q.X . i.i.( O . K | .. .P U m B V n M b d O $ $ $ $ & $ $ $ $ $ = $ $ $ $ $ $ $ $ $ $ $ $ $ = $ $ $ ",
"$ $ $ $ $ $ % $ $ $ $ $ $ $ $ $ $ $ + i.e.i.u.t.( + # X   O @ R [ } } ..P [ I  .L F @ o . $ % % $ $ $ $ $ $ $ $ $ $ $ $ = & $ $ $ $ $ $ $ = ",
"$ $ $ $ $ $ & $ $ $ & $ $ $ $ $ $ $ & O ( f.f.5.X j   @ o o #   O o X I  .R { R | { I  .R @ $ % $ $ $ % $ $ $ $ $ $ $ $ $ $ % $ $ % $ $ $ % ",
"$ $ $ $ $ $ $ $ & $ $ $ $ $ $ $ $ & & $ # E ^ + z ( # @ 8.+ X X c # + . + . G D J F J A @ $ $ = $ $ $ $ = $ $ $ $ $ $ $ $ $ $ $ $ $ $ $ $ $ ",
"$ $ $ $ $ $ $ $ $ $ % $ $ $ $ $ $ $ & $ $ + O + X ( # 9._ 6.+ ! / t.w.i.^ k . + A J   @ $ $ $ $ $ $ $ $ $ $ $ $ $ $ $ $ $ $ $ $ $ $ $ $ $ $ ",
"$ = $ $ $ $ $ $ $ $ $ $ $ $ $ $ $ $ $ $ $ $ $ $ $ X + O 7.+ .   ^ ! ( u.y.~ / u.. . $ $ $ $ $ $ $ $ $ $ $ $ $ $ $ $ $ % $ $ $ $ $ $ & $ $ $ ",
"$ $ $ % $ $ $ $ $ $ $ $ $ $ $ $ $ $ $ $ $ $ & $ $ . c o @ #     # X O @ z ~ ! u.+ # $ $ $ $ $ $ $ $ $ $ $ $ $ & $ $ $ & $ $ $ $ $ $ $ $ $ $ ",
"$ $ $ $ $ $ $ $ $ $ $ $ $ $ $ $ $ $ $ $ $ $ % $ $ O z ! + . @ 0.# O # @ @ ^ y.q.X o + $ $ $ $ $ $ $ $ $ $ $ $ $ $ $ $ $ $ $ $ $ $ $ $ % $ $ ",
"$ $ $ $ $ $ $ $ $ $ $ $ $ $ $ % $ $ $ $ $ $ $ $ $ # o z f + X ` 7.@ X 7.+ ( w.Q + o X % = $ = % $ $ $ % $ $ $ $ $ $ = $ $ $ & $ $ $ $ $ $ $ ",
"$ $ $ $ $ $ $ & $ $ $ $ $ $ $ $ $ $ $ $ $ $ $ $ $ o x X l g , # X O 9.) # ( u.Q o o # $ $ $ $ $ $ $ $ $ $ = $ $ % $ $ & $ $ $ $ $ $ $ $ $ $ ",
"$ $ $ $ $ $ $ $ $ $ $ $ $ $ $ $ $ X @   $ $ $ $ $ X v j # + z , > # @ 8.@ ~ t.c     $ $ $ $ $ = o O O X $ $ $ $ $ $ $ $ $ $ $ $ & $ $ % $ $ ",
"$ $ $ $ $ $ % $ $ $ $ $ $ $ $ $ X E . l + % $ $ $ X l h + $ @     1 3   . ! w.. @ O $ $ $ $ O   { | | { # O $ $ $ $ $ $ $ $ $ $ $ $ $ $ $ $ ",
"$ $ $ $ $ $ $ $ $ $ $ $ $ $ $ @ ! l   Q v # $ $ % @ 3 c # $ $ + F K K # l r.u.Y o $ $ $ + o { ..U L Y P } U   . $ $ $ $ $ $ $ $ $ $ $ $ $ $ ",
"$ $ $ $ % $ & $ $ $ $ = $ $ $ O ^ Q   W   1   . O   4 x O $ $ @ @   O x x t.w.G X # o O ] ..[ A Z P I S J A # $ $ $ $ $ $ $ $ $ $ $ $ $ = $ ",
"$ $ $ $ $ $ $ $ $ % $ $ $ & $ O ( k . . , > ^ W E / z j @ $ + @.:.+ E r.e.r.r.#   G F U G S G P Y A X O # o $ $ $ $ $ $ $ $ $ $ $ $ $ $ & = ",
"$ $ $ $ = $ = % $ $ $ $ $ $ $ + j / j   h 4 z v k v z c @ $ @ $.+ / u.q.w.w.w.X @ F D F J R U H D . $ $ $ $ $ $ $ $ & $ $ $ $ $ $ & $ $ $ $ ",
"$ = $ $ $ $ & $ $ $ $ $ $ $ $ = o j j @ > @ + o X + #   $ X =.>.. ~ z ( t.u.w.# @     X o +   X o % $ $ $ $ $ = $ $ $ $ $ $ = $ $ $ $ $ $ $ ",
"$ $ $ $ $ $ $ $ $ $ = $ $ $ $ $ % # o @ # $ $ $ $ $ $ $ $ O @.o.@ W X Q u.Q l O $ $ $ $ $ $ $ $ $ $ $ $ & = $ $ $ $ $ $ $ $ $ $ % $ $ $ $ % ",
"$ $ $ $ $ $ $ $ $ $ $ $ $ $ $ $ $ $ $ % $ $ % $ $ $ $ $ @ O.=.X.O.X ! v ^ l @ $ $ $ $ $ $ $ $ $ $ @ $ $ & $ $ $ = $ $ $ $ $ $ $ $ $ $ $ % $ ",
"$ $ $ $ $ $ $ $ $ $ $ $ $ $ $ $ $ $ $ $ % $ $ $ $ $ $ . +.&.*.$.@.0   +   + # $ $ $ $ $ $ $ $ . # o O $ $ $ $ $ $ $ $ $ $ $ $ $ $ $ $ $ $ $ ",
"$ $ $ $ $ $ = $ ; $ $ $ $ $ $ & $ $ $ $ $ $ $ $ $ $ + $.&.*.X.O.w X 8 q &.6 + $ $ & $ $ $ $ + z 2 O   o $ $ $ = $ $ $ $ % $ $ $ $ $ = $ % $ ",
"$ $ $ $ $ $ $ $ $ $ $ & % $ $ $ $ $ $ $ = & $ $ $ o O.>.X.X.#.5 9   7 6 :.;.X $ $ % $ $ $ + l v k v   @ $ $ $ $ $ $ $ $ & $ $ $ $ $ $ $ $ $ ",
"$ $ $ = $ $ $ $ $ % $ $ $ & $ % $ $ $ $ $ $ $ o . o.>.*.o.$.9 7 # X w 6 >.;.. # # $ $ + # k c x h v 1   X $ $ $ $ $ $ $ $ $ $ $ $ $ $ $ $ $ ",
"$ % $ $ % $ $ $ $ $ $ $ $ & $ $ $ % $ $ $ $ O 4.s.%.-.%.$.q w X $ @ q q 6 5 1.u X   X v c l : 3 x v h 3 . $ $ $ $ $ $ $ $ = $ $ $ $ $ $ $ $ ",
"$ $ $ $ $ $ $ & $ $ $ $ $ $ $ $ $ & $ $ $ & o 5.<.d.f.O.X.6 + $ $ @ q 9 9 e <.X 1 k x : . o . . 1 z h o O = $ $ $ $ $ $ $ $ $ $ $ $ $ $ $ $ ",
"$ $ $ $ $ $ $ % $ $ & & $ $ $ & $ $ $ $ % $ & o 1 ,.4.a.p.w + $ $ . w 9 8 2.1 2 v , + O $ $ $ $ X , c o j . $ $ $ $ $ $ $ $ % $ $ $ $ $ $ $ ",
"$ $ $ = $ $ $ $ $ $ $ $ $ $ $ $ $ $ $ $ $ $ $ . < , 3 2.3.4.O $ & $ + 7 1.i 3 z 3 O $ $ $ $ $ $ $ X 3 O v + $ $ $ $ $ $ $ $ $ & $ $ $ $ $ $ ",
"$ $ & $ $ $ = $ $ $ $ $ $ $ $ $ $ % $ $ $ $ $   ~ Q < + O + $ $ $ $ X y r : c   + $ $ % $ $ $ $ $ $ . k ~ # $ % $ $ $ $ $ $ $ $ $ $ $ $ & $ ",
"$ $ $ $ $ $ & & $ $ & $ $ $ $ $ $ $ $ $ $ $ $   t.! ~   $ $ $ $ $ $ # i t 1 + % $ $ $ $ $ $ $ $ $ $ . v z   $ $ $ $ $ $ $ $ $ $ $ $ % $ = $ ",
"$ $ $ $ $ $ $ $ $ % $ $ $ $ $ $ = $ $ $ $ $ $ O u.t.W X & $ $ $ $ $ X O # @ = & $ $ $ $ = $ = $ $ $ $ O + = $ $ $ $ $ $ $ % $ $ $ $ $ $ $ $ ",
"$ $ $ $ $ $ $ $ $ $ $ $ $ % $ $ $ $ & $ % $ $ O ! u.~ + $ $ $ $ $ $ $ $ $ $ $ $ $ = $ & $ $ $ $ $ = = $ $ $ * $ $ $ $ $ %   = $ & $ $ $ $ $ ",
"$ $ $ $ $ $ $ $ $ $ $ $ $ $ $ $ $ $ $ $ $ $ $ $ O t.t.o $ $ $ $ $ $ $ $ $ $ $ $ $ $ $ $ $ $ $ $ $ = $ $ $ $ $ $ $ $ $ $ & % $ $ $ $ $ $ $ % ",
"$ $ $ $ $ $ $ $ $ $ $ $ = $ $ & = $ $ $ $ $ $ & + ( u.X $ $ $ $ % $ $ $ $ $ $ $ $ $ $ $ $ $ $ $ $ $ $ $ $ $ $ $ $ $ $ $ $ $ $ $ $ $ $ $ $ $ ",
"$ $ $ $ $ $ $ $ $ $ $ $ $ $ $ $ % $ $ $ = $ $ $ @ ^ q.. $ $ $ $ $ & $ $ $ $ $ $ $ $ $ $ $ $ $ = $ $ $ & $ $ $ $ $ $ $ $ $ $ $ $ % $ $ $ $ $ ",
"$ $ $ % $ % $ $ $ $ $ $ $ $ & $ $ $ $ $ $ $ $ $   ^ i.@ $ $ $ $ $ $ $ $ $ $ $ $ $ $ $ $ $ $ $ $ = $ $ $ $ $ $ $ $ $ $ $ $ = $ $ $ $ $ $ $ = ",
"$ $ $ $ $ $ $ $ % $ $ $ $ = % $ $ $ $ $ $ $ $ $ # / u.o $ $ $ $ = $ $ $ $ % $ $ $ $ $ $ $ $ $ $ $ $ $ $ $ $ $ $ $ $ $ $ $ $ $ $ $ = $ $ $ & ",
"& $ $ $ $ & $ $ $ $ $ $ & $ $ $ $ $ $ $ $ $ $ $   ( e.O $ $ $ $ $ $ $ $ $ $ $ $ $ $ $ $ $ $ $ $ $ $ $ $ $ $ $ $ $ $ $ $ & $ $ $ $ $ $ $ $ $ ",
"$ $ $ $ $ $ $ $ $ $ $ $ $ $ $ & $ $ $ .   $ # @ w.w.r.( # $ $ $ $ $ $ $ $ $ $ * $ $ $ $ $ $ $ $ % $ $ $ $ $ % $ $ % $ $ $ $ % $ $ $ $ $ $ $ ",
"$ $ $ $ $ $ $ $ $ $ $ $ & $ $ $ $ $ + q.E   Q w.. q.Q ~ X $ $ $ $ $ $ $ $ $ $ $ $ $ $ & $ $ $ $ $ $ $ $ $ $ $ $ $ & $ $ $ $ $ $ $ % $ $ $ $ ",
"$ $ $ $ $ $ $ $ $ $ $ % & $ = $ $ $ o E O E w.! ! o / Q . $ $ % $ $ $ $ $ $ $ $ % $ $ $ $ $ $ $ $ $ $ $ $ $ $ $ % $ $ $ $ % $ $ $ $ $ $ $ $ ",
"$ = $ $ $ $ $ $ $ $ $ & $ $ $ $ $ = . . O X #     # + @ X # $ $ $ $ $ $ $ $ $ $ $ & $ $ $ $ $ $ $ $ $ $ $ $ $ $ $ $ $ $ $ $ $ $ $ $ % $ $ $ ",
"$ $ $ $ $ $ = $ $ $ $ $ $ $ $ $ $ $ $ & & $ $ $ % $ $ $ $ = & $ $ $ $ $ $ $ $ $ $ $ $ $ $ $ $ $ $ $ $ $ $ $ $ $ $ $ $ $ % $ $ $ $ $ $ $ $ $ ",
"& $ $ $ $ $ $ $ $ $ $ $ $ $ $ $ $ $ $ $ $ $ $ $ $ $ $ % $ $ $ $ $ $ $ $ $ $ $ $ $ % $ $ % $ % $ $ = $ $ $ $ $ $ $ $ $ $ $ $ $ $ $ $ = $ $ $ ",
"$ $ $ $ $ $ $ $ $ $ $ $ $ & % $ $ = $ $ $ $ $ $ $ $ $ $ $ $ $ $ $ $ $ $ $ $ $ $ $ $ $ & $ $ $ $ $ $ & $ $ $ $ $ $ $ $ $ $ $ $ $ $ $ $ $ $ $ ",
"$ $ $ $ $ $ $ $ $ $ $ $ & $ $ $ = $ $ $ $ $ $ $ $ $ $ $ $ % $ $ $ $ $ $ % & $ $ $ & $ $ % $ $ & $ = % $ $ $ $ $ $ $ $ $ $ $ $ $ $ & $ $ $ $ ",
"$ $ $ $ $ & $ $ $ $ $ = $ $ $ $ $ $ $ % $ % $ $ & $ $ % $ $ $ & $ $ $ $ $ $ $ $ % $ $ $ $ $ $ $ $ $ $ $ $ $ $ $ $ $ $ $ $ $ $ $ $ $ $ $ $ $ ",
"$ $ $ $ % $ $ $ $ $ $ $ $ $ $ $ $ % $ $ $ & $ $ $ $ $ $ $ $ & $ $ $ $ $ $ $ $ $ $ % & $ $ $ $ = $ $ $ $ $ $ $ $ $ $ $ $ $ $ $ $ $ $ $ $ $ $ ",
"$ $ $ = $ $ $ $ $ & $ $ $ $ $ % $ $ $ $ $ $ $ $ $ $ $ $ $ $ $ $ $ $ $ * $ $ $ $ $ $ $ $ $ $ $ $ $ $ $ $ $ $ $ $ $ $ $ $ $ $ $ $ $ $ $ $ % $ ",
"$ $ $ $ $ $ $ $ $ $ $ $ $ $ $ $ $ $ $ $ $ $ $ $ $ $ $ $ % $ $ $ $ $ $ $ $ & $ $ $ $ $ $ $ $ $ $ $ $ $ $ $ $ $ & $ & $ $ & $ $ % $ $ $ $ $ $ ",
"$ $ $ $ $ $ $ $ $ $ $ $ $ $ $ $ $ $ $ $ $ $ $ $ $ $ $ $ $ $ $ $ $ $ $ $ $ $ $ $ $ $ $ $ $ $ $ $ $ $ $ % $ $ $ $ $ $ % $ $ $ $ $ $ & $ = $ $ ",
"$ & $ $ $ $ $ $ $ $ = $ $ $ $ $ $ ; $ $ $ $ $ $ $ $ $ $ & $ $ $ $ $ % $ $ $ & $ $ $ $ % $ $ $ $ $ $ = * $ $ $ % $ $ ; $ $ $ - $ $ $ $ $ $ $ ",
"$ $ $ $ $ $ $ $ $ $ $ $ $ $ $ $ $ $ $ $ $ $ $ $ $ $ $ $ $ $ $ $ % $ $ $ $ $ $ $ $ $ = $ $ $ $ $ $ $ $ $ $ $ $ $ $ $ $ $ = $ $ $ % $ $ $ $ $ ",
"$ $ & $ $ $ $ $ $ $ $ $ $ $ $ $ $ $ $ $ $ $ $ $ $ $ $ % $ $ $ $ $ $ $ $ $ $ $ $ & $ $ $ $ $ $ $ $ = $ $ $ $ % $ $ & $ $ $ $ $ $ $ $ $ $ $ $ ",
"$ & $ $ $ $ $ & $ $ $ $ $ $ $ $ $ $ $ $ $ $ $ $ $ $ & $ $ $ $ $ $ $ $ $ $ $ $ $ $ $ $ $ $ $ $ $ $ $ $ $ $ $ $ $ $ & $ = $ $ $ $ $ $ $ $ $ $ "
};
