/* XPM */
static char *result[] = {
/* columns rows colors chars-per-pixel */
"70 70 127 2 ",
"   c black",
".  c #010000",
"X  c #000100",
"o  c #010100",
"O  c #000001",
"+  c #010001",
"@  c #000101",
"#  c #010101",
"$  c #181A24",
"%  c #191A24",
"&  c #181B24",
"*  c #191B24",
"=  c #181A25",
"-  c #191A25",
";  c #181B25",
":  c #661804",
">  c #671804",
",  c #661904",
"<  c #671904",
"1  c #661805",
"2  c #671805",
"3  c #661905",
"4  c #671905",
"5  c #73621C",
"6  c #72631C",
"7  c #72621D",
"8  c #73621D",
"9  c #72631D",
"0  c #73631D",
"q  c #223658",
"w  c #233658",
"e  c #223758",
"r  c #233758",
"t  c #223659",
"y  c #233659",
"u  c #223759",
"i  c #233759",
"p  c #6C6D6C",
"a  c #6D6D6C",
"s  c #6D6C6D",
"d  c #6C6D6D",
"f  c #6D6D6D",
"g  c #8C2826",
"h  c #8D2826",
"j  c #8C2926",
"k  c #8D2926",
"l  c #8C2827",
"z  c #96581C",
"x  c #97581C",
"c  c #96591C",
"v  c #97591C",
"b  c #96581D",
"n  c #97581D",
"m  c #96591D",
"M  c #97591D",
"N  c #94842C",
"B  c #95842C",
"V  c #94852C",
"C  c #94842D",
"Z  c #94852D",
"A  c #95852D",
"S  c #C0B24A",
"D  c #C1B24A",
"F  c #C0B34A",
"G  c #C1B34A",
"H  c #C0B24B",
"J  c #C1B24B",
"K  c #C0B34B",
"L  c #C1B34B",
"P  c #E2A240",
"I  c #E3A240",
"U  c #E2A340",
"Y  c #E3A340",
"T  c #E2A241",
"R  c #E3A241",
"E  c #E2A341",
"W  c #E3A341",
"Q  c #F59660",
"!  c #F49760",
"~  c #F59661",
"^  c #E4DC6A",
"/  c #E5DC6A",
"(  c #E4DD6A",
")  c #E5DD6A",
"_  c #E4DC6B",
"`  c #E5DC6B",
"'  c #E4DD6B",
"]  c #E5DD6B",
"[  c #4260A0",
"{  c #4360A0",
"}  c #4261A0",
"|  c #4361A0",
" . c #4260A1",
".. c #4360A1",
"X. c #4261A1",
"o. c #4361A1",
"O. c #5378C2",
"+. c #5279C2",
"@. c #5379C2",
"#. c #5378C3",
"$. c #5279C3",
"%. c #5379C3",
"&. c #ACACAC",
"*. c #ADACAC",
"=. c #ADADAC",
"-. c #ACACAD",
";. c #ADACAD",
":. c #ACADAD",
">. c gray68",
",. c #EAD684",
"<. c #EAD784",
"1. c #EBD784",
"2. c #EAD685",
"3. c #EBD685",
"4. c #EBD785",
"5. c #FAD886",
"6. c #FBD886",
"7. c #FAD986",
"8. c #FBD986",
"9. c #FAD887",
"0. c #FBD887",
"q. c #FAD987",
"w. c #FBD987",
"e. c #FFFFFE",
"r. c #FEFEFF",
"t. c #FFFEFF",
"y. c white",
/* pixels */
"$ $ $ % $ % = = $ $ $ $ $ $ $ & $ $ $ $ $ $ $ $ $ $ $ $ $ $ $ $ $ $ $ $ $ $ $ $ $ $ % $ $ $ $ $ $ $ $ $ = $ $ = $ $ $ $ $ $ $ $ $ $ $ $ $ $ ",
"$ $ $ $ $ $ $ $ $ $ $ $ = $ $ $ $ $ $ $ $ $ $ $ $ $ $ $ $ $ $ $ $ $ $ $ $ $ $ $ $ $ $ $ $ % $ $ % $ $ $ $ $ $ $ $ $ $ $ $ $ $ % $ $ $ $ $ $ ",
"$ $ $ $ $ $ $ $ $ = $ $ % $ $ $ $ $ % $ $ $ $ $ & = % & $ $ & $ $ $ $ $ $ $ $ $ $ $ $ $ $ $ = $ % $ $ $ $ $ & $ $ $ $ $ $ $ $ $ $ $ $ & ; $ ",
"$ $ $ $ $ $ = $ $ $ $ $ $ $ $ $ $ $ $ = $ $ $ $ = & $ $ $ $ $ $ $ $ $ $ $ $ $ $ $ $ $ & $ $ $ $ $ $ $ $ $ $ $ $ $ $ $ $ $ $ $ $ $ $ $ $ % $ ",
"$ $ $ $ $ $ $ $ $ $ $ $ $ $ $ $ $ $ $ $ $ $ $ $ $ $ $ $ $ = $ $ $ & & $ $ $ $ $ $ $ $ $ $ $ $ $ $ $ $ $ $ $ $ $ $ = $ $ $ $ $ % $ & $ $ $ $ ",
"$ $ $ $ $ $ $ $ $ $ % $ $ $ $ $ $ % $ $ $ $ $ $ $ % $ $ $ $ $ = $ $ $ $ $ $ = $ $ $ $ $ $ $ $ $ $ $ & $ % $ $ $ $ $ $ $ $ $ $ $ = $ $ $ $ $ ",
"= $ $ $ $ $ $ $ $ & $ $ $ $ $ $ $ $ $ $ $ $ & $ @ $ $ % $ $ $ $ $ $ $ $ $ $ $ $ $ % $ $ = $ $ $ $ $ $ $ $ $ $ % = $ $ $ $ $ $ $ $ $ % & $ $ ",
"$ $ $ $ $ $ $ $ $ $ $ $ $ & $ $ $ $ $ $ $ . $ X # . $ $ $ $ & $ $ $ $ $ $ $ $ $ $ = $ $ $ $ $ $ % & $ & $ $ $ $ $ $ $ $ $ $ $ $ $ $ % $ $ $ ",
"$ $ $ $ $ $ & $ $ = $ % $ $ $ & $ $ $ $ $ o O O # # O X X @ # $ $ $ $ $ $ $ $ $ $ $ $ $ $ $ $ $ $ $ $ $ $ $ $ $ $ $ $ $ % & $ $ $ $ = $ % $ ",
"$ $ $ & & $ $ $ $ $ $ $ $ $ % $ $ $ $ $ @ @ o # X O O X . # $ $ $ $ $ $ $ = $ $ $ $ $ $ $ $ $ $ $ $ $ $ % $ $ $ % $ $ $ & $ $ $ $ $ $ $ = $ ",
"$ $ $ $ $ $ $ $ $ $ $ $ $ $ $ $ $ $ $   + O X . # o #   # O o $ $ $ % $ $ $ = $ $ $ $ $ $ $ $ $ $ $ $ $ $ $ % = $ $ $ & $ $ $ $ $ $ $ $ $ $ ",
"= $ $ * $ $ $ $ $ $ $ $ % $ $ $ $ $ $ + o # + + + X     # +   O # $ $ $ $ $ $ = $ $ $ $ $ $ $ $ $ $ $ = $ $ $ $ $ $ $ $ $ $ = $ $ $ $ $ $ $ ",
"$ $ $ $ $ $ $ $ $ $ $ $ = & $ $ $ $ $ . #   # o M o o O o   # X $ $ $ $ $ $ $ $ $ $ $ $ $ $ $ $ $ $ $ $ $ $ $ $ $ $ = $ $ $ % $ $ $ $ $ $ % ",
"$ & $ $ $ $ $ & $ $ $ $ & * $ & $ & . O @ m o o W @ o X O @ X $ $ & $ $ $ = $ $ % $ $ $ $ $ $ $ $ $ $ $ $ $ $ $ $ $ $ $ $ $ $ $ $ & $ $ $ $ ",
"= $ $ & $ $ $ $ $ $ $ $ $ $ $ $ $ $ X @ + Y b   P o + n X c   @ % $ $ $ $ $ % $ $ $ $ $ $ $ $ $ $ $ $ $ $ $ $ $ $ $ = $ $ $ $ $ $ $ $ $ $ $ ",
"$ & $ $ $ $ $ $ $ $ $ $ $ $ $ $ $ $ . $ X U W X n ;.  E + 9.o O X $ $ $ o o @ @ + $ $ $ $ $ $ $ $ $ $ $ $ $ $ $ $ $ $ $ $ $ $ $ $ & & $ $ $ ",
"$ $ $ $ $ $ $ $ $ $ $ $ $ $ % $ $ $ $ $ X b E m X y.M 0.X I + o $ $ = X B S S L Z @ $ $ $ $ $ $ $ $ $ $ $ $ $ $ $ $ $ $ $ $ $ $ $ $ $ $ $ $ ",
"$ $ % $ $ $ $ $ $ $ $ $ $ % $ $ $ $ $ $ O @ U 0.. @ w.7.I + # $ $ $ @ Z D V S J F H @ $ $ $ $ $ $ $ $ $ $ $ $ $ $ $ $ $ $ $ $ $ $ $ $ & % $ ",
"$ $ $ % $ $ $ $ $ $ $ $ $ $ $ = $ $ $ $ % # 0.q.q.w.5.P @ @ . + # . #   O O + O # L N . $ $ $ $ $ $ $ $ $ $ $ $ $ $ $ $ $ $ $ $ $ $ $ $ $ = ",
"$ $ $ $ $ % % $ $ = $ = $ $ $ $ $ $ $ $ $ $ # :.r.e.Y + o 4.~ 4.+ + w.E U 0.5.w.P @ j X $ $ $ & $ % $ $ $ $ $ $ % $ $ $ $ $ $ $ $ $ $ $ $ $ ",
"$ $ $ $ $ $ $ $ $ $ % $ = $ $ $ & $ $ $ $ = = X R I @ n Y O <.O X q.I n R E R 6.7.. C + @ $ $ & $ $ $ $ $ $ $ $ $ $ $ $ $ $ $ $ $ $ & $ $ $ ",
"$ % $ $ $ $ $ $ $ $ $ $ $ $ % $ $ $ $ $ $ $ $ $ X . O R Y X o . o #   @ . + X E w.T X D _ + $ $ $ $ $ $ $ $ $ $ $ $ $ $ $ $ $ $ $ $ $ $ $ & ",
"$ $ $ $ $ $ $ $ & $ $ $ $ $ $ + O + + $ $ $ $ + 4 o . M 9.@     o # X . b M x o 6.q.# c A L   $ $ $ $ $ $ $ $ $ $ $ = $ $ $ $ $ = $ $ $ $ $ ",
"$ $ $ $ $ $ $ $ $ $ $ $ $ $   Y q.7.R . $ $ $ . 2   . k q.M O X 1.  + o @ +   O W 7.  + . O $ $ $ % $ % $ % $ $ $ $ $ $ $ % = & $ $ = $ $ $ ",
"$ $ $ $ $ $ $ $ $ $ $ $ $ @ R I P P m O $ $   m 4 :   T l h O 2.! <.# O + + @ . R 9.Y + $ $ $ $ $ $ & $ $ $ $ $ $ $ % $ $ $ $ $ $ $ $ $ $ $ ",
"$ $ $ $ $ $ $ $ $ $ $ $ $ @ 9.6.P X U w.. O M 2 # O @ O g c < . ,.. .     @ + X R w.7.X $ $ = $ % $ $ $ $ $ $ $ $ $ $ $ $ $ $ $ = $ $ $ $ $ ",
"$ $ $ $ $ $ $ $ $ $ $ % & @ 6.8.c   U P   x v @ $ $ # O c I 1 O + O # @ <.O   . R 5.5.# $ $ $ $ = $ $ $ $ $ $ $ $ $ $ $ = $ $ $ $ $ $ $ $ % ",
"$ $ % $ $ $ $ $ $ $ $ $ $ . P Y n . + : M b   $ % $ $ o X x W 2 o + X 3.Q 2.O E 9.8.0.T   $ & $ = $ $ $ $ $ $ $ $ = $ $ $ $ $ $ $ $ $ $ $ $ ",
"$ % $ $ $ $ $ $ $ $ $ $ $ + M n x O 2 1 3 X % $ $ $ $ $ $ X # v 3 # # X 3.# U 8.w.6.5.8.@ $ = $ $ $ $ $ $ $ $ $ $ $ $ $ $ $ $ & $ % $ $ $ $ ",
"$ $ $ $ $ $ $ $ $ $ $ $ $ $ X X # O , , o $ $ $ $ $ $ $ $ $ # X O 5 0 + .   0.n 0.q.7.5.X $ $ $ $ $ $ $ $ = % $ $ % $ $ $ $ $ $ $ $ $ $ $ = ",
"$ $ $ $ $ $ $ $ % $ $ $ $ $ $ $ $ $ @ @ $ $ $ $ $ $ $ & $ =   7 8 S _ G +   R M 6.5.w.9.O $ $ $ & $ $ $ $ $ $ $ $ % $ $ $ = $ $ = $ $ $ $ $ ",
"& $ $ $ $ $ $ $ $ $ $ $ $ $ $ $ $ $ $ $ $ $ $ $ $ $ $ $ $ $ $ + J F K 8 6   . b Y c U I @ .   . $ $ $ $ $ $ % $ $ $ $ $ $ $ $ $ & $ $ $ $ $ ",
"$ $ = $ $ $ $ $ $ $ & = $ $ = $ $ $ = = $ $ $ $ $ = % $ $ $ $ $ @ o @ %.} { @ o + R x . ] ^ ) F o . $ $ $ $ $ $ $ $ = * $ $ $ $ $ $ $ & $ $ ",
"$ $ $ $ $ $ $ = $ $ $ $ $ $ $ $ $ $ $ $ $ $ $ $ $ $ $ $ $ % $ + ..O.{ o. ...... $ # # 8 7 5 S ( / L o $ $ $ = $ $ $ $ $ $ & $ $ $ $ $ $ $ $ ",
"$ $ $ $ $ $ $ $ $ = $ $ $ $ $ $ $ $ $ $ $ $ $ $ $ $ $ $ $ $ @ o X.[ #.| | |  .e # . # G S K 9 7 F ` X $ $ % $ $ $ $ $ $ = $ $ $ % $ $ % $ % ",
"$ $ % $ $ $ $ $ $ $ $ $ $ $ $ $ $ % $ $ $ $ $ $ $ $ $ $ $ . + } $.o.} } [ e i i u # $ o o   @ 6 5 J ' O $ $ ; $ $ $ $ $ $ $ $ $ $ $ $ $ $ $ ",
"& $ $ $ $ $ $ $ $ $ $ $ $ $ $ $ $ & $ $ $ $ $ $ $ $ $ $ .  .@.+.o.o.| X.e # r e { t   $ $ $ $ o   O ' O $ $ $ $ $ $ & $ $ $ $ $ $ $ $ $ & $ ",
"$ $ $ $ $ $ $ $ & $ $ $ $ $ $ & = $ $ $ $ $ $ $ $ $ @ . { @.#.| } | u y # r w  .e | O & $ $ $ $ $ $ # # $ $ $ $ $ $ $ $ $ $ $ = $ $ $ $ $ $ ",
"$ $ $ $ $ $ $ $ $ $ $ $ $ $ $ $ $ $ $ $ $ $ $ % # @ X.{ #.{ | ....r @ # $ O w u y [ } X & $ $ $ $ $ $ $ & $ $ $ $ $ $ $ $ $ $ $ $ $ $ $ $ $ ",
"$ $ $ $ $ $ $ $ $ $ $ $ $ $ $ $ $ $ $ $ $ & $ @ y.y.| X.o.X.X.e e o $ $ $ & @ w e e  .X.X o @ $ $ $ $ $ $ $ $ $ % $ $ $ $ $ $ $ $ $ $ $ $ $ ",
"$ % $ $ $ $ $ $ $ $ $ $ $ $ $ $ $ & $ $ $ $ $ @ *.-.y.y.t.*.e u + % $ $ $ $ $   y y y { q *.d   $ $ $ & $ $ & $ $ $ $ $ $ $ $ $ $ $ $ % $ $ ",
"% $ $ $ $ $ $ = $ $ $ $ = $ $ $ $ = = $ & $ $ o z n c z =.-.&.O $ $ $ = $ $ $ X i u q r >.;.f . $ $ $ $ $ $ $ $ $ $ $ $ $ = $ $ % % $ $ $ % ",
"$ $ $ $ $ $ $ $ $ $ % $ $ $ $ $ % $ $ $ $ $ $ +   m I U z M   # $ $ $ $ $ $ $ $ @ q r ;.;.a o $ % $ $ $ % $ $ $ $ $ $ $ $ $ $ $ $ $ $ $ $ $ ",
"$ $ % $ $ $ $ $ $ $ $ $ $ & & $ $ $ $ $ $ $ $ $ $ O   M P W M @ $ $ $ $ $ $ $ $ $ o s &.p @ O $ $ $ $ $ $ $ $ $ $ $ $ $ $ $ $ $ $ $ % $ $ $ ",
"$ $ $ $ % = $ $ $ $ $ $ $ $ $ $ $ $ $ & $ $ $ $ $ $ $ O O v P U + $ $ $ $ $ $ $ $ O d p + : v o $ $ $ $ $ $ $ $ $ $ $ $ $ $ $ $ $ $ $ $ $ $ ",
"% $ $ $ $ $ & $ $ $ $ % $ $ $ $ $ $ $ $ % $ & $ $ $ $ $ $ . @ E 5.  $ $ $ $ $ $ & $ @ o . < x x + $ $ $ & $ $ $ $ $ $ $ $ $ $ $ $ $ % $ $ = ",
"$ $ $ $ $ $ $ $ $ $ $ $ $ $ & $ $ $ $ $ $ $ $ $ $ $ $ $ $ % $ o Y P .   * $ $ $ $ $ $ $ $ # > m > X $ $ $ $ $ $ = $ $ $ $ $ $ $ $ $ $ $ $ $ ",
"$ $ $ $ $ $ $ $ $ $ % $ $ $ $ % $ $ $ $ $ $ $ = $ $ $ $ $ $ $ $ X E 9.U . O $ $ $ $ $ % $ $ . 2 v @ $ $ $ = $ $ $ $ $ $ & $ $ $ $ $ $ $ $ $ ",
"$ $ $ $ $ $ $ $ $ $ $ $ $ $ & $ $ $ $ $ $ = % $ $ $ $ $ $ $ $ $ @ T U P T @ X $ $ $ $ $ $ $ $ # < c + $ $ $ $ $ = $ $ $ $ $ $ $ $ $ $ $ $ $ ",
"$ $ $ $ $ $ & $ $ $ $ $ $ $ $ $ $ $ $ $ $ $ $ $ $ $ $ = $ $ $   U w.T I x . + $ $ $ $ $ $ $ $ $   > m X $ $ $ $ $ $ $ $ = $ $ $ $ $ $ & $ $ ",
"& $ $ $ $ $ $ $ $ $ $ $ $ $ $ $ % $ $ $ % $ $ $ $ $ $ % $ $ O @ @ #   b o O $ $ $ $ $ $ $ $ $ $ $ # z M + @   O $ $ $ & = $ $ $ $ $ $ $ $ $ ",
"$ $ $ & $ $ $ $ % $ $ $ $ $ % $ $ $ $ = $ $ $ $ $ $ $ & $ # E @ R 0.Y + @ $ $ $ = $ $ $ $ $ $ $ $ X z b b n + X $ $ $ $ $ $ & $ % % $ $ % $ ",
"$ $ $ $ $ $ $ $ $ $ $ % $ $ $ $ % $ $ $ & $ $ $ $ $ $ $ . 5.X 9.0.I .   $ $ $ $ $ $ $ $ $ $ & $ $ X U M z m X X $ $ $ $ $ $ $ % $ $ & $ $ $ ",
"$ $ $ $ = $ $ = $ $ $ $ $ = = $ $ $ % $ $ $ $ $ $ $ $ $ O Y O U E   o $ & $ $ $ $ $ $ $ $ % + . X I m m x   @ & $ $ $ $ $ = $ $ $ $ $ $ $ $ ",
"$ $ $ $ $ $ $ $ $ $ $ $ $ $ $ $ $ $ % $ $ $ $ $ $ $ $ = $ + @ # O   $ $ $ $ $ $ $ $ $ $ $ O R T . o b v X   $ & $ $ % $ $ % $ $ $ $ $ & $ $ ",
"$ $ $ $ $ $ $ $ $ $ & $ $ $ $ $ % $ $ $ $ $ $ $ $ $ $ $ $ $ $ $ % $ $ $ $ $ $ $ $ $ % $ $ # b z c b O # + % $ $ $ $ $ $ $ $ $ $ $ % $ $ $ $ ",
"$ $ $ $ $ $ $ $ $ $ $ $ $ $ $ $ $ $ $ $ $ $ $ $ $ $ $ $ $ $ $ $ $ % $ $ $ $ $ $ $ $ $ $ $ $ O   # O   $ % $ $ $ $ $ $ $ $ $ $ $ $ $ $ $ & $ ",
"& $ $ $ $ $ $ $ $ = $ $ $ ; $ $ $ $ = $ $ $ $ $ $ $ $ $ $ $ $ $ $ $ $ $ $ $ $ $ $ $ * $ % $ $ $ $ $ % $ $ $ $ $ $ $ $ $ $ $ $ $ $ $ $ $ $ $ ",
"$ $ $ & $ $ $ $ $ $ $ $ $ $ $ $ $ $ $ % $ $ $ $ $ $ $ $ $ $ * $ $ $ $ $ $ $ $ $ $ $ $ & $ $ $ $ $ % $ $ $ $ $ $ $ & $ $ $ $ $ $ $ $ $ & $ $ ",
"$ $ $ = $ $ $ $ $ $ $ $ $ & $ $ $ $ $ $ $ $ $ $ $ % $ $ $ $ $ & $ $ $ $ $ $ $ $ $ $ $ $ $ $ $ $ & $ $ $ $ $ $ $ $ $ $ $ $ $ $ & $ $ $ % $ $ ",
"$ $ = $ $ $ $ $ $ $ $ $ $ % $ $ $ $ $ $ $ $ $ $ $ $ % $ $ $ $ $ $ $ $ $ $ $ $ $ & $ $ $ $ & $ $ $ $ ; $ = $ $ $ $ $ $ $ $ $ $ $ $ $ $ $ $ $ ",
"$ $ $ $ $ $ ; $ = $ $ $ $ $ $ $ % $ $ $ $ $ $ $ $ $ $ $ $ $ = $ $ $ $ $ $ $ $ $ $ $ % $ $ $ $ $ $ $ $ $ $ $ $ $ $ $ $ $ $ $ $ & $ $ $ $ $ $ ",
"$ $ $ $ $ % $ $ $ $ $ $ $ $ = $ $ $ $ $ $ $ $ $ $ $ $ $ $ $ $ $ $ $ $ $ $ $ $ $ $ $ $ $ $ $ $ $ $ $ $ $ $ $ = $ $ $ $ $ $ $ $ $ $ $ $ * $ $ ",
"$ $ $ $ $ $ $ $ $ % & & $ $ $ $ $ $ $ $ $ $ $ $ $ $ $ $ $ & $ $ $ $ $ $ $ $ & $ = $ $ $ % $ $ $ $ $ $ $ $ $ $ $ $ $ $ $ $ $ $ $ $ $ $ $ $ $ ",
"$ & $ & $ $ % $ $ % $ $ $ $ $ $ $ $ $ $ $ $ $ $ $ $ $ $ $ $ $ % % & $ $ $ & $ * $ $ $ $ $ $ $ = $ $ $ $ $ $ $ $ $ = $ $ & $ $ $ $ $ $ $ $ $ ",
"$ $ $ $ = $ $ $ $ $ $ $ $ $ $ $ $ $ $ $ $ - $ $ $ $ $ $ $ $ $ = $ $ $ $ $ $ $ $ $ $ $ $ $ $ $ $ $ $ = $ $ $ $ = $ $ $ $ $ $ $ $ $ $ $ $ $ $ ",
"$ $ $ $ = $ $ $ $ $ $ $ $ $ $ $ $ $ $ $ $ $ $ $ $ $ $ $ $ $ $ $ $ $ $ $ $ % $ $ & $ $ $ $ $ $ $ $ $ $ $ = $ $ $ $ $ $ $ $ $ = $ $ $ $ $ $ $ ",
"$ $ $ $ $ $ $ $ $ $ $ $ $ $ $ & $ $ $ & $ % $ $ $ $ $ $ $ $ $ $ $ $ $ $ % $ $ $ $ $ $ $ $ $ $ $ % $ $ % $ $ $ $ $ $ $ $ $ $ $ = $ $ $ $ $ $ ",
"$ $ $ $ $ $ $ % $ $ % $ % $ $ $ $ $ $ $ $ $ $ $ % & $ $ $ $ $ $ $ $ $ $ $ % $ $ $ $ $ $ $ $ $ $ $ $ $ $ $ $ $ = $ $ $ $ $ = $ $ $ $ $ $ $ $ ",
"$ $ $ $ $ % $ $ $ $ $ $ $ $ $ $ $ $ & $ $ $ % $ $ $ $ $ $ $ $ $ $ $ % $ $ $ $ $ $ $ $ $ $ $ $ $ $ $ $ $ $ $ $ $ $ $ $ $ $ $ $ $ $ $ $ $ $ $ "
};
