/* XPM */
static char *result[] = {
/* columns rows colors chars-per-pixel */
"70 70 123 2 ",
"   c black",
".  c #010000",
"X  c #000100",
"o  c #010100",
"O  c #000001",
"+  c #010001",
"@  c #000101",
"#  c #010101",
"$  c #181A24",
"%  c #191A24",
"&  c #181B24",
"*  c #191B24",
"=  c #181A25",
"-  c #191A25",
";  c #181B25",
":  c #661804",
">  c #671804",
",  c #661904",
"<  c #671904",
"1  c #661805",
"2  c #671805",
"3  c #661905",
"4  c #671905",
"5  c #223658",
"6  c #233658",
"7  c #223758",
"8  c #233758",
"9  c #223659",
"0  c #233659",
"q  c #223759",
"w  c #233759",
"e  c #6D6C6C",
"r  c #6D6D6C",
"t  c #6D6C6D",
"y  c #6C6D6D",
"u  c #902526",
"i  c #912526",
"p  c #902427",
"a  c #912427",
"s  c #902527",
"d  c #912527",
"f  c #94581C",
"g  c #95581C",
"h  c #94591C",
"j  c #95591C",
"k  c #94581D",
"l  c #95581D",
"z  c #94591D",
"x  c #95591D",
"c  c #94842C",
"v  c #95842C",
"b  c #95852C",
"n  c #94842D",
"m  c #95842D",
"M  c #94852D",
"N  c #95852D",
"B  c #C0B24A",
"V  c #C1B24A",
"C  c #C0B34A",
"Z  c #C1B34A",
"A  c #C0B24B",
"S  c #C1B24B",
"D  c #C0B34B",
"F  c #C1B34B",
"G  c #E2A040",
"H  c #E3A040",
"J  c #E2A140",
"K  c #E3A140",
"L  c #E2A041",
"P  c #E3A041",
"I  c #E2A141",
"U  c #E3A141",
"Y  c #F29861",
"T  c #F29961",
"R  c #F39961",
"E  c #E2DA6A",
"W  c #E3DA6A",
"Q  c #E3DB6A",
"!  c #E2DA6B",
"~  c #E3DA6B",
"^  c #E2DB6B",
"/  c #E3DB6B",
"(  c #4262A0",
")  c #4362A0",
"_  c #4263A0",
"`  c #4363A0",
"'  c #4262A1",
"]  c #4362A1",
"[  c #4263A1",
"{  c #4363A1",
"}  c #527AC2",
"|  c #537AC2",
" . c #527BC2",
".. c #537BC2",
"X. c #527AC3",
"o. c #537AC3",
"O. c #537BC3",
"+. c #ACACAC",
"@. c #ADACAC",
"#. c #ACADAC",
"$. c #ADADAC",
"%. c #ACACAD",
"&. c #ACADAD",
"*. c #EAD684",
"=. c #EBD684",
"-. c #EAD784",
";. c #EBD784",
":. c #EAD685",
">. c #EBD685",
",. c #EAD785",
"<. c #EBD785",
"1. c #F8D686",
"2. c #F9D686",
"3. c #F8D786",
"4. c #F9D786",
"5. c #F8D687",
"6. c #F9D687",
"7. c #F8D787",
"8. c #F9D787",
"9. c #FEFEFE",
"0. c #FFFEFE",
"q. c #FEFEFF",
"w. c #FEFFFF",
/* pixels */
"$ $ $ $ $ $ $ $ $ $ $ = $ $ $ $ $ $ $ $ $ $ $ $ $ $ $ $ $ $ $ $ $ $ $ $ $ $ $ & $ $ $ $ & $ $ $ $ $ $ = $ $ $ $ $ & $ $ = $ $ $ = $ % $ $ $ ",
"$ $ $ $ $ $ $ & $ $ $ $ $ $ $ = $ $ $ $ $ $ $ $ $ $ $ $ = $ $ $ $ % $ $ $ $ $ $ $ $ $ $ $ $ & $ $ $ $ $ % $ $ % $ $ $ $ $ $ $ $ $ $ $ $ $ $ ",
"$ $ $ $ $ = $ $ = $ $ $ $ $ = $ $ $ $ $ $ $ $ $ $ $ $ $ $ $ $ $ $ $ $ $ $ $ $ $ $ % $ $ $ $ $ $ $ $ $ $ $ $ $ $ $ $ $ $ $ $ = $ $ & $ $ = $ ",
"$ $ $ $ $ $ $ $ = $ $ $ $ $ $ = $ $ $ $ $ $ $ $ $ $ % $ $ % $ $ $ $ $ $ $ $ $ $ $ $ $ $ $ $ $ $ & $ $ $ $ $ $ $ = $ $ $ $ $ $ $ $ $ $ $ $ $ ",
"$ $ $ $ $ $ $ $ $ $ % $ & $ $ $ $ $ $ $ $ $ $ $ $ $ $ $ $ $ $ $ $ $ $ $ $ $ $ $ $ $ = $ $ $ $ $ $ = = % = $ $ $ $ $ $ $ $ $ $ $ $ $ $ $ $ $ ",
"$ $ $ $ $ $ $ $ $ $ & $ $ $ $ % $ % $ $ $ $ $ $ $ % $ $ $ $ $ $ $ $ % $ $ $ $ $ $ $ $ & $ $ $ $ $ $ $ $ = $ $ $ $ $ $ $ % = $ $ $ $ $ $ $ $ ",
"$ % $ $ $ $ $ $ $ = $ % $ $ $ $ $ $ $ $ $ % $ $ $ $ $ $ $ $ $ $ $ $ & $ $ $ $ $ $ $ $ $ % $ % $ $ $ $ $ $ $ $ $ $ $ $ $ $ $ $ $ $ $ $ $ $ $ ",
"$ $ $ $ $ $ $ $ $ $ $ $ $ = $ $ $ & $ $ $ = % $ = $ $ $ $ $ = $ $ $ $ $ $ $ $ $ $ $ $ & $ $ $ $ $ $ $ $ $ $ $ $ $ $ $ $ $ $ $ & $ $ $ $ % $ ",
"$ $ $ $ $ $ $ $ $ $ $ $ $ $ $ $ $ $ $ $ $ . $ $       = = $ $ & $ = $ $ $ $ $ $ $ $ $ $ $ $ $ $ $ $ $ $ & $ $ $ $ & $ $ $ $ $ $ $ $ $ $ $ = ",
"$ $ $ $ = $ $ $ % % $ $ $ $ $ $ $ $ $ $ o $ @ . X # $ $ $ $ $ $ $ $ $ $ $ $ $ $ $ $ $ $ $ $ $ $ $ $ $ $ $ $ $ $ = $ $ $ $ $ $ $ $ & $ $ $ $ ",
"$ $ $ $ $ = $ $ $ $ $ $ $ $ $ $ $ $ $ $ o O   @ O   @ . . $ $ $ $ $ % $ $ $ $ $ $ $ $ $ $ $ $ $ $ % $ $ $ $ % $ $ $ $ $ $ $ $ $ $ $ & $ $ $ ",
"$ $ $ $ $ $ $ & $ $ $ $ $ $ $ $ $ $ $ # #   + O O @ X o # @ O % $ $ $ $ $ $ $ $ $ $ $ $ $ $ $ $ $ $ $ $ $ $ $ $ $ $ $ $ $ $ $ $ $ $ $ $ $ $ ",
"$ $ $ $ $ $ % $ $ $ $ $ $ = $ $ $ $ $     @ X # + . O   o X O . $ $ $ $ $ $ $ & $ $ $ $ $ $ $ $ = $ $ & $ $ $ $ $ $ $ $ $ $ $ $ $ $ $ $ & $ ",
"& $ & $ $ $ $ $ $ $ $ $ $ % $ $ $ $ $ o o # . o @   O # X O $ $ $ $ $ $ $ $ & $ $ $ $ $ $ % $ $ $ $ $ $ $ $ $ $ $ $ $ $ $ & $ $ $ $ $ $ $ $ ",
"$ $ $ $ $ $ $ $ $ $ $ $ $ $ $ $ $ $ + X o @ o z o @ @ . @   # $ $ $ $ $ $ $ $ $ $ $ $ $ & $ $ $ $ $ $ $ $ $ $ $ ; $ $ $ & $ $ $ $ $ $ $ $ $ ",
"$ $ $ $ $ $ $ $ $ $ % $ $ $ $ $ $ $ # + k # O H # O . . @ O O   = $ $ $ $ $ $ $ $ $ % $ $ $ $ $ $ $ $ $ $ $ $ $ $ $ = $ $ $ $ $ $ $ $ $ $ $ ",
"$ % $ $ $ $ $ & $ $ $ $ $ $ $ $ $ $ + O U g . H z . j @ j X # . X $ $ X     @ . o $ $ % $ $ $ $ $ $ $ $ $ $ $ $ $ $ $ $ $ $ $ $ = % $ $ $ & ",
"$ $ $ $ $ $ $ $ & % $ $ $ % $ $ $ $ $ # U J . g #.# L X 3.# + $ $ $   c @ o @ B C . $ $ $ = $ $ $ $ $ $ $ $ $ $ $ $ $ $ $ $ $ = $ $ & $ $ $ ",
"$ % $ $ = $ $ $ $ $ $ $ $ $ $ $ $ $ $ # x L f o 9.k 3.  I . O O $ X o + H 2.7.  @ D . $ $ $ $ $ $ $ $ $ $ $ $ $ $ $ $ $ $ $ $ $ $ $ $ $ $ $ ",
"$ $ $ $ $ $ $ $ $ $ $ $ & $ % $ $ $ $ $   U 4.. X 8.1.G # X @ . + P 1.2.7.K 4.6.H O . $ $ $ $ $ & $ $ $ $ $ $ $ $ $ $ $ $ $ $ $ $ $ $ $ $ $ ",
"= $ $ $ = $ $ $ $ $ $ $ $ $ & $ $ $ $ $ @ 8.4.5.3.8.H @ # o   # @ K J z   @ H 1.3.H + o     $ $ $ $ $ $ = $ $ $ $ $ $ $ $ $ $ $ $ $ $ $ $ % ",
"$ % $ $ $ $ $ $ $ $ = $ $ $ $ $ $ $ $ $ $ o P 9.9.+.# l o O # <.X h # @ v N @ . I 7.G # F ^ + $ $ $ $ $ $ $ $ $ $ $ $ $ $ $ $ % $ $ $ $ $ $ ",
"$ $ $ $ $ $ $ $ $ $ $ = $ $ * $ $ $ $ $ $ $ # I H @ f K O + *.R *.+ @ + h g x x @ P 2.H X N A O $ $ $ $ $ $ $ $ $ $ $ $ $ $ $ $ = $ $ $ $ $ ",
"$ $ $ $ $ $ $ $ $ $ & $ $ $ $ $ $ $ % = $ $ $ o   #   K L # X ,.    X o + + + j k # K 5.K o . @ $ $ $ $ $ $ $ $ $ $ $ $ $ $ $ % $ $ $ $ $ $ ",
"$ $ $ $ % $ $ $ $ $ $ $ $ $ $ $ $ = $ & $ $ $ $ $ O . f 3.I @ O X o # X :.# O o # @ @ H 3.8.2.L X $ $ $ $ $ $ $ $ $ $ = $ $ $ $ $ $ $ $ $ $ ",
"$ $ $ $ $ $ $ $ $ $ $ $ $ $ $ $ $ $ $ $ $ $ $ $ . o @   1.U i O o o X ,.T ;.# X o O O P 7.5.5.4.J + $ $ $ $ $ $ $ $ $ $ $ = $ $ $ $ $ $ $ $ ",
"$ $ = = $ $ $ $ % $ $ $ % $ $ $ $ $ $ $ $ $ $   j g + . u U s : o # @ + -.# X   O @ # 1.8.6.1.4.7.O & $ $ $ & $ $ $ $ $ $ % $ & $ $ $ $ $ $ ",
"= $ $ = $ $ $ & $ $ $ $ $ $ o . O + $ $ $ $ $   f < @ . h p d x 2 1 . O + # + O -.o + 8.U 6.1.U J X $ $ $ $ $ $ $ $ % $ $ $ $ $ $ $ % $ $ $ ",
"$ $ $ $ $ $ $ $ $ $ $ $ $   I 6.U G # $ $ $ + 1 l 2 @ @ O d h a g d 4 1 X + # =.Y =.# 2.l P 7.z # $ $ $ $ $ $ $ $ & $ $ $ $ $ $ $ $ $ $ $ $ ",
"$ $ $ $ $ $ $ $ $ $ $ $ $ O 6.8.h @ 5.O $ $ @ k > + $ # + o l h f h j 3 n O X X >.. + X 5.f U # $ $ $ $ $ $ $ $ $ $ $ $ $ = $ $ % $ & $ $ $ ",
"$ $ $ $ $ = $ $ $ $ $ $ @ 8.G 8.@ 7.I O $   4 f + $ $ % $ X @ O < j c ! ! S b . O # . O . X + $ $ $ $ $ $ $ $ $ $ $ $ $ $ $ $ $ $ $ $ $ $ % ",
"$ $ $ % $ $ = $ $ $ $ $   L 5.j X G o . X   k , @ $ $ = $ $ $ X . D F n n N . O X m b O + @ $ $ $ $ $ $ $ $ $ & $ $ & $ % $ $ $ $ = $ $ $ $ ",
"$ $ $ $ % $ $ $ $ $ $ $ @ h J z @ : h > , , x . $ $ $ $ $ $ $ $ $ O ^ D # + 8 q @ N D ~ V v O   . O   O $ & $ $ $ $ $ $ $ & $ $ $ $ & = $ = ",
"$ $ $ % $ $ $ $ $ $ $ $ $ X j < < : h k h h 1 o $ $ $ $ $ $ $ $ $ O n ' .. .' _ X # M Z E E S V ~ ~ Q D X $ $ $ $ $ $ $ $ $ $ $ = & $ $ $ $ ",
"$ $ $ & $ $ $ = $ $ $ $ $ $ + + . . : 3 < 2 X $ $ $ $ $ $ $ $ $ $ X ` ..O.| o.) ] O O o M V / ! C m c n c . $ $ $ $ $ $ $ $ $ $ $ $ $ $ $ $ ",
"$ $ $ $ $ $ $ $ $ $ $ $ $ $ $ $ $ $ . . X O $ $ $ $ $ $ $ $ $ $ $ @ ' { )  .} ` [ 6 o $   O b C / ~ W ^ E o $ $ $ $ $ $ $ $ % = $ $ & $ $ % ",
"$ $ % $ $ = $ $ $ $ $ $ $ $ $ $ $ $ $ $ $ $ = $ $ = $ $ $ $ $ $   ) X.} [ ` ' { 5 5 X $ $ $ O X o # + O O   $ $ $ $ $ $ $ $ $ $ $ $ $ & $ $ ",
"$ = $ & $ $ $ $ $ $ % $ & $ = $ $ & $ $ $ $ $ $ $ $ $ $ $ $ & . ` ( { w w 0 9 5 8 5 q + $ $ $ = $ $ $ $ $ $ $ $ = $ $ $ & $ $ $ $ $ $ $ $ $ ",
"$ $ $ $ $ $ $ $ $ $ $ $ $ $ $ $ $ $ $ $ $ $ $ $ $ $ $ = $ #   ) X. .( ( 6 w 5 6 7 [ 5   $ $ $ $ $ $ $ $ $ $ $ $ $ $ - = $ $ $ $ $ $ $ $ $ $ ",
"$ $ $ $ $ $ $ $ $ $ $ $ & $ $ $ $ $ $ $ $ $ $ $ $ $ $ $ @ ' _  .O.[ ] w 7 . @ 0 7 { q 5 o $ $ $ $ $ $ $ $ $ $ $ $ $ $ $ $ $ $ $ $ $ $ $ $ $ ",
"$ $ $ $ $ $ $ $ $ $ $ = $ $ & $ $ $ $ $ $ $ $ $ $ $   X [ ..o.X.' ( w @ O $ $ # q 0 ) 9 @ $ $ $ % $ $ $ $ $ $ $ = $ $ % $ $ $ $ $ & $ $ $ $ ",
"$ $ $ $ $ $ $ $ $ $ $ $ $ $ $ $ $ $ $ $ $ $ $ $ $   q.#.] X.) ' { 5 . $ $ $ $ # w 9 ] 9 q   @ @ $ $ % $ $ = $ $ $ $ $ & % $ $ $ $ $ $ $ $ $ ",
"$ $ $ $ % $ $ $ & $ % $ $ & $ $ $ $ $ $ $ $ $ $ $ + #.w.$.] ) ] 9 X $ % & $ $ $ @ 7 5 ( q @.$.. $ $ $ $ $ $ $ $ $ $ $ $ $ $ $ $ $ = $ $ $ $ ",
"$ $ $ $ $ $ $ $ $ $ $ & $ $ = $ $ $ $ $ & $ $ $ $   g %.w.@._ 5 . $ $ $ $ $ $ $ o 6 7 5 %.&.e . O . @ $ $ $ @     X $ $ $ $ $ $ $ $ $ = $ $ ",
"$ $ $ $ $ $ $ $ = $ $ $ $ $ $ $ $ $ $ $ $ $ $ $ o k z h @.0.@.@ $ $ $ $ $ * $ $ $ . q +.&.y : > g j 2 o o o 4 z P O . $ $ $ $ $ $ $ $ $ $ $ ",
"$ $ $ $ $ $ $ $ $ $ $ $ $ $ $ $ $ $ $ $ & $ $ O 3.8.I z g @.@.. $ $ $ $ $ $ $ $ $ + @.%.e 2 > k j g h x g f k g g g @ $ $ $ $ $ $ $ $ $ $ $ ",
"$ $ $ $ $ $ $ $ $ $ $ $ $ $ $ $ $ $ $ $ $ $ . 7.1.I z @ # X . $ $ $ $ $ $ $ $ $ $ o r t #   . O o   . o O @ @ k j g . # = & $ $ $ $ $ $ = $ ",
"$ $ $ $ $ $ $ $ $ $ $ @ # $ $ $ $ $ $ $ $   1.1.J f O $ $ $ % $ $ $ $ $ $ $ $ $ $ # + @ $ $ $ $ $ = $ $ $ $ + > l k f O $ $ $ $ $ $ $ $ $ $ ",
"$ $ $ $ $ $ $ $ $ $ # G 8.  $ $ $ $ $ $ # 3.3.I @ O $ $ $ & $ $ $ $ $ = $ $ $ % $ % $ $ $ $ $ $ $ $ $ $ $ $ $ o : f f X # $ $ $ $ & = $ $ $ ",
"$ $ $ $ $ $ $ = $ $ o z o + O $ $ $ #   7.I z . $ $ $ $ $ $ $ $ $ $ & $ $ $ $ $ $ $ $ $ $ = $ $ $ $ $ $ $ $ $ $ # l # f # $ $ $ $ $ $ $ $ $ ",
"$ & $ $ $ $ $ $ % $ @ # J 7.J o . X K 2.J O O $ $ $ $ $ $ % % $ $ % $ $ $ $ $ $ $ $ $ $ $ $ $ $ $ $ & $ $ $ $ & $ . O l o $ $ $ $ $ $ $ % $ ",
"$ $ $ $ $ $ $ $ $ $ & . # H 7.O 1.2.2.K # $ $ $ % $ $ $ $ & $ $ % $ $ $ $ $ $ $ $ $ $ $ $ % $ $ $ $ $ $ $ $ $ = $   l f o $ $ $ $ % $ $ $ $ ",
"$ & $ $ $ $ $ $ $ $ $ $ . + I o 5.5.J @ $ $ $ $ $ $ $ $ $ $ $ $ $ = % $ $ $ $ % $ $ $ $ $ $ % $ $ $ $ $ % $ % $ $ # j z o $ $ $ $ $ $ $ $ $ ",
"= $ $ $ $ & $ = $ $ $ $ $ @ # K 1.K J o $ $ $ = $ $ $ $ $ $ $ % $ $ $ $ $ $ $ $ $ $ $ $ $ $ $ $ $ $ $ $ $ $ $ $ $ & X   % $ % $ $ $ $ $ $ $ ",
"$ $ $ & $ $ $ $ $ $ $ $ $ $ O . I J @ $ $ $ $ $ $ $ $ $ $ $ $ $ % $ $ $ $ $ $ % $ $ $ $ $ $ $ $ $ $ $ $ $ % % $ $ $ $ $ $ $ $ $ $ $ $ $ = $ ",
"$ = $ $ $ $ $ $ $ $ $ $ $ $ $ . X O # $ $ $ $ $ $ $ $ $ $ = $ $ $ $ $ $ $ $ & $ $ = $ $ $ $ $ $ $ $ $ = $ $ $ $ $ $ $ & $ $ $ $ $ $ $ = $ $ ",
"$ $ $ $ $ $ $ $ $ $ $ $ $ $ $ $ # O $ $ & $ $ $ $ $ $ $ $ $ $ $ $ $ $ $ $ $ $ $ $ = $ $ & $ $ $ $ $ $ $ $ $ $ $ $ = $ $ $ $ $ $ $ $ $ % $ $ ",
"$ $ $ $ $ $ $ $ $ $ $ $ $ $ $ % & $ $ $ $ $ $ $ * $ $ $ $ $ & $ $ $ $ $ $ $ $ $ $ $ $ $ $ $ = $ $ $ $ $ $ $ $ $ $ $ $ $ $ $ $ $ $ $ $ $ $ $ ",
"= $ $ $ = $ $ $ $ = $ $ $ $ $ $ $ $ & $ $ $ $ = $ $ $ $ $ $ $ $ $ $ $ $ $ $ $ $ $ $ $ $ $ $ $ $ $ $ $ $ $ $ $ $ $ $ $ $ $ $ $ $ $ % $ $ $ $ ",
"$ $ $ & $ $ $ $ $ $ $ $ $ $ $ $ $ $ $ $ $ $ $ $ $ = $ $ $ $ % $ $ $ $ $ $ $ % $ $ $ $ $ $ $ $ $ $ $ $ $ $ $ $ $ $ $ $ $ $ $ $ $ $ $ $ $ $ $ ",
"$ $ & $ $ $ & $ $ $ $ $ $ $ $ $ $ $ $ $ $ $ $ & $ $ $ $ $ $ $ $ $ $ $ $ $ $ $ $ $ $ $ $ $ $ $ $ $ $ $ $ $ $ $ $ $ $ $ $ $ $ $ $ $ $ $ $ $ $ ",
"$ $ $ & $ $ $ $ $ $ $ = $ $ $ $ $ $ $ $ $ $ $ $ $ $ $ $ % $ $ $ $ $ = $ $ $ $ $ $ $ $ $ $ $ $ $ $ $ $ $ $ $ $ $ $ $ $ $ $ % $ $ $ $ $ % $ $ ",
"$ $ $ & $ $ $ $ $ $ $ % $ $ $ $ $ $ $ $ & = $ $ $ $ $ $ $ = $ $ $ $ $ $ $ $ $ $ $ $ $ $ $ $ $ $ $ $ $ & $ $ $ $ $ $ $ $ $ $ $ $ $ $ $ $ $ $ ",
"$ $ $ $ $ $ $ $ % & $ $ $ $ $ $ $ $ $ $ $ $ & = $ = $ % $ $ $ $ $ % $ $ $ $ $ $ & ; $ $ $ $ $ $ $ % $ $ $ $ $ $ $ $ $ $ $ $ $ $ $ $ $ $ & $ ",
"$ $ $ $ $ $ $ $ $ $ % $ % $ $ $ $ $ $ $ $ $ $ $ $ $ % $ $ $ $ $ $ $ $ $ $ $ $ $ $ $ $ = $ $ $ $ % $ $ $ = $ $ $ $ $ $ $ $ $ % = $ $ $ $ $ $ ",
"$ $ $ $ $ $ $ $ $ $ $ $ $ $ $ $ $ $ & $ $ $ $ & $ $ $ $ $ $ $ $ $ $ $ $ $ $ $ = = $ $ $ $ $ $ $ $ $ $ $ $ $ $ $ $ $ $ $ $ $ $ $ $ $ $ $ $ $ ",
"$ $ $ $ $ $ $ $ $ $ $ $ % % $ = $ $ $ $ = $ $ $ $ $ $ $ = $ $ $ $ $ $ $ $ $ $ $ $ $ $ $ $ = $ $ $ $ $ $ $ $ $ $ $ $ $ & $ $ $ $ $ $ $ $ $ $ ",
"$ $ $ $ $ $ $ $ $ $ $ $ $ & $ $ $ $ $ $ $ $ $ $ $ $ & $ $ $ $ $ $ $ $ $ $ $ $ $ $ $ $ $ $ $ $ $ $ $ $ $ $ $ $ $ $ $ $ $ $ $ $ $ $ $ $ $ $ $ ",
"$ $ $ $ $ $ $ $ $ $ $ $ $ $ $ $ $ $ $ % $ $ $ $ $ $ $ $ $ $ $ % = & $ $ $ $ $ $ $ $ = = $ = $ $ $ $ = $ $ $ $ $ $ $ $ $ $ $ $ $ $ $ $ $ $ $ ",
"$ $ $ $ $ $ $ $ $ $ $ $ $ $ $ $ $ $ $ $ $ $ $ $ $ $ $ $ $ $ $ $ $ $ $ $ $ $ $ $ $ $ = $ $ $ $ $ $ $ $ % $ $ $ $ $ $ $ $ $ $ $ $ $ $ $ $ $ $ "
};
