/* XPM */
static char *result[] = {
/* columns rows colors chars-per-pixel */
"70 70 121 2 ",
"   c black",
".  c #010000",
"X  c #000100",
"o  c #010100",
"O  c #000001",
"+  c #010001",
"@  c #000101",
"#  c #010101",
"$  c #070706",
"%  c #060607",
"&  c #181A24",
"*  c #191A24",
"=  c #181B24",
"-  c #191B24",
";  c #181A25",
":  c #191A25",
">  c #181B25",
",  c #191B25",
"<  c gray14",
"1  c #252424",
"2  c #242524",
"3  c #252524",
"4  c #242425",
"5  c #252425",
"6  c #242525",
"7  c #252525",
"8  c #3E3E3E",
"9  c #3F3E3E",
"0  c #3E3F3E",
"q  c #3F3F3E",
"w  c #3E3E3F",
"e  c #3F3E3F",
"r  c #3E3F3F",
"t  c #3F3F3F",
"y  c #5E0E02",
"u  c #5E0F02",
"i  c #5E0E03",
"p  c #5E0F03",
"a  c #72621C",
"s  c #73621C",
"d  c #72631C",
"f  c #73631C",
"g  c #72621D",
"h  c #73621D",
"j  c #72631D",
"k  c #73631D",
"l  c #10306E",
"z  c #11306E",
"x  c #10316E",
"c  c #11316E",
"v  c #10306F",
"b  c #11306F",
"n  c #10316F",
"m  c #11316F",
"M  c #902426",
"N  c #912426",
"B  c #902526",
"V  c #912526",
"C  c #912427",
"Z  c #A05E26",
"A  c #A15E26",
"S  c #A05F26",
"D  c #A15F26",
"F  c #A05E27",
"G  c #A15E27",
"H  c #A05F27",
"J  c #A15F27",
"K  c #C74E64",
"L  c #C64F64",
"P  c #C74F64",
"I  c #C64E65",
"U  c #C64F65",
"Y  c #C74F65",
"T  c #B4A052",
"R  c #B5A052",
"E  c #B4A152",
"W  c #B5A152",
"Q  c #B4A053",
"!  c #B5A053",
"~  c #B4A153",
"^  c #B5A153",
"/  c #D89A46",
"(  c #D99A46",
")  c #D89B46",
"_  c #D89A47",
"`  c #D89B47",
"'  c #D99B47",
"]  c #F59660",
"[  c #F49760",
"{  c #F59760",
"}  c #F59661",
"|  c #F49761",
" . c #F59761",
".. c #285AC6",
"X. c #295AC6",
"o. c #285BC6",
"O. c #295BC6",
"+. c #295AC7",
"@. c #285BC7",
"#. c #295BC7",
"$. c #687EC0",
"%. c #697EC0",
"&. c #687FC0",
"*. c #697FC0",
"=. c #687EC1",
"-. c #687FC1",
";. c #697FC1",
":. c #EAD684",
">. c #EBD684",
",. c #EAD784",
"<. c #EBD784",
"1. c #EAD685",
"2. c #EBD685",
"3. c #EAD785",
"4. c #EBD785",
"5. c #F4D185",
"6. c #AAB8E2",
"7. c #ABB8E3",
"8. c #ABB9E3",
"9. c #FEFEFE",
"0. c None",
/* pixels */
"* * & - - : & > - > > , : > & ; ; ; - ; * ; > > : ; ; > - ; > * ; * > - = & & - = > ; & - : : : , : > > ; * - & > - - : , * > : , * & > ; ; ",
"> : & , * - > - : * - > & ; * & = , : = - , * - * - : , : , : & & ; > * > > & & ; * & & - - > = ; ; - ; ; = * * > ; : , = & , : > : : * , ; ",
"- & > = & & & - : & * ; = , & ; ; , - > = ; - & ; ; : = : * > - = : > = , , ; * - , : : * > * : : * = > , - - - - : ; = : * , : = * * - : > ",
"& > ; & > : > - > : = ; & , , ; * ; > : * > & - : * - , > : ; > ; ; = : & - = , > ; - , : : , : : & & * & & * - ; : , ; > & ; = : & : = , * ",
"- & : & ; * ; : : * , : & > , ; , ; & , & , : ; : * > = , > = o @ + # X X .   > & - ; , - > : , : : & = & ; - = & - , ; - - = * > , > > ; = ",
"- = & = : - : * - = = , , - & > & - & = ; - : = & > , = : ;   s W W 2.~ ~ >.E + = - : = : > = * , : = * ; & : : * ; , = : : > > & * * * ; : ",
": , > & > > = : , * : - , ; * > > : * , - , > ; = ; > = = o s Q 2.! >.<.>.3.E h   & > - , - = = * > - & : > - > & > & , : = = : > ; = > - = ",
", > & * : , : & ; ; = ; : * & > : = > - ; & & ; > = & , -   T W ~ ~ K K E T 4.E . , - * - * , : - > - ; & : * - = > = = > > , & > = = : > ; ",
": = = = ; , ; = ; = = = - * , : ; , ; * = , : : = - & : X M C V K L U P Y I Y U X + - - = : * = : - - & - > * , ; = > > = - : , ; * ; * * * ",
": > ; * : = & > ; : ; - * = * , * & , & ; , : - : & ; : X N V V U ^ W T T Y Y Y o X + ; ; - = = : - , - , - , * , & & : = : > - ; - = * & , ",
"; : , : & & & , : * > - & ; , : * * - > , - , , - > - . # B W W ! >.! <.! Q T W <.:.  # ; & : , ; > & > , * > : , > & ; ; = - > = , * * ; ; ",
", , - & = : : > - = = * * & * = & - ; * - , , : & *   . o E Q @ + # +   + o . X W 2.<.<.#   o ; , = : - : : = - > ; , = , - - - - : : - & & ",
", > - - : = = & > & - : > & ; * & * * - : & > > # ^ h h h E O @ . X .   X O # . # d f d d ,.  = = ; ; , * & > - - , : = ; ; * * , , * : = > ",
", : & & - = - , ; , , = ; = & & : - - , : - * ; . h g f X # O . . . + @   o X X + k d h # X : : > & - = > ; & * = = : - * - > ; ; = ; , = & ",
"= = > > - , = - > & : - * - - * * ; > , * > = = o . O o + +   # O + # # o # O # @ o + . o > , ; - : : * : - = > ; & - > & = ; & - , * = ; & ",
": - - > > , : * = > > = = & : * = ; ; * : > , - : & : > + X   O # + . @ # + # o # # +   > * = ; = ; & , & ; , - ; , - & > & * & * : & > * = ",
"= - & = & - * , & & - - ; > = = > = > - * * > , & > ; * = @ # . .   # . X . . + X * = & & ; * , = - ; = : : , , > > * - * - : = & & , * = - ",
": = : & : = & = ; & & * & ; = : = - : * - = , = : - & = * # @ . O .   + +   + . O , - , > : ; & > & & - = & : * = > , , * , > , > * : : = ; ",
"- * ; , = ; & - = ; > & > - > & * ; & = ; , > - > * = > - & & . X + O @ o + @ X > : ; , = ; : = = , & , = : = - , * , , : ; , ; > : = & ; = ",
"* - : * & > > & : & > & ; , ; & * : ; = : ; , , & * * ; > - ; . F ( ' # G F . + & , * , ; ; : > * = = ; = ; & ; ; - : > , = & : = & : * , & ",
"> ; = = : = > : > - - * = & = : = , & , * - : , , & - , * , > . o Z D D H . ; : & ; & > ; & ; - > - = * : ; , - > , , , > - ; = ; * : * , > ",
": & ; * & * ; : = : - * ; - > = - * = & > - > - > : : ; X X 5 5 6 6 7 1 1 2 # X = , , > - & : , = - & - : - , , - : , : : ; = , > = = : > ; ",
": ; = = > & : : > * > > > > ; > : , : , > > & : - - =   3 >.] 1 7 < 6 < 3 t 0 X X , , * & ; ; , & > * * & & ; * > - = > = = , & * , - * = , ",
"= ; = - , - = - = - = & , > - ; : & : , > = ; - ; &   q 2 q ,.6 3 4 1.4 2 t 4.| # o , : > , > = * : & , = : * ; > , * > = > > - > > > & : - ",
"- , ; = * = & & - ; * > > , & > & - : = > = > > > @ >.7 O 6 w 4 5 ,.[ :.7 8 9 1.. i o = > = , ; = & > > ; - - - - = : * - , * - * & - = ; > ",
": , & , & > , & > : = = = & = * * = , = > ; : , # ,. .>.@ 7 0 0 9 3 ,.7 7 8 6 . X y u o : & , - > = > * ; ; : , > & & ; ; * - = * ; ; & : > ",
"> = : > ; - - : , * - & - : - - * * : > * - , > @ w <.  . O 5 3 5 9 2 1 5 w     o y u   : > = & : : ; > : * - & : , > & - ; : = > ; : , * - ",
"- ; : & > * : = , * - = > > & & - > - > : , *   5.5.O o ; # 4.3 5 8 t 3 5 6 1 X * u u u . : > ; & ; , > & * > , , & - * & ; , ; * ; - - > * ",
"- : = > & : - : * ; = * * - * = , * > & = ; - O 5.5.. * , . ] >.7 q 5 0 3 2 ] O > # u u O * ; = > > = > , * = * > & > = * = & , - > - & > : ",
"* > * > - - > & : > & * : : & - - - > & = ; X 5.5.5.O > & X 2.1 t 7 < 1.r e >.. , ; # A A O & > - , * > * = > = : = ; : > ; > , & & , > * = ",
"= * & - ; ; > : ; ; - & & , , & > , > - = : o 5.5.  & * O . 1 w 4 6 1.} >.3 8 % & # A A A A O = = & : : , : : & & * - ; : ; ; ; = - & - : & ",
"; > ; , & ; * * & = , = = , * : ; > - * * X S F F   * - . >.4 2 e 6 4 1.3 5 0 $ + # A A A A O & & & : , : ; , * - - , ; > , ; > - , ; ; ; ; ",
", > * : > - & = ; - , - : & - ; : > , > , + G F   & > &   { 3.- : 8 < 4 t t t 4.e & X A A A O & : , , > * = > = , > > - & ; * > * = , = * , ",
"- : - & : ; - , - = - & = & * : - & > - * X H F o & : X 1 <.3 * , ,.q < 1 q 4.| 1.; & X X X & & ; > > , > : & > > : : & > - = - - > = = > : ",
": & ; * * , : : - = ; - - = = , - * > ; * X G J @ > = X 7 . 6 : <.} <.q < < 4 1.t ; & & & & & & & = = , & - > * = = > ; : > * * : - = > , > ",
"> * ; , - ; : , > * * > & = : * ; * > : * + u u o * # O 4.o < ; , > , * * o 4 2 e = & & & & & & & = = = & > - & * & - ; * , > ; , - = & * = ",
"; , : : , = > , = - : ; & = , * : , > ; * + O . o : X 2.k d f ,.<.g g g j j ,.>.a h X = = = = = = = = & & = ; - : & : = * , ; * - & & > * - ",
"= > - = - = > , = ; > , : = * > : > > : > = & * * O @ ~ Q <.,.:.1.,.<.1.<.h E ^ R ^ X = = = = = = = = & ; * - : & , & : ; , & * : & , ; , & ",
"> = ; - , ; - = = > & ; ; & : & ; ; > > ; & * - =   o   m z z n X.%.$.=...b h <.j h X = = = = = = = = - ; - ; & > : = - & ; - - & > > > > > ",
": , * : ; : > , - ; > : - - > & & = > > > > > > = =   . o.=.;.-.=.#.z b b z h >.f X = = = = = = = = = * - - ; = * ; = - - : * * * = - ; , > ",
": = * - = & * , : ; = = = - > = , - > > > > > > * * = o n #.=.X.8.&.=.$.o.b l a :.d X = = = = = = = = = * : > * * - * = = = : - & ; - = * ; ",
"; ; , = > , : = * - > > : = - > * : ; & > ; > > & > O z ;.7.7.n n n O.#.-.&.=.k 1.d W X = = = = = = = = * = - - > : , , : : & ; , - * > > , ",
"; & & = > ; & : ; = : ; > - - : * = > > > = & - ; - . +.n n n n n n c m O.o.l @.h 2.j 4.X = - : : : & ; ; : - - > , ; : , = * = , = & : : , ",
", = , , = & , , & > ; , - & * * - = - ; ; > - * - - . 7.n n n n O   + . z l @.@.o.#.g R :.+ * & : & > - = - & ; * = > , - , ; = * = = & - , ",
"> , & = , : - - : ; ; ; ; ; * & : * - : ; - & - > - . n *.n n x ; , * o O.=.@.@.O.0.v d k X , & , : = & , - ; & = = , & ; , - = ; , & = = ; ",
"- & = = - & & * ; & - , * * - , > & = ; : & : ; > - . n n n l o > = & o v ;.X.n @.0.m k + ; * = ; ; = & = - , * & * > > & , , : - = : - = > ",
"> - , & - : : * , : : * & ; - ; ; , ; > = = : > > ; . n n n l o = , & o o.@.@.@.@.x o : ; ; ; ; ; ; > = > ; : & & > * , > * - ; : : ; & = & ",
", , , = = * > > - , : & , * - = - - * = * - : : * > . n n n l o & , > o n @.@.@.@.@.o > ; : & > * ; - ; ; = * & > , - & & ; ; * & & & ; : * ",
"* ; , & = * : , ; & , = & = = > & = & > > = : * & * @ z n n x b o , > o n @.@.@.@.@.o & ; - > , , ; * & > , * & : ; - = : > = , - = = ; * * ",
"- ; * = > & & : : * > , : - ; , , = * & & ; : : & - , # p i O = ; , * o =.=.@.@.@.X.o & = > ; - * ; * = ; = * & - - , : & = : : : - : > = , ",
"> , > , ; = * - , ; : * : = > ; & = , , , > : - : - * O u y O = , & & o 6.6.6.9.#   > & = & & ; * ; ; - ; , ; : & : : - , , ; : : & - > = - ",
", - : , , - & - = , : ; - * - : * : : * ; , : : * = = # y y   = , & * o + J J J # # & > = = - - * ; > = > : ; = = - = * - - : * > : & - ; * ",
"; ; - > , = & : = = = ; - , : : , - = * , - : > - * = + y y # > > = * = o J J J   & ; ; ; : * , & ; > , ; * = & * , * > = ; & - , ; , : ; = ",
"> & ; = * & , , * & > = > , > & : : , - > > : , = > , @ y y + , = - ; & o _ J J # - : - : : - > * ; - , = > ; * = & & = & * & > & , = , - & ",
"- = , - & > ; ; * & : ; - & = * : * * - = & : - , : @ F F y . * * = & & o J ( '   > & - & * > , * ; : > ; & ; = - = & ; : , , = , , : * * - ",
"& = : * : & , - , - , & * * : = & > ; ; - : : & * - @ F F F + ; , : & ; X X ' ' # ; - > * - > > : ; > ; * , - > > : ; : = * ; - ; ; - - > & ",
"& - > = = & - * > - , > > * * & - > > = , : : : - , X F F F + - ; & * * * o ) ' o > > = > > , > * ; * : > ; & - : * * = * & > > - ; = - * ; ",
"; * * , * - > > = ; > * = & * : , : = , - & : = ; : @ F F + + & * & * - * o ` ' X = = - * * & ; - ; ; , ; ; - > : : , , & = & & & > ; & , = ",
", > , * = ; > * - * = = * - > - > - ; & , - : : * : * + X # & : - : : : : o ` ' X * * * & & ; & = ; ; = = ; - = , = & = - > * > ; ; : * - : ",
"; & = > - & ; & ; & = ; & * > , ; - , - * & : : : : : : : : : : : : : > : o / ' o & - * ; ; ; : = ; * * & , , * , = : & - & > & , & > = * * ",
"> * > : ; - : - ; : > = > * , & - * = & > : : : : : : : : : : : : : , > # D ) ' . > > - : ; ; : ; ; > : : & > > & : : , : , * , & = = - = : ",
"* & ; ; : = & : , : & & , * & ; ; * : & : - : : : : : : : : : : = > , # F H ' `   : ; ; ; & ; ; ; ; & - : & - > - & > - = & - & : : - = > & ",
"> ; , = - , : - : * > : ; & , * > > > : ; : : : : : : : : : : : = ; ; O X F Z ` O : , , * * * - ; ; - = > = - * ; * & & ; ; > : ; , * & = , ",
", - : ; : , * , - - , : , : > > * * * & : : : : : : : : : : : ; ; ; ; ;     O O * * ; - - * * > ; ; : , * & & : : & , - : , , * : ; = , ; - ",
"= = , & > ; > - , , > : - ; > ; : : & * = & , & , > * ; = , - * - : : > - , , - : - , - = - ; - ; ; : ; ; > & > , = > = = : , = ; , = & - , ",
"& ; = > ; - : > & = - : > , , ; = & > , ; - ; * , & * = * : : & * > - > , , = , = & > & > & * > : * ; , = - * & = & , = ; * * : ; & & = = - ",
"; ; & & , , > , = = : > = & ; = , = = & = , & ; > , - = , * & * = , : > , , ; & * : ; , - - & * = ; - , = , * , & : , & - : : & : ; & = : : ",
"> : , - - * * = , * , * & , ; - & ; & > : - = - : > & * > - : : = : & * & , ; * ; = - , : ; , = : ; * = - : : : - * , & * : , - > : & - > , ",
", ; * , & ; - = , : ; - * * * ; & , - ; : : , , * = - > , - & - - > & , > : : - > & : * & & * * * & * = ; : : , : > * , & & ; * = - : = ; - ",
"; : ; = : - & & = - = ; & & = = > > , & - * - = * ; * - * , : : = ; - > , ; & : - > > & - , - = - : ; > = - , = * , , > : * , & , > - * - = "
};
