/* XPM */
static char *result[] = {
/* columns rows colors chars-per-pixel */
"70 70 109 2 ",
"   c black",
".  c #010000",
"X  c #000100",
"o  c #010100",
"O  c #000001",
"+  c #010001",
"@  c #000101",
"#  c #010101",
"$  c #070706",
"%  c #060607",
"&  c #181A24",
"*  c #191A24",
"=  c #181B24",
"-  c #191B24",
";  c #181A25",
":  c #191A25",
">  c #181B25",
",  c #191B25",
"<  c gray14",
"1  c #252424",
"2  c #242524",
"3  c #252524",
"4  c #242425",
"5  c #252425",
"6  c #242525",
"7  c #252525",
"8  c #3E3E3E",
"9  c #3F3E3E",
"0  c #3E3F3E",
"q  c #3F3F3E",
"w  c #3E3E3F",
"e  c #3F3E3F",
"r  c #3E3F3F",
"t  c #3F3F3F",
"y  c #5E0E02",
"u  c #5E0F02",
"i  c #5E0E03",
"p  c #72621C",
"a  c #73621C",
"s  c #72631C",
"d  c #73631C",
"f  c #72621D",
"g  c #73621D",
"h  c #72631D",
"j  c #73631D",
"k  c #10306E",
"l  c #11306E",
"z  c #10316E",
"x  c #11316E",
"c  c #11306F",
"v  c #10316F",
"b  c #11316F",
"n  c #902426",
"m  c #912426",
"M  c #902526",
"N  c #912526",
"B  c #912427",
"V  c #A05E26",
"C  c #A15E26",
"Z  c #A15F26",
"A  c #A05E27",
"S  c #A15E27",
"D  c #A05F27",
"F  c #C74E64",
"G  c #C64F64",
"H  c #C74F64",
"J  c #C64E65",
"K  c #C64F65",
"L  c #C74F65",
"P  c #B4A052",
"I  c #B5A052",
"U  c #B4A152",
"Y  c #B5A152",
"T  c #B4A053",
"R  c #B5A053",
"E  c #B4A153",
"W  c #B5A153",
"Q  c #D89A46",
"!  c #D99A46",
"~  c #D89B46",
"^  c #D89B47",
"/  c #D99B47",
"(  c #F59660",
")  c #F49760",
"_  c #F59760",
"`  c #F59661",
"'  c #F49761",
"]  c #F59761",
"[  c #285AC6",
"{  c #295AC6",
"}  c #285BC6",
"|  c #295BC6",
" . c #285BC7",
".. c #295BC7",
"X. c #687EC0",
"o. c #697EC0",
"O. c #687EC1",
"+. c #697FC1",
"@. c #EAD684",
"#. c #EBD684",
"$. c #EAD784",
"%. c #EBD784",
"&. c #EAD685",
"*. c #EBD685",
"=. c #EAD785",
"-. c #EBD785",
";. c #F4D185",
":. c #AAB8E2",
">. c #FEFEFE",
/* pixels */
"* * & - - : & > - > > , : > & ; ; ; - ; * ; > > : ; ; > - ; > * ; * > - = & & - = > ; & - : : : , : > > ; * - & > - - : , * > : , * & > ; ; ",
"> : & , * - > - : * - > & ; * & = , : = - , * - * - : , : , : & & ; > * > > & & ; * & & - - > = ; ; - ; ; = * * > ; : , = & , : > : : * , ; ",
"- & > = & & & - : & * ; = , & ; ; , - > = ; - & ; ; : = : * > - = : > = , , ; * - , : : * > * : : * = > , - - - - : ; = : * , : = * * - : > ",
"& > ; & > : > - > : = ; & , , ; * ; > > > > > > > > > > > > > > > > > > > > > > > > > > > > > > > > > > > > * - ; : , ; > & ; = : & : = , * ",
"- & : & ; * ; : : * , : & > , ; , ; & > : * > & - : * - , > : ; > ; ; = : & - = , > ; - , : : , : : & & * & & = & - , ; - - = * > , > > ; = ",
"- = & = : - : * - = = , , - & > & - & > , & , : ; : * > = , > = o @ + # X X .   > & - ; , - > : , : : & = & ; : * ; , = : : > > & * * * ; : ",
": , > & > > = : , * : - , ; * > > : * > = ; - : = & > , = : ;   a Y Y *.E E #.U + = - : = : > = * , : = * ; & > & > & , : = = : > ; = > - = ",
", > & * : , : & ; ; = ; : * & > : = > > , - , > ; = ; > = = o a T *.R #.%.#.=.U g   & > - , - = = * > - & : > - = > = = > > , & > = = : > ; ",
": = = = ; , ; = ; = = = - * , : ; , ; > - ; & & ; > = & , -   P Y E E F F U P -.U . , - * - * , : - > - ; & : , ; = > > = - : , ; * ; * * * ",
": > ; * : = & > ; : ; - * = * , * & , > * = , : : = - & : X n B N F G K H L J L K X + - - = : * = : - - & - > * , & & : = : > - ; - = * & , ",
"; : , : & & & , : * > - & ; , : * * - > & ; , : - : & ; : X m N N K W Y P P L L L o X + ; ; - = = : - , - , - : , > & ; ; = - > = , * * ; ; ",
", , - & = : : > - = = * * & * = & - ; > > , - , , - > - . # M Y Y R #.R %.R T P Y %.@.  # ; & : , ; > & > , * - > ; , = , - - - - : : - & & ",
", > - - : = = & > & - : > & ; * & * * > * - , , : & *   . o U T @ + # +   + o . X Y *.%.%.#   o ; , = : - : : - - , : = ; ; * * , , * : = > ",
", : & & - = - , ; , , = ; = & & : - - > - : & > > # W g g g U O @ . X .   X O # . # s d s s $.  = = ; ; , * & * = = : - * - > ; ; = ; , = & ",
"= = > > - , = - > & : - * - - * * ; > > , : - * ; . g f d X # O . . . + @   o X X + j s g # X : : > & - = > ; > ; & - > & = ; & - , * = ; & ",
": - - > > , : * = > > = = & : * = ; ; > , * > = = o . O o + +   # O + # # o # O # @ o + . o > , ; - : : * : - - ; , - & > & * & * : & > * = ",
"= - & = & - * , & & - - ; > = = > = > > * : > , - : & : > + X   O # + . @ # + # o # # +   > * = ; = ; & , & ; , > > * - * - : = & & , * = - ",
": = : & : = & = ; & & * & ; = : = - : > - * * > , & > ; * = @ # . .   # . X . . + X * = & & ; * , = - ; = : : * = > , , * , > , > * : : = ; ",
"- * ; , = ; & - = ; > & > - > & * ; & > * - = , = : - & = * # @ . O .   + +   + . O , - , > : ; & > & & - = & - , * , , : ; , ; > : = & ; = ",
"* - : * & > > & : & > & ; , ; & * : ; > = ; , > - > * = > - & & . X + O @ o + @ X > : ; , = ; : = = , & , = : ; ; - : > , = & : = & : * , & ",
"> ; = = : = > : > - - * = & = : = , & > = : ; , , & * * ; > - ; . A ! / # S A . + & , * , ; ; : > * = = ; = ; - > , , , > - ; = ; * : * , > ",
": & ; * & * ; : = : - * ; - > = - * = > , * - : , , & - , * , > . o V Z Z D . ; : & ; & > ; & ; - > - = * : ; , - : , : : ; = , > = = : > ; ",
": ; = = > & : : > * > > > > ; > : , : > & > - > - > : : ; X X 5 5 6 6 7 1 1 2 # X = , , > - & : , = - & - : - * > - = > = = , & * , - * = , ",
"= ; = - , - = - = - = & , > - ; : & : > , > > & : - - =   3 #.( 1 7 < 6 < 3 t 0 X X , , * & ; ; , & > * * & & ; > , * > = > > - > > > & : - ",
"- , ; = * = & & - ; * > > , & > & - : > , > = ; - ; &   q 2 q $.6 3 4 &.4 2 t -.' # o , : > , > = * : & , = : - - = : * - , * - * & - = ; > ",
": , & , & > , & > : = = = & = * * = , > = > = > > > @ #.7 O 6 w 4 5 $.) @.7 8 9 &.. i o = > = , ; = & > > ; - , > & & ; ; * - = * ; ; & : > ",
"> = : > ; - - : , * - & - : - - * * : > = - ; : , # $.] #.@ 7 0 0 9 3 $.7 7 8 6 . X y u o : & , - > = > * ; ; & : , > & - ; : = > ; : , * - ",
"- ; : & > * : = , * - = > > & & - > - > ; * - , > @ w %.  . O 5 3 5 9 2 1 5 w   , o y u   : > = & : : ; > : * , , & - * & ; , ; * ; - - > * ",
"- : = > & : - : * ; = * * - * = , * : > = : , *   ;.;.O o ; # -.3 5 8 t 3 5 6 1 O , u u u . : > ; & ; , > & * * > & > = * = & , - > - & > : ",
"* > * > - - > & : > & * : : & - - - ; > - = : o ;.;.  . * , . ( #.7 q 5 0 3 2 ( O > O u u O > ; = > > = > , * = : = ; : > ; > , & & , > * = ",
"= * & - ; ; > : ; ; - & & , , & > , - > > - + C C   , O > & X *.1 t 7 < &.r e #.. , O C C O > > > - , * > * = & & * - ; : ; ; ; = - & - : & ",
"; > ; , & ; * * & = , = = , * : ; & * > - O C C C o : & * O . 1 w 4 6 &.` #.3 8 % & > O O > > > = = & : : , : * - - , ; > , ; > - , ; ; ; ; ",
", > * : > - & = ; - , - : & - ; : > * > ; O C C C @ * * - . #.4 2 e 6 4 &.3 5 0 $ + > > > > > > & & & : , : ; = , > > - & ; * > * = , = * , ",
"- : - & : ; - , - = - & = & * : - & , > : : + C C o > > &   _ =.- : 8 < 4 t t t -.e + > > > > > & : , , > * = > > : : & > - = - - > = = > : ",
": & ; * * , : : - = ; - - = = , - & > > ; - - O . - - : X 1 %.3 * , $.q < 1 q -.' &.+ & > > > & & ; > > , > : * = = > ; : > * * : - = > , > ",
"> * ; , - ; : , > * * > & = : * ; & ; & & & & & & & & = X 7 . 6 : %.` %.q < < 4 &.t + & & & & & & & = = , & - & * & - ; * , > ; , - = & * = ",
"; , : : , = > , = - : ; & = , * : & = > & & & & & & & # O -.o < ; , > , * * o 4 2 e + & & & & & & & = = = & > - : & : = * , ; * - & & > * - ",
"= > - = - = > , = ; > , : = * > : & & > : > = & * * = X *.j s d $.%.f f f h h $.#.p g X = = = = = = = = & & = : & , & : ; , & * : & , ; , & ",
"> = ; - , ; - = = > & ; ; & : & & & & > & & & & & & O @ E T %.$.@.&.$.%.&.%.g U W I W X = = = = = = = = & ; * & > : = - & ; - - & > > > > > ",
": , * : ; : > , - ; > : - - > & & & & > & & & & & & & o   b l l v { o.X.O.[ c g %.h g X = = = = = = = = - ; - = * ; = - - : * * * = - ; , > ",
": = * - = & * , : ; = = = - > = , - * > & & & & & & & o v } v v v v .. . . . .g #.d X = = = = = = = = = * - - * * - * = = = : - & ; - = * ; ",
"; ; , = > , : = * - > > : = - > * : ; & ; & * - = * o v v v v v v v v O. . . . .p @.s X = = = = = = = = = * : - > : , , : : & ; , - * > > , ",
"; & & = > ; & : ; = : ; > - - : * = > > > = & - ; - . v v v v v v v x b |  . . .g *.h -.X = - : : : & ; ; : - - > , ; : , = * = , = & : : , ",
", = , , = & , , & > ; , - & * * - = - ; ; > - * - - . v v v v v O   + .  . . . .} ..f I @.+ * & : & > - = - & ; * = > , - , ; = * = = & - , ",
"> , & = , : - - : ; ; ; ; ; * & : * - : ; - & - > ; . v v v k o = , * o  . . .O.| O. .s j X , & , : = & , - ; & = = , & ; , - = ; , & = = ; ",
"- & = = - & & * ; & - , * * - , > & = ; : & : ; * > . v v v k o & , & o  .+.O.O. . . .j + ; * = ; ; = & = - , * & * > > & , , : - = : - = > ",
"> - , & - : : * , : : * & ; - ; ; , ; > = = : > & * @ l v v z c , & o  . .O.O.O. .o : ; ; ; , ; ; ; > = > ; : & & > * , > * - ; : : ; & = & ",
", , , = = * > > - , : & , * - = - - * = * - : : & - , # i i O = , > o  . .O.O.O. .o > ; : & , > * ; - ; ; = * & > , - & & ; ; * & & & ; : * ",
"* ; , & = * : , ; & , = & = = > & = & > > = : * : - > O i i O > & > o v  .O.O. . .o & ; - > & , , ; * & > , * & : ; - = : > = , - = = ; * * ",
"- ; * = > & & : : * > , : - ; , , = * & & ; : : * = = O i i O = & * o O.O. . . .{ o & = > ; & , * ; * = ; = * & - - , : & = : : : - : > = , ",
"> , > , ; = * - , ; : * : = > ; & = , , , > : > > > > > O O > > > & o :.:.:.>.#   > & = & & & , * ; ; - ; , ; : & : : - , , ; : : & - > = - ",
", - : , , - & - = , : ; - * - : * : : * ; , > > > > > > > > > > > * o + / / / # # & > = = - & , * ; > = > : ; = = - = * - - : * > : & - ; * ",
"; ; - > , = & : = = = ; - , : : , - = * , - ; > > > > > > > > > = * = o / / /   & ; ; ; : * & , , ; > , ; * = & * , * > = ; & - , ; , : ; = ",
"> & ; = * & , , * & > = > , > & : : , - > > ; , = > , > > > > , - ; & o / / / # - : - : : - & > , ; - , = > ; * = & & = & * & > & , = , - & ",
"- = , - & > ; ; * & : ; - & = * : * * - = & ; - , : > > > > > > > > & o / ! /   > & - & * > & , , ; : > ; & ; = - = & ; : , , = , , : * * - ",
"& = : * : & , - , - , & * * : = & > ; ; - ; ; & * - > > > > > > > > ; X X / / # ; - > * - > & > , ; > ; * , - > > : ; : = * ; - ; ; - - > & ",
"& - > = = & - * > - , > > * * & - > > = , ; ; ; - > > > > > > > & * * * o ~ / o > > = > > , & > * , * : > ; & - : * * = * & > > - ; = - * ; ",
"; * * , * - > > = ; > * = & * : , : = , - & ; = ; > > > > > > > & * - * o ^ / X = = - * * & , ; - , ; , ; ; - > : : , , & = & & & > ; & , = ",
", > , * = ; > * - * = = * - > - > - ; & , - ; ; * ; > > > > & ; ; ; , ; o ^ / X * * * & & ; , & = , , = = ; - = , = & = - > * > ; ; : * - : ",
"; & = > - & ; & ; & = ; & * > , ; - , - * & ; ; ; ; ; ; ; ; ; ; ; ; , , o Q / o & - * ; ; ; , : = ; , * & , , * , = : & - & > & , & > = * * ",
"> * > : ; - : - ; : > = > * , & - * = & > ; ; ; ; ; ; ; ; ; ; ; ; , , , o / / . > > - : ; ; , : ; ; > , : & > > & : : , : , * , & = = - = : ",
"* & ; ; : = & : , : & & , * & ; ; * : & : - ; ; ; ; ; ; ; ; ; ; > , , , o / ^   : ; ; ; & ; , ; ; ; & - , & - > - & > - = & - & : : - = > & ",
"> ; , = - , : - : * > : ; & , * > > > : ; ; ; ; ; ; ; ; ; ; ; ; ; ; , o A / ^ O : , , * * , , - ; ; - = , , - * ; * & & ; ; > : ; , * & = , ",
", - : ; : , * , - - , : , : > > * * * & ; ; ; ; ; ; ; ; ; ; ; ; ; ; , , o o o , * ; - - * , , , , , , , , & & : : & , - : , , * : ; = , ; - ",
"= = , & > ; > - , , > : - ; > ; : : & * = & , & , > * ; = , - * : : , - , , - : - , - = - , , - ; ; : ; ; > & > , = > = = : , = ; , = & - , ",
"& ; = > ; - : > & = - : > , , ; = & > , ; - ; * , & * = * : : & > - > , , = , = & > & > & * , > : * ; , = - * & = & , = ; * * : ; & & = = - ",
"; ; & & , , > , = = : > = & ; = , = = & = , & ; > , - = , * & * = , : > , , ; & * : ; , - - , * = ; - , = , * , & : , & - : : & : ; & = : : ",
"> : , - - * * = , * , * & , ; - & ; & > : - = - : > & * > - : : = : & * & , ; * ; = - , : ; , = : ; * = - : : : - * , & * : , - > : & - > , ",
", ; * , & ; - = , : ; - * * * ; & , - ; : : , , * = - > , - & - - > & , > : : - > & : * & & * * * & * = ; : : , : > * , & & ; * = - : = ; - ",
"; : ; = : - & & = - = ; & & = = > > , & - * - = * ; * - * , : : = ; - > , ; & : - > > & - , - = - : ; > = - , = * , , > : * , & , > - * - = "
};
