/* XPM */
static char *result[] = {
/* columns rows colors chars-per-pixel */
"70 70 120 2 ",
"   c black",
".  c #010000",
"X  c #000100",
"o  c #010100",
"O  c #000001",
"+  c #010001",
"@  c #000101",
"#  c #010101",
"$  c #070706",
"%  c #060607",
"&  c #181A24",
"*  c #191A24",
"=  c #181B24",
"-  c #191B24",
";  c #181A25",
":  c #191A25",
">  c #181B25",
",  c #191B25",
"<  c gray14",
"1  c #252424",
"2  c #242524",
"3  c #252524",
"4  c #242425",
"5  c #252425",
"6  c #242525",
"7  c #252525",
"8  c #3E3E3E",
"9  c #3F3E3E",
"0  c #3E3F3E",
"q  c #3F3F3E",
"w  c #3E3E3F",
"e  c #3F3E3F",
"r  c #3E3F3F",
"t  c #3F3F3F",
"y  c #5E0E02",
"u  c #5E0F02",
"i  c #5E0E03",
"p  c #5E0F03",
"a  c #72621C",
"s  c #73621C",
"d  c #72631C",
"f  c #73631C",
"g  c #72621D",
"h  c #73621D",
"j  c #72631D",
"k  c #73631D",
"l  c #10306E",
"z  c #11306E",
"x  c #10316E",
"c  c #11316E",
"v  c #10306F",
"b  c #11306F",
"n  c #10316F",
"m  c #11316F",
"M  c #902426",
"N  c #912426",
"B  c #902526",
"V  c #912526",
"C  c #912427",
"Z  c #A05E26",
"A  c #A15E26",
"S  c #A05F26",
"D  c #A15F26",
"F  c #A05E27",
"G  c #A15E27",
"H  c #A05F27",
"J  c #A15F27",
"K  c #C74E64",
"L  c #C64F64",
"P  c #C74F64",
"I  c #C64E65",
"U  c #C64F65",
"Y  c #C74F65",
"T  c #B4A052",
"R  c #B5A052",
"E  c #B4A152",
"W  c #B5A152",
"Q  c #B4A053",
"!  c #B5A053",
"~  c #B4A153",
"^  c #B5A153",
"/  c #D89A46",
"(  c #D99A46",
")  c #D89B46",
"_  c #D89A47",
"`  c #D89B47",
"'  c #D99B47",
"]  c #F59660",
"[  c #F49760",
"{  c #F59760",
"}  c #F59661",
"|  c #F49761",
" . c #F59761",
".. c #285AC6",
"X. c #295AC6",
"o. c #285BC6",
"O. c #295BC6",
"+. c #295AC7",
"@. c #285BC7",
"#. c #295BC7",
"$. c #687EC0",
"%. c #697EC0",
"&. c #687FC0",
"*. c #697FC0",
"=. c #687EC1",
"-. c #687FC1",
";. c #697FC1",
":. c #EAD684",
">. c #EBD684",
",. c #EAD784",
"<. c #EBD784",
"1. c #EAD685",
"2. c #EBD685",
"3. c #EAD785",
"4. c #EBD785",
"5. c #F4D185",
"6. c #AAB8E2",
"7. c #ABB8E3",
"8. c #ABB9E3",
"9. c #FEFEFE",
/* pixels */
"; ; > & * , : > * , : - - > & - * ; > > : , : : : - & ; > = - & & = - > * ; * > ; - > ; ; : > > ; * ; - ; ; ; & > : , > > - > & : - - & * * ",
"; , * : : > : , & = , : ; > * * = ; ; - ; ; = > - - & & * ; & & > > * > ; & & : , : , : - * - * , - = : , = & * ; & > - * : - > - * , & : > ",
"> : - * * = : , * : = ; : - - - - , > = * : : * > * : : , - * ; , , = > : = - > * : = : ; ; & - ; = > - , ; ; & , = ; * & : - & & & = > & - ",
"* , = : & : = ; & > ; , : ; - * & & * & & : : , : : , - ; > , = - & : = ; ; > ; : > , - * : - & > * : > ; * ; , , & ; = : > - > : > & ; > & ",
"= ; > > , > * = - - ; , - & = - ; & = & : : , : > - , ; - & >   . X X # + @ o = > , = > * : ; : , & , & ; , ; , > & : , * : : ; * ; & : & - ",
": ; * * * & > > : : = , ; * : : & ; * = : , * = > : = : - = + E >.~ ~ 2.W W s   ; : = , > & = : - ; = & - & > & - , , = = - * : - : = & = - ",
"= - > = ; > : = = : , & > & > - > : & - > * = = - , - > &   h E 3.>.<.>.! 2.Q s o = = > ; = ; > , - , * : > > * ; , - : * , : = > > & > , : ",
"; > : = = > & , > > = = > = - * : & ; - > - : , * - * - , . E 4.T E K K ~ ~ W T   - , & = > ; & & ; - > = : > & * : ; = ; ; & : , : * & > , ",
"* * * ; * ; , : - = > > = ; , * > - & - - : = * : = - - + X U Y I Y P U L K V C M X : & - = : : , = * ; , ; : , * - = = = ; = ; , ; = = = : ",
", & * = - ; - > : = : & & , * , - , - , - : = = - ; ; + X o Y Y Y T T W ^ U V V N X : ; & : - : , ; & , & * , * = * - ; : ; > & = : * ; > : ",
"; ; * * , = > - = ; ; & > , : > * , > & > ; , : & ; #   :.<.W T Q ! <.! >.! W W B # . - > - , , - , > - * * : , ; & - > * : , & & & : , : ; ",
"& & - : : - - - - , = , ; > - = : : - : = , ; o   # <.<.2.W X . o +   + # + @ Q E o .   * & : , , - * ; - & = * & * * = = - > : : = & - , , ",
"> = : * , , * * ; ; = : , - - > & * , ; ; = =   ,.d d f d # . # O X   . X . @ O E h h h ^ # > > & : - * * & * ; & > : - & > & = = : - - > , ",
"& = , ; = ; ; > - * - : = = * & ; > = - & > : : X # h d k + X X o   @ + . . . O # X f g h . ; * - : , - - : & & = ; = , , ; , - = - & & : , ",
"& ; = * , - & ; = & > - & ; > = - : * : : - ; , > o . + o @ # O # o # # + O #   + + o O . o = = > * , > ; * * - - * - : & > - = , - > > = = ",
"= * > & : * & * & > & - , ; - , ; & , & ; = ; = * >   + # # o # + # @ . + # O   X + > : & : - , > : * ; ; = * : & = = > > = * : , > > - - : ",
"- = * , & & = : - * - * > > , , : : = ; - = , * ; & & = * X + . . X . #   . . # @ = * ; > & , > * * - > = > = = > ; - - & & , * - & = & - = ",
"; = : : * > , > , * , , > = * : & = - & & > & ; : > , - , O . +   + +   . O . @ # * = & - : = , = - * : - = : = ; & * & & ; = & = : & : = : ",
"= ; & = : > ; , ; : , , * , - = : = , & , = = : ; = , ; : > X @ + o @ O + X . & & - > = * > - > , ; = & ; * & > - > & > ; = - & ; = , ; * - ",
"& , * : & = : & = , > : - ; ; & ; = ; = = * > : ; ; , * , & + . F G # ' ( F . ; - > ; * * & , , ; : = ; : * & ; , ; & > & : & > > & * : - * ",
"> , * : * ; = ; - > , , , > - , ; : * = - > - ; & ; > & ; & : ; . H D D Z o . > , * , - & , , : - * , & , = : = & = * - - > : > = : = = ; > ",
"; > : = = > , = ; : : , : - , , - : - & - = , : & - > , , = X # 2 1 1 7 6 6 5 5 X X ; : : > - > - > & = * - = > - ; * - : = : ; * & * ; & : ",
", = * - , * & , = = > = - > * ; & & * * > & , ; ; & * , , X X 0 t 3 < 6 < 7 1 ] >.3   = - - : & > > , : , : > ; > > > > * > : : & > = = ; : ",
"- : & > > > - > > = > * , > ; * : = , & : * = > , > : , o # | 4.t 2 4 1.4 3 6 ,.q 2 q   & ; - ; = > , : & : ; - > , & = - = - = - , - = ; = ",
"> ; = - & * - * , - * : = - - - - ; > > & = ; , = > = o i . 1.9 8 7 :.[ ,.5 4 w 6 O 7 >.@ > > > = > = : - & > & , > > * ; - & & = * = ; , - ",
"> : & ; ; * = - * ; ; & & > , : ; ; * > = > - , & : o u y X . 6 8 7 7 ,.3 9 0 0 7 @ >. .,.# , : ; > = , = * * = & = = = : > & , > & , & , : ",
"- * , : ; > = : ; - & > , : & - * : > ; : : & = > :   u y o     w 5 1 2 9 5 3 5 O .   <.w @ > , - * > : * * - - : - & - * , : - - ; > : = > ",
"* > - - ; * ; , ; & * - & , , > * & > , ; & ; > : . u u u * X 1 6 5 3 t 8 5 3 4.# ; o O 5.5.  * , : > - > - & & > > = - * , = : * > & : ; - ",
": > & - > - , & = * = > & > * = * , > = > > = ; * O u u # > O ] 2 3 0 5 q 7 >.] . , * . 5.5.O - ; = & > * , = * - * * = ; * : - : & > = : - ",
"= * > , & & , > ; > : ; = : = > = * > * , - > & O A A # ; , . >.e r 1.< 7 t 1 2.X & > O 5.5.5.X ; = & > - - - & : : * & > : & > - - > * > * ",
"& : - & - = ; ; ; : ; - * & & : : , : : & = = O A A A A # & % 8 3 >.} 1.6 4 w 1 . O * &   5.5.o : = - > , > & , , & & - ; ; : > ; ; - & * = ",
"; ; ; ; , - > ; , > ; , - - * , ; : , : & & & O A A A A # + $ 0 5 3 1.4 6 e 2 4 >.. - *   F F S X * * - > ; : * , = = , = & * * ; & , ; > ; ",
", * = , = * > * ; & - > > , = > = * > , , : & O A A A X & e 4.t t t 4 < 8 : - 3.{   & > &   F G + , > , > : ; - & : - , - ; = & - > : * > , ",
": > = = > - - = - > & : : > > & : > , > > ; & & X X X & ; 1.| 4.q 1 < q ,., * 3 <.1 X : & o F H X * - > & - : * & = & - = - , - ; : & - : - ",
"> , > = - : * * > : ; > = = * > - & , = = & & & & & & & ; t 1.4 < < q <.} <.: 6 . 7 X = > @ J G X * ; > * - , = = - - ; = - : : , * * ; & : ",
"= * & = - , ; > , * ; - & * & - > & = = = & & & & & & & = e 2 4 o * * , > , ; < o 4.O # * o u u + * : > * ; * : = & > * * > , : ; - , ; * > ",
"- * > & & - * ; , * = : & : - ; = & & = = = = = = = = X h a >.,.j j g g g <.,.f d k 2.X : o . O + * ; > , : * , = & ; : - = , > = , : : , ; ",
"& , ; , & : * & , ; : & , & : - * ; & = = = = = = = = X ^ R ^ E h <.1.<.,.1.:.,.<.Q ~ @ O * * & = > : > > : > * = : , > ; = , > = - = - > = ",
"> > > > > & - - ; & - = : > & ; - ; - = = = = = = = = X h j <.h b ..=.$.%.X.n z z m   o   = - * & ; > > ; ; & : & ; ; & > = = - ; , - ; = > ",
"> , ; - = * * * : - - = ; * = ; - - * = = = = = = = = = X f >.h z b b z #.=.-.;.=.o..   = = > > > > > > = & & > - - : > ; - , > : ; : * , : ",
"; * = - ; & - : = = = * - * * > : * = = = = = = = = = X d :.a l b o.$.=.&.8.X.=.#.n o = * * > > > > > > - , = > - = = = ; : , * & = - * = : ",
", > > * - , ; & : : , , : > - - = * = = = = = = = = X W d 1.k =.&.-.#.O.n n n 7.7.;.z O > & > > ; > & ; : * > - = : > > - * = : , > = , ; ; ",
", : : & = , = * = , : ; , > - - : ; ; & : : : - = X 4.j 2.h @.l o.O.m c n n n n n n +.. - ; - & = > > > = * : - - > ; : = ; : & ; > = & & ; ",
", - & = = * = ; , - , > = * ; & - = - > & : & * + :.R g #.o.@.@.l z . +   O n n n n 7.. - - * - > ; ; - = - * * & - , ; > & , , & = , , = , ",
"; = = & , ; = - , ; & , = = & ; - , & = : , & , X k d v *.O.@.@.=.O.o * , ; x n n *.n . - > - & - ; : - * : & * ; ; ; ; ; : - - : , = & , > ",
"> = - : = - : , , & > > * & * , - = & = ; ; = * ; + k m n @.n X.;.v o & = > o l n n n . - > ; : & : ; = & > , - * * , - & ; * & & - = = & - ",
"& = & ; : : ; - * > , * > & & : ; > = > ; ; ; ; ; ; : o x @.@.@.@.o.o & , = o l n n n . ; > > : = = > ; , ; ; - ; & * : : , * : : - & , - > ",
"* : ; & & & * ; ; & & - , > & * = ; ; - ; * > & : ; > o @.@.@.@.@.n o > , & o l n n n . > * : : - * = * - - = - * , & : , - > > * = = , , , ",
"* * ; = = - , = > : = - ; : & * , > & * ; , , > - ; & o @.@.@.@.@.n o > , o b x n n z @ * & * : = > > & = & > = = & = , & ; , : * = & , ; * ",
", = > : - : : : = & : , - - & * = ; = * ; * - ; > = & o X.@.@.@.=.=.o * , ; = O i p # , - & : : ; & & * = , , ; - : , > * : : & & > = * ; - ",
"- = > - & : : ; , , - : : & : ; , ; - ; ; * ; & & = & >   # 9.6.6.6.o & & , = O y u O * - : - : > , , , = & ; > = : * : ; , - * = ; , > , > ",
"* ; - & : > * : - - * = - = = ; : > = > ; * - - = = > & # # J J J + o * & , =   y y # = = * : : , ; * : : * : - * - ; : , = - & - , , : - , ",
"= ; : , ; , - & ; = > * , * & = * ; , > ; & , * : ; ; ; &   J J J o = * = > > # y y + = * - > : - , * = - , : : , - ; = = = : & = , > - ; ; ",
"& - , = , & > & * & = & & = * ; > = , - ; * > - : : - : - # J J _ o & ; - = , + y y @ , > = , : > > - , : : & > , > = > & * , , & * = ; & > ",
"- * * : , , = , , : ; & = - = ; & ; > : ; * , > * & - & >   ' ( J o & & = * * . y F F @ : , - : & = - * * : * = & - ; : & * ; ; > & - , = - ",
"& > - - ; ; - ; * = : ; : > > - , * ; > ; : > > - * > - ; # ' ' X X ; & : , ; + F F F @ - * & : : - ; ; > & = : * * & , - , - , & : * : = & ",
"; * - = ; - > > & * = * * : - & ; > : * ; * > , > > = > > o ' ) o * * * & ; - + F F F X , - : : : , = > > - & * * > > , - > * - & = = > - & ",
"= , & ; > & & & = & , , : : > - ; ; , ; ; - ; & * * - = = X ' ` o * - * & * & + + F F @ : ; = : & - , = : , : * & = * > ; = > > - * , * * ; ",
": - * : ; ; > * > - = & = , = - ; = = ; ; = & ; & & * * * X ' ` o : : : : - : & # X + * : * : : - , & ; - > - > - * = = * - * > ; = * , > , ",
"* * = > & , & > & - & : = , * , , & * * ; = : ; ; ; * - & o ' / o : > : : : : : : : : : : : : : & * - , - ; , > * & ; = & ; & ; & - > = & ; ",
": = - = = & , * , : , : : & > > & : : > ; ; : ; ; : - > > . ' ) D # > , : : : : : : : : : : : : : > & = * - & , * > = > : ; - : - ; : > * > ",
"& > = - : : & - & = - > & - > - & : - & ; ; ; ; & ; ; ; :   ` ' H F # , > = : : : : : : : : : : - : & : * ; ; & * , & & : , : & = : ; ; & * ",
", = & * , ; : > ; ; & & * ; * - = > = - ; ; - * * * , , : O ` Z F X O ; ; = : : : : : : : : : : : ; : > > > * , & ; : > * : - : , - = , ; > ",
"- ; , = ; : * , , : - , & : : & & * , : ; ; > * * - - ; * * O O     ; ; ; ; ; : : : : : : : : : : : & * * * > > : , : , - - , * , : ; : - , ",
", - & = , ; = , : = = > = , > & > ; ; : ; ; - ; - = - , - : - , , - > : : - * - , = ; * > , & , & = * & : : ; > ; - : > , , - > ; > & , = = ",
"- = = & & ; : * * ; = , & = & * - = , ; * : > * & > & > & = , = , , > - > * & : : * = * & , * ; - ; , > & = ; , , > : - = & > : - ; > = ; & ",
": : = & ; : & : : - & , : & , * , = , - ; = * & - - , ; : * & ; , , > : , = * & * , = - , > ; & , = & = = , = ; & = > : = = , > , , & & ; ; ",
", > - & : > - , : * & , * - : : : - = * ; : = , ; : , - = ; * ; , & * & : = : : - > * & > : - = - : > & ; & - ; , & * , * , = * * - - , : > ",
"- ; = : - = * ; & & , * > : , : : ; = * & * * * & & * : & > - : : > , & > - - & - , > - = * , , : : ; - , & ; * * * - ; : , = - ; & , * ; , ",
"= - * - > , & , * : > , , * = , - = > ; : - = - , - & > > - : & ; , > - ; = : : , * - * ; * = - * - & , > > = = & & ; = - = & & - : = ; : ; "
};
