/* XPM */
static char *result[] = {
/* columns rows colors chars-per-pixel */
"70 70 109 2 ",
"   c black",
".  c #010000",
"X  c #000100",
"o  c #010100",
"O  c #000001",
"+  c #010001",
"@  c #000101",
"#  c #010101",
"$  c #070706",
"%  c #060607",
"&  c #181A24",
"*  c #191A24",
"=  c #181B24",
"-  c #191B24",
";  c #181A25",
":  c #191A25",
">  c #181B25",
",  c #191B25",
"<  c gray14",
"1  c #252424",
"2  c #242524",
"3  c #252524",
"4  c #242425",
"5  c #252425",
"6  c #242525",
"7  c #252525",
"8  c #3E3E3E",
"9  c #3F3E3E",
"0  c #3E3F3E",
"q  c #3F3F3E",
"w  c #3E3E3F",
"e  c #3F3E3F",
"r  c #3E3F3F",
"t  c #3F3F3F",
"y  c #5E0E02",
"u  c #5E0F02",
"i  c #5E0E03",
"p  c #72621C",
"a  c #73621C",
"s  c #72631C",
"d  c #73631C",
"f  c #72621D",
"g  c #73621D",
"h  c #72631D",
"j  c #73631D",
"k  c #10306E",
"l  c #11306E",
"z  c #10316E",
"x  c #11316E",
"c  c #11306F",
"v  c #10316F",
"b  c #11316F",
"n  c #902426",
"m  c #912426",
"M  c #902526",
"N  c #912526",
"B  c #912427",
"V  c #A05E26",
"C  c #A15E26",
"Z  c #A15F26",
"A  c #A05E27",
"S  c #A15E27",
"D  c #A05F27",
"F  c #C74E64",
"G  c #C64F64",
"H  c #C74F64",
"J  c #C64E65",
"K  c #C64F65",
"L  c #C74F65",
"P  c #B4A052",
"I  c #B5A052",
"U  c #B4A152",
"Y  c #B5A152",
"T  c #B4A053",
"R  c #B5A053",
"E  c #B4A153",
"W  c #B5A153",
"Q  c #D89A46",
"!  c #D99A46",
"~  c #D89B46",
"^  c #D89B47",
"/  c #D99B47",
"(  c #F59660",
")  c #F49760",
"_  c #F59760",
"`  c #F59661",
"'  c #F49761",
"]  c #F59761",
"[  c #285AC6",
"{  c #295AC6",
"}  c #285BC6",
"|  c #295BC6",
" . c #285BC7",
".. c #295BC7",
"X. c #687EC0",
"o. c #697EC0",
"O. c #687EC1",
"+. c #697FC1",
"@. c #EAD684",
"#. c #EBD684",
"$. c #EAD784",
"%. c #EBD784",
"&. c #EAD685",
"*. c #EBD685",
"=. c #EAD785",
"-. c #EBD785",
";. c #F4D185",
":. c #AAB8E2",
">. c #FEFEFE",
/* pixels */
"; ; > & * , : > * , : - - > & - * ; > > : , : : : - & ; > = - & & = - > * ; * > ; - > ; ; : > > ; * ; - ; ; ; & > : , > > - > & : - - & * * ",
"; , * : : > : , & = , : ; > * * = ; ; - ; ; = > - - & & * ; & & > > * > ; & & : , : , : - * - * , - = : , = & * ; & > - * : - > - * , & : > ",
"> : - * * = : , * : = ; : - - - - , > = * : : * > * : : , - * ; , , = > : = - > * : = : ; ; & - ; = > - , ; ; & , = ; * & : - & & & = > & - ",
"* , = : & : = ; & > ; , : ; - * > > > > > > > > > > > > > > > > > > > > > > > > > > > > > > > > > > > > ; * ; , , & ; = : > - > : > & ; > & ",
"= ; > > , > * = - - ; , - & = & & * & & : : , : : , - ; > , = - & : = ; ; > ; : > , - * : - & > * : > & ; , ; , > & : , * : : ; * ; & : & - ",
": ; * * * & > > : : = , ; * : ; & = & : : , : > - , ; - & >   . X X # + @ o = > , = > * : ; : , & , > & - & > & - , , = = - * : - : = & = - ",
"= - > = ; > : = = : , & > & > & ; * = : , * = > : = : - = + U #.E E *.Y Y a   ; : = , > & = : - ; = > * : > > * ; , - : * , : = > > & > , : ",
"; > : = = > & , > > = = > = - > : & - > * = = - , - > &   g U =.#.%.#.R *.T a o = = > ; = ; > , - , > > = : > & * : ; = ; ; & : , : * & > , ",
"* * * ; * ; , : - = > > = ; , : & ; - > - : , * - * - , . U -.P U F F E E Y P   - , & = > ; & & ; - > ; , ; : , * - = = = ; = ; , ; = = = : ",
", & * = - ; - > : = : & & , * > - & - - : = * : = - - + X K L J L H K G F N B n X : & - = : : , = * > , & * , * = * - ; : ; > & = : * ; > : ",
"; ; * * , = > - = ; ; & > , : - , - , - : = = - ; ; + X o L L L P P Y W K N N m X : ; & : - : , ; & > - * * : , ; & - > * : , & & & : , : ; ",
"& & - : : - - - - , = , ; > - * , > & > ; , : & ; #   @.%.Y P T R %.R #.R Y Y M # . - > - , , - , > > ; - & = * & * * = = - > : : = & - , , ",
"> = : * , , * * ; ; = : , - - : : - : = , ; o   # %.%.*.Y X . o +   + # + @ T U o .   * & : , , - * > * * & * ; & > : - & > & = = : - - > , ",
"& = , ; = ; ; > - * - : = = * & * , ; ; = =   $.s s d s # . # O X   . X . @ O U g g g W # > > & : - > - - : & & = ; = , , ; , - = - & & : , ",
"& ; = * , - & ; = & > - & ; > ; > = - & > : : X # g s j + X X o   @ + . . . O # X d f g . ; * - : , > > ; * * - - * - : & > - = , - > > = = ",
"= * > & : * & * & > & - , ; - - : * : : - ; , > o . + o @ # O # o # # + O #   + + o O . o = = > * , > ; ; = * : & = = > > = * : , > > - - : ",
"- = * , & & = : - * - * > > , ; & , & ; = ; = * >   + # # o # + # @ . + # O   X + > : & : - , > : * > > = > = = > ; - - & & , * - & = & - = ",
"; = : : * > , > , * , , > = * : : = ; - = , * ; & & = * X + . . X . #   . . # @ = * ; > & , > * * - > : - = : = ; & * & & ; = & = : & : = : ",
"= ; & = : > ; , ; : , , * , - & = - & & > & ; : > , - , O . +   + +   . O . @ # * = & - : = , = - * > & ; * & > - > & > ; = - & ; = , ; * - ",
"& , * : & = : & = , > : - ; ; : = , & , = = : ; = , ; : > X @ + o @ O + X . & & - > = * > - > , ; = > ; : * & ; , ; & > & : & > > & * : - * ",
"> , * : * ; = ; - > , , , > - ; = ; = = * > : ; ; , * , & + . A S # / ! A . ; - > ; * * & , , ; : = > & , = : = & = * - - > : > = : = = ; > ",
"; > : = = > , = ; : : , : - , ; : * = - > - ; & ; > & ; & : ; . D Z Z V o . > , * , - & , , : - * , > = * - = > - ; * - : = : ; * & * ; & : ",
", = * - , * & , = = > = - > * - : - & - = , : & - > , , = X # 2 1 1 7 6 6 5 5 X X ; : : > - > - > & > : , : > ; > > > > * > : : & > = = ; : ",
"- : & > > > - > > = > * , > ; & & * * > & , ; ; & * , , X X 0 t 3 < 6 < 7 1 ( #.3   = - - : & > > , > : & : ; - > , & = - = - = - , - = ; = ",
"> ; = - & * - * , - * : = - - : = , & : * = > , > : , o # ' -.t 2 4 &.4 3 6 $.q 2 q   & ; - ; = > , > : - & > & , > > * ; - & & = * = ; , - ",
"> : & ; ; * = - * ; ; & & > , - ; > > & = ; , = > = o i . &.9 8 7 @.) $.5 4 w 6 O 7 #.@ > > > = > = > , = * * = & = = = : > & , > & , & , : ",
"- * , : ; > = : ; - & > , : & ; ; * > = > - , & : o u y X . 6 8 7 7 $.3 9 0 0 7 @ #.] $.# , : ; - = > : * * - - : - & - * , : - - ; > : = > ",
"* > - - ; * ; , ; & * - & , , * : > ; : : & = > :   u y o ,   w 5 1 2 9 5 3 5 O .   %.w @ > , - * ; > - > - & & > > = - * , = : * > & : ; - ",
": > & - > - , & = * = > & > * * & > , ; & ; > : . u u u , O 1 6 5 3 t 8 5 3 -.# ; o O ;.;.  * , : = > : * , = * - * * = ; * : - : & > = : - ",
"= * > , & & , > ; > : ; = : = * , > = > > = ; > O u u O > O ( 2 3 0 5 q 7 #.( . , * .   ;.;.o : = - > ; - - - & : : * & > : & > - - > * > * ",
"& : - & - = ; ; ; : ; - * & & = * > * , - > > > O C C O , . #.e r &.< 7 t 1 *.X & > O ,   C C + - > > - , > & , , & & - ; ; : > ; ; - & * = ",
"; ; ; ; , - > ; , > ; , - - * : , : : & = = > > > O O > & % 8 3 #.` &.6 4 w 1 . O * & : o C C C O - > * & ; : * , = = , = & * * ; & , ; > ; ",
", * = , = * > * ; & - > > , = ; : , : & & & > > > > > > + $ 0 5 3 &.4 6 e 2 4 #.. - * * @ C C C O ; > * > : ; - & : - , - ; = & - > : * > , ",
": > = = > - - = - > & : : > > = * > , , : & > > > > > + e -.t t t 4 < 8 : - =._   & > > o C C + : : > , & - : * & = & - = - , - ; : & - : - ",
"> , > = - : * * > : ; > = = * : > , > > ; & & > > > & + &.' -.q 1 < q $., * 3 %.1 X : - - . O - - ; > > & - , = = - - ; = - : : , * * ; & : ",
"= * & = - , ; > , * ; - & * & - & , = = & & & & & & & + t &.4 < < q %.` %.: 6 . 7 X = & & & & & & & & ; & ; * : = & > * * > , : ; - , ; * > ",
"- * > & & - * ; , * = : & : - > & = = = & & & & & & & + e 2 4 o * * , > , ; < o -.O # & & & & & & & > = & : * , = & ; : - = , > = , : : , ; ",
"& , ; , & : * & , ; : & , & : = & & = = = = = = = = X g p #.$.h h f f f %.$.d s j *.X = * * & = > : > & & : > * = : , > ; = , > = - = - > = ",
"> > > > > & - - ; & - = : > & * ; & = = = = = = = = X W I W U g %.&.%.$.&.@.$.%.T E @ O & & & & & & > & & & & : & ; ; & > = = - ; , - ; = > ",
"> , ; - = * * * : - - = ; * = - ; - = = = = = = = = X g h %.g c [ O.X.o.{ v l l b   o & & & & & & & > & & & & > - - : > ; - , > : ; : * , : ",
"; * = - ; & - : = = = * - * * - - * = = = = = = = = = X d #.g  . . . ...v v v v } v o & & & & & & & > * - , = > - = = = ; : , * & = - * = : ",
", > > * - , ; & : : , , : > - : * = = = = = = = = = X s @.p  . . . .O.v v v v v v v v o * = - * & ; & ; : * > - = : > > - * = : , > = , ; ; ",
", : : & = , = * = , : ; , > - - : ; ; & : : : - = X -.h *.g  . . .| b x v v v v v v v . - ; - & = > > > = * : - - > ; : = ; : & ; > = & & ; ",
", - & = = * = ; , - , > = * ; & - = - > & : & * + @.I f ..}  . . . .. +   O v v v v v . - - * - > ; ; - = - * * & - , ; > & , , & = , , = , ",
"; = = & , ; = - , ; & , = = & ; - , & = : , & , X j s  .O.| O. . . .o * , = o k v v v . ; > - & - ; : - * : & * ; ; ; ; ; : - - : , = & , > ",
"> = - : = - : , , & > > * & * , - = & = ; ; = * ; + j  . . .O.O.+. .o & , & o k v v v . > * ; : & : ; = & > , - * * , - & ; * & & - = = & - ",
"& = & ; : : ; - * > , * > & & : ; > = > ; ; ; , ; ; ; : o  .O.O.O. . .o & , c z v v l @ * & > : = = > ; , ; ; - ; & * : : , * : : - & , - > ",
"* : ; & & & * ; ; & & - , > & * = ; ; - ; * > , & : ; > o  .O.O.O. . .o > , = O i i # , - & : : - * = * - - = - * , & : , - > > * = = , , , ",
"* * ; = = - , = > : = - ; : & * , > & * ; , , & > - ; & o  . .O.O. .v o > & > O i i O > - : * : = > > & = & > = = & = , & ; , : * = & , ; * ",
", = > : - : : : = & : , - - & * = ; = * ; * , & ; > = & o {  . . .O.O.o * & = O i i O = = * : : ; & & * = , , ; - : , > * : : & & > = * ; - ",
"- = > - & : : ; , , - : : & : ; , ; - ; ; * , & & & = & >   # >.:.:.:.o & > > > O O > > > > > : > , , , = & ; > = : * : ; , - * = ; , > , > ",
"* ; - & : > * : - - * = - = = ; : > = > ; * , & - = = > & # # / / / + o * > > > > > > > > > > > , ; * : : * : - * - ; : , = - & - , , : - , ",
"= ; : , ; , - & ; = > * , * & = * ; , > ; , , & * : ; ; ; &   / / / o = * = > > > > > > > > > ; - , * = - , : : , - ; = = = : & = , > - ; ; ",
"& - , = , & > & * & = & & = * ; > = , - ; , > & - : : - : - # / / / o & ; - , > > > > , > = , ; > > - , : : & > , > = > & * , , & * = ; & > ",
"- * * : , , = , , : ; & = - = ; & ; > : ; , , & > * & - & >   / ! / o & > > > > > > > > : , - ; & = - * * : * = & - ; : & * ; ; > & - , = - ",
"& > - - ; ; - ; * = : ; : > > - , * ; > ; , > & > - * > - ; # / / X X ; > > > > > > > > - * & ; ; - ; ; > & = : * * & , - , - , & : * : = & ",
"; * - = ; - > > & * = * * : - & ; > : * , * > & , > > = > > o / ~ o * * * & > > > > > > > - ; ; ; , = > > - & * * > > , - > * - & = = > - & ",
"= , & ; > & & & = & , , : : > - ; ; , ; , - ; , & * * - = = X / ^ o * - * & > > > > > > > ; = ; & - , = : , : * & = * > ; = > > - * , * * ; ",
": - * : ; ; > * > - = & = , = - ; = = , , = & , ; & & * * * X / ^ o ; , ; ; ; & > > > > ; * ; ; - , & ; - > - > - * = = * - * > ; = * , > , ",
"* * = > & , & > & - & : = , * , , & * , ; = : , ; ; ; * - & o / Q o , , ; ; ; ; ; ; ; ; ; ; ; ; & * - , - ; , > * & ; = & ; & ; & - > = & ; ",
": = - = = & , * , : , : : & > > & : , > ; ; : , ; ; : - > > . / / o , , , ; ; ; ; ; ; ; ; ; ; ; ; > & = * - & , * > = > : ; - : - ; : > * > ",
"& > = - : : & - & = - > & - > - & , - & ; ; ; , ; & ; ; ; :   ^ / o , , , > ; ; ; ; ; ; ; ; ; ; - : & : * ; ; & * , & & : , : & = : ; ; & * ",
", = & * , ; : > ; ; & & * ; * - , , = - ; ; - , , * * , , : O ^ / A o , ; ; ; ; ; ; ; ; ; ; ; ; ; ; : > > > * , & ; : > * : - : , - = , ; > ",
"- ; , = ; : * , , : - , & : : & & , , , , , , , , * - - ; * , o o o , , ; ; ; ; ; ; ; ; ; ; ; ; ; ; & * * * > > : , : , - - , * , : ; : - , ",
", - & = , ; = , : = = > = , > & > ; ; : ; ; - , , - = - , - : - , , - , : : * - , = ; * > , & , & = * & : : ; > ; - : > , , - > ; > & , = = ",
"- = = & & ; : * * ; = , & = & * - = , ; * : > , * & > & > & = , = , , > - > & : : * = * & , * ; - ; , > & = ; , , > : - = & > : - ; > = ; & ",
": : = & ; : & : : - & , : & , * , = , - ; = * , - - , ; : * & ; , , > : , = * & * , = - , > ; & , = & = = , = ; & = > : = = , > , , & & ; ; ",
", > - & : > - , : * & , * - : : : - = * ; : = , ; : , - = ; * ; , & * & : = : : - > * & > : - = - : > & ; & - ; , & * , * , = * * - - , : > ",
"- ; = : - = * ; & & , * > : , : : ; = * & * * * & & * : & > - : : > , & > - - & - , > - = * , , : : ; - , & ; * * * - ; : , = - ; & , * ; , ",
"= - * - > , & , * : > , , * = , - = > ; : - = - , - & > > - : & ; , > - ; = : : , * - * ; * = - * - & , > > = = & & ; = - = & & - : = ; : ; "
};
