/* XPM */
static char *_49c9e505b04479ae051885150587d3bFLgcdyq1qThvOmYJ[] = {
/* columns rows colors chars-per-pixel */
"70 70 235 2 ",
"   c #1B0E2D",
".  c #17122F",
"X  c #1B122E",
"o  c #171531",
"O  c #191532",
"+  c #1B1A35",
"@  c #1E1D39",
"#  c #23132E",
"$  c #231934",
"%  c #2C1B32",
"&  c #221D39",
"*  c #291933",
"=  c #331C33",
"-  c #3A1F36",
";  c #220F2B",
":  c #24233B",
">  c #2B263C",
",  c #2D2A3E",
"<  c #29253A",
"1  c #352136",
"2  c #3B2235",
"3  c #322B3D",
"4  c #3B2B3B",
"5  c #37243A",
"6  c #2E333D",
"7  c #38323E",
"8  c #452C3A",
"9  c #4B2C3D",
"0  c #492838",
"q  c #45333D",
"w  c #4B323E",
"e  c #512F3D",
"r  c #2D2D42",
"t  c #2C2640",
"y  c #322D41",
"u  c #3A2B41",
"i  c #2E3744",
"p  c #343343",
"a  c #3A3444",
"s  c #343C42",
"d  c #3C3C43",
"f  c #3A354A",
"g  c #353A4A",
"h  c #3B3B4B",
"j  c #353649",
"k  c #3F3951",
"l  c #3C3750",
"z  c #4C2E41",
"x  c #422D40",
"c  c #502D41",
"v  c #433442",
"b  c #4C3342",
"n  c #433C44",
"m  c #4C3A43",
"M  c #44354A",
"N  c #433D4C",
"B  c #4B3B4B",
"V  c #4C364A",
"C  c #523245",
"Z  c #523A45",
"A  c #53364A",
"S  c #543B4B",
"D  c #593B4B",
"F  c #423A52",
"G  c #4E3F51",
"H  c #5C3D51",
"J  c #573F51",
"K  c #344545",
"L  c #3A4445",
"P  c #334946",
"I  c #344649",
"U  c #3C444B",
"Y  c #354B4B",
"T  c #3A4C4C",
"R  c #384947",
"E  c #3C4E51",
"W  c #3B4751",
"Q  c #3E5255",
"!  c #434345",
"~  c #43424C",
"^  c #4B444C",
"/  c #434B4A",
"(  c #4B4C4C",
")  c #484546",
"_  c #55444B",
"`  c #5A444D",
"'  c #5B4B4F",
"]  c #53484A",
"[  c #4A514D",
"{  c #454453",
"}  c #4A4352",
"|  c #424B55",
" . c #4B4B55",
".. c #4D455D",
"X. c #4C4B59",
"o. c #464D59",
"O. c #5B4154",
"+. c #5C4B52",
"@. c #52465E",
"#. c #5C4659",
"$. c #534D5A",
"%. c #574856",
"&. c #435254",
"*. c #445459",
"=. c #49555A",
"-. c #535352",
";. c #5D5454",
":. c #5D5955",
">. c #53535D",
",. c #5D545C",
"<. c #5E5A5A",
"1. c #51585E",
"2. c #50524F",
"3. c #634B5D",
"4. c #644858",
"5. c #645356",
"6. c #615957",
"7. c #63535B",
"8. c #645D5B",
"9. c #695C5C",
"0. c #66615E",
"q. c #69625E",
"w. c #4D4A60",
"e. c #544C64",
"r. c #584B60",
"t. c #4D5D62",
"y. c #545462",
"u. c #5C5562",
"i. c #545C63",
"p. c #5B5B65",
"a. c #5E546A",
"s. c #5C5D6A",
"d. c #565F69",
"f. c #674D60",
"g. c #645263",
"h. c #6B5264",
"j. c #645B65",
"k. c #63566C",
"l. c #6E5769",
"z. c #645B6D",
"x. c #6C5B6B",
"c. c #6A5D65",
"v. c #71566A",
"b. c #725B6D",
"n. c #645C71",
"m. c #6D5F76",
"M. c #745D70",
"N. c #5A636B",
"B. c #566166",
"V. c #587378",
"C. c #4B656A",
"Z. c #666362",
"A. c #6B6563",
"S. c #6D6966",
"D. c #65636C",
"F. c #6E6C6B",
"G. c #6C636E",
"H. c #706967",
"J. c #72646B",
"K. c #726D6B",
"L. c #6F716E",
"P. c #72716E",
"I. c #6C6374",
"U. c #656A74",
"Y. c #6B6B74",
"T. c #6E6478",
"R. c #6B6C79",
"E. c #646472",
"W. c #746274",
"Q. c #7B6475",
"!. c #736C72",
"~. c #736C7B",
"^. c #7A6779",
"/. c #6E7172",
"(. c #6A727B",
"). c #757575",
"_. c #787676",
"`. c #767877",
"'. c #797976",
"]. c #767679",
"[. c #79777A",
"{. c #777979",
"}. c #7B7B7B",
"|. c #816C7C",
" X c #807D7F",
".X c #82747E",
"XX c #7E807F",
"oX c #667A83",
"OX c #737382",
"+X c #7C7482",
"@X c #7D7B82",
"#X c #777D87",
"$X c #706E83",
"%X c #846F82",
"&X c #847384",
"*X c #837D83",
"=X c #857C8A",
"-X c #8A7C8C",
";X c #887987",
":X c #8D7F90",
">X c #907F8F",
",X c #7D8284",
"<X c #7F888B",
"1X c #758A94",
"2X c #70888D",
"3X c #848185",
"4X c #858489",
"5X c #8C848C",
"6X c #8E888E",
"7X c #86888A",
"8X c #91858F",
"9X c #928B8E",
"0X c #8E8491",
"qX c #8F8991",
"wX c #868B98",
"eX c #938692",
"rX c #948A94",
"tX c #988D95",
"yX c #958C99",
"uX c #988D99",
"iX c #85949B",
"pX c #8C949B",
"aX c #899699",
"sX c #969095",
"dX c #93929D",
"fX c #8C9CA3",
"gX c #8A98A5",
"hX c #929CA5",
"jX c #949AA7",
"kX c #8FA2A8",
"lX c #93A3AC",
"zX c #93A9AC",
"xX c #91A2A6",
"cX c #93A9B3",
"vX c #94A5B1",
/* pixels */
"eXeX].> (.lXpXeXeXeXeXeXeXeX[.t D.kXhX0XeXeXeXeXeXeXeX3Xf X.kXhX8XeXeXeXeX@Xy s.kXhX8XeXeXeXeXeXeX3Xa >.fXjX0XrXeXeXeXeXeXeX6X} h aXlX0XeXeX",
").}.-Xz gX7X).`.`.`._._.`._.eXz iXwX).).).)._._.`.`.).yXD $XfX)._.)._.).`.eXC <XiX)._.)._.).`.).).yXS OXfXP.).`.).`.`._.).).eXf.a.zX).).).).",
").{.).9 0X}.).).).`.).).`.)._.z &X3X).).`.).).].{.).).}.m M.qXP.`.).`.`.`._.z %X4X).`.).).`.).).).}.V W.6X).).`._.`.).`.).).}.+.4.uXP.).).).",
"`.).7.I -X X).).`.)._.].).`.0.K *X*X).).`.].`.).`.).`.S.L Y.8XP.).`.)._.).A.K +X=X).`.).)._.).)._.S.L !.6X).).).).`._.).).`.K./ B.eX).).).`.",
"`.).:.Y 4X*X).).).).).).).9.6.P #X-X).)._.).)._.).).).A.q W.6X).).)._.`.).9.P #X5X).).).`.).).`.A.8.P (.6X).).).).`.).).)._.F.m 3.rXP.`.`.`.",
"`.).6.q :X}.)._.{.).{.).A.F.9.v ;X*XP.).).).)._.`._.`.A.d !.6XP.).).).`.).Z.q %X*X).).`.`._.).A.S.S.q ^.6XF.{.).).`.).).`.`.F.) s.eXP.`.].).",
"H.A.Z 5 @XyX3XP.K.H.K.S.9.F._ 1 ).tX3X}.}.`.K.}.F.H.H.5.3 N.sX4X}.}.{.K.S.` = !.tX3X_.H.H.H.S.9.H.+.1 j.tX4X}.}.}.H.}.P.S.K.5.7 X.rX6X}.{.}.",
"! b * o h f.1./ a n d / / w % O j g.7.` %.{ N } w m / 1   r %.h.%. .{ ! m % . p g.u./ a n h / / m = . y ,.f.%.]  .n  .m w ) 3   : $.h.+.X. .",
"N.#.....{ O.y.o.: : o.V.y.3.......G 4.4.O.t + h k.3.i.w.....O.+.v + W V.#.w.@...J u.=.r & U V.B.4.w...w.G _ 4.#.p + p a.f.p.y.w...G 4.V + f ",
"vXtXtXeXyXtXtXsX$.} xXlXeXtXtXtX8X`.*XuXyXD.j aXzXyXtXrXyXrXyXyXD.u 3XlXyXtXtXtXyXeXeXz.f pXjXyXyXrXtXrX X@XuXtX_.y <XcXdXeXeXeXuXeXyX[.t ).",
").).).).).).P.6X4.k.lXF.).).).F.A.9.F.).3XQ.J cX)./.).).).).).*X|.b ).).).).!.).).).3XQ.J cX).).).).L.A.9.A.).}.;Xz jX}.K.).].).).).}.*X9 F.",
").).).].).).).{._ f.rX).).).).q.-X*X).).{.6.A rX`.).).).).).).{.8.b ).)._.).).].).).}.7.S eX).).).].A.&X5X).`.{.G.z 0X@X).).).).`.).{.F.9 K.",
").`.].].)._.`.H./ N.eX).).).9.5X X).)._.H.2.o.eX).).).).`._._.K.2.T ).).`.`.`.`.).`.K.( *.tX`._.].9.=X*X).).`.P.;.T eX}.`.).).`.).`.).;.R P.",
").).).).).).).H.R N.eX).).).).`.)._.)._.P.] D eX_.).)._.`.).{.K.2.E ).)._.).`.).).).K.2.*.tX)._.).)._.).).).`.P.;.z :X}.).).`.).).{.P.;.P Y.",
").)._.).).)._.H./ N.eXP.).).).).).).).).P.] D uX).8.).`._.).{.K.-.E ].).).).).`.`.`.K.2.*.uX).`.).`.).).).)._.!.;.z eX[.9.!.`.`.).`.).:.Y /.",
"6X_.S.}.H.S.S.' 3  .rXqX}.}.}.S.S.S.A.S.5.8 a 3XeX_.S.S.q.S.H.7.8 j ,XrX}.S._.K.A.S.5.4 g 4XeX}.}.}.H.S.S.A.S.8.z > @XtX}.H.A.A.A.S.9.z i ).",
"%.T q j u 3 8 = . @ M D m Z f p , 8 0 d 6   + a J &.R p 3 p 4 2 . + a O.| w a j , 8 2 . + a O.Z Z h a y 8 0 q s # o r J &.T 6 u 7 3 0 O . p ",
"x.I.v. .@ h R.R.z.z.k.b.v.v.X.@ h U.^.G.U.n.z.k.l.Y.Y.y.: r E.OXz.z.k.b.U.J.$.: y E.$Xn.n.n.v.v.v.>.: y E.$Xb.U.n.n.z.l.I.R.B.r : u.OXz.n.k.",
"9X8X6X5Xu #XlXpX8X6XeX0XqXqX5Xu #XlXpX6X8X6X6XeX6X6X5XrXB z.zXpX8X9X6X6X8X6XrXM E.zXaX8XeXqX0XqX0XrXM E.zXpX5XeX9X6X6X6X8XeXsX,...zXaX8XqX6X",
").P.).5X9 wX4XF.L.).).).).).5Xe wX7XF.).).).).).).).P.6XD OXaXF.).).).P.).P.6XA +XpXS.).P.).).).P.6XD OXpXS.).).).).).!.).P.4Xf.g.lXK.).).).",
").).).F.9 &X*X).)._.`.).).).F.q .X=X).`.).).).).).`.).).b b.6X).).).).).]._.).w M.5X).{.).`.).).).).n J.5X)._.`._.).)._.).).`._ 4.eX)._._.).",
"`.).).:.q &X3X).`.).).].).).8.K =X*X).).).).).).`.).`.A.q M.6X).).).).).).`.q.8 Q.5X).).).).).`.).q.L R.5X).`.).).`.).).).).S.w 3.uX).).).`.",
").`.).8.P =X*X).).`._.).).).8.8 &X3X).).).).).`.).).`.A.L R.5XP.{.).{.).`.).A.K ].4X).).).`.).`.).A.8 Q.6X).).).{.).).`.`.`.H./ d.rX).`.).).",
"`.).).6.K =X*X)._.).)._.).).8.K =X*X).`.).`._._.).).`.A.R Y.8X).).`._.).).).A.L (.6XL.).`.).`.).`.S.L R.8XP.).)._.)._.).).`.H./ d.rX).).).`.",
").).).6.8 ;X*X).`.).`.).).).8.K =X*X).).`.).`.).).`.).A.9 W.6XA.A.).).).).).A.8 Q.5X/.`.).).`.).`.q.R (.6XP.`.).).`.).).`.{.F.w 3.tXF.0.).).",
"A.A.9.b % U.tX4XF.0.A.A.A.8.z < F.tX3X].}.).q.A.A.9.A._ % y.rX5XL.q.A.A.A.Z.Z % ,.yX6XP.q.Z.q.A.A.D < y.eX5X{.}.`.A.0.A.q.A.+.1 ~ 6XeX).q.q.",
"0 8 8 * O t V M y 3 , P K 8 * . < E ^ b v r , , K R 8 % o & U  .9 8 < 0 0 8 % O : M V r , , L R q % . & U  .e b y 3 , s P q = . + g  .b 8 : ",
"Q.^.Q.p.I.I.Q.j.i , N.1X].Q.W.I.m.R.Q.Q.x.h : p.1XOX^.T.T.I.I.!.Q.Q.I.Q.^.Q.p.Y.T.W.x.h : p.2XOXQ.T.T.I.R.!.Q.W.X.@  .2X#X!.Q.T.T.I.~.W.Q.T.",
"6X5X3XK.5X6X4XtXr.$.zXpX5X4X6X5X6X5X5X5XyX!.M xXpX5X4X5X6X5X5X5X6X4X5X5X6X5XP.*X6X4XtXG.M lXpX5X5X4X5X6X4X5X5X6X&Xu gXfX5X5X5X5X5X5X5X5X5X0X",
").).).A.A.P.).3X3.g.hXS.).).).).).!.).!.@XJ.A lXP.).).).).).).).)./.).).).!.S.A.F.).3XJ.O.jXP.).).).P.).).).P.}.&Xz hX[.L.)./.).).).).).).).",
").).).{.A.).).).] 3.eX).).).).).).).).`.).,.^ eX).).).).).).).).).).].).).).`.A.K.{.).,.^ eX).).)._.).`.).).).`.0.v :X}.`.).`.`.`.`.).`.].).",
").).`.).`._.{.H.T N.tX).).).).{.)._.)._.K.2.*.tX).).`.).).).).`.`.{.{.).`.{.).{.).`.K.[ =.uX)._.).).`._.`.`.`./.:.T eX}.).`.).).).).`.{.`.).",
"`.).).).).P.).S.U d.tX_.).).`.).).).).).H.^ | yX}.`.`.`.).).).).).P.).).).).).P.).).S.) o.rX}._.[.{.).).).).).K.' I 5X*X{._.`._.).).).).).K.",
"P.F.:.L.6.5.:.m * h [.;XF.).Y.8.F.8.;.8._ = r !.-X).Y.].j.A.Z.:.6.:.:.!.Y.6.P.0.;.<._ % 3 ).;X!.!./.8.S.A.+.:.' 1 : G.-X_.Y.).Z.Z.F.;.:.;.;.",
"v Y P I 8 9 U r $ : u z b Y P I P a 0 M s & : t z Y Y Y P P Y L q I < z Y P P q 0 n s & : t z z Y Y P P d 0 v I : : : x U Y P P I Y R 9 Y t ",
"-X5X/., u.gXpX=X-X-X-X-X-X=X`.r 1.iXpX=X=X-X=X-X-X:X4X@Xh U wXfX;X5X;X-X:X_.i X.pXgX=X-X-X-X-X-X0X}.j { wXgX;X5X-X-X-X-X=X0X3XX.p <XgX-X=X=X",
"}.}.eXz gX<X}.{.}.}.}.}.{.}.tXb 1XpX}. X}.}.}.}.}.}.`.tX#.I.lX`.{.}.}.}.[.tXA #XfX{.}.}.}.}.}.}.`.uXH R.lX`.{.}.}.}.}.}.}.).qXv.@.cX}.{.}.}.",
").)._.9 -X3X).).).).).).).).@Xe &X4XP.).).).`.).].).).@XS l.pXK._.).`.).).@XC ^.4XL._.).).).).).).@XS b.qXP.).).).).).).].).@X7.4.dX).)._.).",
"].).c.d =X*X).).`.).).`.).).A.L +X3X).).)._.`.`.`.).`.F.R G.8X)._.).`.).).S.L ~.-X).).].).).`.).{.F.L I.eX).).).`.`._.`._.`.K.( 1.eX).`._.).",
").).<.Y =X*X).).).).).].).q.8.P +X5X).).).).]._.).).).A.q x.6X).`._.).).).c.P OX5X).).`.`.).).{.A.9.Y U.9X).).).`.).).).).`.H.) #.tX).)._.`.",
"`.).0.7 -XXX).)._.`.{.).S.S.9.7 +X*XP.).).).`.).).`.`.H.! G.eXL.).).).`._.A.q ^.5XL.).).`.`.`.J.S.S.n I.8X/.).).).`.).`.).{.L.) >.eXP.).).).",
"F.F.` 2 &XrXXXP.K.K.P.H.8.K.5.1 ~.tX3X{.}.`.P.}.P.P.K.5.6 s.tX4X{.}.}.K.F.5.1 !.yX,X_.K.K.K.K.8.K.7.2 g.tX3X}.}.}.K.{.).F.P.9.d *.yX4X}.}.}.",
"( Z = o { M.D.2.N ^ ! ( ( _ = . h J.l.,.,.X.^ >._ Z  .4   r j.b.,.u.>.( _ = O g x.I.-.~ ^ ~ / ( ] 2 O p j.M.,.,.$.^ >.Z Z ( 7 ; > u.b.g.u.>.",
"t.S F k l A  .W : & g C.=.J F F k M Z H B > @ u #.O.o.{ F k M D 8 + j t.J F F l V _ E , + j t.t.O.M k k M Z H S r @ > %.O.] o.F k M D b + r ",
"vXeXrXyXtXyXyXeX$.N pXvXeXyXeXtXrX}.3XuXrXD.y 7XcXyXyXeXtXtXtXrXU., ,XcXyXeXuXtXuXyXeXD.u 7XcXyXtXyXyXeX*X}.uXtX[.t {.cXjXeXuXtXyXuXtX}.y Y.",
").)._.).).).).6Xh.r.cX)._.).`.).A.8.F.).3X|.B cX`.).).).).).).*X&X9 ).).).).).).).).3X^.B cX`.).).).).J.8.A.).}.-Xb fX,X!.`.).).).)._.-Xz S.",
"_.).).`.).).).}.+.4.yX)._.`.).0.;X*X).).}.c.V yX].).`.).).).).}.A.9 ).)._.).{.).).).{.c.A yX`.`.).`.q.[.5XP.`.`.!.z -X*X).)._.).).).`.).9 F.",
"_.).`.).`.).{.H./ i.eX).).).q.;X*X_.)._.P.-.| eX`.].`.).).)._.P.-.T ).).).).)._.).`.K.-.| rX`.).{.0..X5X`.).`.).<.U -X X).).).).).).).6.K Y.",
").).).).).).`.H./ i.tX).).).)._.`.).)._.K.' A eX_.`.).).).).`.K.-.Y `.`._._._._.).`.K. .Q eX).`.).)._.}.).).`.).;.x -X*X).{.).).).).).:.Y Y.",
").).{.).)._.{.K./ i.eXP.).).`.`.`.`._.`.P.' Z eX`.c.).{.`.`.{.).;.T ).).).`.).`.`.{.P.-.Q tX).).).).).].).`.{.).6.9 >X}.Z.F.{.).`.`.).6.Y /.",
"9X}.F.}.K.S.K.5.7 o.9X6X}.{.}.K.S.S.S.H.9.q a 5X9XP.S.S.S.S.F.9.v s XXeX}.H.`.P.S.H.7.v g 6XeX}.}.}.P.S.S.S.H.A.Z 5 *XtX_.S.H.H.H.K.A.Z r ).",
"7.=.w ~ h a q 2   : } 3._ _ { M p q e ! 7 X + N 3.1.T a a a v 8 X + ~ 3.=.m N N p q 8 X + ~ 3.%.` } h a q w m L # . j 3.>.&.d a a a 0 # O h ",
"g.d.f.N @ i a.s.e.e.@.3.h.f.{ @ y p.x.g.d.e.r.w.3.N.N. .: : >.n.e.y.@.3.B.h.} : > y.n.e.e.@.3.f.3.} : t y.x.g.N.e.y.e.#.j.N.1.r @ X.E.e.e.w.",
"rXeXrX5Xu R.lXhXeXtXtXeXrXqX6Xu (.zXfXeXeXtXtXeXeXtXeXsX} y.lXxXeXeXuXuXeXeXtXN u.zXxXeXeXtXrXrXtXsXM p.zXkXeXeXtXeXtXrXeXeXsXg.N xXlXtXuXtX",
").).).0XC wX7XF.).).)./.).).6XC wXwXF.).).).).).P.).).6X4.I.fXH.).).).P.).).rXD ~.fXS.).).).).).!.qXH ~.fXS.).).).).).P.).P.4Xl.#.cXK.).).!.",
").).).P.9 |.3X].).).).).).).).q ^.=X).).).)._.)._._.).).Z h.eX).).)._.).).).).b b.6X).`.).).).).).{.m x.eX).).).).).).).`.).`.' H tX)._.).).",
").`.].0.8 %X3X).).).`.).`.).0.L @X3X).`.).`.).)._.)._.S.q l.qX).).).{._.).).S.q M.qX).).`.)._.).).S.R Y.8X).).).).`.)._.).`.F.Z #.tX).).).).",
").).).8.K @X3X).).).).).).).0.8 |.5X).)._.)._.].).)._.A.R U.8XL.).).`.).)._.A.L Y.8X/.).)._.).).).A.w v.6X).{.).).).`.`.`._.K./ t.tX).)._.).",
").`.).9.P @X;X).`.).`.).`.).9.K +X3X).).`.].).`.).).`.S.R U.eX)._.).).).).).S.L R.6X).).).`.).).).S.L E.8X).).).).).].).`.`.J.[ t.eX).`._.).",
").`.).9.q %X*X).).).{.{.`.).0.P @X3XP._.).).).).`.{._.S.q b.eXA.A.).).`.).).S.q b.5XL.).`.).{.{._.S.R R.6XF.).`.).`._.).`._.K.) #.tXK.0.).).",
"S.S.A.S % Y.tX4XP.S.S.S.S.A.Z , U.tX3X'.}._.A.S.S.S.S.` = >.tX5XK.S.S.S.S.S.` = u.sX6X).S.S.A.A.S.` 3 y.rX5X}.XX{.A.S.A.A.F.5.- F 9X8X).S.S.",
"9 w q * o , O.G a 3 7 R L 9 % . t =.$.Z B g a 3 L L q = . : | >.Z 8 3 q w w = . : B O.g 4 6 L K w % . < o.>.Z m h a p s R m - . + U 1.S w 3 ",
"b.l.l.$.a.a.h.,.r : 1.oXU.b.a.a.a.s.x.v.g.g + X.2XU.b.z.z.a.p.D.v.l.a.l.v.b.>.y.a.k.g.j & X.2XU.b.z.a.a.s.D.l.h.~ + N oX(.x.k.k.a.p.D.l.l.a.",
"qXrX8XP.4XtX0XsX,.{ xXhX8X9XeX9X9XeXeXqXtX!.a aXfXeX6X9X9XeXeX9XrX9XeXeX9XeX_.3XtX6XrX!.a aXhXeX6XeXeX8XeXeXqXrX*Xu <XxXpX6XqXeXrXeX6XeX9XrX",
").).).c.Z.F.L.4Xl.3.lXF.).).).).).).).F.@X^.Z vX).).).).).).!.).).).).).).).A.Z.F.).*XQ.A vX).).).).).).)./.P.).*Xc jX@XF.).).).!.).).).Y.).",
").).`._.Z.).).`. .#.eX`.`.).).).).).).).`.8.B eX_.).`.).).).).).).).).).).).{.S.F.{.).<.B eX_.).).).).).).).).).D.v -X@X).).).).).).`.`.).).",
").).).`.`._.`.K./ B.eX).).).`.).).).).{.!.-.Q rX_.)._.`.).).).).).).).).).).)._._.{.K.-.*.eX).).).).).)._.).{.).;.Y 5X@X).`.`.].).).).)._.P.",
").).).).).).).H.) i.eX`.`.).).)._.).).`.K.( E eX[.).)._.).).).).).).).).).).).).).`.K.( E tX_.`.).).).).).)._.P.;.I 0X*X).{.`.).).).).).).).",
").).6.).q.8.8._ % h 3X5X).).).0.F.A.6.9.+.1 r `.eX[.).`.Z.S.F.6.8.6.8.).).q.K.S.6.9.%.1 r {.0X`.).).0.F.H.7.8.:.8 : Y.eX@X).).S.Z.P.6.6.8.8.",
"v T P T q 0 L 6 $ @ y C b Y E U T n 0 n s & & r V T Y Y Y Y T L v K , b T P Y v 0 n s $ : y C 9 T E P Y ! 0 v K $ + > z / Y T Y Y E L q K , "
};
